<?xml version="1.0" encoding="utf-8"?>
<!-- Generator: Adobe Illustrator 22.1.0, SVG Export Plug-In . SVG Version: 6.00 Build 0)  -->
<svg version="1.1" id="Capa_1" xmlns="http://www.w3.org/2000/svg" xmlns:xlink="http://www.w3.org/1999/xlink" x="0px" y="0px"
	 viewBox="0 0 940 202" style="enable-background:new 0 0 940 202;" xml:space="preserve">
<style type="text/css">
	.st0{enable-background:new    ;}
	.st1{fill:#FFFFFF;}
</style>
<g class="st0">
	<path class="st1" d="M5.6,89.5c-0.1-0.2-0.2-0.4-0.1-0.7l27.3-74.4c0.1-0.4,0.3-0.7,0.6-0.9c0.2-0.2,0.6-0.3,1.1-0.3h3.4
		c1,0,1.6,0.3,1.9,1l27,74.4c0.1,0.3,0.1,0.5-0.1,0.7c-0.2,0.2-0.4,0.3-0.8,0.3h-2.5c-0.7,0-1.1-0.3-1.3-0.8l-8.3-23
		c-0.1-0.3-0.2-0.5-0.3-0.6c-0.1-0.1-0.4-0.2-0.7-0.2H19.5c-0.5,0-0.8,0.2-1,0.7L9.9,89c-0.1,0.3-0.2,0.5-0.4,0.6
		c-0.2,0.1-0.4,0.2-0.8,0.2H6.2C5.9,89.7,5.7,89.6,5.6,89.5z M50.9,61.1c0.7,0,0.9-0.3,0.7-1L36.9,19.9c-0.3-0.7-0.5-1-0.8-1
		c-0.2,0-0.5,0.4-0.8,1.1L20.4,60.3c-0.2,0.6,0,0.8,0.5,0.8H50.9z"/>
	<path class="st1" d="M115.3,19.1c-3.2-1.6-6.9-2.5-11.2-2.5c-5.6,0-10.2,1.4-13.6,4.1c-3.5,2.7-5.2,6.6-5.2,11.7
		c0,1.3,0.3,2.8,0.8,4.5c0.5,1.7,1.7,3.4,3.6,5.1c1.8,1.7,4.5,3.2,8.2,4.6l14.2,5.2c6.1,2.2,10.4,4.9,12.9,8
		c2.5,3.2,3.7,6.9,3.7,11.2c0,4.2-1,7.8-3,10.7c-2,3-4.9,5.2-8.7,6.7c-3.7,1.5-8.2,2.3-13.4,2.3c-3.8,0-7.2-0.5-10.4-1.4
		c-3.1-0.9-5.9-2.3-8.4-4.2c-2.5-1.9-4.7-4.2-6.8-7.1c-0.3-0.3-0.4-0.7-0.3-1c0.1-0.3,0.4-0.7,0.9-1l1.1-0.8c0.5-0.3,1-0.5,1.2-0.5
		c0.3,0,0.5,0.2,0.8,0.5c1.9,2.5,3.8,4.5,5.8,6.2c1.9,1.7,4.1,2.9,6.6,3.8c2.5,0.8,5.6,1.2,9.3,1.2c6.1,0,11-1.2,14.8-3.5
		c3.7-2.3,5.6-6.2,5.6-11.7c0-2.1-0.4-3.9-1.1-5.6c-0.7-1.6-2-3.2-4-4.7c-1.9-1.5-4.8-2.9-8.5-4.4l-15.6-6c-3.7-1.4-6.6-3.1-8.7-5.1
		s-3.5-4.1-4.3-6.3c-0.8-2.3-1.2-4.5-1.2-6.7c0-4.3,1-8,3-11c2-3,4.8-5.3,8.4-6.8c3.6-1.6,7.7-2.4,12.5-2.4c3.2,0,6.1,0.4,8.8,1.2
		c2.6,0.8,5,1.9,7.3,3.4c2.3,1.5,4.4,3.2,6.3,5.3c0.2,0.2,0.3,0.4,0.4,0.7c0.1,0.2-0.1,0.5-0.4,0.8l-2.3,2.1
		c-0.3,0.2-0.5,0.3-0.6,0.2c-0.1-0.1-0.4-0.3-0.7-0.7C121,22.7,118.4,20.7,115.3,19.1z"/>
	<path class="st1" d="M178.4,19.1c-3.2-1.6-6.9-2.5-11.2-2.5c-5.6,0-10.2,1.4-13.6,4.1c-3.5,2.7-5.2,6.6-5.2,11.7
		c0,1.3,0.3,2.8,0.8,4.5c0.5,1.7,1.7,3.4,3.6,5.1c1.8,1.7,4.5,3.2,8.2,4.6l14.2,5.2c6.1,2.2,10.4,4.9,12.9,8
		c2.5,3.2,3.7,6.9,3.7,11.2c0,4.2-1,7.8-3,10.7c-2,3-4.9,5.2-8.7,6.7c-3.7,1.5-8.2,2.3-13.4,2.3c-3.8,0-7.2-0.5-10.4-1.4
		c-3.1-0.9-5.9-2.3-8.4-4.2c-2.5-1.9-4.7-4.2-6.8-7.1c-0.3-0.3-0.4-0.7-0.3-1c0.1-0.3,0.4-0.7,0.9-1l1.1-0.8c0.5-0.3,1-0.5,1.2-0.5
		c0.3,0,0.5,0.2,0.8,0.5c1.9,2.5,3.8,4.5,5.8,6.2c1.9,1.7,4.1,2.9,6.6,3.8c2.5,0.8,5.6,1.2,9.3,1.2c6.1,0,11-1.2,14.8-3.5
		c3.7-2.3,5.6-6.2,5.6-11.7c0-2.1-0.4-3.9-1.1-5.6c-0.7-1.6-2-3.2-4-4.7c-1.9-1.5-4.8-2.9-8.5-4.4l-15.6-6c-3.7-1.4-6.6-3.1-8.7-5.1
		s-3.5-4.1-4.3-6.3c-0.8-2.3-1.2-4.5-1.2-6.7c0-4.3,1-8,3-11c2-3,4.8-5.3,8.4-6.8c3.6-1.6,7.7-2.4,12.5-2.4c3.2,0,6.1,0.4,8.8,1.2
		c2.6,0.8,5,1.9,7.3,3.4c2.3,1.5,4.4,3.2,6.3,5.3c0.2,0.2,0.3,0.4,0.4,0.7c0.1,0.2-0.1,0.5-0.4,0.8l-2.3,2.1
		c-0.3,0.2-0.5,0.3-0.6,0.2c-0.1-0.1-0.4-0.3-0.7-0.7C184.2,22.7,181.6,20.7,178.4,19.1z"/>
	<path class="st1" d="M211.6,13.3h42.7c0.5,0,0.7,0.2,0.7,0.7v2.7c0,0.5-0.3,0.7-0.8,0.7h-37.9c-0.6,0-0.9,0.3-0.9,0.9v30
		c0,0.5,0.3,0.7,0.9,0.7h29.8c0.5,0,0.7,0.2,0.7,0.7v2.7c0,0.3-0.1,0.5-0.2,0.6c-0.1,0.1-0.3,0.2-0.7,0.2h-29.7
		c-0.6,0-0.9,0.3-0.9,0.9v30.6c0,0.6,0.3,0.9,0.9,0.9h39.4c0.5,0,0.8,0.2,0.8,0.7V89c0,0.3-0.1,0.5-0.2,0.6
		c-0.1,0.1-0.3,0.2-0.6,0.2h-44.3c-0.6,0-0.9-0.3-0.9-1V14.3C210.6,13.6,210.9,13.3,211.6,13.3z"/>
	<path class="st1" d="M267.3,14c0-0.3,0.1-0.5,0.2-0.6s0.3-0.2,0.6-0.2h53c0.3,0,0.5,0.1,0.6,0.2s0.2,0.3,0.2,0.6v2.7
		c0,0.5-0.3,0.7-0.8,0.7H299c-0.7,0-1,0.3-1,0.9v70.3c0,0.7-0.3,1-0.9,1h-2.8c-0.7,0-1-0.3-1-1V18.3c0-0.6-0.3-0.9-1-0.9h-24.1
		c-0.6,0-0.8-0.2-0.8-0.7V14z"/>
</g>
<g class="st0">
	<path class="st1" d="M14.6,114.3c1.1,0,2.4,0,3.9,0.1c1.4,0,2.8,0.1,4,0.1c1.2,0,1.9,0,2.2,0c9.6,0.1,17.3,1.5,23.2,4.2
		c5.8,2.7,10.1,6.8,12.7,12.3c2.6,5.5,4,12.4,4,20.8c0,9.1-1.5,16.5-4.4,22.2c-3,5.8-7.5,10-13.6,12.7c-6.1,2.7-13.9,4.1-23.3,4.1
		H12.7c-0.6,0-0.9-0.3-0.9-1v-74.4c0-0.3,0.1-0.6,0.3-0.8c0.2-0.2,0.4-0.3,0.8-0.3C12.8,114.3,13.4,114.3,14.6,114.3z M16.5,120
		v65.7c0,0.6,0.4,0.9,1.1,0.9h5.2c8.9,0,16-1.1,21.4-3.3c5.4-2.2,9.3-5.9,11.7-10.9c2.4-5,3.7-11.6,3.7-19.9c0-9-1.3-15.9-4-20.9
		c-2.6-4.9-6.7-8.3-12.1-10.2c-5.4-1.9-12.2-2.9-20.5-2.9h-5.5C16.8,118.5,16.5,119,16.5,120z"/>
	<path class="st1" d="M85.6,114.3h42.7c0.5,0,0.7,0.2,0.7,0.7v2.7c0,0.5-0.3,0.7-0.8,0.7H90.3c-0.6,0-0.9,0.3-0.9,0.9v30
		c0,0.5,0.3,0.7,0.9,0.7h29.8c0.5,0,0.7,0.2,0.7,0.7v2.7c0,0.3-0.1,0.5-0.2,0.6c-0.1,0.1-0.3,0.2-0.7,0.2H90.3
		c-0.6,0-0.9,0.3-0.9,0.9v30.6c0,0.6,0.3,0.9,0.9,0.9h39.4c0.5,0,0.8,0.2,0.8,0.7v2.7c0,0.3-0.1,0.5-0.2,0.6
		c-0.1,0.1-0.3,0.2-0.6,0.2H85.6c-0.6,0-0.9-0.3-0.9-1v-74.4C84.7,114.6,85,114.3,85.6,114.3z"/>
	<path class="st1" d="M202.1,114.5c0.1,0.2,0.1,0.4,0,0.7l-27,74.4c-0.3,0.8-0.8,1.1-1.6,1.1h-3.3c-1.1,0-1.8-0.3-2-1l-26.3-74.4
		c-0.1-0.3,0-0.6,0.1-0.8c0.1-0.2,0.4-0.3,0.7-0.3h2.4c0.7,0,1.1,0.3,1.3,0.8l24.4,69c0.5,1.4,1.1,1.4,1.6-0.1l25.1-69
		c0.2-0.5,0.6-0.7,1.1-0.7h2.6C201.7,114.3,201.9,114.4,202.1,114.5z"/>
	<path class="st1" d="M220.7,114.3h42.7c0.5,0,0.7,0.2,0.7,0.7v2.7c0,0.5-0.3,0.7-0.8,0.7h-37.9c-0.6,0-0.9,0.3-0.9,0.9v30
		c0,0.5,0.3,0.7,0.9,0.7h29.8c0.5,0,0.7,0.2,0.7,0.7v2.7c0,0.3-0.1,0.5-0.2,0.6c-0.1,0.1-0.3,0.2-0.7,0.2h-29.7
		c-0.6,0-0.9,0.3-0.9,0.9v30.6c0,0.6,0.3,0.9,0.9,0.9h39.4c0.5,0,0.8,0.2,0.8,0.7v2.7c0,0.3-0.1,0.5-0.2,0.6
		c-0.1,0.1-0.3,0.2-0.6,0.2h-44.3c-0.6,0-0.9-0.3-0.9-1v-74.4C219.8,114.6,220.1,114.3,220.7,114.3z"/>
	<path class="st1" d="M284.3,114.3h2.9c0.6,0,0.9,0.3,0.9,1v70.3c0,0.6,0.3,0.9,0.9,0.9h37.4c0.5,0,0.8,0.2,0.8,0.7v2.7
		c0,0.3-0.1,0.5-0.2,0.6c-0.1,0.1-0.3,0.2-0.6,0.2h-42.2c-0.3,0-0.6-0.1-0.7-0.3c-0.1-0.2-0.2-0.4-0.2-0.8v-74.4
		C283.4,114.6,283.7,114.3,284.3,114.3z"/>
	<path class="st1" d="M347.8,187.3c-4.6-3-8.2-7.3-10.7-13.1c-2.5-5.8-3.7-12.9-3.7-21.3c0-8.6,1.3-15.8,3.8-21.7
		c2.5-5.9,6.1-10.4,10.7-13.4c4.6-3,10.2-4.5,16.6-4.5c6.5,0,12,1.5,16.6,4.5c4.6,3,8.1,7.5,10.6,13.3c2.5,5.8,3.7,13,3.7,21.6
		c0,8.4-1.2,15.6-3.7,21.4c-2.5,5.8-6,10.2-10.7,13.2c-4.6,3-10.2,4.5-16.6,4.5C358,191.7,352.4,190.3,347.8,187.3z M383.9,178.8
		c4.4-5.7,6.5-14.4,6.5-26.1c0-11.8-2.2-20.6-6.6-26.4c-4.4-5.8-10.9-8.7-19.3-8.7c-8.5,0-15,2.9-19.5,8.8
		c-4.5,5.8-6.7,14.6-6.7,26.4c0,11.6,2.2,20.3,6.7,26.1c4.5,5.8,11,8.7,19.5,8.7C373.1,187.4,379.6,184.6,383.9,178.8z"/>
	<path class="st1" d="M463.4,148c-2.3,3.2-5.5,5.5-9.5,6.9c-4,1.4-8.6,2.2-13.9,2.2h-18.8c-0.6,0-0.8,0.3-0.8,0.9v31.8
		c0,0.6-0.3,0.9-0.8,0.9h-3.1c-0.3,0-0.5-0.1-0.6-0.2c-0.1-0.1-0.2-0.3-0.2-0.6v-74.6c0-0.7,0.3-1,0.9-1h22.9
		c5.4,0,10.1,0.7,14.2,2.1c4.1,1.4,7.3,3.7,9.7,6.8c2.3,3.1,3.5,7.3,3.5,12.4C466.9,140.7,465.7,144.8,463.4,148z M459.2,125.2
		c-1.8-2.5-4.4-4.2-7.8-5.3c-3.4-1-7.4-1.5-12.1-1.5h-18c-0.6,0-0.9,0.3-0.9,0.8v32.7c0,0.7,0.2,1,0.7,1h19c6.6,0,11.9-1.4,15.9-4.1
		c4-2.7,6-7.2,6-13.5C462,131,461,127.7,459.2,125.2z"/>
	<path class="st1" d="M485.6,189.7v-74.4c0-0.7,0.3-1,0.9-1h2.7c0.4,0,0.7,0.1,0.9,0.2s0.3,0.3,0.4,0.7l27.5,69c0.3,0.7,0.5,1,0.8,1
		c0.3,0,0.5-0.4,0.8-1.1l27.9-69c0.2-0.5,0.6-0.7,1.1-0.7h3c0.6,0,0.9,0.3,0.9,1v74.4c0,0.7-0.3,1-0.9,1H549c-0.3,0-0.6-0.1-0.8-0.2
		c-0.2-0.1-0.3-0.4-0.3-0.7v-63.7c0-0.3,0-0.4-0.1-0.3c-0.1,0.1-0.1,0.2-0.2,0.3L522,189.6c-0.3,0.8-0.8,1.1-1.6,1.1h-2.8
		c-1,0-1.7-0.3-2-1l-25.1-63c-0.1-0.1-0.1-0.2-0.2-0.3c-0.1,0-0.1,0.1-0.1,0.3v63.1c0,0.3-0.1,0.5-0.3,0.7c-0.2,0.2-0.4,0.3-0.8,0.3
		h-2.6C486,190.7,485.6,190.4,485.6,189.7z"/>
	<path class="st1" d="M577.6,114.3h42.7c0.5,0,0.7,0.2,0.7,0.7v2.7c0,0.5-0.3,0.7-0.8,0.7h-37.9c-0.6,0-0.9,0.3-0.9,0.9v30
		c0,0.5,0.3,0.7,0.9,0.7h29.8c0.5,0,0.7,0.2,0.7,0.7v2.7c0,0.3-0.1,0.5-0.2,0.6c-0.1,0.1-0.3,0.2-0.7,0.2h-29.7
		c-0.6,0-0.9,0.3-0.9,0.9v30.6c0,0.6,0.3,0.9,0.9,0.9h39.4c0.5,0,0.8,0.2,0.8,0.7v2.7c0,0.3-0.1,0.5-0.2,0.6
		c-0.1,0.1-0.3,0.2-0.6,0.2h-44.3c-0.6,0-0.9-0.3-0.9-1v-74.4C576.7,114.6,577,114.3,577.6,114.3z"/>
	<path class="st1" d="M693.6,114.3c0.6,0,0.9,0.3,0.9,1v74.4c0,0.3-0.1,0.6-0.2,0.8c-0.1,0.2-0.4,0.3-0.7,0.3h-1.5
		c-0.4,0-0.8,0-1.1-0.1c-0.3,0-0.6-0.2-0.9-0.6l-44.1-65c-0.3-0.5-0.6-0.8-0.9-0.7c-0.2,0.1-0.4,0.3-0.4,0.7v64.7
		c0,0.6-0.3,0.9-1,0.9h-2.6c-0.6,0-0.9-0.3-0.9-1v-74.4c0-0.7,0.3-1,0.9-1h1.9c0.4,0,0.7,0,0.9,0.1c0.2,0.1,0.4,0.3,0.6,0.6l44,64.9
		c0.3,0.5,0.7,0.6,1,0.5c0.3-0.2,0.5-0.4,0.5-0.7v-64.5c0-0.6,0.3-0.9,0.8-0.9H693.6z"/>
	<path class="st1" d="M711.6,115c0-0.3,0.1-0.5,0.2-0.6c0.1-0.1,0.3-0.2,0.6-0.2h53c0.3,0,0.5,0.1,0.6,0.2c0.1,0.1,0.2,0.3,0.2,0.6
		v2.7c0,0.5-0.3,0.7-0.8,0.7h-21.9c-0.7,0-1,0.3-1,0.9v70.3c0,0.7-0.3,1-0.9,1h-2.8c-0.7,0-1-0.3-1-1v-70.3c0-0.6-0.3-0.9-1-0.9
		h-24.1c-0.6,0-0.8-0.2-0.8-0.7V115z"/>
</g>
</svg>
