<?xml version="1.0" encoding="utf-8"?>
<!-- Generator: Adobe Illustrator 22.1.0, SVG Export Plug-In . SVG Version: 6.00 Build 0)  -->
<svg version="1.1" id="Capa_1" xmlns="http://www.w3.org/2000/svg" xmlns:xlink="http://www.w3.org/1999/xlink" x="0px" y="0px"
	 viewBox="0 0 940 202" style="enable-background:new 0 0 940 202;" xml:space="preserve">
<style type="text/css">
	.st0{fill:#FFFFFF;}
</style>
<g>
	<path class="st0" d="M4.8,14c0-0.3,0.1-0.5,0.2-0.6s0.3-0.2,0.6-0.2h53c0.3,0,0.5,0.1,0.6,0.2s0.2,0.3,0.2,0.6v2.7
		c0,0.5-0.3,0.7-0.8,0.7H36.6c-0.7,0-1,0.3-1,0.9v70.3c0,0.7-0.3,1-0.9,1h-2.8c-0.7,0-1-0.3-1-1V18.3c0-0.6-0.3-0.9-1-0.9H5.7
		c-0.6,0-0.8-0.2-0.8-0.7V14z"/>
	<path class="st0" d="M126.3,89.2c-0.2,0.3-0.4,0.5-0.8,0.5h-2.9c-0.5,0-0.9-0.3-1.2-0.9l-14.6-34.6c-0.3-0.7-1-1-2.2-1H82.4
		c-0.5,0-0.8,0.1-1,0.3c-0.2,0.2-0.3,0.5-0.3,0.8v34.3c0,0.8-0.3,1.1-1,1.1h-2.7c-0.4,0-0.7-0.1-0.8-0.3c-0.1-0.2-0.2-0.4-0.2-0.7
		V14.3c0-0.7,0.3-1,0.9-1h26.6c7.4,0,13.2,1.6,17.3,4.7c4.1,3.2,6.2,7.9,6.2,14.2c0,4.2-0.8,7.6-2.4,10.4c-1.6,2.7-3.6,4.8-6,6.3
		c-2.4,1.5-4.8,2.5-7.2,3.1c-0.4,0.1-0.6,0.3-0.4,0.7l15,35.5C126.5,88.6,126.5,88.9,126.3,89.2z M116.9,45.3
		c3.7-2.5,5.6-6.6,5.6-12.4c0-5.3-1.5-9.2-4.6-11.7c-3.1-2.5-7.8-3.8-14-3.8H82.3c-0.8,0-1.1,0.3-1.1,0.8v29.9
		c0,0.6,0.2,0.9,0.7,0.9h18.4C107.7,49,113.2,47.8,116.9,45.3z"/>
	<path class="st0" d="M138.6,89.5c-0.1-0.2-0.2-0.4-0.1-0.7l27.3-74.4c0.1-0.4,0.3-0.7,0.6-0.9c0.2-0.2,0.6-0.3,1.1-0.3h3.4
		c1,0,1.6,0.3,1.9,1l27,74.4c0.1,0.3,0.1,0.5-0.1,0.7c-0.2,0.2-0.4,0.3-0.8,0.3h-2.5c-0.7,0-1.1-0.3-1.3-0.8l-8.3-23
		c-0.1-0.3-0.2-0.5-0.3-0.6c-0.1-0.1-0.4-0.2-0.7-0.2h-33.2c-0.5,0-0.8,0.2-1,0.7L143,89c-0.1,0.3-0.2,0.5-0.4,0.6
		c-0.2,0.1-0.4,0.2-0.8,0.2h-2.6C139,89.7,138.8,89.6,138.6,89.5z M184,61.1c0.7,0,0.9-0.3,0.7-1l-14.7-40.2c-0.3-0.7-0.5-1-0.8-1
		c-0.2,0-0.5,0.4-0.8,1.1l-14.9,40.3c-0.2,0.6,0,0.8,0.5,0.8H184z"/>
	<path class="st0" d="M270.8,13.3c0.6,0,0.9,0.3,0.9,1v74.4c0,0.3-0.1,0.6-0.2,0.8c-0.1,0.2-0.4,0.3-0.7,0.3h-1.5
		c-0.4,0-0.8,0-1.1-0.1c-0.3,0-0.6-0.2-0.9-0.6l-44.1-65c-0.3-0.5-0.6-0.8-0.9-0.7c-0.2,0.1-0.4,0.3-0.4,0.7v64.7
		c0,0.6-0.3,0.9-1,0.9h-2.6c-0.6,0-0.9-0.3-0.9-1V14.3c0-0.7,0.3-1,0.9-1h1.9c0.4,0,0.7,0,0.9,0.1c0.2,0.1,0.4,0.3,0.6,0.6l44,64.9
		c0.3,0.5,0.7,0.6,1,0.5c0.3-0.2,0.5-0.4,0.5-0.7V14.2c0-0.6,0.3-0.9,0.8-0.9H270.8z"/>
	<path class="st0" d="M327.6,19.1c-3.2-1.6-6.9-2.5-11.2-2.5c-5.6,0-10.2,1.4-13.6,4.1c-3.5,2.7-5.2,6.6-5.2,11.7
		c0,1.3,0.3,2.8,0.8,4.5c0.5,1.7,1.7,3.4,3.6,5.1c1.8,1.7,4.5,3.2,8.2,4.6l14.2,5.2c6.1,2.2,10.4,4.9,12.9,8
		c2.5,3.2,3.7,6.9,3.7,11.2c0,4.2-1,7.8-3,10.7c-2,3-4.9,5.2-8.7,6.7c-3.7,1.5-8.2,2.3-13.4,2.3c-3.8,0-7.2-0.5-10.4-1.4
		c-3.1-0.9-5.9-2.3-8.4-4.2c-2.5-1.9-4.7-4.2-6.8-7.1c-0.3-0.3-0.4-0.7-0.3-1c0.1-0.3,0.4-0.7,0.9-1l1.1-0.8c0.5-0.3,1-0.5,1.2-0.5
		c0.3,0,0.5,0.2,0.8,0.5c1.9,2.5,3.8,4.5,5.8,6.2c1.9,1.7,4.1,2.9,6.6,3.8c2.5,0.8,5.6,1.2,9.3,1.2c6.1,0,11-1.2,14.8-3.5
		c3.7-2.3,5.6-6.2,5.6-11.7c0-2.1-0.4-3.9-1.1-5.6c-0.7-1.6-2-3.2-4-4.7c-1.9-1.5-4.8-2.9-8.5-4.4l-15.6-6c-3.7-1.4-6.6-3.1-8.7-5.1
		s-3.5-4.1-4.3-6.3c-0.8-2.3-1.2-4.5-1.2-6.7c0-4.3,1-8,3-11c2-3,4.8-5.3,8.4-6.8c3.6-1.6,7.7-2.4,12.5-2.4c3.2,0,6.1,0.4,8.8,1.2
		c2.6,0.8,5,1.9,7.3,3.4c2.3,1.5,4.4,3.2,6.3,5.3c0.2,0.2,0.3,0.4,0.4,0.7c0.1,0.2-0.1,0.5-0.4,0.8l-2.3,2.1
		c-0.3,0.2-0.5,0.3-0.6,0.2c-0.1-0.1-0.4-0.3-0.7-0.7C333.4,22.7,330.8,20.7,327.6,19.1z"/>
	<path class="st0" d="M360.8,13.3h41.7c0.5,0,0.7,0.2,0.7,0.7v2.7c0,0.5-0.3,0.7-0.8,0.7h-36.9c-0.6,0-0.9,0.3-0.9,0.9v31.3
		c0,0.5,0.3,0.7,0.9,0.7h30.8c0.5,0,0.7,0.2,0.7,0.7v2.7c0,0.5-0.3,0.7-0.8,0.7h-30.7c-0.6,0-0.9,0.3-0.9,0.9V89
		c0,0.5-0.2,0.7-0.7,0.7h-3.1c-0.3,0-0.6-0.1-0.7-0.2c-0.1-0.1-0.2-0.4-0.2-0.8V14.3C359.9,13.6,360.2,13.3,360.8,13.3z"/>
	<path class="st0" d="M429,86.3c-4.6-3-8.2-7.3-10.7-13.1c-2.5-5.8-3.7-12.9-3.7-21.3c0-8.6,1.3-15.8,3.8-21.7
		c2.5-5.9,6.1-10.4,10.7-13.4c4.6-3,10.2-4.5,16.6-4.5c6.5,0,12,1.5,16.6,4.5c4.6,3,8.1,7.5,10.6,13.3c2.5,5.8,3.7,13,3.7,21.6
		c0,8.4-1.2,15.6-3.7,21.4c-2.5,5.8-6,10.2-10.7,13.2c-4.6,3-10.2,4.5-16.6,4.5C439.2,90.7,433.7,89.3,429,86.3z M465.2,77.8
		c4.4-5.7,6.5-14.4,6.5-26.1c0-11.8-2.2-20.6-6.6-26.4c-4.4-5.8-10.9-8.7-19.3-8.7c-8.5,0-15,2.9-19.5,8.8
		c-4.5,5.8-6.7,14.6-6.7,26.4c0,11.6,2.2,20.3,6.7,26.1c4.5,5.8,11,8.7,19.5,8.7C454.4,86.4,460.8,83.6,465.2,77.8z"/>
	<path class="st0" d="M546.9,89.2c-0.2,0.3-0.4,0.5-0.8,0.5h-2.9c-0.5,0-0.9-0.3-1.2-0.9l-14.6-34.6c-0.3-0.7-1-1-2.2-1h-22.2
		c-0.5,0-0.8,0.1-1,0.3c-0.2,0.2-0.3,0.5-0.3,0.8v34.3c0,0.8-0.3,1.1-1,1.1H498c-0.4,0-0.7-0.1-0.8-0.3c-0.1-0.2-0.2-0.4-0.2-0.7
		V14.3c0-0.7,0.3-1,0.9-1h26.6c7.4,0,13.2,1.6,17.3,4.7c4.1,3.2,6.2,7.9,6.2,14.2c0,4.2-0.8,7.6-2.4,10.4c-1.6,2.7-3.6,4.8-6,6.3
		c-2.4,1.5-4.8,2.5-7.2,3.1c-0.4,0.1-0.6,0.3-0.4,0.7l15,35.5C547.1,88.6,547,88.9,546.9,89.2z M537.5,45.3
		c3.7-2.5,5.6-6.6,5.6-12.4c0-5.3-1.5-9.2-4.6-11.7c-3.1-2.5-7.8-3.8-14-3.8h-21.5c-0.8,0-1.1,0.3-1.1,0.8v29.9
		c0,0.6,0.2,0.9,0.7,0.9h18.4C528.2,49,533.7,47.8,537.5,45.3z"/>
	<path class="st0" d="M567.4,88.7V14.3c0-0.7,0.3-1,0.9-1h2.7c0.4,0,0.7,0.1,0.9,0.2s0.3,0.3,0.4,0.7l27.5,69c0.3,0.7,0.5,1,0.8,1
		c0.3,0,0.5-0.4,0.8-1.1l27.9-69c0.2-0.5,0.6-0.7,1.1-0.7h3c0.6,0,0.9,0.3,0.9,1v74.4c0,0.7-0.3,1-0.9,1h-2.8
		c-0.3,0-0.6-0.1-0.8-0.2c-0.2-0.1-0.3-0.4-0.3-0.7V25.1c0-0.3,0-0.4-0.1-0.3c-0.1,0.1-0.1,0.2-0.2,0.3l-25.6,63.4
		c-0.3,0.8-0.8,1.1-1.6,1.1h-2.8c-1,0-1.7-0.3-2-1l-25.1-63c-0.1-0.1-0.1-0.2-0.2-0.3c-0.1,0-0.1,0.1-0.1,0.3v63.1
		c0,0.3-0.1,0.5-0.3,0.7c-0.2,0.2-0.4,0.3-0.8,0.3h-2.6C567.7,89.7,567.4,89.4,567.4,88.7z"/>
	<path class="st0" d="M652.3,89.5c-0.1-0.2-0.2-0.4-0.1-0.7l27.3-74.4c0.1-0.4,0.3-0.7,0.6-0.9c0.2-0.2,0.6-0.3,1.1-0.3h3.4
		c1,0,1.6,0.3,1.9,1l27,74.4c0.1,0.3,0.1,0.5-0.1,0.7c-0.2,0.2-0.4,0.3-0.8,0.3h-2.5c-0.7,0-1.1-0.3-1.3-0.8l-8.3-23
		c-0.1-0.3-0.2-0.5-0.3-0.6c-0.1-0.1-0.4-0.2-0.7-0.2h-33.2c-0.5,0-0.8,0.2-1,0.7L656.6,89c-0.1,0.3-0.2,0.5-0.4,0.6
		c-0.2,0.1-0.4,0.2-0.8,0.2h-2.6C652.6,89.7,652.4,89.6,652.3,89.5z M697.6,61.1c0.7,0,0.9-0.3,0.7-1l-14.7-40.2
		c-0.3-0.7-0.5-1-0.8-1c-0.2,0-0.5,0.4-0.8,1.1l-14.9,40.3c-0.2,0.6,0,0.8,0.5,0.8H697.6z"/>
	<path class="st0" d="M713.9,14c0-0.3,0.1-0.5,0.2-0.6c0.1-0.1,0.3-0.2,0.6-0.2h53c0.3,0,0.5,0.1,0.6,0.2c0.1,0.1,0.2,0.3,0.2,0.6
		v2.7c0,0.5-0.3,0.7-0.8,0.7h-21.9c-0.7,0-1,0.3-1,0.9v70.3c0,0.7-0.3,1-0.9,1h-2.8c-0.7,0-1-0.3-1-1V18.3c0-0.6-0.3-0.9-1-0.9
		h-24.1c-0.6,0-0.8-0.2-0.8-0.7V14z"/>
	<path class="st0" d="M789.3,13.3c0.6,0,0.9,0.3,0.9,1v74.2c0,0.5-0.1,0.8-0.2,1c-0.1,0.2-0.5,0.3-1,0.3h-2.4
		c-0.5,0-0.8-0.1-0.9-0.2c-0.1-0.1-0.2-0.4-0.2-0.8V14.3c0-0.7,0.3-1,0.9-1H789.3z"/>
	<path class="st0" d="M868.1,13.5c0.1,0.2,0.1,0.4,0,0.7l-27,74.4c-0.3,0.8-0.8,1.1-1.6,1.1h-3.3c-1.1,0-1.8-0.3-2-1l-26.3-74.4
		c-0.1-0.3,0-0.6,0.1-0.8c0.1-0.2,0.4-0.3,0.7-0.3h2.4c0.7,0,1.1,0.3,1.3,0.8l24.4,69c0.5,1.4,1.1,1.4,1.6-0.1l25.1-69
		c0.2-0.5,0.6-0.7,1.1-0.7h2.6C867.7,13.3,867.9,13.4,868.1,13.5z"/>
	<path class="st0" d="M886.7,13.3h42.7c0.5,0,0.7,0.2,0.7,0.7v2.7c0,0.5-0.3,0.7-0.8,0.7h-37.9c-0.6,0-0.9,0.3-0.9,0.9v30
		c0,0.5,0.3,0.7,0.9,0.7h29.8c0.5,0,0.7,0.2,0.7,0.7v2.7c0,0.3-0.1,0.5-0.2,0.6c-0.1,0.1-0.3,0.2-0.7,0.2h-29.7
		c-0.6,0-0.9,0.3-0.9,0.9v30.6c0,0.6,0.3,0.9,0.9,0.9h39.4c0.5,0,0.8,0.2,0.8,0.7V89c0,0.3-0.1,0.5-0.2,0.6
		c-0.1,0.1-0.3,0.2-0.6,0.2h-44.3c-0.6,0-0.9-0.3-0.9-1V14.3C885.8,13.6,886.1,13.3,886.7,13.3z"/>
	<path class="st0" d="M12.7,114.3h42.7c0.5,0,0.7,0.2,0.7,0.7v2.7c0,0.5-0.3,0.7-0.8,0.7H17.4c-0.6,0-0.9,0.3-0.9,0.9v30
		c0,0.5,0.3,0.7,0.9,0.7h29.8c0.5,0,0.7,0.2,0.7,0.7v2.7c0,0.3-0.1,0.5-0.2,0.6c-0.1,0.1-0.3,0.2-0.7,0.2H17.4
		c-0.6,0-0.9,0.3-0.9,0.9v30.6c0,0.6,0.3,0.9,0.9,0.9h39.4c0.5,0,0.8,0.2,0.8,0.7v2.7c0,0.3-0.1,0.5-0.2,0.6
		c-0.1,0.1-0.3,0.2-0.6,0.2H12.7c-0.6,0-0.9-0.3-0.9-1v-74.4C11.7,114.6,12.1,114.3,12.7,114.3z"/>
	<path class="st0" d="M107.3,114.9c3,1.1,5.7,2.6,8.1,4.5c2.4,1.9,4.4,4,6,6.4c1.6,2.4,2.5,4.9,2.8,7.6c0.1,0.3,0.1,0.5,0,0.6
		c-0.1,0.1-0.2,0.2-0.5,0.2l-3.7,0.4c-0.2,0.1-0.4,0-0.5-0.1c-0.1-0.1-0.2-0.3-0.3-0.6c-1.2-4.9-3.7-8.8-7.5-11.8s-8.3-4.5-13.5-4.5
		c-8.4,0-14.8,3-19.2,9c-4.4,6-6.6,14.7-6.6,26.2c0,11.1,2.2,19.6,6.6,25.6c4.4,6,11.1,9,20,9c5.4,0,9.8-1.3,13.3-3.9
		c3.5-2.6,6.3-6.6,8.3-12c0.1-0.2,0.3-0.3,0.6-0.2l3.5,1c0.1,0.1,0.2,0.2,0.3,0.3c0,0.1,0,0.3-0.1,0.5c-0.7,2.3-1.6,4.4-2.9,6.3
		c-1.2,1.9-2.7,3.6-4.3,5.2c-1.6,1.5-3.5,2.8-5.5,3.9c-2,1.1-4.2,1.9-6.5,2.5c-2.3,0.5-4.7,0.8-7.2,0.8c-6.6,0-12.2-1.5-16.9-4.6
		c-4.7-3.1-8.2-7.5-10.7-13.3c-2.4-5.8-3.7-12.8-3.7-21.1c0-8.3,1.2-15.4,3.7-21.3c2.4-5.9,5.9-10.4,10.5-13.5
		c4.6-3.1,10-4.7,16.4-4.7C101.2,113.3,104.3,113.8,107.3,114.9z"/>
	<path class="st0" d="M153.9,187.3c-4.6-3-8.2-7.3-10.7-13.1c-2.5-5.8-3.7-12.9-3.7-21.3c0-8.6,1.3-15.8,3.8-21.7
		c2.5-5.9,6.1-10.4,10.7-13.4c4.6-3,10.2-4.5,16.6-4.5c6.5,0,12,1.5,16.6,4.5c4.6,3,8.1,7.5,10.6,13.3c2.5,5.8,3.7,13,3.7,21.6
		c0,8.4-1.2,15.6-3.7,21.4c-2.5,5.8-6,10.2-10.7,13.2c-4.6,3-10.2,4.5-16.6,4.5C164.1,191.7,158.6,190.3,153.9,187.3z M190.1,178.8
		c4.4-5.7,6.5-14.4,6.5-26.1c0-11.8-2.2-20.6-6.6-26.4c-4.4-5.8-10.9-8.7-19.3-8.7c-8.5,0-15,2.9-19.5,8.8
		c-4.5,5.8-6.7,14.6-6.7,26.4c0,11.6,2.2,20.3,6.7,26.1c4.5,5.8,11,8.7,19.5,8.7C179.3,187.4,185.7,184.6,190.1,178.8z"/>
	<path class="st0" d="M275.2,114.3c0.6,0,0.9,0.3,0.9,1v74.4c0,0.3-0.1,0.6-0.2,0.8c-0.1,0.2-0.4,0.3-0.7,0.3h-1.5
		c-0.4,0-0.8,0-1.1-0.1c-0.3,0-0.6-0.2-0.9-0.6l-44.1-65c-0.3-0.5-0.6-0.8-0.9-0.7c-0.2,0.1-0.4,0.3-0.4,0.7v64.7
		c0,0.6-0.3,0.9-1,0.9h-2.6c-0.6,0-0.9-0.3-0.9-1v-74.4c0-0.7,0.3-1,0.9-1h1.9c0.4,0,0.7,0,0.9,0.1c0.2,0.1,0.4,0.3,0.6,0.6l44,64.9
		c0.3,0.5,0.7,0.6,1,0.5c0.3-0.2,0.5-0.4,0.5-0.7v-64.5c0-0.6,0.3-0.9,0.8-0.9H275.2z"/>
	<path class="st0" d="M310.8,187.3c-4.6-3-8.2-7.3-10.7-13.1c-2.5-5.8-3.7-12.9-3.7-21.3c0-8.6,1.3-15.8,3.8-21.7
		c2.5-5.9,6.1-10.4,10.7-13.4c4.6-3,10.2-4.5,16.6-4.5c6.5,0,12,1.5,16.6,4.5c4.6,3,8.1,7.5,10.6,13.3c2.5,5.8,3.7,13,3.7,21.6
		c0,8.4-1.2,15.6-3.7,21.4c-2.5,5.8-6,10.2-10.7,13.2c-4.6,3-10.2,4.5-16.6,4.5C321,191.7,315.4,190.3,310.8,187.3z M347,178.8
		c4.4-5.7,6.5-14.4,6.5-26.1c0-11.8-2.2-20.6-6.6-26.4c-4.4-5.8-10.9-8.7-19.3-8.7c-8.5,0-15,2.9-19.5,8.8
		c-4.5,5.8-6.7,14.6-6.7,26.4c0,11.6,2.2,20.3,6.7,26.1c4.5,5.8,11,8.7,19.5,8.7C336.2,187.4,342.6,184.6,347,178.8z"/>
	<path class="st0" d="M378.7,189.7v-74.4c0-0.7,0.3-1,0.9-1h2.7c0.4,0,0.7,0.1,0.9,0.2s0.3,0.3,0.4,0.7l27.5,69c0.3,0.7,0.5,1,0.8,1
		c0.3,0,0.5-0.4,0.8-1.1l27.9-69c0.2-0.5,0.6-0.7,1.1-0.7h3c0.6,0,0.9,0.3,0.9,1v74.4c0,0.7-0.3,1-0.9,1h-2.8
		c-0.3,0-0.6-0.1-0.8-0.2c-0.2-0.1-0.3-0.4-0.3-0.7v-63.7c0-0.3,0-0.4-0.1-0.3c-0.1,0.1-0.1,0.2-0.2,0.3l-25.6,63.4
		c-0.3,0.8-0.8,1.1-1.6,1.1h-2.8c-1,0-1.7-0.3-2-1l-25.1-63c-0.1-0.1-0.1-0.2-0.2-0.3c-0.1,0-0.1,0.1-0.1,0.3v63.1
		c0,0.3-0.1,0.5-0.3,0.7c-0.2,0.2-0.4,0.3-0.8,0.3h-2.6C379,190.7,378.7,190.4,378.7,189.7z"/>
	<path class="st0" d="M473.6,114.3c0.6,0,0.9,0.3,0.9,1v74.2c0,0.5-0.1,0.8-0.2,1c-0.1,0.2-0.5,0.3-1,0.3h-2.4
		c-0.5,0-0.8-0.1-0.9-0.2c-0.1-0.1-0.2-0.4-0.2-0.8v-74.4c0-0.7,0.3-1,0.9-1H473.6z"/>
	<path class="st0" d="M534.6,114.9c3,1.1,5.7,2.6,8.1,4.5c2.4,1.9,4.4,4,6,6.4c1.6,2.4,2.5,4.9,2.8,7.6c0.1,0.3,0.1,0.5,0,0.6
		c-0.1,0.1-0.2,0.2-0.5,0.2l-3.7,0.4c-0.2,0.1-0.4,0-0.5-0.1c-0.1-0.1-0.2-0.3-0.3-0.6c-1.2-4.9-3.7-8.8-7.5-11.8
		c-3.8-3-8.3-4.5-13.5-4.5c-8.4,0-14.8,3-19.2,9c-4.4,6-6.6,14.7-6.6,26.2c0,11.1,2.2,19.6,6.6,25.6c4.4,6,11.1,9,20,9
		c5.4,0,9.8-1.3,13.3-3.9c3.5-2.6,6.3-6.6,8.3-12c0.1-0.2,0.3-0.3,0.6-0.2l3.5,1c0.1,0.1,0.2,0.2,0.3,0.3c0,0.1,0,0.3-0.1,0.5
		c-0.7,2.3-1.6,4.4-2.9,6.3c-1.2,1.9-2.7,3.6-4.3,5.2c-1.6,1.5-3.5,2.8-5.5,3.9c-2,1.1-4.2,1.9-6.5,2.5c-2.3,0.5-4.7,0.8-7.2,0.8
		c-6.6,0-12.2-1.5-16.9-4.6c-4.7-3.1-8.2-7.5-10.7-13.3c-2.4-5.8-3.7-12.8-3.7-21.1c0-8.3,1.2-15.4,3.7-21.3
		c2.4-5.9,5.9-10.4,10.5-13.5c4.6-3.1,10-4.7,16.4-4.7C528.6,113.3,531.6,113.8,534.6,114.9z"/>
	<path class="st0" d="M602.5,120.1c-3.2-1.6-6.9-2.5-11.2-2.5c-5.6,0-10.2,1.4-13.6,4.1c-3.5,2.7-5.2,6.6-5.2,11.7
		c0,1.3,0.3,2.8,0.8,4.5c0.5,1.7,1.7,3.4,3.6,5.1c1.8,1.7,4.5,3.2,8.2,4.6l14.2,5.2c6.1,2.2,10.4,4.9,12.9,8
		c2.5,3.2,3.7,6.9,3.7,11.2c0,4.2-1,7.8-3,10.7c-2,3-4.9,5.2-8.7,6.7c-3.7,1.5-8.2,2.3-13.4,2.3c-3.8,0-7.2-0.5-10.4-1.4
		c-3.1-0.9-5.9-2.3-8.4-4.2c-2.5-1.9-4.7-4.2-6.8-7.1c-0.3-0.3-0.4-0.7-0.3-1c0.1-0.3,0.4-0.7,0.9-1l1.1-0.8c0.5-0.3,1-0.5,1.2-0.5
		s0.5,0.2,0.8,0.5c1.9,2.5,3.8,4.5,5.8,6.2c1.9,1.7,4.1,2.9,6.6,3.8c2.5,0.8,5.6,1.2,9.3,1.2c6.1,0,11-1.2,14.8-3.5
		c3.7-2.3,5.6-6.2,5.6-11.7c0-2.1-0.4-3.9-1.1-5.6c-0.7-1.6-2-3.2-4-4.7c-1.9-1.5-4.8-2.9-8.5-4.4l-15.6-6c-3.7-1.4-6.6-3.1-8.7-5.1
		c-2.1-2-3.5-4.1-4.3-6.3c-0.8-2.3-1.2-4.5-1.2-6.7c0-4.3,1-8,3-11c2-3,4.8-5.3,8.4-6.8c3.6-1.6,7.7-2.4,12.5-2.4
		c3.2,0,6.1,0.4,8.8,1.2c2.6,0.8,5,1.9,7.3,3.4c2.3,1.5,4.4,3.2,6.3,5.3c0.2,0.2,0.3,0.4,0.4,0.7c0.1,0.2-0.1,0.5-0.4,0.8l-2.3,2.1
		c-0.3,0.2-0.5,0.3-0.6,0.2c-0.1-0.1-0.4-0.3-0.7-0.7C608.3,123.7,605.7,121.7,602.5,120.1z"/>
</g>
</svg>
