<?xml version="1.0" encoding="utf-8"?>
<!-- Generator: Adobe Illustrator 22.1.0, SVG Export Plug-In . SVG Version: 6.00 Build 0)  -->
<svg version="1.1" id="Capa_1" xmlns="http://www.w3.org/2000/svg" xmlns:xlink="http://www.w3.org/1999/xlink" x="0px" y="0px"
	 viewBox="0 0 940 202" style="enable-background:new 0 0 940 202;" xml:space="preserve">
<style type="text/css">
	.st0{fill:#FFFFFF;}
</style>
<g>
	<g>
		<path class="st0" d="M15.7,13.4c0.6,0,0.9,0.3,0.9,1v74.9c0,0.5-0.1,0.8-0.2,1c-0.1,0.2-0.5,0.3-1,0.3H13c-0.5,0-0.8-0.1-0.9-0.2
			c-0.1-0.1-0.2-0.4-0.2-0.8V14.5c0-0.7,0.3-1,0.9-1H15.7z"/>
		<path class="st0" d="M40.4,89.5V14.5c0-0.7,0.3-1,0.9-1H44c0.4,0,0.7,0.1,0.9,0.2c0.2,0.1,0.3,0.3,0.4,0.7l27.8,69.7
			c0.3,0.7,0.6,1,0.8,1c0.3,0,0.6-0.4,0.8-1.1L103,14.1c0.2-0.5,0.6-0.7,1.1-0.7h3c0.6,0,0.9,0.3,0.9,1v75.1c0,0.7-0.3,1-0.9,1h-2.8
			c-0.3,0-0.6-0.1-0.8-0.2c-0.2-0.1-0.3-0.4-0.3-0.7V25.4c0-0.3,0-0.4-0.1-0.3c-0.1,0.1-0.1,0.2-0.2,0.3L77.1,89.4
			c-0.3,0.8-0.8,1.1-1.7,1.1h-2.8c-1,0-1.7-0.3-2-1L45.2,25.9c-0.1-0.1-0.1-0.2-0.2-0.3c-0.1,0-0.1,0.1-0.1,0.3v63.8
			c0,0.3-0.1,0.5-0.3,0.7c-0.2,0.2-0.4,0.3-0.8,0.3h-2.6C40.7,90.6,40.4,90.2,40.4,89.5z"/>
		<path class="st0" d="M180,47.4c-2.3,3.2-5.5,5.5-9.6,7c-4.1,1.5-8.7,2.2-14,2.2h-19c-0.6,0-0.8,0.3-0.8,0.9v32.1
			c0,0.6-0.3,0.9-0.8,0.9h-3.1c-0.3,0-0.5-0.1-0.6-0.2c-0.1-0.1-0.2-0.3-0.2-0.6V14.5c0-0.7,0.3-1,0.9-1h23.1
			c5.4,0,10.2,0.7,14.4,2.1c4.2,1.4,7.4,3.7,9.8,6.9c2.4,3.2,3.5,7.3,3.5,12.5C183.5,40.1,182.3,44.2,180,47.4z M175.7,24.4
			c-1.8-2.5-4.5-4.3-7.9-5.3c-3.4-1-7.5-1.6-12.2-1.6h-18.2c-0.6,0-0.9,0.3-0.9,0.8v33c0,0.7,0.2,1,0.7,1h19.1c6.7,0,12-1.4,16-4.1
			c4-2.7,6-7.3,6-13.7C178.5,30.3,177.5,26.9,175.7,24.4z"/>
		<path class="st0" d="M187.3,90.3c-0.1-0.2-0.2-0.4-0.1-0.7l27.6-75.1c0.1-0.4,0.3-0.7,0.6-0.9c0.2-0.2,0.6-0.3,1.1-0.3h3.4
			c1,0,1.7,0.3,1.9,1L249,89.5c0.1,0.3,0.1,0.5-0.1,0.7c-0.2,0.2-0.4,0.3-0.8,0.3h-2.5c-0.7,0-1.1-0.3-1.4-0.8l-8.4-23.2
			c-0.1-0.3-0.2-0.5-0.3-0.6c-0.1-0.1-0.4-0.2-0.7-0.2h-33.5c-0.5,0-0.8,0.2-1,0.7l-8.6,23.3c-0.1,0.3-0.2,0.5-0.4,0.6
			c-0.2,0.1-0.4,0.2-0.8,0.2h-2.6C187.6,90.6,187.4,90.5,187.3,90.3z M233.1,61.7c0.7,0,0.9-0.3,0.7-1l-14.9-40.6
			c-0.3-0.7-0.5-1-0.8-1c-0.2,0-0.5,0.4-0.8,1.1l-15.1,40.7c-0.2,0.6,0,0.8,0.5,0.8H233.1z"/>
		<path class="st0" d="M298.6,14c3,1.1,5.8,2.6,8.2,4.5c2.5,1.9,4.5,4.1,6.1,6.5c1.6,2.4,2.5,5,2.8,7.7c0.1,0.3,0.1,0.5,0,0.6
			c-0.1,0.1-0.2,0.2-0.5,0.2l-3.7,0.4c-0.2,0.1-0.4,0-0.5-0.1c-0.1-0.1-0.2-0.3-0.3-0.6c-1.2-4.9-3.7-8.9-7.5-11.9
			c-3.8-3-8.4-4.5-13.7-4.5c-8.5,0-14.9,3-19.4,9.1c-4.5,6.1-6.7,14.9-6.7,26.5c0,11.2,2.2,19.8,6.7,25.8c4.5,6.1,11.2,9.1,20.2,9.1
			c5.4,0,9.9-1.3,13.4-3.9c3.5-2.6,6.3-6.6,8.4-12.1c0.1-0.2,0.3-0.3,0.6-0.2l3.5,1c0.1,0.1,0.2,0.2,0.3,0.3c0,0.1,0,0.3-0.1,0.5
			c-0.7,2.3-1.7,4.4-2.9,6.3c-1.2,1.9-2.7,3.7-4.4,5.2c-1.7,1.5-3.5,2.8-5.6,4c-2,1.1-4.2,1.9-6.6,2.5c-2.3,0.6-4.7,0.8-7.2,0.8
			c-6.7,0-12.3-1.5-17.1-4.6c-4.7-3.1-8.3-7.6-10.8-13.4c-2.5-5.9-3.7-12.9-3.7-21.3c0-8.4,1.2-15.6,3.7-21.5
			c2.5-6,6-10.5,10.6-13.7c4.6-3.2,10.1-4.7,16.6-4.7C292.5,12.4,295.6,12.9,298.6,14z"/>
		<path class="st0" d="M326.5,14.1c0-0.3,0.1-0.5,0.2-0.6c0.1-0.1,0.3-0.2,0.6-0.2h53.6c0.3,0,0.5,0.1,0.6,0.2
			c0.1,0.1,0.2,0.3,0.2,0.6v2.7c0,0.5-0.3,0.7-0.8,0.7h-22.2c-0.7,0-1,0.3-1,0.9v71c0,0.7-0.3,1-0.9,1h-2.8c-0.7,0-1-0.3-1-1v-71
			c0-0.6-0.3-0.9-1-0.9h-24.3c-0.6,0-0.8-0.2-0.8-0.7V14.1z"/>
		<path class="st0" d="M15.7,115.4c0.6,0,0.9,0.3,0.9,1v74.9c0,0.5-0.1,0.8-0.2,1c-0.1,0.2-0.5,0.3-1,0.3H13c-0.5,0-0.8-0.1-0.9-0.2
			c-0.1-0.1-0.2-0.4-0.2-0.8v-75.1c0-0.7,0.3-1,0.9-1H15.7z"/>
		<path class="st0" d="M94.2,115.4c0.6,0,0.9,0.3,0.9,1v75.1c0,0.3-0.1,0.6-0.2,0.8c-0.1,0.2-0.4,0.3-0.7,0.3h-1.6
			c-0.4,0-0.8,0-1.1-0.1c-0.3,0-0.6-0.2-0.9-0.6l-44.5-65.6c-0.3-0.6-0.6-0.8-0.9-0.7c-0.2,0.1-0.4,0.3-0.4,0.7v65.3
			c0,0.6-0.3,0.9-1,0.9h-2.6c-0.6,0-0.9-0.3-0.9-1v-75.1c0-0.7,0.3-1,0.9-1h1.9c0.4,0,0.7,0,0.9,0.1c0.2,0.1,0.4,0.3,0.6,0.6
			l44.4,65.5c0.3,0.5,0.7,0.6,1,0.5c0.3-0.2,0.5-0.4,0.5-0.7v-65.1c0-0.6,0.3-0.9,0.8-0.9H94.2z"/>
		<path class="st0" d="M173.3,115.7c0.1,0.2,0.1,0.4,0,0.7L146,191.4c-0.3,0.8-0.8,1.1-1.7,1.1H141c-1.1,0-1.8-0.3-2-1l-26.5-75.1
			c-0.1-0.3,0-0.6,0.1-0.8c0.1-0.2,0.4-0.3,0.7-0.3h2.4c0.7,0,1.1,0.3,1.4,0.8l24.6,69.7c0.6,1.5,1.1,1.4,1.7-0.1l25.4-69.7
			c0.2-0.5,0.6-0.7,1.1-0.7h2.6C172.9,115.4,173.1,115.5,173.3,115.7z"/>
		<path class="st0" d="M191.6,115.4h43.2c0.5,0,0.7,0.2,0.7,0.7v2.7c0,0.5-0.3,0.7-0.8,0.7h-38.3c-0.6,0-0.9,0.3-0.9,0.9v30.3
			c0,0.5,0.3,0.7,0.9,0.7h30.1c0.5,0,0.7,0.2,0.7,0.7v2.7c0,0.3-0.1,0.5-0.2,0.6c-0.1,0.1-0.3,0.2-0.7,0.2h-30
			c-0.6,0-0.9,0.3-0.9,0.9v30.9c0,0.6,0.3,0.9,0.9,0.9h39.8c0.6,0,0.8,0.2,0.8,0.7v2.7c0,0.3-0.1,0.5-0.2,0.6
			c-0.1,0.1-0.3,0.2-0.6,0.2h-44.7c-0.6,0-0.9-0.3-0.9-1v-75.1C190.6,115.8,190.9,115.4,191.6,115.4z"/>
		<path class="st0" d="M286.5,121.2c-3.2-1.7-7-2.5-11.3-2.5c-5.7,0-10.3,1.4-13.8,4.1c-3.5,2.7-5.3,6.7-5.3,11.8
			c0,1.3,0.3,2.8,0.8,4.6c0.6,1.7,1.8,3.4,3.6,5.1c1.8,1.7,4.6,3.2,8.3,4.6l14.4,5.2c6.2,2.2,10.5,4.9,13,8.1
			c2.5,3.2,3.7,7,3.7,11.3c0,4.2-1,7.8-3.1,10.8c-2,3-5,5.3-8.7,6.8c-3.8,1.6-8.3,2.3-13.6,2.3c-3.8,0-7.3-0.5-10.5-1.4
			c-3.2-0.9-6-2.3-8.5-4.2s-4.8-4.3-6.9-7.2c-0.3-0.3-0.4-0.7-0.3-1c0.1-0.3,0.4-0.7,0.9-1l1.1-0.8c0.6-0.3,1-0.5,1.2-0.5
			c0.3,0,0.6,0.2,0.8,0.5c1.9,2.5,3.9,4.6,5.8,6.3c1.9,1.7,4.2,3,6.7,3.8c2.5,0.8,5.7,1.2,9.4,1.2c6.2,0,11.1-1.2,14.9-3.5
			c3.8-2.4,5.7-6.3,5.7-11.9c0-2.1-0.4-4-1.1-5.6c-0.7-1.7-2.1-3.2-4-4.7c-1.9-1.5-4.8-3-8.6-4.4l-15.7-6c-3.7-1.5-6.7-3.2-8.7-5.1
			s-3.5-4.1-4.4-6.4c-0.8-2.3-1.2-4.5-1.2-6.8c0-4.4,1-8.1,3.1-11.1c2-3,4.9-5.3,8.5-6.9c3.6-1.6,7.8-2.4,12.6-2.4
			c3.3,0,6.2,0.4,8.8,1.2c2.6,0.8,5.1,1.9,7.4,3.4c2.3,1.5,4.4,3.3,6.3,5.4c0.2,0.2,0.3,0.4,0.4,0.7c0.1,0.2-0.1,0.5-0.4,0.8
			l-2.3,2.1c-0.3,0.2-0.5,0.3-0.6,0.2c-0.1-0.1-0.4-0.3-0.7-0.7C292.3,125,289.7,122.9,286.5,121.2z"/>
		<path class="st0" d="M310.5,116.1c0-0.3,0.1-0.5,0.2-0.6c0.1-0.1,0.3-0.2,0.6-0.2h53.6c0.3,0,0.5,0.1,0.6,0.2
			c0.1,0.1,0.2,0.3,0.2,0.6v2.7c0,0.5-0.3,0.7-0.8,0.7h-22.2c-0.7,0-1,0.3-1,0.9v71c0,0.7-0.3,1-0.9,1h-2.8c-0.7,0-1-0.3-1-1v-71
			c0-0.6-0.3-0.9-1-0.9h-24.3c-0.6,0-0.8-0.2-0.8-0.7V116.1z"/>
		<path class="st0" d="M382.3,191.5v-75.1c0-0.7,0.3-1,0.9-1h2.7c0.4,0,0.7,0.1,0.9,0.2c0.2,0.1,0.3,0.3,0.4,0.7l27.8,69.7
			c0.3,0.7,0.6,1,0.8,1c0.3,0,0.6-0.4,0.8-1.1l28.2-69.7c0.2-0.5,0.6-0.7,1.1-0.7h3c0.6,0,0.9,0.3,0.9,1v75.1c0,0.7-0.3,1-0.9,1
			h-2.8c-0.3,0-0.6-0.1-0.8-0.2c-0.2-0.1-0.3-0.4-0.3-0.7v-64.3c0-0.3,0-0.4-0.1-0.3c-0.1,0.1-0.1,0.2-0.2,0.3L419,191.4
			c-0.3,0.8-0.8,1.1-1.7,1.1h-2.8c-1,0-1.7-0.3-2-1l-25.4-63.6c-0.1-0.1-0.1-0.2-0.2-0.3c-0.1,0-0.1,0.1-0.1,0.3v63.8
			c0,0.3-0.1,0.5-0.3,0.7c-0.2,0.2-0.4,0.3-0.8,0.3h-2.6C382.6,192.6,382.3,192.2,382.3,191.5z"/>
		<path class="st0" d="M474.7,115.4h43.2c0.5,0,0.7,0.2,0.7,0.7v2.7c0,0.5-0.3,0.7-0.8,0.7h-38.3c-0.6,0-0.9,0.3-0.9,0.9v30.3
			c0,0.5,0.3,0.7,0.9,0.7h30.1c0.5,0,0.7,0.2,0.7,0.7v2.7c0,0.3-0.1,0.5-0.2,0.6c-0.1,0.1-0.3,0.2-0.7,0.2h-30
			c-0.6,0-0.9,0.3-0.9,0.9v30.9c0,0.6,0.3,0.9,0.9,0.9h39.8c0.6,0,0.8,0.2,0.8,0.7v2.7c0,0.3-0.1,0.5-0.2,0.6
			c-0.1,0.1-0.3,0.2-0.6,0.2h-44.7c-0.6,0-0.9-0.3-0.9-1v-75.1C473.7,115.8,474,115.4,474.7,115.4z"/>
		<path class="st0" d="M591.2,115.4c0.6,0,0.9,0.3,0.9,1v75.1c0,0.3-0.1,0.6-0.2,0.8c-0.1,0.2-0.4,0.3-0.7,0.3h-1.6
			c-0.4,0-0.8,0-1.1-0.1c-0.3,0-0.6-0.2-0.9-0.6l-44.5-65.6c-0.3-0.6-0.6-0.8-0.9-0.7c-0.2,0.1-0.4,0.3-0.4,0.7v65.3
			c0,0.6-0.3,0.9-1,0.9h-2.6c-0.6,0-0.9-0.3-0.9-1v-75.1c0-0.7,0.3-1,0.9-1h1.9c0.4,0,0.7,0,0.9,0.1c0.2,0.1,0.4,0.3,0.6,0.6
			l44.4,65.5c0.3,0.5,0.7,0.6,1,0.5c0.3-0.2,0.5-0.4,0.5-0.7v-65.1c0-0.6,0.3-0.9,0.8-0.9H591.2z"/>
		<path class="st0" d="M608.9,116.1c0-0.3,0.1-0.5,0.2-0.6c0.1-0.1,0.3-0.2,0.6-0.2h53.6c0.3,0,0.5,0.1,0.6,0.2
			c0.1,0.1,0.2,0.3,0.2,0.6v2.7c0,0.5-0.3,0.7-0.8,0.7h-22.2c-0.7,0-1,0.3-1,0.9v71c0,0.7-0.3,1-0.9,1h-2.8c-0.7,0-1-0.3-1-1v-71
			c0-0.6-0.3-0.9-1-0.9h-24.3c-0.6,0-0.8-0.2-0.8-0.7V116.1z"/>
	</g>
</g>
</svg>
