<?xml version="1.0" encoding="utf-8"?>
<!-- Generator: Adobe Illustrator 22.1.0, SVG Export Plug-In . SVG Version: 6.00 Build 0)  -->
<svg version="1.1" id="Capa_1" xmlns="http://www.w3.org/2000/svg" xmlns:xlink="http://www.w3.org/1999/xlink" x="0px" y="0px"
	 viewBox="0 0 940 307" style="enable-background:new 0 0 940 307;" xml:space="preserve">
<style type="text/css">
	.st0{enable-background:new    ;}
	.st1{fill:#FFFFFF;}
</style>
<g class="st0">
	<path class="st1" d="M15.7,13.4c0.6,0,0.9,0.3,0.9,1v74.9c0,0.5-0.1,0.8-0.2,1c-0.1,0.2-0.5,0.3-1,0.3H13c-0.5,0-0.8-0.1-0.9-0.2
		c-0.1-0.1-0.2-0.4-0.2-0.8V14.5c0-0.7,0.3-1,0.9-1H15.7z"/>
	<path class="st1" d="M94.2,13.4c0.6,0,0.9,0.3,0.9,1v75.1c0,0.3-0.1,0.6-0.2,0.8c-0.1,0.2-0.4,0.3-0.7,0.3h-1.6
		c-0.4,0-0.8,0-1.1-0.1c-0.3,0-0.6-0.2-0.9-0.6L46.2,24.3c-0.3-0.6-0.6-0.8-0.9-0.7c-0.2,0.1-0.4,0.3-0.4,0.7v65.3
		c0,0.6-0.3,0.9-1,0.9h-2.6c-0.6,0-0.9-0.3-0.9-1V14.5c0-0.7,0.3-1,0.9-1h1.9c0.4,0,0.7,0,0.9,0.1c0.2,0.1,0.4,0.3,0.6,0.6
		l44.4,65.5c0.3,0.5,0.7,0.6,1,0.5c0.3-0.2,0.5-0.4,0.5-0.7V14.4c0-0.6,0.3-0.9,0.8-0.9H94.2z"/>
	<path class="st1" d="M172.7,13.4c0.6,0,0.9,0.3,0.9,1v75.1c0,0.3-0.1,0.6-0.2,0.8c-0.1,0.2-0.4,0.3-0.7,0.3h-1.6
		c-0.4,0-0.8,0-1.1-0.1c-0.3,0-0.6-0.2-0.9-0.6l-44.5-65.6c-0.3-0.6-0.6-0.8-0.9-0.7c-0.2,0.1-0.4,0.3-0.4,0.7v65.3
		c0,0.6-0.3,0.9-1,0.9h-2.6c-0.6,0-0.9-0.3-0.9-1V14.5c0-0.7,0.3-1,0.9-1h1.9c0.4,0,0.7,0,0.9,0.1c0.2,0.1,0.4,0.3,0.6,0.6
		l44.4,65.5c0.3,0.5,0.7,0.6,1,0.5c0.3-0.2,0.5-0.4,0.5-0.7V14.4c0-0.6,0.3-0.9,0.8-0.9H172.7z"/>
	<path class="st1" d="M208.2,87.2c-4.7-3-8.3-7.4-10.8-13.2c-2.5-5.8-3.7-13-3.7-21.5c0-8.7,1.3-16,3.8-21.9
		c2.5-6,6.1-10.5,10.8-13.5c4.7-3,10.3-4.6,16.8-4.6c6.5,0,12.1,1.5,16.7,4.6c4.6,3.1,8.2,7.5,10.7,13.4c2.5,5.9,3.7,13.2,3.7,21.8
		c0,8.5-1.2,15.7-3.7,21.6c-2.5,5.9-6.1,10.3-10.8,13.3c-4.7,3-10.3,4.5-16.8,4.5C218.4,91.6,212.8,90.1,208.2,87.2z M244.7,78.6
		c4.4-5.8,6.6-14.6,6.6-26.4c0-11.9-2.2-20.8-6.7-26.7c-4.5-5.9-11-8.8-19.5-8.8c-8.6,0-15.1,2.9-19.7,8.8
		c-4.5,5.9-6.8,14.8-6.8,26.6c0,11.7,2.3,20.5,6.8,26.3c4.5,5.8,11.1,8.7,19.7,8.7C233.8,87.3,240.3,84.4,244.7,78.6z"/>
	<path class="st1" d="M326.5,13.7c0.1,0.2,0.1,0.4,0,0.7l-27.2,75.1c-0.3,0.8-0.8,1.1-1.7,1.1h-3.3c-1.1,0-1.8-0.3-2-1l-26.5-75.1
		c-0.1-0.3,0-0.6,0.1-0.8c0.1-0.2,0.4-0.3,0.7-0.3h2.4c0.7,0,1.1,0.3,1.4,0.8l24.6,69.7c0.6,1.5,1.1,1.4,1.7-0.1L322,14.1
		c0.2-0.5,0.6-0.7,1.1-0.7h2.6C326.1,13.4,326.3,13.5,326.5,13.7z"/>
	<path class="st1" d="M330.3,90.3c-0.1-0.2-0.2-0.4-0.1-0.7l27.6-75.1c0.1-0.4,0.3-0.7,0.6-0.9c0.2-0.2,0.6-0.3,1.1-0.3h3.4
		c1,0,1.7,0.3,1.9,1L392,89.5c0.1,0.3,0.1,0.5-0.1,0.7c-0.2,0.2-0.4,0.3-0.8,0.3h-2.5c-0.7,0-1.1-0.3-1.4-0.8l-8.4-23.2
		c-0.1-0.3-0.2-0.5-0.3-0.6c-0.1-0.1-0.4-0.2-0.7-0.2h-33.5c-0.5,0-0.8,0.2-1,0.7l-8.6,23.3c-0.1,0.3-0.2,0.5-0.4,0.6
		c-0.2,0.1-0.4,0.2-0.8,0.2h-2.6C330.6,90.6,330.4,90.5,330.3,90.3z M376.1,61.7c0.7,0,0.9-0.3,0.7-1l-14.9-40.6
		c-0.3-0.7-0.5-1-0.8-1c-0.2,0-0.5,0.4-0.8,1.1l-15.1,40.7c-0.2,0.6,0,0.8,0.5,0.8H376.1z"/>
	<path class="st1" d="M392,14.1c0-0.3,0.1-0.5,0.2-0.6c0.1-0.1,0.3-0.2,0.6-0.2h53.6c0.3,0,0.5,0.1,0.6,0.2c0.1,0.1,0.2,0.3,0.2,0.6
		v2.7c0,0.5-0.3,0.7-0.8,0.7H424c-0.7,0-1,0.3-1,0.9v71c0,0.7-0.3,1-0.9,1h-2.8c-0.7,0-1-0.3-1-1v-71c0-0.6-0.3-0.9-1-0.9h-24.3
		c-0.6,0-0.8-0.2-0.8-0.7V14.1z"/>
	<path class="st1" d="M467.6,13.4c0.6,0,0.9,0.3,0.9,1v74.9c0,0.5-0.1,0.8-0.2,1c-0.1,0.2-0.5,0.3-1,0.3h-2.4
		c-0.5,0-0.8-0.1-0.9-0.2c-0.1-0.1-0.2-0.4-0.2-0.8V14.5c0-0.7,0.3-1,0.9-1H467.6z"/>
	<path class="st1" d="M503,87.2c-4.7-3-8.3-7.4-10.8-13.2c-2.5-5.8-3.7-13-3.7-21.5c0-8.7,1.3-16,3.8-21.9c2.5-6,6.1-10.5,10.8-13.5
		c4.7-3,10.3-4.6,16.8-4.6c6.5,0,12.1,1.5,16.7,4.6c4.6,3.1,8.2,7.5,10.7,13.4c2.5,5.9,3.7,13.2,3.7,21.8c0,8.5-1.2,15.7-3.7,21.6
		c-2.5,5.9-6.1,10.3-10.8,13.3c-4.7,3-10.3,4.5-16.8,4.5C513.3,91.6,507.7,90.1,503,87.2z M539.5,78.6c4.4-5.8,6.6-14.6,6.6-26.4
		c0-11.9-2.2-20.8-6.7-26.7c-4.5-5.9-11-8.8-19.5-8.8c-8.6,0-15.2,2.9-19.7,8.8c-4.5,5.9-6.8,14.8-6.8,26.6
		c0,11.7,2.3,20.5,6.8,26.3c4.5,5.8,11.1,8.7,19.7,8.7C528.6,87.3,535.1,84.4,539.5,78.6z"/>
	<path class="st1" d="M624.9,13.4c0.6,0,0.9,0.3,0.9,1v75.1c0,0.3-0.1,0.6-0.2,0.8c-0.1,0.2-0.4,0.3-0.7,0.3h-1.6
		c-0.4,0-0.8,0-1.1-0.1c-0.3,0-0.6-0.2-0.9-0.6l-44.5-65.6c-0.3-0.6-0.6-0.8-0.9-0.7c-0.2,0.1-0.4,0.3-0.4,0.7v65.3
		c0,0.6-0.3,0.9-1,0.9H572c-0.6,0-0.9-0.3-0.9-1V14.5c0-0.7,0.3-1,0.9-1h1.9c0.4,0,0.7,0,0.9,0.1c0.2,0.1,0.4,0.3,0.6,0.6l44.4,65.5
		c0.3,0.5,0.7,0.6,1,0.5c0.3-0.2,0.5-0.4,0.5-0.7V14.4c0-0.6,0.3-0.9,0.8-0.9H624.9z"/>
	<path class="st1" d="M701.9,14c2.6,1.2,4.7,2.9,6.2,5.1c1.6,2.3,2.3,5,2.3,8.2c0,2.6-0.6,5.2-1.9,7.7c-1.3,2.5-3.4,4.9-6.3,7.2
		c-2.9,2.3-6.8,4.6-11.8,6.7c-0.5,0.2-0.7,0.4-0.8,0.6c0,0.2,0.1,0.6,0.5,1l19.6,23.3c0.3,0.3,0.6,0.5,0.7,0.5
		c0.1,0,0.4-0.2,0.9-0.6c1.5-1.4,3-3.1,4.7-5.1c1.7-2,3.3-4.2,4.9-6.4c1.6-2.3,2.9-4.4,4.1-6.4c1.2-2,2-3.7,2.4-5
		c0.2-0.6,0.7-0.8,1.4-0.5l1.8,0.7c0.2,0.1,0.4,0.2,0.5,0.4c0.1,0.2,0.2,0.4,0.1,0.6c-0.6,2.2-1.9,4.7-3.7,7.7c-1.8,3-4,6.1-6.3,9.1
		c-2.4,3.1-4.8,5.8-7.2,8.2c-0.3,0.3-0.4,0.5-0.3,0.7c0.1,0.2,0.2,0.5,0.5,0.8c1.4,1.4,3.2,2.7,5.5,3.8c2.3,1.2,4.7,2.1,7.3,2.9
		c2.6,0.7,5,1.1,7.3,1.1c0.8,0,1.2,0.3,1.2,1v1.6c0,0.6-0.1,0.9-0.3,1.1s-0.7,0.3-1.4,0.3c-2.4,0-5-0.5-8-1.4c-3-0.9-5.9-2-8.6-3.4
		c-2.8-1.4-5-2.8-6.8-4.3c-0.3-0.2-0.5-0.3-0.7-0.3c-0.2,0-0.5,0.1-0.7,0.4c-3.2,3-6.7,5.3-10.5,7c-3.8,1.7-7.8,2.5-12.1,2.5
		c-6.6,0-11.8-1.8-15.8-5.5c-3.9-3.7-5.9-8.5-5.9-14.5c0-4.1,1.1-7.9,3.4-11.3c2.3-3.5,6.2-6.9,11.6-10.3c0.7-0.4,1.1-0.8,1.1-1.1
		c0-0.3-0.3-0.8-1-1.5c-2.4-2.5-4.1-5-5.3-7.5c-1.2-2.5-1.8-5.1-1.8-7.9c0-3.7,0.9-7,2.7-9.8c1.8-2.9,4.2-5.2,7.3-6.9
		c3.1-1.7,6.6-2.5,10.5-2.5C696.4,12.3,699.3,12.9,701.9,14z M684.8,52.1c-0.4-0.1-1,0.1-1.7,0.4c-4.2,2-7.6,4.7-10,8.1
		c-2.5,3.4-3.7,7-3.7,11c0,3.1,0.8,5.8,2.3,8.2c1.5,2.3,3.6,4.1,6.2,5.5c2.6,1.3,5.6,2,8.9,2c3.5,0,7-0.7,10.3-2.2
		c3.4-1.5,6.3-3.4,8.8-5.7c0.5-0.4,0.7-0.8,0.8-1.2c0-0.4-0.1-0.8-0.5-1.2L686.1,53C685.7,52.5,685.2,52.2,684.8,52.1z M684.9,18.5
		c-2.3,1.4-4.1,3.3-5.3,5.6c-1.2,2.3-1.8,4.8-1.8,7.5c0,2.1,0.4,4,1.1,5.9c0.8,1.8,2.1,3.8,4,5.9l2.4,2.6c0.1,0.2,0.4,0.3,0.7,0.4
		c0.3,0,0.7,0,1-0.2c6.8-3.3,11.6-6.4,14.5-9.3c2.8-2.9,4.3-6.2,4.3-9.7c0-3.7-1.2-6.4-3.7-8.2c-2.5-1.8-5.4-2.7-8.8-2.7
		C690,16.3,687.2,17,684.9,18.5z"/>
	<path class="st1" d="M44.1,119.2c-3.2-1.7-7-2.5-11.3-2.5c-5.7,0-10.3,1.4-13.8,4.1c-3.5,2.7-5.3,6.7-5.3,11.8
		c0,1.3,0.3,2.8,0.8,4.6c0.6,1.7,1.8,3.4,3.6,5.1c1.8,1.7,4.6,3.2,8.3,4.6l14.4,5.2c6.2,2.2,10.5,4.9,13,8.1c2.5,3.2,3.7,7,3.7,11.3
		c0,4.2-1,7.8-3.1,10.8c-2,3-5,5.3-8.7,6.8c-3.8,1.6-8.3,2.3-13.6,2.3c-3.8,0-7.3-0.5-10.5-1.4c-3.2-0.9-6-2.3-8.5-4.2
		s-4.8-4.3-6.9-7.2c-0.3-0.3-0.4-0.7-0.3-1c0.1-0.3,0.4-0.7,0.9-1l1.1-0.8c0.6-0.3,1-0.5,1.2-0.5c0.3,0,0.6,0.2,0.8,0.5
		c1.9,2.5,3.9,4.6,5.8,6.3c1.9,1.7,4.2,3,6.7,3.8c2.5,0.8,5.7,1.2,9.4,1.2c6.2,0,11.1-1.2,14.9-3.5c3.8-2.4,5.7-6.3,5.7-11.9
		c0-2.1-0.4-4-1.1-5.6c-0.7-1.7-2.1-3.2-4-4.7c-1.9-1.5-4.8-3-8.6-4.4l-15.7-6c-3.7-1.5-6.7-3.2-8.7-5.1s-3.5-4.1-4.4-6.4
		c-0.8-2.3-1.2-4.5-1.2-6.8c0-4.4,1-8.1,3.1-11.1c2-3,4.9-5.3,8.5-6.9c3.6-1.6,7.8-2.4,12.6-2.4c3.3,0,6.2,0.4,8.8,1.2
		c2.6,0.8,5.1,1.9,7.4,3.4c2.3,1.5,4.4,3.3,6.3,5.4c0.2,0.2,0.3,0.4,0.4,0.7c0.1,0.2-0.1,0.5-0.4,0.8l-2.3,2.1
		c-0.3,0.2-0.5,0.3-0.6,0.2c-0.1-0.1-0.4-0.3-0.7-0.7C49.9,123,47.3,120.9,44.1,119.2z"/>
	<path class="st1" d="M123.7,180.5c-1.9,3.7-4.7,6.5-8.5,8.3c-3.8,1.8-8.6,2.8-14.4,2.8c-5.8,0-10.6-1-14.4-2.9
		c-3.8-1.9-6.6-4.8-8.5-8.7c-1.9-3.9-2.8-8.9-2.8-14.9v-50.5c0-0.8,0.3-1.1,0.8-1.1h2.9c0.7,0,1,0.3,1,1v52.6
		c0,6.7,1.8,11.8,5.3,15.1c3.5,3.4,8.8,5,15.9,5c4.8,0,8.8-0.8,11.9-2.3c3.2-1.5,5.5-3.8,7.1-6.8c1.6-3,2.3-6.8,2.3-11.4v-52.4
		c0-0.6,0.3-0.9,0.8-0.9h2.5c0.6,0,0.8,0.3,0.8,0.9v52.3C126.5,172.2,125.5,176.8,123.7,180.5z"/>
	<path class="st1" d="M181.4,119.2c-3.2-1.7-7-2.5-11.3-2.5c-5.7,0-10.3,1.4-13.8,4.1c-3.5,2.7-5.3,6.7-5.3,11.8
		c0,1.3,0.3,2.8,0.8,4.6c0.6,1.7,1.8,3.4,3.6,5.1c1.8,1.7,4.6,3.2,8.3,4.6l14.4,5.2c6.2,2.2,10.5,4.9,13,8.1c2.5,3.2,3.7,7,3.7,11.3
		c0,4.2-1,7.8-3.1,10.8c-2,3-5,5.3-8.7,6.8c-3.8,1.6-8.3,2.3-13.6,2.3c-3.8,0-7.3-0.5-10.5-1.4c-3.2-0.9-6-2.3-8.5-4.2
		s-4.8-4.3-6.9-7.2c-0.3-0.3-0.4-0.7-0.3-1c0.1-0.3,0.4-0.7,0.9-1l1.1-0.8c0.6-0.3,1-0.5,1.2-0.5c0.3,0,0.6,0.2,0.8,0.5
		c1.9,2.5,3.9,4.6,5.8,6.3c1.9,1.7,4.2,3,6.7,3.8c2.5,0.8,5.7,1.2,9.4,1.2c6.2,0,11.1-1.2,14.9-3.5c3.8-2.4,5.7-6.3,5.7-11.9
		c0-2.1-0.4-4-1.1-5.6c-0.7-1.7-2.1-3.2-4-4.7c-1.9-1.5-4.8-3-8.6-4.4l-15.7-6c-3.7-1.5-6.7-3.2-8.7-5.1s-3.5-4.1-4.4-6.4
		c-0.8-2.3-1.2-4.5-1.2-6.8c0-4.4,1-8.1,3.1-11.1c2-3,4.9-5.3,8.5-6.9c3.6-1.6,7.8-2.4,12.6-2.4c3.3,0,6.2,0.4,8.8,1.2
		c2.6,0.8,5.1,1.9,7.4,3.4c2.3,1.5,4.4,3.3,6.3,5.4c0.2,0.2,0.3,0.4,0.4,0.7c0.1,0.2-0.1,0.5-0.4,0.8l-2.3,2.1
		c-0.3,0.2-0.5,0.3-0.6,0.2c-0.1-0.1-0.4-0.3-0.7-0.7C187.2,123,184.6,120.9,181.4,119.2z"/>
	<path class="st1" d="M205.4,114.1c0-0.3,0.1-0.5,0.2-0.6c0.1-0.1,0.3-0.2,0.6-0.2h53.6c0.3,0,0.5,0.1,0.6,0.2
		c0.1,0.1,0.2,0.3,0.2,0.6v2.7c0,0.5-0.3,0.7-0.8,0.7h-22.2c-0.7,0-1,0.3-1,0.9v71c0,0.7-0.3,1-0.9,1h-2.8c-0.7,0-1-0.3-1-1v-71
		c0-0.6-0.3-0.9-1-0.9h-24.3c-0.6,0-0.8-0.2-0.8-0.7V114.1z"/>
	<path class="st1" d="M261.6,190.3c-0.1-0.2-0.2-0.4-0.1-0.7l27.6-75.1c0.1-0.4,0.3-0.7,0.6-0.9c0.2-0.2,0.6-0.3,1.1-0.3h3.4
		c1,0,1.7,0.3,1.9,1l27.2,75.1c0.1,0.3,0.1,0.5-0.1,0.7c-0.2,0.2-0.4,0.3-0.8,0.3h-2.5c-0.7,0-1.1-0.3-1.4-0.8l-8.4-23.2
		c-0.1-0.3-0.2-0.5-0.3-0.6c-0.1-0.1-0.4-0.2-0.7-0.2h-33.5c-0.5,0-0.8,0.2-1,0.7l-8.6,23.3c-0.1,0.3-0.2,0.5-0.4,0.6
		c-0.2,0.1-0.4,0.2-0.8,0.2h-2.6C261.9,190.6,261.7,190.5,261.6,190.3z M307.3,161.7c0.7,0,0.9-0.3,0.7-1l-14.9-40.6
		c-0.3-0.7-0.5-1-0.8-1c-0.2,0-0.5,0.4-0.8,1.1l-15.1,40.7c-0.2,0.6,0,0.8,0.5,0.8H307.3z"/>
	<path class="st1" d="M344.4,113.4c0.6,0,0.9,0.3,0.9,1v74.9c0,0.5-0.1,0.8-0.2,1c-0.1,0.2-0.5,0.3-1,0.3h-2.4
		c-0.5,0-0.8-0.1-0.9-0.2c-0.1-0.1-0.2-0.4-0.2-0.8v-75.1c0-0.7,0.3-1,0.9-1H344.4z"/>
	<path class="st1" d="M423,113.4c0.6,0,0.9,0.3,0.9,1v75.1c0,0.3-0.1,0.6-0.2,0.8c-0.1,0.2-0.4,0.3-0.7,0.3h-1.6
		c-0.4,0-0.8,0-1.1-0.1c-0.3,0-0.6-0.2-0.9-0.6l-44.5-65.6c-0.3-0.6-0.6-0.8-0.9-0.7c-0.2,0.1-0.4,0.3-0.4,0.7v65.3
		c0,0.6-0.3,0.9-1,0.9H370c-0.6,0-0.9-0.3-0.9-1v-75.1c0-0.7,0.3-1,0.9-1h1.9c0.4,0,0.7,0,0.9,0.1c0.2,0.1,0.4,0.3,0.6,0.6
		l44.4,65.5c0.3,0.5,0.7,0.6,1,0.5c0.3-0.2,0.5-0.4,0.5-0.7v-65.1c0-0.6,0.3-0.9,0.8-0.9H423z"/>
	<path class="st1" d="M441.4,190.3c-0.1-0.2-0.2-0.4-0.1-0.7l27.6-75.1c0.1-0.4,0.3-0.7,0.6-0.9c0.2-0.2,0.6-0.3,1.1-0.3h3.4
		c1,0,1.7,0.3,1.9,1l27.2,75.1c0.1,0.3,0.1,0.5-0.1,0.7c-0.2,0.2-0.4,0.3-0.8,0.3h-2.5c-0.7,0-1.1-0.3-1.4-0.8l-8.4-23.2
		c-0.1-0.3-0.2-0.5-0.3-0.6c-0.1-0.1-0.4-0.2-0.7-0.2h-33.5c-0.5,0-0.8,0.2-1,0.7l-8.6,23.3c-0.1,0.3-0.2,0.5-0.4,0.6
		c-0.2,0.1-0.4,0.2-0.8,0.2H442C441.7,190.6,441.5,190.5,441.4,190.3z M487.1,161.7c0.7,0,0.9-0.3,0.7-1L473,120.1
		c-0.3-0.7-0.5-1-0.8-1c-0.2,0-0.5,0.4-0.8,1.1l-15.1,40.7c-0.2,0.6,0,0.8,0.5,0.8H487.1z"/>
	<path class="st1" d="M520.6,190.4c-0.1-0.1-0.2-0.3-0.2-0.6v-75.3c0-0.4,0.1-0.7,0.2-0.8c0.1-0.1,0.4-0.2,0.7-0.2h21.3
		c8.7,0,15.4,1.7,20.2,5.1c4.8,3.4,7.2,8.3,7.2,14.8c0,4.4-1.1,8-3.4,11c-2.3,3-5.7,5.2-10.2,6.6c-0.3,0.1-0.4,0.2-0.4,0.5
		c0,0.2,0.1,0.4,0.4,0.5c4.7,0.9,8.5,2.9,11.3,5.9c2.8,3.1,4.2,7.2,4.2,12.4c0,6.9-2.5,12-7.6,15.4c-5.1,3.4-12.2,5.1-21.3,5.1
		h-21.7C521,190.6,520.8,190.5,520.6,190.4z M543.9,149.5c2.4,0,4.9-0.2,7.3-0.7c2.5-0.5,4.7-1.2,6.8-2.4c2.1-1.1,3.8-2.7,5-4.8
		c1.3-2,1.9-4.7,1.9-7.9c0-5.6-2-9.7-6.1-12.3c-4.1-2.6-9.6-3.9-16.6-3.9h-16.1c-0.6,0-0.9,0.3-0.9,0.8v30.1c0,0.7,0.2,1,0.7,1
		H543.9z M542.5,186.4c8.3,0,14.4-1.2,18.4-3.6c4-2.4,6-6.4,6-12.1c0-4.2-1-7.5-3-10c-2-2.5-4.8-4.3-8.2-5.4
		c-3.5-1.1-7.4-1.7-11.8-1.7h-17.6c-0.8,0-1.1,0.3-1.1,0.9v30.8c0,0.7,0.2,1,0.7,1H542.5z"/>
	<path class="st1" d="M592.5,113.4h2.9c0.6,0,0.9,0.3,0.9,1v71c0,0.6,0.3,0.9,0.9,0.9H635c0.6,0,0.8,0.2,0.8,0.7v2.7
		c0,0.3-0.1,0.5-0.2,0.6c-0.1,0.1-0.3,0.2-0.6,0.2h-42.6c-0.3,0-0.6-0.1-0.7-0.3c-0.1-0.2-0.2-0.4-0.2-0.8v-75.1
		C591.5,113.8,591.9,113.4,592.5,113.4z"/>
	<path class="st1" d="M653.5,113.4h43.2c0.5,0,0.7,0.2,0.7,0.7v2.7c0,0.5-0.3,0.7-0.8,0.7h-38.3c-0.6,0-0.9,0.3-0.9,0.9v30.3
		c0,0.5,0.3,0.7,0.9,0.7h30.1c0.5,0,0.7,0.2,0.7,0.7v2.7c0,0.3-0.1,0.5-0.2,0.6c-0.1,0.1-0.3,0.2-0.7,0.2h-30
		c-0.6,0-0.9,0.3-0.9,0.9v30.9c0,0.6,0.3,0.9,0.9,0.9h39.8c0.6,0,0.8,0.2,0.8,0.7v2.7c0,0.3-0.1,0.5-0.2,0.6
		c-0.1,0.1-0.3,0.2-0.6,0.2h-44.7c-0.6,0-0.9-0.3-0.9-1v-75.1C652.6,113.8,652.9,113.4,653.5,113.4z"/>
	<path class="st1" d="M14.7,213.4c1.1,0,2.4,0,3.9,0.1c1.5,0,2.8,0.1,4,0.1c1.2,0,2,0,2.2,0c9.7,0.1,17.5,1.5,23.4,4.3
		c5.9,2.8,10.2,6.9,12.8,12.4c2.7,5.5,4,12.5,4,21c0,9.2-1.5,16.6-4.5,22.5c-3,5.8-7.6,10.1-13.7,12.8c-6.2,2.7-14,4.1-23.5,4.1
		H12.8c-0.6,0-0.9-0.3-0.9-1v-75.1c0-0.3,0.1-0.6,0.3-0.8c0.2-0.2,0.4-0.3,0.8-0.3C13,213.4,13.6,213.4,14.7,213.4z M16.6,219.1
		v66.4c0,0.6,0.4,0.9,1.1,0.9H23c8.9,0,16.1-1.1,21.6-3.4c5.4-2.3,9.4-5.9,11.9-11c2.5-5.1,3.7-11.8,3.7-20.1c0-9.1-1.3-16.1-4-21.1
		c-2.7-5-6.7-8.4-12.2-10.3c-5.4-1.9-12.4-2.9-20.7-2.9h-5.5C17,217.7,16.6,218.2,16.6,219.1z"/>
	<path class="st1" d="M85.9,213.4h43.2c0.5,0,0.7,0.2,0.7,0.7v2.7c0,0.5-0.3,0.7-0.8,0.7H90.7c-0.6,0-0.9,0.3-0.9,0.9v30.3
		c0,0.5,0.3,0.7,0.9,0.7h30.1c0.5,0,0.7,0.2,0.7,0.7v2.7c0,0.3-0.1,0.5-0.2,0.6c-0.1,0.1-0.3,0.2-0.7,0.2h-30
		c-0.6,0-0.9,0.3-0.9,0.9v30.9c0,0.6,0.3,0.9,0.9,0.9h39.8c0.6,0,0.8,0.2,0.8,0.7v2.7c0,0.3-0.1,0.5-0.2,0.6
		c-0.1,0.1-0.3,0.2-0.6,0.2H85.9c-0.6,0-0.9-0.3-0.9-1v-75.1C85,213.8,85.3,213.4,85.9,213.4z"/>
	<path class="st1" d="M203,213.7c0.1,0.2,0.1,0.4,0,0.7l-27.2,75.1c-0.3,0.8-0.8,1.1-1.7,1.1h-3.3c-1.1,0-1.8-0.3-2-1l-26.5-75.1
		c-0.1-0.3,0-0.6,0.1-0.8c0.1-0.2,0.4-0.3,0.7-0.3h2.4c0.7,0,1.1,0.3,1.4,0.8l24.6,69.7c0.6,1.5,1.1,1.4,1.7-0.1l25.4-69.7
		c0.2-0.5,0.6-0.7,1.1-0.7h2.6C202.6,213.4,202.9,213.5,203,213.7z"/>
	<path class="st1" d="M221.3,213.4h43.2c0.5,0,0.7,0.2,0.7,0.7v2.7c0,0.5-0.3,0.7-0.8,0.7h-38.3c-0.6,0-0.9,0.3-0.9,0.9v30.3
		c0,0.5,0.3,0.7,0.9,0.7h30.1c0.5,0,0.7,0.2,0.7,0.7v2.7c0,0.3-0.1,0.5-0.2,0.6c-0.1,0.1-0.3,0.2-0.7,0.2h-30
		c-0.6,0-0.9,0.3-0.9,0.9v30.9c0,0.6,0.3,0.9,0.9,0.9h39.8c0.6,0,0.8,0.2,0.8,0.7v2.7c0,0.3-0.1,0.5-0.2,0.6
		c-0.1,0.1-0.3,0.2-0.6,0.2h-44.7c-0.6,0-0.9-0.3-0.9-1v-75.1C220.4,213.8,220.7,213.4,221.3,213.4z"/>
	<path class="st1" d="M285,213.4h2.9c0.6,0,0.9,0.3,0.9,1v71c0,0.6,0.3,0.9,0.9,0.9h37.8c0.6,0,0.8,0.2,0.8,0.7v2.7
		c0,0.3-0.1,0.5-0.2,0.6c-0.1,0.1-0.3,0.2-0.6,0.2H285c-0.3,0-0.6-0.1-0.7-0.3c-0.1-0.2-0.2-0.4-0.2-0.8v-75.1
		C284,213.8,284.3,213.4,285,213.4z"/>
	<path class="st1" d="M348.6,287.2c-4.7-3-8.3-7.4-10.8-13.2c-2.5-5.8-3.7-13-3.7-21.5c0-8.7,1.3-16,3.8-21.9
		c2.5-6,6.1-10.5,10.8-13.5c4.7-3,10.3-4.6,16.8-4.6c6.5,0,12.1,1.5,16.7,4.6c4.6,3.1,8.2,7.5,10.7,13.4c2.5,5.9,3.7,13.2,3.7,21.8
		c0,8.5-1.2,15.7-3.7,21.6c-2.5,5.9-6.1,10.3-10.8,13.3c-4.7,3-10.3,4.5-16.8,4.5C358.8,291.6,353.2,290.1,348.6,287.2z
		 M385.1,278.6c4.4-5.8,6.6-14.6,6.6-26.4c0-11.9-2.2-20.8-6.7-26.7c-4.5-5.9-11-8.8-19.5-8.8c-8.6,0-15.1,2.9-19.7,8.8
		c-4.5,5.9-6.8,14.8-6.8,26.6c0,11.7,2.3,20.5,6.8,26.3c4.5,5.8,11.1,8.7,19.7,8.7C374.2,287.3,380.7,284.4,385.1,278.6z"/>
	<path class="st1" d="M464.8,247.4c-2.3,3.2-5.5,5.5-9.6,7c-4.1,1.5-8.7,2.2-14,2.2h-19c-0.6,0-0.8,0.3-0.8,0.9v32.1
		c0,0.6-0.3,0.9-0.8,0.9h-3.1c-0.3,0-0.5-0.1-0.6-0.2c-0.1-0.1-0.2-0.3-0.2-0.6v-75.3c0-0.7,0.3-1,0.9-1h23.1
		c5.4,0,10.2,0.7,14.4,2.1c4.2,1.4,7.4,3.7,9.8,6.9c2.4,3.2,3.5,7.3,3.5,12.5C468.3,240.1,467.1,244.2,464.8,247.4z M460.6,224.4
		c-1.8-2.5-4.5-4.3-7.9-5.3c-3.4-1-7.5-1.6-12.2-1.6h-18.2c-0.6,0-0.9,0.3-0.9,0.8v33c0,0.7,0.2,1,0.7,1h19.1c6.7,0,12-1.4,16-4.1
		c4-2.7,6-7.3,6-13.7C463.3,230.3,462.4,226.9,460.6,224.4z"/>
	<path class="st1" d="M486.7,289.5v-75.1c0-0.7,0.3-1,0.9-1h2.7c0.4,0,0.7,0.1,0.9,0.2c0.2,0.1,0.3,0.3,0.4,0.7l27.8,69.7
		c0.3,0.7,0.6,1,0.8,1c0.3,0,0.6-0.4,0.8-1.1l28.2-69.7c0.2-0.5,0.6-0.7,1.1-0.7h3c0.6,0,0.9,0.3,0.9,1v75.1c0,0.7-0.3,1-0.9,1h-2.8
		c-0.3,0-0.6-0.1-0.8-0.2c-0.2-0.1-0.3-0.4-0.3-0.7v-64.3c0-0.3,0-0.4-0.1-0.3c-0.1,0.1-0.1,0.2-0.2,0.3l-25.9,64.1
		c-0.3,0.8-0.8,1.1-1.7,1.1H519c-1,0-1.7-0.3-2-1l-25.4-63.6c-0.1-0.1-0.1-0.2-0.2-0.3c-0.1,0-0.1,0.1-0.1,0.3v63.8
		c0,0.3-0.1,0.5-0.3,0.7c-0.2,0.2-0.4,0.3-0.8,0.3h-2.6C487,290.6,486.7,290.2,486.7,289.5z"/>
	<path class="st1" d="M579.1,213.4h43.2c0.5,0,0.7,0.2,0.7,0.7v2.7c0,0.5-0.3,0.7-0.8,0.7h-38.3c-0.6,0-0.9,0.3-0.9,0.9v30.3
		c0,0.5,0.3,0.7,0.9,0.7h30.1c0.5,0,0.7,0.2,0.7,0.7v2.7c0,0.3-0.1,0.5-0.2,0.6c-0.1,0.1-0.3,0.2-0.7,0.2h-30
		c-0.6,0-0.9,0.3-0.9,0.9v30.9c0,0.6,0.3,0.9,0.9,0.9h39.8c0.6,0,0.8,0.2,0.8,0.7v2.7c0,0.3-0.1,0.5-0.2,0.6
		c-0.1,0.1-0.3,0.2-0.6,0.2h-44.7c-0.6,0-0.9-0.3-0.9-1v-75.1C578.1,213.8,578.4,213.4,579.1,213.4z"/>
	<path class="st1" d="M695.7,213.4c0.6,0,0.9,0.3,0.9,1v75.1c0,0.3-0.1,0.6-0.2,0.8c-0.1,0.2-0.4,0.3-0.7,0.3h-1.6
		c-0.4,0-0.8,0-1.1-0.1c-0.3,0-0.6-0.2-0.9-0.6l-44.5-65.6c-0.3-0.6-0.6-0.8-0.9-0.7c-0.2,0.1-0.4,0.3-0.4,0.7v65.3
		c0,0.6-0.3,0.9-1,0.9h-2.6c-0.6,0-0.9-0.3-0.9-1v-75.1c0-0.7,0.3-1,0.9-1h1.9c0.4,0,0.7,0,0.9,0.1c0.2,0.1,0.4,0.3,0.6,0.6
		l44.4,65.5c0.3,0.5,0.7,0.6,1,0.5c0.3-0.2,0.5-0.4,0.5-0.7v-65.1c0-0.6,0.3-0.9,0.8-0.9H695.7z"/>
	<path class="st1" d="M713.3,214.1c0-0.3,0.1-0.5,0.2-0.6c0.1-0.1,0.3-0.2,0.6-0.2h53.6c0.3,0,0.5,0.1,0.6,0.2
		c0.1,0.1,0.2,0.3,0.2,0.6v2.7c0,0.5-0.3,0.7-0.8,0.7h-22.2c-0.7,0-1,0.3-1,0.9v71c0,0.7-0.3,1-0.9,1h-2.8c-0.7,0-1-0.3-1-1v-71
		c0-0.6-0.3-0.9-1-0.9h-24.3c-0.6,0-0.8-0.2-0.8-0.7V214.1z"/>
</g>
</svg>
