<?xml version="1.0" encoding="utf-8"?>
<!-- Generator: Adobe Illustrator 22.1.0, SVG Export Plug-In . SVG Version: 6.00 Build 0)  -->
<svg version="1.1" id="Capa_1" xmlns="http://www.w3.org/2000/svg" xmlns:xlink="http://www.w3.org/1999/xlink" x="0px" y="0px"
	 viewBox="0 0 940 202" style="enable-background:new 0 0 940 202;" xml:space="preserve">
<style type="text/css">
	.st0{enable-background:new    ;}
	.st1{fill:#FFFFFF;}
</style>
<g class="st0">
	<path class="st1" d="M44.1,19.2c-3.2-1.7-7-2.5-11.3-2.5c-5.7,0-10.3,1.4-13.8,4.1c-3.5,2.7-5.3,6.7-5.3,11.8
		c0,1.3,0.3,2.8,0.8,4.6c0.6,1.7,1.8,3.4,3.6,5.1c1.8,1.7,4.6,3.2,8.3,4.6l14.4,5.2c6.2,2.2,10.5,4.9,13,8.1c2.5,3.2,3.7,7,3.7,11.3
		c0,4.2-1,7.8-3.1,10.8c-2,3-5,5.3-8.7,6.8c-3.8,1.6-8.3,2.3-13.6,2.3c-3.8,0-7.3-0.5-10.5-1.4c-3.2-0.9-6-2.3-8.5-4.2
		s-4.8-4.3-6.9-7.2c-0.3-0.3-0.4-0.7-0.3-1c0.1-0.3,0.4-0.7,0.9-1l1.1-0.8c0.6-0.3,1-0.5,1.2-0.5c0.3,0,0.6,0.2,0.8,0.5
		c1.9,2.5,3.9,4.6,5.8,6.3c1.9,1.7,4.2,3,6.7,3.8c2.5,0.8,5.7,1.2,9.4,1.2c6.2,0,11.1-1.2,14.9-3.5c3.8-2.4,5.7-6.3,5.7-11.9
		c0-2.1-0.4-4-1.1-5.6c-0.7-1.7-2.1-3.2-4-4.7c-1.9-1.5-4.8-3-8.6-4.4l-15.7-6c-3.7-1.5-6.7-3.2-8.7-5.1s-3.5-4.1-4.4-6.4
		c-0.8-2.3-1.2-4.5-1.2-6.8c0-4.4,1-8.1,3.1-11.1c2-3,4.9-5.3,8.5-6.9c3.6-1.6,7.8-2.4,12.6-2.4c3.3,0,6.2,0.4,8.8,1.2
		c2.6,0.8,5.1,1.9,7.4,3.4c2.3,1.5,4.4,3.3,6.3,5.4c0.2,0.2,0.3,0.4,0.4,0.7c0.1,0.2-0.1,0.5-0.4,0.8l-2.3,2.1
		c-0.3,0.2-0.5,0.3-0.6,0.2c-0.1-0.1-0.4-0.3-0.7-0.7C49.9,23,47.3,20.9,44.1,19.2z"/>
	<path class="st1" d="M83.5,87.2c-4.7-3-8.3-7.4-10.8-13.2c-2.5-5.8-3.7-13-3.7-21.5c0-8.7,1.3-16,3.8-21.9
		c2.5-6,6.1-10.5,10.8-13.5c4.7-3,10.3-4.6,16.8-4.6c6.5,0,12.1,1.5,16.7,4.6c4.6,3.1,8.2,7.5,10.7,13.4c2.5,5.9,3.7,13.2,3.7,21.8
		c0,8.5-1.2,15.7-3.7,21.6c-2.5,5.9-6.1,10.3-10.8,13.3c-4.7,3-10.3,4.5-16.8,4.5C93.7,91.6,88.1,90.1,83.5,87.2z M120,78.6
		c4.4-5.8,6.6-14.6,6.6-26.4c0-11.9-2.2-20.8-6.7-26.7c-4.5-5.9-11-8.8-19.5-8.8c-8.6,0-15.1,2.9-19.7,8.8
		c-4.5,5.9-6.8,14.8-6.8,26.6c0,11.7,2.3,20.5,6.8,26.3c4.5,5.8,11.1,8.7,19.7,8.7C109.1,87.3,115.6,84.4,120,78.6z"/>
	<path class="st1" d="M200.4,13.7c0.1,0.2,0.1,0.4,0,0.7l-27.2,75.1c-0.3,0.8-0.8,1.1-1.7,1.1h-3.3c-1.1,0-1.8-0.3-2-1l-26.5-75.1
		c-0.1-0.3,0-0.6,0.1-0.8c0.1-0.2,0.4-0.3,0.7-0.3h2.4c0.7,0,1.1,0.3,1.4,0.8l24.6,69.7c0.6,1.5,1.1,1.4,1.7-0.1l25.4-69.7
		c0.2-0.5,0.6-0.7,1.1-0.7h2.6C200,13.4,200.3,13.5,200.4,13.7z"/>
	<path class="st1" d="M217.4,13.4h43.2c0.5,0,0.7,0.2,0.7,0.7v2.7c0,0.5-0.3,0.7-0.8,0.7h-38.3c-0.6,0-0.9,0.3-0.9,0.9v30.3
		c0,0.5,0.3,0.7,0.9,0.7h30.1c0.5,0,0.7,0.2,0.7,0.7v2.7c0,0.3-0.1,0.5-0.2,0.6c-0.1,0.1-0.3,0.2-0.7,0.2h-30
		c-0.6,0-0.9,0.3-0.9,0.9v30.9c0,0.6,0.3,0.9,0.9,0.9H262c0.6,0,0.8,0.2,0.8,0.7v2.7c0,0.3-0.1,0.5-0.2,0.6
		c-0.1,0.1-0.3,0.2-0.6,0.2h-44.7c-0.6,0-0.9-0.3-0.9-1V14.5C216.4,13.8,216.7,13.4,217.4,13.4z"/>
	<path class="st1" d="M329.1,90.1c-0.2,0.3-0.4,0.5-0.8,0.5h-2.9c-0.5,0-0.9-0.3-1.2-0.9l-14.8-34.9c-0.3-0.7-1-1-2.2-1h-22.5
		c-0.5,0-0.8,0.1-1,0.3c-0.2,0.2-0.3,0.5-0.3,0.8v34.6c0,0.8-0.3,1.1-1,1.1h-2.7c-0.4,0-0.7-0.1-0.8-0.3c-0.1-0.2-0.2-0.4-0.2-0.7
		V14.5c0-0.7,0.3-1,0.9-1h26.8c7.5,0,13.3,1.6,17.5,4.8c4.2,3.2,6.2,8,6.2,14.4c0,4.2-0.8,7.7-2.4,10.5c-1.6,2.7-3.7,4.9-6.1,6.3
		c-2.4,1.5-4.9,2.5-7.3,3.2c-0.4,0.1-0.6,0.3-0.4,0.7l15.2,35.9C329.3,89.5,329.3,89.8,329.1,90.1z M319.6,45.8
		c3.7-2.5,5.6-6.7,5.6-12.5c0-5.3-1.6-9.3-4.7-11.9c-3.1-2.6-7.8-3.8-14.1-3.8h-21.7c-0.8,0-1.1,0.3-1.1,0.8v30.2
		c0,0.6,0.2,0.9,0.7,0.9h18.6C310.3,49.5,315.8,48.3,319.6,45.8z"/>
	<path class="st1" d="M348.9,13.4h43.2c0.5,0,0.7,0.2,0.7,0.7v2.7c0,0.5-0.3,0.7-0.8,0.7h-38.3c-0.6,0-0.9,0.3-0.9,0.9v30.3
		c0,0.5,0.3,0.7,0.9,0.7h30.1c0.5,0,0.7,0.2,0.7,0.7v2.7c0,0.3-0.1,0.5-0.2,0.6c-0.1,0.1-0.3,0.2-0.7,0.2h-30
		c-0.6,0-0.9,0.3-0.9,0.9v30.9c0,0.6,0.3,0.9,0.9,0.9h39.8c0.6,0,0.8,0.2,0.8,0.7v2.7c0,0.3-0.1,0.5-0.2,0.6
		c-0.1,0.1-0.3,0.2-0.6,0.2h-44.7c-0.6,0-0.9-0.3-0.9-1V14.5C348,13.8,348.3,13.4,348.9,13.4z"/>
	<path class="st1" d="M414.1,13.4c0.6,0,0.9,0.3,0.9,1v74.9c0,0.5-0.1,0.8-0.2,1c-0.1,0.2-0.5,0.3-1,0.3h-2.4
		c-0.5,0-0.8-0.1-0.9-0.2c-0.1-0.1-0.2-0.4-0.2-0.8V14.5c0-0.7,0.3-1,0.9-1H414.1z"/>
	<path class="st1" d="M447.9,87c-4.6-3.1-8.1-7.6-10.6-13.4c-2.4-5.9-3.6-12.9-3.6-21.3c0-8.5,1.3-15.8,3.8-21.7
		c2.5-6,6.1-10.5,10.7-13.6c4.6-3.1,10-4.6,16.3-4.6c4.3,0,8.4,0.9,12.2,2.8c3.8,1.8,7.1,4.3,9.7,7.3c2.6,3.1,4.1,6.4,4.5,10
		c0,0.2,0,0.4-0.1,0.5c0,0.1-0.2,0.2-0.5,0.3l-3.6,0.6c-0.1,0.1-0.3,0.1-0.4-0.1c-0.1-0.1-0.2-0.3-0.3-0.6c-0.6-3.1-1.8-5.9-3.8-8.4
		c-2-2.5-4.5-4.5-7.6-5.9c-3.1-1.5-6.4-2.2-10.1-2.2c-5.5,0-10.2,1.4-14.1,4.2c-3.8,2.8-6.8,6.8-8.7,12c-2,5.2-3,11.5-3,18.8
		c0,7.6,1,14.1,2.9,19.4c1.9,5.3,4.8,9.3,8.7,12.1c3.8,2.7,8.6,4.1,14.2,4.1c4.1,0,7.6-0.7,10.7-2.2c3-1.5,5.5-3.4,7.4-5.7
		c1.9-2.4,3.4-4.9,4.4-7.6c1-2.7,1.5-5.3,1.5-7.7v-8.2c0-0.6-0.4-0.8-1.1-0.8h-19.7c-0.3,0-0.5-0.1-0.6-0.2
		c-0.1-0.1-0.2-0.3-0.2-0.5V52c0-0.4,0.2-0.6,0.5-0.6h24.5c0.2,0,0.4,0.1,0.5,0.2c0.1,0.1,0.2,0.3,0.2,0.5v37.4
		c0,0.5-0.1,0.8-0.3,0.9c-0.2,0.1-0.4,0.2-0.8,0.2h-1.8c-0.4,0-0.7,0-1-0.1c-0.2-0.1-0.4-0.3-0.4-0.8v-11c0-0.3-0.1-0.5-0.3-0.5
		c-0.2,0-0.4,0.2-0.6,0.5c-1.3,2.4-3.1,4.6-5.2,6.6c-2.2,2-4.7,3.5-7.7,4.7c-3,1.1-6.4,1.7-10.3,1.7C458,91.6,452.5,90.1,447.9,87z"
		/>
	<path class="st1" d="M565.9,13.4c0.6,0,0.9,0.3,0.9,1v75.1c0,0.3-0.1,0.6-0.2,0.8c-0.1,0.2-0.4,0.3-0.7,0.3h-1.6
		c-0.4,0-0.8,0-1.1-0.1c-0.3,0-0.6-0.2-0.9-0.6l-44.5-65.6c-0.3-0.6-0.6-0.8-0.9-0.7c-0.2,0.1-0.4,0.3-0.4,0.7v65.3
		c0,0.6-0.3,0.9-1,0.9h-2.6c-0.6,0-0.9-0.3-0.9-1V14.5c0-0.7,0.3-1,0.9-1h1.9c0.4,0,0.7,0,0.9,0.1c0.2,0.1,0.4,0.3,0.6,0.6
		l44.4,65.5c0.3,0.5,0.7,0.6,1,0.5c0.3-0.2,0.5-0.4,0.5-0.7V14.4c0-0.6,0.3-0.9,0.8-0.9H565.9z"/>
	<path class="st1" d="M611.6,13.4h42.1c0.5,0,0.7,0.2,0.7,0.7v2.7c0,0.5-0.3,0.7-0.8,0.7h-37.2c-0.6,0-0.9,0.3-0.9,0.9v31.6
		c0,0.5,0.3,0.7,0.9,0.7h31.1c0.5,0,0.7,0.2,0.7,0.7v2.7c0,0.5-0.3,0.7-0.8,0.7h-31c-0.6,0-0.9,0.3-0.9,0.9v33.9
		c0,0.5-0.2,0.7-0.7,0.7h-3.1c-0.3,0-0.6-0.1-0.7-0.2c-0.1-0.1-0.2-0.4-0.2-0.8V14.5C610.7,13.8,611,13.4,611.6,13.4z"/>
	<path class="st1" d="M717.5,80.5c-1.9,3.7-4.7,6.5-8.5,8.3c-3.8,1.8-8.6,2.8-14.4,2.8c-5.8,0-10.6-1-14.4-2.9
		c-3.8-1.9-6.6-4.8-8.5-8.7c-1.9-3.9-2.8-8.9-2.8-14.9V14.6c0-0.8,0.3-1.1,0.8-1.1h2.9c0.7,0,1,0.3,1,1v52.6
		c0,6.7,1.8,11.8,5.3,15.1c3.5,3.4,8.8,5,15.9,5c4.8,0,8.8-0.8,11.9-2.3c3.2-1.5,5.5-3.8,7.1-6.8c1.6-3,2.3-6.8,2.3-11.4V14.4
		c0-0.6,0.3-0.9,0.8-0.9h2.5c0.6,0,0.8,0.3,0.8,0.9v52.3C720.3,72.2,719.4,76.8,717.5,80.5z"/>
	<path class="st1" d="M795.5,13.4c0.6,0,0.9,0.3,0.9,1v75.1c0,0.3-0.1,0.6-0.2,0.8c-0.1,0.2-0.4,0.3-0.7,0.3h-1.6
		c-0.4,0-0.8,0-1.1-0.1c-0.3,0-0.6-0.2-0.9-0.6l-44.5-65.6c-0.3-0.6-0.6-0.8-0.9-0.7c-0.2,0.1-0.4,0.3-0.4,0.7v65.3
		c0,0.6-0.3,0.9-1,0.9h-2.6c-0.6,0-0.9-0.3-0.9-1V14.5c0-0.7,0.3-1,0.9-1h1.9c0.4,0,0.7,0,0.9,0.1c0.2,0.1,0.4,0.3,0.6,0.6
		l44.4,65.5c0.3,0.5,0.7,0.6,1,0.5c0.3-0.2,0.5-0.4,0.5-0.7V14.4c0-0.6,0.3-0.9,0.8-0.9H795.5z"/>
	<path class="st1" d="M821.6,13.4c1.1,0,2.4,0,3.9,0.1c1.5,0,2.8,0.1,4,0.1c1.2,0,2,0,2.2,0c9.7,0.1,17.5,1.5,23.4,4.3
		c5.9,2.8,10.2,6.9,12.8,12.4c2.7,5.5,4,12.5,4,21c0,9.2-1.5,16.6-4.5,22.5c-3,5.8-7.6,10.1-13.7,12.8c-6.2,2.7-14,4.1-23.5,4.1
		h-10.6c-0.6,0-0.9-0.3-0.9-1V14.5c0-0.3,0.1-0.6,0.3-0.8c0.2-0.2,0.4-0.3,0.8-0.3C819.9,13.4,820.5,13.4,821.6,13.4z M823.6,19.1
		v66.4c0,0.6,0.4,0.9,1.1,0.9h5.2c8.9,0,16.1-1.1,21.6-3.4c5.4-2.3,9.4-5.9,11.9-11C865.8,67,867,60.3,867,52c0-9.1-1.3-16.1-4-21.1
		c-2.7-5-6.7-8.4-12.2-10.3c-5.4-1.9-12.4-2.9-20.7-2.9h-5.5C823.9,17.7,823.6,18.2,823.6,19.1z"/>
	<path class="st1" d="M920.7,19.2c-3.2-1.7-7-2.5-11.3-2.5c-5.7,0-10.3,1.4-13.8,4.1c-3.5,2.7-5.3,6.7-5.3,11.8
		c0,1.3,0.3,2.8,0.8,4.6c0.6,1.7,1.8,3.4,3.6,5.1c1.8,1.7,4.6,3.2,8.3,4.6l14.4,5.2c6.2,2.2,10.5,4.9,13,8.1c2.5,3.2,3.7,7,3.7,11.3
		c0,4.2-1,7.8-3.1,10.8c-2,3-5,5.3-8.7,6.8c-3.8,1.6-8.3,2.3-13.6,2.3c-3.8,0-7.3-0.5-10.5-1.4c-3.2-0.9-6-2.3-8.5-4.2
		s-4.8-4.3-6.9-7.2c-0.3-0.3-0.4-0.7-0.3-1c0.1-0.3,0.4-0.7,0.9-1l1.1-0.8c0.6-0.3,1-0.5,1.2-0.5c0.3,0,0.6,0.2,0.8,0.5
		c1.9,2.5,3.9,4.6,5.8,6.3c1.9,1.7,4.2,3,6.7,3.8c2.5,0.8,5.7,1.2,9.4,1.2c6.2,0,11.1-1.2,14.9-3.5c3.8-2.4,5.7-6.3,5.7-11.9
		c0-2.1-0.4-4-1.1-5.6c-0.7-1.7-2.1-3.2-4-4.7c-1.9-1.5-4.8-3-8.6-4.4l-15.7-6c-3.7-1.5-6.7-3.2-8.7-5.1c-2.1-2-3.5-4.1-4.4-6.4
		c-0.8-2.3-1.2-4.5-1.2-6.8c0-4.4,1-8.1,3.1-11.1c2-3,4.9-5.3,8.5-6.9c3.6-1.6,7.8-2.4,12.6-2.4c3.3,0,6.2,0.4,8.8,1.2
		c2.6,0.8,5.1,1.9,7.4,3.4c2.3,1.5,4.4,3.3,6.3,5.4c0.2,0.2,0.3,0.4,0.4,0.7c0.1,0.2-0.1,0.5-0.4,0.8l-2.3,2.1
		c-0.3,0.2-0.5,0.3-0.6,0.2c-0.1-0.1-0.4-0.3-0.7-0.7C926.5,23,923.9,20.9,920.7,19.2z"/>
	<path class="st1" d="M41.3,115c2.6,1.2,4.7,2.9,6.2,5.1c1.6,2.3,2.3,5,2.3,8.2c0,2.6-0.6,5.2-1.9,7.7c-1.3,2.5-3.4,4.9-6.3,7.2
		c-2.9,2.3-6.8,4.6-11.8,6.7c-0.5,0.2-0.7,0.4-0.8,0.6c0,0.2,0.1,0.6,0.5,1l19.6,23.3c0.3,0.3,0.6,0.5,0.7,0.5s0.4-0.2,0.9-0.6
		c1.5-1.4,3-3.1,4.7-5.1c1.7-2,3.3-4.2,4.9-6.4c1.6-2.3,2.9-4.4,4.1-6.4c1.2-2,2-3.7,2.4-5c0.2-0.6,0.7-0.8,1.4-0.5l1.8,0.7
		c0.2,0.1,0.4,0.2,0.5,0.4c0.1,0.2,0.2,0.4,0.1,0.6c-0.6,2.2-1.9,4.7-3.7,7.7c-1.8,3-4,6.1-6.3,9.1c-2.4,3.1-4.8,5.8-7.2,8.2
		c-0.3,0.3-0.4,0.5-0.3,0.7c0.1,0.2,0.2,0.5,0.5,0.8c1.4,1.4,3.2,2.7,5.5,3.8c2.3,1.2,4.7,2.1,7.3,2.9c2.6,0.7,5,1.1,7.3,1.1
		c0.8,0,1.2,0.3,1.2,1v1.6c0,0.6-0.1,0.9-0.3,1.1s-0.7,0.3-1.4,0.3c-2.4,0-5-0.5-8-1.4c-3-0.9-5.9-2-8.6-3.4c-2.8-1.4-5-2.8-6.8-4.3
		c-0.3-0.2-0.5-0.3-0.7-0.3s-0.5,0.1-0.7,0.4c-3.2,3-6.7,5.3-10.5,7c-3.8,1.7-7.8,2.5-12.1,2.5c-6.6,0-11.8-1.8-15.8-5.5
		c-3.9-3.7-5.9-8.5-5.9-14.5c0-4.1,1.1-7.9,3.4-11.3c2.3-3.5,6.2-6.9,11.6-10.3c0.7-0.4,1.1-0.8,1.1-1.1c0-0.3-0.3-0.8-1-1.5
		c-2.4-2.5-4.1-5-5.3-7.5c-1.2-2.5-1.8-5.1-1.8-7.9c0-3.7,0.9-7,2.7-9.8c1.8-2.9,4.2-5.2,7.3-6.9c3.1-1.7,6.6-2.5,10.5-2.5
		C35.8,113.3,38.7,113.9,41.3,115z M24.2,153.1c-0.4-0.1-1,0.1-1.7,0.4c-4.2,2-7.6,4.7-10,8.1c-2.5,3.4-3.7,7-3.7,11
		c0,3.1,0.8,5.8,2.3,8.2c1.5,2.3,3.6,4.1,6.2,5.5c2.6,1.3,5.6,2,8.9,2c3.5,0,7-0.7,10.3-2.2c3.4-1.5,6.3-3.4,8.8-5.7
		c0.5-0.4,0.7-0.8,0.8-1.2c0-0.4-0.1-0.8-0.5-1.2L25.5,154C25.1,153.5,24.6,153.2,24.2,153.1z M24.3,119.5c-2.3,1.4-4.1,3.3-5.3,5.6
		c-1.2,2.3-1.8,4.8-1.8,7.5c0,2.1,0.4,4,1.1,5.9c0.8,1.8,2.1,3.8,4,5.9l2.4,2.6c0.1,0.2,0.4,0.3,0.7,0.4c0.3,0,0.7,0,1-0.2
		c6.8-3.3,11.6-6.4,14.5-9.3c2.8-2.9,4.3-6.2,4.3-9.7c0-3.7-1.2-6.4-3.7-8.2c-2.5-1.8-5.4-2.7-8.8-2.7
		C29.4,117.3,26.6,118,24.3,119.5z"/>
	<path class="st1" d="M109.9,114.4H152c0.5,0,0.7,0.2,0.7,0.7v2.7c0,0.5-0.3,0.7-0.8,0.7h-37.2c-0.6,0-0.9,0.3-0.9,0.9v31.6
		c0,0.5,0.3,0.7,0.9,0.7h31.1c0.5,0,0.7,0.2,0.7,0.7v2.7c0,0.5-0.3,0.7-0.8,0.7h-31c-0.6,0-0.9,0.3-0.9,0.9v33.9
		c0,0.5-0.2,0.7-0.7,0.7h-3.1c-0.3,0-0.6-0.1-0.7-0.2c-0.1-0.1-0.2-0.4-0.2-0.8v-75.1C109,114.8,109.3,114.4,109.9,114.4z"/>
	<path class="st1" d="M172.1,114.4c0.6,0,0.9,0.3,0.9,1v74.9c0,0.5-0.1,0.8-0.2,1c-0.1,0.2-0.5,0.3-1,0.3h-2.4
		c-0.5,0-0.8-0.1-0.9-0.2c-0.1-0.1-0.2-0.4-0.2-0.8v-75.1c0-0.7,0.3-1,0.9-1H172.1z"/>
	<path class="st1" d="M249.3,114.4c0.6,0,0.9,0.3,0.9,1v75.1c0,0.3-0.1,0.6-0.2,0.8c-0.1,0.2-0.4,0.3-0.7,0.3h-1.6
		c-0.4,0-0.8,0-1.1-0.1c-0.3,0-0.6-0.2-0.9-0.6l-44.5-65.6c-0.3-0.6-0.6-0.8-0.9-0.7c-0.2,0.1-0.4,0.3-0.4,0.7v65.3
		c0,0.6-0.3,0.9-1,0.9h-2.6c-0.6,0-0.9-0.3-0.9-1v-75.1c0-0.7,0.3-1,0.9-1h1.9c0.4,0,0.7,0,0.9,0.1c0.2,0.1,0.4,0.3,0.6,0.6
		l44.4,65.5c0.3,0.5,0.7,0.6,1,0.5c0.3-0.2,0.5-0.4,0.5-0.7v-65.1c0-0.6,0.3-0.9,0.8-0.9H249.3z"/>
	<path class="st1" d="M266.3,191.3c-0.1-0.2-0.2-0.4-0.1-0.7l27.6-75.1c0.1-0.4,0.3-0.7,0.6-0.9c0.2-0.2,0.6-0.3,1.1-0.3h3.4
		c1,0,1.7,0.3,1.9,1l27.2,75.1c0.1,0.3,0.1,0.5-0.1,0.7c-0.2,0.2-0.4,0.3-0.8,0.3h-2.5c-0.7,0-1.1-0.3-1.4-0.8l-8.4-23.2
		c-0.1-0.3-0.2-0.5-0.3-0.6c-0.1-0.1-0.4-0.2-0.7-0.2h-33.5c-0.5,0-0.8,0.2-1,0.7l-8.6,23.3c-0.1,0.3-0.2,0.5-0.4,0.6
		c-0.2,0.1-0.4,0.2-0.8,0.2H267C266.7,191.6,266.5,191.5,266.3,191.3z M312.1,162.7c0.7,0,0.9-0.3,0.7-1L298,121.1
		c-0.3-0.7-0.5-1-0.8-1c-0.2,0-0.5,0.4-0.8,1.1l-15.1,40.7c-0.2,0.6,0,0.8,0.5,0.8H312.1z"/>
	<path class="st1" d="M397.9,114.4c0.6,0,0.9,0.3,0.9,1v75.1c0,0.3-0.1,0.6-0.2,0.8c-0.1,0.2-0.4,0.3-0.7,0.3h-1.6
		c-0.4,0-0.8,0-1.1-0.1c-0.3,0-0.6-0.2-0.9-0.6l-44.5-65.6c-0.3-0.6-0.6-0.8-0.9-0.7c-0.2,0.1-0.4,0.3-0.4,0.7v65.3
		c0,0.6-0.3,0.9-1,0.9H345c-0.6,0-0.9-0.3-0.9-1v-75.1c0-0.7,0.3-1,0.9-1h1.9c0.4,0,0.7,0,0.9,0.1c0.2,0.1,0.4,0.3,0.6,0.6
		l44.4,65.5c0.3,0.5,0.7,0.6,1,0.5c0.3-0.2,0.5-0.4,0.5-0.7v-65.1c0-0.6,0.3-0.9,0.8-0.9H397.9z"/>
	<path class="st1" d="M457.6,115c3,1.1,5.8,2.6,8.2,4.5c2.5,1.9,4.5,4.1,6.1,6.5c1.6,2.4,2.5,5,2.8,7.7c0.1,0.3,0.1,0.5,0,0.6
		c-0.1,0.1-0.2,0.2-0.5,0.2l-3.7,0.4c-0.2,0.1-0.4,0-0.5-0.1c-0.1-0.1-0.2-0.3-0.3-0.6c-1.2-4.9-3.7-8.9-7.5-11.9
		c-3.8-3-8.4-4.5-13.7-4.5c-8.5,0-14.9,3-19.4,9.1c-4.5,6.1-6.7,14.9-6.7,26.5c0,11.2,2.2,19.8,6.7,25.8c4.5,6.1,11.2,9.1,20.2,9.1
		c5.4,0,9.9-1.3,13.4-3.9c3.5-2.6,6.3-6.6,8.4-12.1c0.1-0.2,0.3-0.3,0.6-0.2l3.5,1c0.1,0.1,0.2,0.2,0.3,0.3c0,0.1,0,0.3-0.1,0.5
		c-0.7,2.3-1.7,4.4-2.9,6.3c-1.2,1.9-2.7,3.7-4.4,5.2c-1.7,1.5-3.5,2.8-5.6,4c-2,1.1-4.2,1.9-6.6,2.5c-2.3,0.6-4.7,0.8-7.2,0.8
		c-6.7,0-12.3-1.5-17.1-4.6c-4.7-3.1-8.3-7.6-10.8-13.4c-2.5-5.9-3.7-12.9-3.7-21.3c0-8.4,1.2-15.6,3.7-21.5c2.5-6,6-10.5,10.6-13.7
		c4.6-3.2,10.1-4.7,16.6-4.7C451.5,113.4,454.6,113.9,457.6,115z"/>
	<path class="st1" d="M496,114.4c0.6,0,0.9,0.3,0.9,1v74.9c0,0.5-0.1,0.8-0.2,1c-0.1,0.2-0.5,0.3-1,0.3h-2.4c-0.5,0-0.8-0.1-0.9-0.2
		c-0.1-0.1-0.2-0.4-0.2-0.8v-75.1c0-0.7,0.3-1,0.9-1H496z"/>
	<path class="st1" d="M573.1,114.4c0.6,0,0.9,0.3,0.9,1v75.1c0,0.3-0.1,0.6-0.2,0.8c-0.1,0.2-0.4,0.3-0.7,0.3h-1.6
		c-0.4,0-0.8,0-1.1-0.1c-0.3,0-0.6-0.2-0.9-0.6l-44.5-65.6c-0.3-0.6-0.6-0.8-0.9-0.7c-0.2,0.1-0.4,0.3-0.4,0.7v65.3
		c0,0.6-0.3,0.9-1,0.9h-2.6c-0.6,0-0.9-0.3-0.9-1v-75.1c0-0.7,0.3-1,0.9-1h1.9c0.4,0,0.7,0,0.9,0.1c0.2,0.1,0.4,0.3,0.6,0.6
		l44.4,65.5c0.3,0.5,0.7,0.6,1,0.5c0.3-0.2,0.5-0.4,0.5-0.7v-65.1c0-0.6,0.3-0.9,0.8-0.9H573.1z"/>
	<path class="st1" d="M606.9,188c-4.6-3.1-8.1-7.6-10.6-13.4c-2.4-5.9-3.6-12.9-3.6-21.3c0-8.5,1.3-15.8,3.8-21.7
		c2.5-6,6.1-10.5,10.7-13.6c4.6-3.1,10-4.6,16.3-4.6c4.3,0,8.4,0.9,12.2,2.8c3.8,1.8,7.1,4.3,9.7,7.3c2.6,3.1,4.1,6.4,4.5,10
		c0,0.2,0,0.4-0.1,0.5c0,0.1-0.2,0.2-0.5,0.3l-3.6,0.6c-0.1,0.1-0.3,0.1-0.4-0.1c-0.1-0.1-0.2-0.3-0.3-0.6c-0.6-3.1-1.8-5.9-3.8-8.4
		c-2-2.5-4.5-4.5-7.6-5.9c-3.1-1.5-6.4-2.2-10.1-2.2c-5.5,0-10.2,1.4-14.1,4.2c-3.8,2.8-6.8,6.8-8.7,12c-2,5.2-3,11.5-3,18.8
		c0,7.6,1,14.1,2.9,19.4c1.9,5.3,4.8,9.3,8.7,12.1c3.8,2.7,8.6,4.1,14.2,4.1c4.1,0,7.6-0.7,10.7-2.2c3-1.5,5.5-3.4,7.4-5.7
		c1.9-2.4,3.4-4.9,4.4-7.6c1-2.7,1.5-5.3,1.5-7.7v-8.2c0-0.6-0.4-0.8-1.1-0.8h-19.7c-0.3,0-0.5-0.1-0.6-0.2
		c-0.1-0.1-0.2-0.3-0.2-0.5V153c0-0.4,0.2-0.6,0.5-0.6h24.5c0.2,0,0.4,0.1,0.5,0.2c0.1,0.1,0.2,0.3,0.2,0.5v37.4
		c0,0.5-0.1,0.8-0.3,0.9c-0.2,0.1-0.4,0.2-0.8,0.2h-1.8c-0.4,0-0.7,0-1-0.1c-0.2-0.1-0.4-0.3-0.4-0.8v-11c0-0.3-0.1-0.5-0.3-0.5
		c-0.2,0-0.4,0.2-0.6,0.5c-1.3,2.4-3.1,4.6-5.2,6.6c-2.2,2-4.7,3.5-7.7,4.7c-3,1.1-6.4,1.7-10.3,1.7
		C617,192.6,611.5,191.1,606.9,188z"/>
</g>
</svg>
