<?xml version="1.0" encoding="utf-8"?>
<!-- Generator: Adobe Illustrator 22.1.0, SVG Export Plug-In . SVG Version: 6.00 Build 0)  -->
<svg version="1.1" id="Capa_1" xmlns="http://www.w3.org/2000/svg" xmlns:xlink="http://www.w3.org/1999/xlink" x="0px" y="0px"
	 viewBox="0 0 940 202" style="enable-background:new 0 0 940 202;" xml:space="preserve">
<style type="text/css">
	.st0{fill:#FFFFFF;}
</style>
<g>
	<g>
		<path class="st0" d="M43.7,19.1c-3.2-1.6-6.9-2.5-11.2-2.5c-5.6,0-10.2,1.4-13.6,4.1c-3.5,2.7-5.2,6.6-5.2,11.7
			c0,1.3,0.3,2.8,0.8,4.5c0.5,1.7,1.7,3.4,3.6,5.1c1.8,1.7,4.5,3.2,8.2,4.6l14.2,5.2c6.1,2.2,10.4,4.9,12.9,8
			C55.7,62.9,57,66.6,57,71c0,4.2-1,7.8-3,10.7c-2,3-4.9,5.2-8.7,6.7c-3.7,1.5-8.2,2.3-13.4,2.3c-3.8,0-7.2-0.5-10.4-1.4
			c-3.1-0.9-5.9-2.3-8.4-4.2c-2.5-1.9-4.7-4.2-6.8-7.1C6,77.7,5.9,77.4,6,77c0.1-0.3,0.4-0.7,0.9-1L8,75.2c0.5-0.3,1-0.5,1.2-0.5
			c0.3,0,0.5,0.2,0.8,0.5c1.9,2.5,3.8,4.5,5.8,6.2c1.9,1.7,4.1,2.9,6.6,3.8c2.5,0.8,5.6,1.2,9.3,1.2c6.1,0,11-1.2,14.8-3.5
			c3.7-2.3,5.6-6.2,5.6-11.7c0-2.1-0.4-3.9-1.1-5.6c-0.7-1.6-2-3.2-4-4.7c-1.9-1.5-4.8-2.9-8.5-4.4l-15.6-6
			c-3.7-1.4-6.6-3.1-8.7-5.1s-3.5-4.1-4.3-6.3c-0.8-2.3-1.2-4.5-1.2-6.7c0-4.3,1-8,3-11c2-3,4.8-5.3,8.4-6.8
			c3.6-1.6,7.7-2.4,12.5-2.4c3.2,0,6.1,0.4,8.8,1.2c2.6,0.8,5,1.9,7.3,3.4c2.3,1.5,4.4,3.2,6.3,5.3c0.2,0.2,0.3,0.4,0.4,0.7
			c0.1,0.2-0.1,0.5-0.4,0.8l-2.3,2.1c-0.3,0.2-0.5,0.3-0.6,0.2c-0.1-0.1-0.4-0.3-0.7-0.7C49.4,22.7,46.8,20.7,43.7,19.1z"/>
		<path class="st0" d="M123,79.8c-1.9,3.7-4.7,6.4-8.4,8.2c-3.8,1.8-8.5,2.7-14.2,2.7c-5.8,0-10.5-0.9-14.3-2.8
			c-3.7-1.9-6.5-4.8-8.4-8.7c-1.9-3.9-2.8-8.8-2.8-14.8V14.4c0-0.8,0.3-1.1,0.8-1.1h2.9c0.7,0,1,0.3,1,1v52.1c0,6.7,1.7,11.7,5.2,15
			c3.5,3.3,8.7,5,15.7,5c4.7,0,8.7-0.8,11.8-2.3c3.1-1.5,5.5-3.8,7-6.7c1.5-3,2.3-6.7,2.3-11.3V14.2c0-0.6,0.3-0.9,0.8-0.9h2.5
			c0.5,0,0.8,0.3,0.8,0.9V66C125.8,71.5,124.8,76.1,123,79.8z"/>
		<path class="st0" d="M180.7,19.1c-3.2-1.6-6.9-2.5-11.2-2.5c-5.6,0-10.2,1.4-13.6,4.1c-3.5,2.7-5.2,6.6-5.2,11.7
			c0,1.3,0.3,2.8,0.8,4.5c0.5,1.7,1.7,3.4,3.6,5.1c1.8,1.7,4.5,3.2,8.2,4.6l14.2,5.2c6.1,2.2,10.4,4.9,12.9,8
			c2.5,3.2,3.7,6.9,3.7,11.2c0,4.2-1,7.8-3,10.7c-2,3-4.9,5.2-8.7,6.7c-3.7,1.5-8.2,2.3-13.4,2.3c-3.8,0-7.2-0.5-10.4-1.4
			c-3.1-0.9-5.9-2.3-8.4-4.2c-2.5-1.9-4.7-4.2-6.8-7.1c-0.3-0.3-0.4-0.7-0.3-1c0.1-0.3,0.4-0.7,0.9-1l1.1-0.8c0.5-0.3,1-0.5,1.2-0.5
			c0.3,0,0.5,0.2,0.8,0.5c1.9,2.5,3.8,4.5,5.8,6.2c1.9,1.7,4.1,2.9,6.6,3.8c2.5,0.8,5.6,1.2,9.3,1.2c6.1,0,11-1.2,14.8-3.5
			c3.7-2.3,5.6-6.2,5.6-11.7c0-2.1-0.4-3.9-1.1-5.6c-0.7-1.6-2-3.2-4-4.7c-1.9-1.5-4.8-2.9-8.5-4.4l-15.6-6
			c-3.7-1.4-6.6-3.1-8.7-5.1s-3.5-4.1-4.3-6.3c-0.8-2.3-1.2-4.5-1.2-6.7c0-4.3,1-8,3-11c2-3,4.8-5.3,8.4-6.8
			c3.6-1.6,7.7-2.4,12.5-2.4c3.2,0,6.1,0.4,8.8,1.2c2.6,0.8,5,1.9,7.3,3.4c2.3,1.5,4.4,3.2,6.3,5.3c0.2,0.2,0.3,0.4,0.4,0.7
			c0.1,0.2-0.1,0.5-0.4,0.8l-2.3,2.1c-0.3,0.2-0.5,0.3-0.6,0.2c-0.1-0.1-0.4-0.3-0.7-0.7C186.4,22.7,183.8,20.7,180.7,19.1z"/>
		<path class="st0" d="M205,14c0-0.3,0.1-0.5,0.2-0.6s0.3-0.2,0.6-0.2h53c0.3,0,0.5,0.1,0.6,0.2s0.2,0.3,0.2,0.6v2.7
			c0,0.5-0.3,0.7-0.8,0.7h-21.9c-0.7,0-1,0.3-1,0.9v70.3c0,0.7-0.3,1-0.9,1H232c-0.7,0-1-0.3-1-1V18.3c0-0.6-0.3-0.9-1-0.9h-24.1
			c-0.6,0-0.8-0.2-0.8-0.7V14z"/>
		<path class="st0" d="M261.1,89.5c-0.1-0.2-0.2-0.4-0.1-0.7l27.3-74.4c0.1-0.4,0.3-0.7,0.6-0.9c0.2-0.2,0.6-0.3,1.1-0.3h3.4
			c1,0,1.6,0.3,1.9,1l27,74.4c0.1,0.3,0.1,0.5-0.1,0.7c-0.2,0.2-0.4,0.3-0.8,0.3h-2.5c-0.7,0-1.1-0.3-1.3-0.8l-8.3-23
			c-0.1-0.3-0.2-0.5-0.3-0.6c-0.1-0.1-0.4-0.2-0.7-0.2H275c-0.5,0-0.8,0.2-1,0.7L265.4,89c-0.1,0.3-0.2,0.5-0.4,0.6
			c-0.2,0.1-0.4,0.2-0.8,0.2h-2.6C261.4,89.7,261.2,89.6,261.1,89.5z M306.4,61.1c0.7,0,0.9-0.3,0.7-1l-14.7-40.2
			c-0.3-0.7-0.5-1-0.8-1c-0.2,0-0.5,0.4-0.8,1.1l-14.9,40.3c-0.2,0.6,0,0.8,0.5,0.8H306.4z"/>
		<path class="st0" d="M343.7,13.3c0.6,0,0.9,0.3,0.9,1v74.2c0,0.5-0.1,0.8-0.2,1c-0.1,0.2-0.5,0.3-1,0.3H341
			c-0.5,0-0.8-0.1-0.9-0.2c-0.1-0.1-0.2-0.4-0.2-0.8V14.3c0-0.7,0.3-1,0.9-1H343.7z"/>
		<path class="st0" d="M422,13.3c0.6,0,0.9,0.3,0.9,1v74.4c0,0.3-0.1,0.6-0.2,0.8c-0.1,0.2-0.4,0.3-0.7,0.3h-1.5
			c-0.4,0-0.8,0-1.1-0.1c-0.3,0-0.6-0.2-0.9-0.6l-44.1-65c-0.3-0.5-0.6-0.8-0.9-0.7c-0.2,0.1-0.4,0.3-0.4,0.7v64.7
			c0,0.6-0.3,0.9-1,0.9h-2.6c-0.6,0-0.9-0.3-0.9-1V14.3c0-0.7,0.3-1,0.9-1h1.9c0.4,0,0.7,0,0.9,0.1c0.2,0.1,0.4,0.3,0.6,0.6l44,64.9
			c0.3,0.5,0.7,0.6,1,0.5c0.3-0.2,0.5-0.4,0.5-0.7V14.2c0-0.6,0.3-0.9,0.8-0.9H422z"/>
		<path class="st0" d="M440.7,89.5c-0.1-0.2-0.2-0.4-0.1-0.7l27.3-74.4c0.1-0.4,0.3-0.7,0.6-0.9c0.2-0.2,0.6-0.3,1.1-0.3h3.4
			c1,0,1.6,0.3,1.9,1l27,74.4c0.1,0.3,0.1,0.5-0.1,0.7c-0.2,0.2-0.4,0.3-0.8,0.3h-2.5c-0.7,0-1.1-0.3-1.3-0.8l-8.3-23
			c-0.1-0.3-0.2-0.5-0.3-0.6c-0.1-0.1-0.4-0.2-0.7-0.2h-33.2c-0.5,0-0.8,0.2-1,0.7L445.1,89c-0.1,0.3-0.2,0.5-0.4,0.6
			c-0.2,0.1-0.4,0.2-0.8,0.2h-2.6C441.1,89.7,440.9,89.6,440.7,89.5z M486.1,61.1c0.7,0,0.9-0.3,0.7-1L472,19.9
			c-0.3-0.7-0.5-1-0.8-1s-0.5,0.4-0.8,1.1l-14.9,40.3c-0.2,0.6,0,0.8,0.5,0.8H486.1z"/>
		<path class="st0" d="M519.7,89.5c-0.1-0.1-0.2-0.3-0.2-0.6V14.3c0-0.4,0.1-0.7,0.2-0.8c0.1-0.1,0.4-0.2,0.7-0.2h21.1
			c8.6,0,15.2,1.7,20,5c4.7,3.4,7.1,8.2,7.1,14.6c0,4.3-1.1,8-3.3,10.9c-2.2,3-5.6,5.1-10.1,6.5c-0.3,0.1-0.4,0.2-0.4,0.5
			c0,0.2,0.1,0.4,0.4,0.5c4.7,0.9,8.4,2.9,11.2,5.9c2.8,3,4.2,7.1,4.2,12.3c0,6.8-2.5,11.9-7.6,15.2c-5,3.4-12.1,5-21.1,5h-21.5
			C520.1,89.7,519.9,89.6,519.7,89.5z M542.8,49c2.4,0,4.8-0.2,7.3-0.7c2.4-0.4,4.7-1.2,6.7-2.4c2.1-1.1,3.7-2.7,5-4.7
			c1.3-2,1.9-4.6,1.9-7.8c0-5.6-2-9.6-6.1-12.2c-4.1-2.6-9.5-3.9-16.5-3.9h-16c-0.6,0-0.9,0.3-0.9,0.8V48c0,0.7,0.2,1,0.7,1H542.8z
			 M541.4,85.6c8.2,0,14.2-1.2,18.2-3.6s6-6.4,6-12c0-4.1-1-7.4-3-9.9c-2-2.5-4.7-4.3-8.1-5.4c-3.4-1.1-7.3-1.6-11.6-1.6h-17.4
			c-0.8,0-1.1,0.3-1.1,0.9v30.5c0,0.7,0.2,1,0.7,1H541.4z"/>
		<path class="st0" d="M591.4,13.3h2.9c0.6,0,0.9,0.3,0.9,1v70.3c0,0.6,0.3,0.9,0.9,0.9h37.4c0.5,0,0.8,0.2,0.8,0.7V89
			c0,0.3-0.1,0.5-0.2,0.6c-0.1,0.1-0.3,0.2-0.6,0.2h-42.2c-0.3,0-0.6-0.1-0.7-0.3c-0.1-0.2-0.2-0.4-0.2-0.8V14.3
			C590.5,13.6,590.8,13.3,591.4,13.3z"/>
		<path class="st0" d="M652.4,13.3h42.7c0.5,0,0.7,0.2,0.7,0.7v2.7c0,0.5-0.3,0.7-0.8,0.7h-37.9c-0.6,0-0.9,0.3-0.9,0.9v30
			c0,0.5,0.3,0.7,0.9,0.7h29.8c0.5,0,0.7,0.2,0.7,0.7v2.7c0,0.3-0.1,0.5-0.2,0.6c-0.1,0.1-0.3,0.2-0.7,0.2h-29.7
			c-0.6,0-0.9,0.3-0.9,0.9v30.6c0,0.6,0.3,0.9,0.9,0.9h39.4c0.5,0,0.8,0.2,0.8,0.7V89c0,0.3-0.1,0.5-0.2,0.6
			c-0.1,0.1-0.3,0.2-0.6,0.2h-44.3c-0.6,0-0.9-0.3-0.9-1V14.3C651.5,13.6,651.8,13.3,652.4,13.3z"/>
		<path class="st0" d="M59.5,148c-2.3,3.2-5.5,5.5-9.5,6.9c-4,1.4-8.6,2.2-13.9,2.2H17.3c-0.6,0-0.8,0.3-0.8,0.9v31.8
			c0,0.6-0.3,0.9-0.8,0.9h-3.1c-0.3,0-0.5-0.1-0.6-0.2c-0.1-0.1-0.2-0.3-0.2-0.6v-74.6c0-0.7,0.3-1,0.9-1h22.9
			c5.4,0,10.1,0.7,14.2,2.1c4.1,1.4,7.3,3.7,9.7,6.8c2.3,3.1,3.5,7.3,3.5,12.4C62.9,140.7,61.8,144.8,59.5,148z M55.3,125.2
			c-1.8-2.5-4.4-4.2-7.8-5.3c-3.4-1-7.4-1.5-12.1-1.5h-18c-0.6,0-0.9,0.3-0.9,0.8v32.7c0,0.7,0.2,1,0.7,1h19
			c6.6,0,11.9-1.4,15.9-4.1c4-2.7,6-7.2,6-13.5C58,131,57.1,127.7,55.3,125.2z"/>
		<path class="st0" d="M131.6,190.2c-0.2,0.3-0.4,0.5-0.8,0.5h-2.9c-0.5,0-0.9-0.3-1.2-0.9l-14.6-34.6c-0.3-0.7-1-1-2.2-1H87.7
			c-0.5,0-0.8,0.1-1,0.3c-0.2,0.2-0.3,0.5-0.3,0.8v34.3c0,0.8-0.3,1.1-1,1.1h-2.7c-0.4,0-0.7-0.1-0.8-0.3c-0.1-0.2-0.2-0.4-0.2-0.7
			v-74.5c0-0.7,0.3-1,0.9-1h26.6c7.4,0,13.2,1.6,17.3,4.7c4.1,3.2,6.2,7.9,6.2,14.2c0,4.2-0.8,7.6-2.4,10.4c-1.6,2.7-3.6,4.8-6,6.3
			c-2.4,1.5-4.8,2.5-7.2,3.1c-0.4,0.1-0.6,0.3-0.4,0.7l15,35.5C131.8,189.6,131.8,189.9,131.6,190.2z M122.2,146.3
			c3.7-2.5,5.6-6.6,5.6-12.4c0-5.3-1.5-9.2-4.6-11.7c-3.1-2.5-7.8-3.8-14-3.8H87.5c-0.8,0-1.1,0.3-1.1,0.8v29.9
			c0,0.6,0.2,0.9,0.7,0.9h18.4C112.9,150,118.4,148.8,122.2,146.3z"/>
		<path class="st0" d="M161.8,187.3c-4.6-3-8.2-7.3-10.7-13.1c-2.5-5.8-3.7-12.9-3.7-21.3c0-8.6,1.3-15.8,3.8-21.7
			c2.5-5.9,6.1-10.4,10.7-13.4c4.6-3,10.2-4.5,16.6-4.5c6.5,0,12,1.5,16.6,4.5c4.6,3,8.1,7.5,10.6,13.3c2.5,5.8,3.7,13,3.7,21.6
			c0,8.4-1.2,15.6-3.7,21.4c-2.5,5.8-6,10.2-10.7,13.2c-4.6,3-10.2,4.5-16.6,4.5C171.9,191.7,166.4,190.3,161.8,187.3z M197.9,178.8
			c4.4-5.7,6.5-14.4,6.5-26.1c0-11.8-2.2-20.6-6.6-26.4c-4.4-5.8-10.9-8.7-19.3-8.7c-8.5,0-15,2.9-19.5,8.8
			c-4.5,5.8-6.7,14.6-6.7,26.4c0,11.6,2.2,20.3,6.7,26.1c4.5,5.8,11,8.7,19.5,8.7C187.1,187.4,193.6,184.6,197.9,178.8z"/>
		<path class="st0" d="M243.7,187.5c-2,2.8-5.5,4.3-10.5,4.3c-2.8,0-5.3-0.4-7.4-1.1c-2.1-0.7-3.3-1.2-3.7-1.5
			c-0.1-0.1-0.3-0.3-0.4-0.4c-0.1-0.1-0.1-0.3-0.1-0.5l0.9-3.2c0.1-0.5,0.3-0.6,0.8-0.4c1.1,0.5,2.3,1,3.7,1.6s3.3,0.9,5.8,0.9
			c3.4,0,5.7-0.9,7-2.6c1.3-1.7,2-5,2-9.8v-59.6c0-0.6,0.3-0.9,0.8-0.9h3.1c0.5,0,0.8,0.3,0.8,1v60.6
			C246.7,180.8,245.7,184.6,243.7,187.5z"/>
		<path class="st0" d="M271.2,114.3h42.7c0.5,0,0.7,0.2,0.7,0.7v2.7c0,0.5-0.3,0.7-0.8,0.7h-37.9c-0.6,0-0.9,0.3-0.9,0.9v30
			c0,0.5,0.3,0.7,0.9,0.7h29.8c0.5,0,0.7,0.2,0.7,0.7v2.7c0,0.3-0.1,0.5-0.2,0.6c-0.1,0.1-0.3,0.2-0.7,0.2h-29.7
			c-0.6,0-0.9,0.3-0.9,0.9v30.6c0,0.6,0.3,0.9,0.9,0.9h39.4c0.5,0,0.8,0.2,0.8,0.7v2.7c0,0.3-0.1,0.5-0.2,0.6
			c-0.1,0.1-0.3,0.2-0.6,0.2h-44.3c-0.6,0-0.9-0.3-0.9-1v-74.4C270.3,114.6,270.6,114.3,271.2,114.3z"/>
		<path class="st0" d="M365.8,114.9c3,1.1,5.7,2.6,8.1,4.5c2.4,1.9,4.4,4,6,6.4c1.6,2.4,2.5,4.9,2.8,7.6c0.1,0.3,0.1,0.5,0,0.6
			c-0.1,0.1-0.2,0.2-0.5,0.2l-3.7,0.4c-0.2,0.1-0.4,0-0.5-0.1c-0.1-0.1-0.2-0.3-0.3-0.6c-1.2-4.9-3.7-8.8-7.5-11.8
			s-8.3-4.5-13.5-4.5c-8.4,0-14.8,3-19.2,9c-4.4,6-6.6,14.7-6.6,26.2c0,11.1,2.2,19.6,6.6,25.6c4.4,6,11.1,9,20,9
			c5.4,0,9.8-1.3,13.3-3.9c3.5-2.6,6.3-6.6,8.3-12c0.1-0.2,0.3-0.3,0.6-0.2l3.5,1c0.1,0.1,0.2,0.2,0.3,0.3c0,0.1,0,0.3-0.1,0.5
			c-0.7,2.3-1.6,4.4-2.9,6.3c-1.2,1.9-2.7,3.6-4.3,5.2c-1.6,1.5-3.5,2.8-5.5,3.9c-2,1.1-4.2,1.9-6.5,2.5c-2.3,0.5-4.7,0.8-7.2,0.8
			c-6.6,0-12.2-1.5-16.9-4.6c-4.7-3.1-8.2-7.5-10.7-13.3c-2.4-5.8-3.7-12.8-3.7-21.1c0-8.3,1.2-15.4,3.7-21.3
			c2.4-5.9,5.9-10.4,10.5-13.5c4.6-3.1,10-4.7,16.4-4.7C359.7,113.3,362.8,113.8,365.8,114.9z"/>
		<path class="st0" d="M393.9,115c0-0.3,0.1-0.5,0.2-0.6s0.3-0.2,0.6-0.2h53c0.3,0,0.5,0.1,0.6,0.2s0.2,0.3,0.2,0.6v2.7
			c0,0.5-0.3,0.7-0.8,0.7h-21.9c-0.7,0-1,0.3-1,0.9v70.3c0,0.7-0.3,1-0.9,1h-2.8c-0.7,0-1-0.3-1-1v-70.3c0-0.6-0.3-0.9-1-0.9h-24.1
			c-0.6,0-0.8-0.2-0.8-0.7V115z"/>
		<path class="st0" d="M496.4,120.1c-3.2-1.6-6.9-2.5-11.2-2.5c-5.6,0-10.2,1.4-13.6,4.1c-3.5,2.7-5.2,6.6-5.2,11.7
			c0,1.3,0.3,2.8,0.8,4.5c0.5,1.7,1.7,3.4,3.6,5.1c1.8,1.7,4.5,3.2,8.2,4.6l14.2,5.2c6.1,2.2,10.4,4.9,12.9,8
			c2.5,3.2,3.7,6.9,3.7,11.2c0,4.2-1,7.8-3,10.7c-2,3-4.9,5.2-8.7,6.7c-3.7,1.5-8.2,2.3-13.4,2.3c-3.8,0-7.2-0.5-10.4-1.4
			c-3.1-0.9-5.9-2.3-8.4-4.2c-2.5-1.9-4.7-4.2-6.8-7.1c-0.3-0.3-0.4-0.7-0.3-1c0.1-0.3,0.4-0.7,0.9-1l1.1-0.8c0.5-0.3,1-0.5,1.2-0.5
			c0.3,0,0.5,0.2,0.8,0.5c1.9,2.5,3.8,4.5,5.8,6.2c1.9,1.7,4.1,2.9,6.6,3.8c2.5,0.8,5.6,1.2,9.3,1.2c6.1,0,11-1.2,14.8-3.5
			c3.7-2.3,5.6-6.2,5.6-11.7c0-2.1-0.4-3.9-1.1-5.6c-0.7-1.6-2-3.2-4-4.7c-1.9-1.5-4.8-2.9-8.5-4.4l-15.6-6
			c-3.7-1.4-6.6-3.1-8.7-5.1s-3.5-4.1-4.3-6.3c-0.8-2.3-1.2-4.5-1.2-6.7c0-4.3,1-8,3-11c2-3,4.8-5.3,8.4-6.8
			c3.6-1.6,7.7-2.4,12.5-2.4c3.2,0,6.1,0.4,8.8,1.2c2.6,0.8,5,1.9,7.3,3.4c2.3,1.5,4.4,3.2,6.3,5.3c0.2,0.2,0.3,0.4,0.4,0.7
			c0.1,0.2-0.1,0.5-0.4,0.8l-2.3,2.1c-0.3,0.2-0.5,0.3-0.6,0.2c-0.1-0.1-0.4-0.3-0.7-0.7C502.1,123.7,499.5,121.7,496.4,120.1z"/>
	</g>
</g>
</svg>
