<?xml version="1.0" encoding="utf-8"?>
<!-- Generator: Adobe Illustrator 22.1.0, SVG Export Plug-In . SVG Version: 6.00 Build 0)  -->
<svg version="1.1" id="Capa_1" xmlns="http://www.w3.org/2000/svg" xmlns:xlink="http://www.w3.org/1999/xlink" x="0px" y="0px"
	 viewBox="0 0 940 202" style="enable-background:new 0 0 940 202;" xml:space="preserve">
<style type="text/css">
	.st0{fill:#FFFFFF;}
	.st1{font-family:'LibreFranklin-Thin';}
	.st2{font-size:104px;}
</style>
<g>
	<path class="st0" d="M4.8-353.4c0-0.3,0.1-0.5,0.2-0.6s0.3-0.2,0.6-0.2h53c0.3,0,0.5,0.1,0.6,0.2s0.2,0.3,0.2,0.6v2.7
		c0,0.5-0.3,0.7-0.8,0.7h-22c-0.7,0-1,0.3-1,0.9v70.3c0,0.7-0.3,1-0.9,1h-2.8c-0.7,0-1-0.3-1-1v-70.3c0-0.6-0.3-0.9-1-0.9H5.7
		c-0.6,0-0.8-0.2-0.8-0.7L4.8-353.4L4.8-353.4z"/>
	<path class="st0" d="M126.3-278.2c-0.2,0.3-0.4,0.5-0.8,0.5h-2.9c-0.5,0-0.9-0.3-1.2-0.9l-14.6-34.6c-0.3-0.7-1-1-2.2-1H82.4
		c-0.5,0-0.8,0.1-1,0.3c-0.2,0.2-0.3,0.5-0.3,0.8v34.3c0,0.8-0.3,1.1-1,1.1h-2.7c-0.4,0-0.7-0.1-0.8-0.3c-0.1-0.2-0.2-0.4-0.2-0.7
		v-74.4c0-0.7,0.3-1,0.9-1h26.6c7.4,0,13.2,1.6,17.3,4.7c4.1,3.2,6.2,7.9,6.2,14.2c0,4.2-0.8,7.6-2.4,10.4c-1.6,2.7-3.6,4.8-6,6.3
		s-4.8,2.5-7.2,3.1c-0.4,0.1-0.6,0.3-0.4,0.7l15,35.5C126.5-278.8,126.5-278.5,126.3-278.2z M116.9-322.1c3.7-2.5,5.6-6.6,5.6-12.4
		c0-5.3-1.5-9.2-4.6-11.7s-7.8-3.8-14-3.8H82.3c-0.8,0-1.1,0.3-1.1,0.8v29.9c0,0.6,0.2,0.9,0.7,0.9h18.4
		C107.7-318.4,113.2-319.6,116.9-322.1z"/>
	<path class="st0" d="M138.6-277.9c-0.1-0.2-0.2-0.4-0.1-0.7l27.3-74.4c0.1-0.4,0.3-0.7,0.6-0.9c0.2-0.2,0.6-0.3,1.1-0.3h3.4
		c1,0,1.6,0.3,1.9,1l27,74.4c0.1,0.3,0.1,0.5-0.1,0.7c-0.2,0.2-0.4,0.3-0.8,0.3h-2.5c-0.7,0-1.1-0.3-1.3-0.8l-8.3-23
		c-0.1-0.3-0.2-0.5-0.3-0.6c-0.1-0.1-0.4-0.2-0.7-0.2h-33.2c-0.5,0-0.8,0.2-1,0.7l-8.6,23.3c-0.1,0.3-0.2,0.5-0.4,0.6
		c-0.2,0.1-0.4,0.2-0.8,0.2h-2.6C139-277.7,138.8-277.8,138.6-277.9z M184-306.3c0.7,0,0.9-0.3,0.7-1L170-347.5
		c-0.3-0.7-0.5-1-0.8-1c-0.2,0-0.5,0.4-0.8,1.1l-14.9,40.3c-0.2,0.6,0,0.8,0.5,0.8C154-306.3,184-306.3,184-306.3z"/>
	<path class="st0" d="M270.8-354.1c0.6,0,0.9,0.3,0.9,1v74.4c0,0.3-0.1,0.6-0.2,0.8c-0.1,0.2-0.4,0.3-0.7,0.3h-1.5
		c-0.4,0-0.8,0-1.1-0.1c-0.3,0-0.6-0.2-0.9-0.6l-44.1-65c-0.3-0.5-0.6-0.8-0.9-0.7c-0.2,0.1-0.4,0.3-0.4,0.7v64.7
		c0,0.6-0.3,0.9-1,0.9h-2.6c-0.6,0-0.9-0.3-0.9-1v-74.4c0-0.7,0.3-1,0.9-1h1.9c0.4,0,0.7,0,0.9,0.1s0.4,0.3,0.6,0.6l44,64.9
		c0.3,0.5,0.7,0.6,1,0.5c0.3-0.2,0.5-0.4,0.5-0.7v-64.5c0-0.6,0.3-0.9,0.8-0.9H270.8z"/>
	<path class="st0" d="M327.6-348.3c-3.2-1.6-6.9-2.5-11.2-2.5c-5.6,0-10.2,1.4-13.6,4.1c-3.5,2.7-5.2,6.6-5.2,11.7
		c0,1.3,0.3,2.8,0.8,4.5s1.7,3.4,3.6,5.1c1.8,1.7,4.5,3.2,8.2,4.6l14.2,5.2c6.1,2.2,10.4,4.9,12.9,8c2.5,3.2,3.7,6.9,3.7,11.2
		c0,4.2-1,7.8-3,10.7c-2,3-4.9,5.2-8.7,6.7c-3.7,1.5-8.2,2.3-13.4,2.3c-3.8,0-7.2-0.5-10.4-1.4c-3.1-0.9-5.9-2.3-8.4-4.2
		s-4.7-4.2-6.8-7.1c-0.3-0.3-0.4-0.7-0.3-1c0.1-0.3,0.4-0.7,0.9-1l1.1-0.8c0.5-0.3,1-0.5,1.2-0.5c0.3,0,0.5,0.2,0.8,0.5
		c1.9,2.5,3.8,4.5,5.8,6.2c1.9,1.7,4.1,2.9,6.6,3.8c2.5,0.8,5.6,1.2,9.3,1.2c6.1,0,11-1.2,14.8-3.5c3.7-2.3,5.6-6.2,5.6-11.7
		c0-2.1-0.4-3.9-1.1-5.6c-0.7-1.6-2-3.2-4-4.7c-1.9-1.5-4.8-2.9-8.5-4.4l-15.6-6c-3.7-1.4-6.6-3.1-8.7-5.1s-3.5-4.1-4.3-6.3
		c-0.8-2.3-1.2-4.5-1.2-6.7c0-4.3,1-8,3-11s4.8-5.3,8.4-6.8c3.6-1.6,7.7-2.4,12.5-2.4c3.2,0,6.1,0.4,8.8,1.2c2.6,0.8,5,1.9,7.3,3.4
		s4.4,3.2,6.3,5.3c0.2,0.2,0.3,0.4,0.4,0.7c0.1,0.2-0.1,0.5-0.4,0.8l-2.3,2.1c-0.3,0.2-0.5,0.3-0.6,0.2s-0.4-0.3-0.7-0.7
		C333.4-344.7,330.8-346.7,327.6-348.3z"/>
	<path class="st0" d="M360.8-354.1h41.7c0.5,0,0.7,0.2,0.7,0.7v2.7c0,0.5-0.3,0.7-0.8,0.7h-36.9c-0.6,0-0.9,0.3-0.9,0.9v31.3
		c0,0.5,0.3,0.7,0.9,0.7h30.8c0.5,0,0.7,0.2,0.7,0.7v2.7c0,0.5-0.3,0.7-0.8,0.7h-30.7c-0.6,0-0.9,0.3-0.9,0.9v33.7
		c0,0.5-0.2,0.7-0.7,0.7h-3.1c-0.3,0-0.6-0.1-0.7-0.2c-0.1-0.1-0.2-0.4-0.2-0.8v-74.4C359.9-353.8,360.2-354.1,360.8-354.1z"/>
	<path class="st0" d="M429-281.1c-4.6-3-8.2-7.3-10.7-13.1c-2.5-5.8-3.7-12.9-3.7-21.3c0-8.6,1.3-15.8,3.8-21.7
		c2.5-5.9,6.1-10.4,10.7-13.4s10.2-4.5,16.6-4.5c6.5,0,12,1.5,16.6,4.5s8.1,7.5,10.6,13.3c2.5,5.8,3.7,13,3.7,21.6
		c0,8.4-1.2,15.6-3.7,21.4c-2.5,5.8-6,10.2-10.7,13.2c-4.6,3-10.2,4.5-16.6,4.5C439.2-276.7,433.7-278.1,429-281.1z M465.2-289.6
		c4.4-5.7,6.5-14.4,6.5-26.1c0-11.8-2.2-20.6-6.6-26.4c-4.4-5.8-10.9-8.7-19.3-8.7c-8.5,0-15,2.9-19.5,8.8
		c-4.5,5.8-6.7,14.6-6.7,26.4c0,11.6,2.2,20.3,6.7,26.1s11,8.7,19.5,8.7C454.4-281,460.8-283.8,465.2-289.6z"/>
	<path class="st0" d="M546.9-278.2c-0.2,0.3-0.4,0.5-0.8,0.5h-2.9c-0.5,0-0.9-0.3-1.2-0.9l-14.6-34.6c-0.3-0.7-1-1-2.2-1H503
		c-0.5,0-0.8,0.1-1,0.3c-0.2,0.2-0.3,0.5-0.3,0.8v34.3c0,0.8-0.3,1.1-1,1.1H498c-0.4,0-0.7-0.1-0.8-0.3c-0.1-0.2-0.2-0.4-0.2-0.7
		v-74.4c0-0.7,0.3-1,0.9-1h26.6c7.4,0,13.2,1.6,17.3,4.7c4.1,3.2,6.2,7.9,6.2,14.2c0,4.2-0.8,7.6-2.4,10.4c-1.6,2.7-3.6,4.8-6,6.3
		s-4.8,2.5-7.2,3.1c-0.4,0.1-0.6,0.3-0.4,0.7l15,35.5C547.1-278.8,547-278.5,546.9-278.2z M537.5-322.1c3.7-2.5,5.6-6.6,5.6-12.4
		c0-5.3-1.5-9.2-4.6-11.7s-7.8-3.8-14-3.8H503c-0.8,0-1.1,0.3-1.1,0.8v29.9c0,0.6,0.2,0.9,0.7,0.9H521
		C528.2-318.4,533.7-319.6,537.5-322.1z"/>
	<path class="st0" d="M567.4-278.7v-74.4c0-0.7,0.3-1,0.9-1h2.7c0.4,0,0.7,0.1,0.9,0.2c0.2,0.1,0.3,0.3,0.4,0.7l27.5,69
		c0.3,0.7,0.5,1,0.8,1s0.5-0.4,0.8-1.1l27.9-69c0.2-0.5,0.6-0.7,1.1-0.7h3c0.6,0,0.9,0.3,0.9,1v74.4c0,0.7-0.3,1-0.9,1h-2.8
		c-0.3,0-0.6-0.1-0.8-0.2c-0.2-0.1-0.3-0.4-0.3-0.7v-63.8c0-0.3,0-0.4-0.1-0.3s-0.1,0.2-0.2,0.3l-25.6,63.4
		c-0.3,0.8-0.8,1.1-1.6,1.1h-2.8c-1,0-1.7-0.3-2-1l-25.1-63c-0.1-0.1-0.1-0.2-0.2-0.3c-0.1,0-0.1,0.1-0.1,0.3v63.1
		c0,0.3-0.1,0.5-0.3,0.7c-0.2,0.2-0.4,0.3-0.8,0.3h-2.6C567.7-277.7,567.4-278,567.4-278.7z"/>
	<path class="st0" d="M652.3-277.9c-0.1-0.2-0.2-0.4-0.1-0.7l27.3-74.4c0.1-0.4,0.3-0.7,0.6-0.9c0.2-0.2,0.6-0.3,1.1-0.3h3.4
		c1,0,1.6,0.3,1.9,1l27,74.4c0.1,0.3,0.1,0.5-0.1,0.7c-0.2,0.2-0.4,0.3-0.8,0.3h-2.5c-0.7,0-1.1-0.3-1.3-0.8l-8.3-23
		c-0.1-0.3-0.2-0.5-0.3-0.6c-0.1-0.1-0.4-0.2-0.7-0.2h-33.2c-0.5,0-0.8,0.2-1,0.7l-8.7,23.3c-0.1,0.3-0.2,0.5-0.4,0.6
		c-0.2,0.1-0.4,0.2-0.8,0.2h-2.6C652.6-277.7,652.4-277.8,652.3-277.9z M697.6-306.3c0.7,0,0.9-0.3,0.7-1l-14.7-40.2
		c-0.3-0.7-0.5-1-0.8-1c-0.2,0-0.5,0.4-0.8,1.1l-14.9,40.3c-0.2,0.6,0,0.8,0.5,0.8C667.6-306.3,697.6-306.3,697.6-306.3z"/>
	<path class="st0" d="M713.9-353.4c0-0.3,0.1-0.5,0.2-0.6c0.1-0.1,0.3-0.2,0.6-0.2h53c0.3,0,0.5,0.1,0.6,0.2s0.2,0.3,0.2,0.6v2.7
		c0,0.5-0.3,0.7-0.8,0.7h-21.9c-0.7,0-1,0.3-1,0.9v70.3c0,0.7-0.3,1-0.9,1h-2.8c-0.7,0-1-0.3-1-1v-70.3c0-0.6-0.3-0.9-1-0.9H715
		c-0.6,0-0.8-0.2-0.8-0.7v-2.7H713.9z"/>
	<path class="st0" d="M789.3-354.1c0.6,0,0.9,0.3,0.9,1v74.2c0,0.5-0.1,0.8-0.2,1c-0.1,0.2-0.5,0.3-1,0.3h-2.4
		c-0.5,0-0.8-0.1-0.9-0.2c-0.1-0.1-0.2-0.4-0.2-0.8v-74.5c0-0.7,0.3-1,0.9-1H789.3z"/>
	<path class="st0" d="M868.1-353.9c0.1,0.2,0.1,0.4,0,0.7l-27,74.4c-0.3,0.8-0.8,1.1-1.6,1.1h-3.3c-1.1,0-1.8-0.3-2-1l-26.3-74.4
		c-0.1-0.3,0-0.6,0.1-0.8c0.1-0.2,0.4-0.3,0.7-0.3h2.4c0.7,0,1.1,0.3,1.3,0.8l24.4,69c0.5,1.4,1.1,1.4,1.6-0.1l25.1-69
		c0.2-0.5,0.6-0.7,1.1-0.7h2.6C867.7-354.1,867.9-354,868.1-353.9z"/>
	<path class="st0" d="M886.7-354.1h42.7c0.5,0,0.7,0.2,0.7,0.7v2.7c0,0.5-0.3,0.7-0.8,0.7h-37.9c-0.6,0-0.9,0.3-0.9,0.9v30
		c0,0.5,0.3,0.7,0.9,0.7h29.8c0.5,0,0.7,0.2,0.7,0.7v2.7c0,0.3-0.1,0.5-0.2,0.6c-0.1,0.1-0.3,0.2-0.7,0.2h-29.7
		c-0.6,0-0.9,0.3-0.9,0.9v30.6c0,0.6,0.3,0.9,0.9,0.9h39.4c0.5,0,0.8,0.2,0.8,0.7v2.7c0,0.3-0.1,0.5-0.2,0.6
		c-0.1,0.1-0.3,0.2-0.6,0.2h-44.3c-0.6,0-0.9-0.3-0.9-1v-74.5C885.8-353.8,886.1-354.1,886.7-354.1z"/>
	<path class="st0" d="M12.7-253.1h42.7c0.5,0,0.7,0.2,0.7,0.7v2.7c0,0.5-0.3,0.7-0.8,0.7H17.4c-0.6,0-0.9,0.3-0.9,0.9v30
		c0,0.5,0.3,0.7,0.9,0.7h29.8c0.5,0,0.7,0.2,0.7,0.7v2.7c0,0.3-0.1,0.5-0.2,0.6c-0.1,0.1-0.3,0.2-0.7,0.2H17.4
		c-0.6,0-0.9,0.3-0.9,0.9v30.6c0,0.6,0.3,0.9,0.9,0.9h39.4c0.5,0,0.8,0.2,0.8,0.7v2.7c0,0.3-0.1,0.5-0.2,0.6
		c-0.1,0.1-0.3,0.2-0.6,0.2H12.7c-0.6,0-0.9-0.3-0.9-1V-252C11.7-252.8,12.1-253.1,12.7-253.1z"/>
	<path class="st0" d="M107.3-252.5c3,1.1,5.7,2.6,8.1,4.5c2.4,1.9,4.4,4,6,6.4s2.5,4.9,2.8,7.6c0.1,0.3,0.1,0.5,0,0.6
		s-0.2,0.2-0.5,0.2l-3.7,0.4c-0.2,0.1-0.4,0-0.5-0.1s-0.2-0.3-0.3-0.6c-1.2-4.9-3.7-8.8-7.5-11.8s-8.3-4.5-13.5-4.5
		c-8.4,0-14.8,3-19.2,9s-6.6,14.7-6.6,26.2c0,11.1,2.2,19.6,6.6,25.6s11.1,9,20,9c5.4,0,9.8-1.3,13.3-3.9c3.5-2.6,6.3-6.6,8.3-12
		c0.1-0.2,0.3-0.3,0.6-0.2l3.5,1c0.1,0.1,0.2,0.2,0.3,0.3c0,0.1,0,0.3-0.1,0.5c-0.7,2.3-1.6,4.4-2.9,6.3c-1.2,1.9-2.7,3.6-4.3,5.2
		c-1.6,1.5-3.5,2.8-5.5,3.9c-2,1.1-4.2,1.9-6.5,2.5c-2.3,0.5-4.7,0.8-7.2,0.8c-6.6,0-12.2-1.5-16.9-4.6c-4.7-3.1-8.2-7.5-10.7-13.3
		c-2.4-5.8-3.7-12.8-3.7-21.1s1.2-15.4,3.7-21.3c2.4-5.9,5.9-10.4,10.5-13.5c4.6-3.1,10-4.7,16.4-4.7
		C101.2-254.1,104.3-253.6,107.3-252.5z"/>
	<path class="st0" d="M153.9-180.1c-4.6-3-8.2-7.3-10.7-13.1s-3.7-12.9-3.7-21.3c0-8.6,1.3-15.8,3.8-21.7s6.1-10.4,10.7-13.4
		c4.6-3,10.2-4.5,16.6-4.5c6.5,0,12,1.5,16.6,4.5s8.1,7.5,10.6,13.3c2.5,5.8,3.7,13,3.7,21.6c0,8.4-1.2,15.6-3.7,21.4
		c-2.5,5.8-6,10.2-10.7,13.2c-4.6,3-10.2,4.5-16.6,4.5C164.1-175.7,158.6-177.1,153.9-180.1z M190.1-188.6
		c4.4-5.7,6.5-14.4,6.5-26.1c0-11.8-2.2-20.6-6.6-26.4c-4.4-5.8-10.9-8.7-19.3-8.7c-8.5,0-15,2.9-19.5,8.8
		c-4.5,5.8-6.7,14.6-6.7,26.4c0,11.6,2.2,20.3,6.7,26.1s11,8.7,19.5,8.7C179.3-180,185.7-182.8,190.1-188.6z"/>
	<path class="st0" d="M275.2-253.1c0.6,0,0.9,0.3,0.9,1v74.4c0,0.3-0.1,0.6-0.2,0.8s-0.4,0.3-0.7,0.3h-1.5c-0.4,0-0.8,0-1.1-0.1
		c-0.3,0-0.6-0.2-0.9-0.6l-44.1-65c-0.3-0.5-0.6-0.8-0.9-0.7c-0.2,0.1-0.4,0.3-0.4,0.7v64.7c0,0.6-0.3,0.9-1,0.9h-2.6
		c-0.6,0-0.9-0.3-0.9-1v-74.4c0-0.7,0.3-1,0.9-1h1.9c0.4,0,0.7,0,0.9,0.1c0.2,0.1,0.4,0.3,0.6,0.6l44,64.9c0.3,0.5,0.7,0.6,1,0.5
		c0.3-0.2,0.5-0.4,0.5-0.7v-64.5c0-0.6,0.3-0.9,0.8-0.9C272.4-253.1,275.2-253.1,275.2-253.1z"/>
	<path class="st0" d="M310.8-180.1c-4.6-3-8.2-7.3-10.7-13.1s-3.7-12.9-3.7-21.3c0-8.6,1.3-15.8,3.8-21.7s6.1-10.4,10.7-13.4
		s10.2-4.5,16.6-4.5c6.5,0,12,1.5,16.6,4.5s8.1,7.5,10.6,13.3c2.5,5.8,3.7,13,3.7,21.6c0,8.4-1.2,15.6-3.7,21.4
		c-2.5,5.8-6,10.2-10.7,13.2c-4.6,3-10.2,4.5-16.6,4.5C321-175.7,315.4-177.1,310.8-180.1z M347-188.6c4.4-5.7,6.5-14.4,6.5-26.1
		c0-11.8-2.2-20.6-6.6-26.4c-4.4-5.8-10.9-8.7-19.3-8.7c-8.5,0-15,2.9-19.5,8.8c-4.5,5.8-6.7,14.6-6.7,26.4
		c0,11.6,2.2,20.3,6.7,26.1s11,8.7,19.5,8.7C336.2-180,342.6-182.8,347-188.6z"/>
	<path class="st0" d="M378.7-177.7v-74.4c0-0.7,0.3-1,0.9-1h2.7c0.4,0,0.7,0.1,0.9,0.2c0.2,0.1,0.3,0.3,0.4,0.7l27.5,69
		c0.3,0.7,0.5,1,0.8,1s0.5-0.4,0.8-1.1l27.9-69c0.2-0.5,0.6-0.7,1.1-0.7h3c0.6,0,0.9,0.3,0.9,1v74.4c0,0.7-0.3,1-0.9,1h-2.8
		c-0.3,0-0.6-0.1-0.8-0.2c-0.2-0.1-0.3-0.4-0.3-0.7v-63.7c0-0.3,0-0.4-0.1-0.3c-0.1,0.1-0.1,0.2-0.2,0.3l-25.6,63.4
		c-0.3,0.8-0.8,1.1-1.6,1.1h-2.8c-1,0-1.7-0.3-2-1l-25.1-63c-0.1-0.1-0.1-0.2-0.2-0.3c-0.1,0-0.1,0.1-0.1,0.3v63.1
		c0,0.3-0.1,0.5-0.3,0.7c-0.2,0.2-0.4,0.3-0.8,0.3h-2.6C379-176.7,378.7-177,378.7-177.7z"/>
	<path class="st0" d="M473.6-253.1c0.6,0,0.9,0.3,0.9,1v74.2c0,0.5-0.1,0.8-0.2,1s-0.5,0.3-1,0.3h-2.4c-0.5,0-0.8-0.1-0.9-0.2
		c-0.1-0.1-0.2-0.4-0.2-0.8V-252c0-0.7,0.3-1,0.9-1h2.9V-253.1z"/>
	<path class="st0" d="M534.6-252.5c3,1.1,5.7,2.6,8.1,4.5c2.4,1.9,4.4,4,6,6.4s2.5,4.9,2.8,7.6c0.1,0.3,0.1,0.5,0,0.6
		s-0.2,0.2-0.5,0.2l-3.7,0.4c-0.2,0.1-0.4,0-0.5-0.1s-0.2-0.3-0.3-0.6c-1.2-4.9-3.7-8.8-7.5-11.8s-8.3-4.5-13.5-4.5
		c-8.4,0-14.8,3-19.2,9c-4.4,6-6.6,14.7-6.6,26.2c0,11.1,2.2,19.6,6.6,25.6s11.1,9,20,9c5.4,0,9.8-1.3,13.3-3.9
		c3.5-2.6,6.3-6.6,8.3-12c0.1-0.2,0.3-0.3,0.6-0.2l3.5,1c0.1,0.1,0.2,0.2,0.3,0.3c0,0.1,0,0.3-0.1,0.5c-0.7,2.3-1.6,4.4-2.9,6.3
		c-1.2,1.9-2.7,3.6-4.3,5.2c-1.6,1.5-3.5,2.8-5.5,3.9c-2,1.1-4.2,1.9-6.5,2.5c-2.3,0.5-4.7,0.8-7.2,0.8c-6.6,0-12.2-1.5-16.9-4.6
		c-4.7-3.1-8.2-7.5-10.7-13.3c-2.4-5.8-3.7-12.8-3.7-21.1s1.2-15.4,3.7-21.3c2.4-5.9,5.9-10.4,10.5-13.5c4.6-3.1,10-4.7,16.4-4.7
		C528.6-254.1,531.6-253.6,534.6-252.5z"/>
	<path class="st0" d="M602.5-247.3c-3.2-1.6-6.9-2.5-11.2-2.5c-5.6,0-10.2,1.4-13.6,4.1c-3.5,2.7-5.2,6.6-5.2,11.7
		c0,1.3,0.3,2.8,0.8,4.5s1.7,3.4,3.6,5.1c1.8,1.7,4.5,3.2,8.2,4.6l14.2,5.2c6.1,2.2,10.4,4.9,12.9,8c2.5,3.2,3.7,6.9,3.7,11.2
		c0,4.2-1,7.8-3,10.7c-2,3-4.9,5.2-8.7,6.7c-3.7,1.5-8.2,2.3-13.4,2.3c-3.8,0-7.2-0.5-10.4-1.4c-3.1-0.9-5.9-2.3-8.4-4.2
		s-4.7-4.2-6.8-7.1c-0.3-0.3-0.4-0.7-0.3-1c0.1-0.3,0.4-0.7,0.9-1l1.1-0.8c0.5-0.3,1-0.5,1.2-0.5s0.5,0.2,0.8,0.5
		c1.9,2.5,3.8,4.5,5.8,6.2c1.9,1.7,4.1,2.9,6.6,3.8c2.5,0.8,5.6,1.2,9.3,1.2c6.1,0,11-1.2,14.8-3.5c3.7-2.3,5.6-6.2,5.6-11.7
		c0-2.1-0.4-3.9-1.1-5.6c-0.7-1.6-2-3.2-4-4.7c-1.9-1.5-4.8-2.9-8.5-4.4l-15.6-6c-3.7-1.4-6.6-3.1-8.7-5.1c-2.1-2-3.5-4.1-4.3-6.3
		c-0.8-2.3-1.2-4.5-1.2-6.7c0-4.3,1-8,3-11s4.8-5.3,8.4-6.8c3.6-1.6,7.7-2.4,12.5-2.4c3.2,0,6.1,0.4,8.8,1.2c2.6,0.8,5,1.9,7.3,3.4
		s4.4,3.2,6.3,5.3c0.2,0.2,0.3,0.4,0.4,0.7c0.1,0.2-0.1,0.5-0.4,0.8l-2.3,2.1c-0.3,0.2-0.5,0.3-0.6,0.2s-0.4-0.3-0.7-0.7
		C608.3-243.7,605.7-245.7,602.5-247.3z"/>
</g>
<text transform="matrix(1 0 0 1 0 90.584)"><tspan x="0" y="0" class="st1 st2">CORE TEXT</tspan><tspan x="0" y="101" class="st1 st2">EDITABLE</tspan></text>
</svg>
