<?xml version="1.0" encoding="utf-8"?>
<!-- Generator: Adobe Illustrator 25.2.1, SVG Export Plug-In . SVG Version: 6.00 Build 0)  -->
<svg version="1.1" id="Capa_1" xmlns="http://www.w3.org/2000/svg" xmlns:xlink="http://www.w3.org/1999/xlink" x="0px" y="0px"
	 viewBox="0 0 450.7 450.7" style="enable-background:new 0 0 450.7 450.7;" xml:space="preserve">
<style type="text/css">
	.st0{fill:#FFFFFF;}
</style>
<g>
	<g>
		<path class="st0" d="M221.7,355c-1.9,2.4-3.9,4.2-5.9,5.3c-2,1.1-4.6,1.6-7.6,1.6c-5.3,0-9.6-1.6-13-4.9
			c-3.4-3.3-5.1-7.5-5.1-12.7c0-5.3,1.7-9.6,5-12.8c3.3-3.2,7.6-4.8,13-4.8c3.4,0,6.2,0.9,8.4,2.7l5.1-2.6v13.7h-1.2
			c0-2.4-0.6-4.5-1.8-6.4c-1.2-1.9-2.7-3.3-4.3-4.3c-1.7-1-3.3-1.5-5-1.5c-0.8,0-1.5,0.2-2,0.6c-0.5,0.4-0.9,0.9-1,1.5
			c-0.1,0.6-0.2,1.6-0.2,2.9V355c0,1.9,0.3,3.3,0.9,4.1s1.6,1.2,3,1.2c4,0,7.5-2,10.6-6.1L221.7,355z"/>
		<path class="st0" d="M256.4,355c-1.9,2.4-3.9,4.2-5.9,5.3c-2,1.1-4.6,1.6-7.6,1.6c-5.3,0-9.6-1.6-13-4.9
			c-3.4-3.3-5.1-7.5-5.1-12.7c0-5.3,1.7-9.6,5-12.8c3.3-3.2,7.6-4.8,13-4.8c3.4,0,6.2,0.9,8.4,2.7l5.1-2.6v13.7H255
			c0-2.4-0.6-4.5-1.8-6.4c-1.2-1.9-2.7-3.3-4.3-4.3c-1.7-1-3.3-1.5-5-1.5c-0.8,0-1.5,0.2-2,0.6c-0.5,0.4-0.9,0.9-1,1.5
			c-0.1,0.6-0.2,1.6-0.2,2.9V355c0,1.9,0.3,3.3,0.9,4.1c0.6,0.8,1.6,1.2,3,1.2c4,0,7.5-2,10.6-6.1L256.4,355z"/>
	</g>
	<g>
		<path class="st0" d="M176.7,62.9l-2.3-1.1c-0.8,1.9-2.1,3.1-3.9,3.7c-2.4,0.8-5,0.2-7.9-2c-2.9-2.1-5.6-6.7-8.1-13.6
			c-1.9-5.3-2.5-10-1.9-13.9c0.6-4,2.3-6.4,5.1-7.4c1-0.4,1.9-0.5,2.6-0.4s1.5,0.4,2.4,0.9c0.4-0.6,0.7-1.3,1-2.1l1-0.4l3.3,9.2
			l-1,0.4c-3.3-5.3-6.1-7.6-8.4-6.7c-1.4,0.5-1.6,2.2-0.5,5.2l8.9,25.2c0.6,1.6,1.2,2.7,2,3.5c0.8,0.7,1.5,0.9,2.3,0.7
			c1.3-0.4,2.1-1.6,2.4-3.6c0.4-1.9,0.3-4.5-0.4-7.7l0.9-0.3l3.5,10L176.7,62.9z"/>
		<path class="st0" d="M186.4,44.2l-1.5-6.5c-0.2-0.8-0.6-1.3-1.2-1.7c-0.6-0.4-1.4-0.4-2.2-0.2c-0.7,0.2-1.3,0.5-1.9,1
			c-0.6,0.5-0.8,0.9-0.7,1.2c0.1,0.3,0.4,0.6,1.1,0.9c1.5,0.5,2.3,1.3,2.6,2.6c0.2,0.9,0,1.8-0.5,2.6c-0.6,0.8-1.3,1.3-2.3,1.5
			c-1.2,0.3-2.2,0.1-3-0.4c-0.9-0.5-1.4-1.3-1.7-2.4c-0.4-1.8,0.1-3.5,1.5-5.1c1.4-1.6,3.3-2.6,5.8-3.2c2.6-0.6,4.8-0.4,6.7,0.7
			s3,2.7,3.5,5l3.4,15.4c0.2,0.7,0.4,1,0.8,0.9c0.5-0.1,0.6-1,0.2-2.8l1-0.2l0.2,1c0.2,1.1,0.1,2.1-0.5,2.9
			c-0.6,0.8-1.4,1.4-2.6,1.6c-2.3,0.5-4.1-0.1-5.4-1.9c-0.3,1.2-0.8,2.1-1.5,2.7s-1.8,1.1-3.2,1.4c-2,0.5-3.7,0.3-5.1-0.5
			c-1.3-0.8-2.2-2.1-2.6-3.9c-0.6-2.7,0.8-5.1,4.1-7.4c1.5-1.1,2.5-1.9,3-2.4S185.6,45.5,186.4,44.2z M188.7,54.2l-1.9-8.4l-1,1.2
			c-1,1.1-1.6,2-1.8,2.8c-0.2,0.7-0.2,1.8,0.1,3.1l0.8,3.6c0.4,1.8,1.2,2.6,2.3,2.3c0.6-0.1,1.1-0.7,1.4-1.5
			C188.9,56.4,188.9,55.4,188.7,54.2z"/>
		<path class="st0" d="M207.1,31l0.3,2.8l0.1,0c0.6-2.1,2.1-3.2,4.3-3.4c1.3-0.1,2.4,0.2,3.3,1s1.4,1.8,1.6,3.2
			c0.1,1-0.1,1.9-0.7,2.6c-0.6,0.7-1.4,1.1-2.4,1.2c-0.9,0.1-1.7-0.1-2.3-0.7c-0.6-0.5-1-1.3-1.1-2.2c-0.1-0.9,0.1-1.6,0.6-2.3
			c0.5-0.6,0.8-1.1,0.7-1.3c0-0.3-0.3-0.4-0.7-0.3c-0.9,0.1-1.7,0.8-2.3,2.2c-0.6,1.3-0.8,2.9-0.7,4.6l1.7,17.5l2.9-0.3l0.1,1
			l-12.2,1.2l-0.1-1l2.4-0.2l-2.3-23.7l-2.4,0.2l-0.1-1L207.1,31z"/>
		<path class="st0" d="M219.8,17.6l9.4,0.2l-0.4,13.8c1.3-1.3,2.7-1.9,4.3-1.8c2.6,0.1,4.6,1.3,6,3.8c1.4,2.4,2,5.6,1.9,9.6
			c-0.1,4.3-0.9,7.6-2.4,9.9c-1.5,2.3-3.5,3.5-6,3.4c-1.8,0-3.2-0.8-4.2-2.3l-0.1,0l0,1.8l-9.4-0.2l0-1l2.5,0.1l1-36.1l-2.4-0.1
			L219.8,17.6z M228.8,34.1l-0.4,15.6c0,1.5,0.2,2.7,0.6,3.5c0.4,0.9,1.1,1.3,1.8,1.3s1.3-0.4,1.6-1.4c0.3-1,0.5-2.6,0.6-4.8
			l0.3-11.9c0.1-3.3-0.5-4.9-1.8-5c-0.6,0-1.2,0.3-1.8,1C229.1,33.1,228.8,33.6,228.8,34.1z"/>
		<path class="st0" d="M245.1,43.6c0.6-3.7,2.1-6.6,4.6-8.7c2.5-2.1,5.2-3,8.1-2.5c2.9,0.5,5.2,2.1,6.8,5c1.6,2.8,2.2,6,1.6,9.6
			c-0.7,4-2.2,7-4.6,9.2c-2.4,2.2-5.2,3.1-8.2,2.6c-3.1-0.5-5.4-2.2-6.9-5C244.9,50.9,244.4,47.5,245.1,43.6z M254.1,37.3l-2.6,15.8
			c-0.5,2.8,0.2,4.4,2,4.7c1.9,0.3,3.1-0.8,3.6-3.5l2.6-15.6c0.3-1.8,0.3-3,0-3.8c-0.3-0.8-1-1.3-2.1-1.4c-1-0.2-1.8,0.1-2.3,0.7
			C254.7,34.7,254.3,35.8,254.1,37.3z"/>
		<path class="st0" d="M282.2,38.5l-1,3c0.1,0,0.3-0.2,0.6-0.4c1.2-0.8,2.3-1.4,3.2-1.6s1.9-0.1,3,0.2c1.6,0.5,2.7,1.5,3.4,2.9
			s0.8,3,0.3,4.7l-5.8,18.4l2.5,0.8l-0.3,1l-10.7-3.4l0.3-1l1.5,0.5l6.2-19.7c0.5-1.5,0.2-2.3-0.7-2.6c-0.9-0.3-1.9,0.2-2.9,1.5
			c-1,1.3-1.6,2.1-1.7,2.4l-5.4,17l1.7,0.5l-0.3,1l-10.8-3.4l0.3-1l2.4,0.8l7.2-22.7l-2.4-0.8l0.3-1L282.2,38.5z"/>
	</g>
	<g>
		<path class="st0" d="M167.1,425l-1.2-2.3c-1.8,1-3.6,1.2-5.5,0.5c-2.4-0.8-4.1-3-5.2-6.6s-0.3-8.9,2.1-16.1
			c1.9-5.5,4.3-9.6,7.3-12.4c3-2.8,5.9-3.7,8.8-2.7c1.1,0.4,1.8,0.8,2.3,1.3c0.5,0.5,0.9,1.3,1.3,2.2c0.7-0.2,1.4-0.6,2.1-1.1
			l1.1,0.4l-3.2,9.5l-1.1-0.4c0.7-6.3-0.1-9.9-2.5-10.7c-1.4-0.5-2.7,0.8-3.7,3.9l-8.8,26c-0.5,1.6-0.7,3-0.6,4
			c0.2,1.1,0.6,1.7,1.5,2c1.3,0.4,2.7,0,4.2-1.3c1.5-1.3,3.1-3.5,4.6-6.4l0.9,0.3l-3.5,10.3L167.1,425z"/>
		<path class="st0" d="M188.2,402.8l-0.6,2.8l0.1,0c1.3-1.8,3-2.5,5.2-2c1.3,0.3,2.3,0.9,3,2c0.6,1,0.8,2.2,0.5,3.6
			c-0.2,1-0.7,1.8-1.5,2.3c-0.8,0.5-1.7,0.7-2.7,0.5c-0.9-0.2-1.6-0.7-2.1-1.4c-0.4-0.7-0.6-1.6-0.4-2.5c0.2-0.9,0.6-1.5,1.3-2
			s1.1-0.8,1.1-1.1c0.1-0.3-0.1-0.5-0.6-0.6c-0.9-0.2-1.9,0.3-2.9,1.4c-1,1.1-1.7,2.5-2.1,4.3l-3.8,17.6l2.9,0.6l-0.2,1l-12.3-2.6
			l0.2-1l2.4,0.5l5.1-23.9l-2.5-0.5l0.2-1L188.2,402.8z"/>
		<path class="st0" d="M217.3,424.3l1,0.1c-1.1,6.1-4.3,8.9-9.7,8.5c-3.4-0.3-6-1.8-7.8-4.4s-2.5-6.1-2.2-10.3
			c0.3-3.9,1.6-7.1,3.9-9.4s4.9-3.4,7.9-3.2c6.8,0.6,9.6,5.6,8.6,15.2l-12.6-1.1l-0.5,6.2c-0.3,3.8,0.8,5.8,3.5,6
			C213.4,432.2,216.1,429.7,217.3,424.3z M211.3,419l0.8-9.7c0.1-0.6-0.1-1.2-0.5-1.8c-0.4-0.6-0.9-0.9-1.4-0.9
			c-0.8-0.1-1.4,0.2-2,0.7c-0.5,0.5-0.8,1.2-0.9,2.2l-0.8,9.2L211.3,419z"/>
		<path class="st0" d="M232.9,393.8l9.9-0.5l1.7,38l2.5-0.1l0,1l-9.7,0.4l-0.1-1.8c-0.9,0.9-1.7,1.6-2.2,1.9
			c-0.6,0.3-1.3,0.5-2.2,0.5c-2.4,0.1-4.4-1-6.1-3.3c-1.6-2.3-2.5-5.4-2.7-9.3c-0.2-4.5,0.4-8.1,1.8-10.7c1.4-2.6,3.4-3.9,6.1-4.1
			c1.6-0.1,3,0.5,4.2,1.8l-0.6-13.1l-2.8,0.1L232.9,393.8z M237.2,427.5l-0.8-17.3c-0.4-0.9-0.9-1.6-1.3-2c-0.4-0.4-0.9-0.6-1.5-0.5
			c-1.3,0.1-2,1.4-1.8,4.1l0.7,15.2c0.1,1.3,0.3,2.4,0.8,3.1c0.4,0.8,1,1.1,1.7,1.1c0.7,0,1.2-0.4,1.6-1.1
			C237,429.4,237.2,428.5,237.2,427.5z"/>
		<path class="st0" d="M247.4,405.4l9.7-1.5l3.9,25.2l2.3-0.4l0.2,1l-12.1,1.9l-0.2-1l2.7-0.4l-3.7-24.1l-2.6,0.4L247.4,405.4z
			 M247.8,396.8c-0.2-1.1,0.1-2.1,0.7-3c0.7-0.9,1.5-1.4,2.6-1.6c1.1-0.2,2.1,0.1,3,0.7c0.9,0.7,1.4,1.5,1.6,2.6
			c0.2,1.1-0.1,2.1-0.7,3c-0.7,0.9-1.5,1.4-2.6,1.6c-1.1,0.2-2.1-0.1-3-0.7C248.5,398.7,248,397.9,247.8,396.8z"/>
		<path class="st0" d="M262.6,395.3l6.9-1.7l1.7,7.1l3-0.7l0.2,1l-3,0.7l5.4,22.4c0.2,0.7,0.5,1,1,0.9c1-0.2,1.4-1.7,1.3-4.5l1-0.2
			c0.4,3.9-1,6.3-4.4,7.1c-1.7,0.4-3,0.3-4.1-0.2c-1.1-0.5-1.8-1.4-2.1-2.8l-5-21l-3,0.7l-0.2-1l3-0.7L262.6,395.3z"/>
		<path class="st0" d="M283.4,415.6l1.1-0.4c3.3,4.8,6.2,6.8,8.7,5.9c0.9-0.3,1.6-0.9,2-1.8c0.4-0.9,0.5-1.8,0.1-2.8
			c-0.4-1.2-1.2-2.1-2.4-2.8c-1.2-0.6-2.7-1-4.5-1.2c-1.8-0.2-3.3-0.5-4.4-0.9c-1.1-0.4-2-1.1-2.8-1.9c-0.8-0.9-1.4-1.9-1.9-3.3
			c-0.8-2.2-0.8-4.2,0-6s2.1-3,4-3.7c1.3-0.4,2.5-0.6,3.5-0.5c1,0.1,1.7,0.1,1.9,0c0.5-0.2,0.6-0.5,0.4-1.1l1-0.3l2.5,7.3l-1,0.4
			c-2.4-4.1-5-5.7-7.7-4.8c-1,0.4-1.8,0.9-2.2,1.7c-0.4,0.8-0.5,1.6-0.1,2.5c0.3,0.8,0.9,1.5,1.8,1.9c0.9,0.4,2.7,0.8,5.4,1.2
			c2.6,0.4,4.6,1.1,5.9,2c1.3,1,2.3,2.5,3,4.6c0.8,2.4,0.8,4.5,0,6.5c-0.8,2-2.2,3.3-4.3,4c-1.3,0.5-2.6,0.6-3.7,0.5
			c-1.2-0.1-1.8-0.2-1.9-0.1c-0.3,0.1-0.4,0.5-0.3,1.2l-1.1,0.4L283.4,415.6z"/>
	</g>
	<g>
		<path class="st0" d="M225.4,450.7c-60.2,0-116.8-23.4-159.4-66S0,285.6,0,225.4S23.4,108.6,66,66c42.6-42.6,99.2-66,159.4-66
			s116.8,23.4,159.4,66c42.6,42.6,66,99.2,66,159.4s-23.4,116.8-66,159.4C342.2,427.3,285.6,450.7,225.4,450.7z M225.4,10
			C106.6,10,10,106.6,10,225.4s96.6,215.4,215.4,215.4s215.4-96.6,215.4-215.4S344.1,10,225.4,10z"/>
	</g>
	<g>
		<g>
			<path class="st0" d="M371.5,244.7c-0.1,0.7-1.1,6.6-1.2,7.3c-12.6,69.8-73.8,123-147.2,123c-76.9,0-140.4-58.3-148.7-133
				c-3.6,1.5-7.4,2.5-11.4,2.9c4.3,35.7,20.3,68.7,46.1,94.5c30.5,30.5,71,47.2,114,47.2c43.1,0,83.6-16.8,114-47.2
				c24.5-24.5,40.2-55.6,45.3-89.2c0.1-0.8,1.1-6.7,1.2-7.5c-3.4,1.3-7.2,2-11,2C372.2,244.7,371.8,244.7,371.5,244.7z"/>
		</g>
		<g>
			<path class="st0" d="M223,75.7c69.7,0,128.4,47.9,145,112.4c1.2-0.1,2.4-0.2,3.7-0.2c3,0,5.8,0.4,8.5,1.2
				c-6.7-29.2-21.4-56.1-43.2-77.8c-30.5-30.5-71-47.2-114-47.2c-43.1,0-83.6,16.8-114,47.2c-16.3,16.3-28.7,35.5-36.7,56.4
				c3.8,1.3,7.3,3.2,10.4,5.5C103.9,116.4,158.8,75.7,223,75.7z"/>
		</g>
		<g>
			<g>
				<g>
					<path class="st0" d="M120.8,252.5l0.1,1.2l0.1,1.2c0.1,0.8,0.2,1.5,0.3,2.3c0.2,1.5,0.5,3,0.7,4.6c0.5,3,1.2,6,2,9
						c0.8,3,1.7,5.9,2.8,8.9c0.5,1.5,1.2,2.9,1.8,4.4c0.7,1.4,1.3,2.9,2.1,4.3c0.7,1.4,1.6,2.8,2.4,4.2c0.9,1.3,1.8,2.7,2.8,4
						c1,1.3,2.1,2.5,3.2,3.8c1.2,1.2,2.4,2.4,3.8,3.4c0.7,0.5,1.3,1.1,2.1,1.5c0.7,0.5,1.4,1,2.2,1.4c1.5,0.8,3,1.7,4.7,2.2
						c0.8,0.3,1.6,0.7,2.5,0.9l1.2,0.3l1,0.3l-0.7,3.3l0.6-0.1l0.6-0.2l1.2-0.3c0.8-0.2,1.6-0.5,2.4-0.7c1.5-0.6,3-1.2,4.3-1.9
						c1.3-0.8,2.6-1.5,3.8-2.3c1.2-0.9,2.3-1.8,3.4-2.6c-5.3-1.8-9.9-4.6-12.6-8.2l-0.7,3.3l-0.7-0.2l-0.8-0.2
						c-0.6-0.1-1.1-0.4-1.7-0.6c-1.1-0.4-2.2-1-3.3-1.5c-0.5-0.3-1-0.7-1.5-1c-0.5-0.3-1-0.7-1.5-1.1c-1-0.7-1.9-1.6-2.8-2.5
						c-0.8-1-1.7-1.9-2.5-2.9c-0.8-1-1.5-2.1-2.3-3.2c-0.7-1.2-1.4-2.3-2-3.5c-0.6-1.2-1.2-2.4-1.8-3.7c-0.5-1.3-1.1-2.5-1.5-3.8
						c-1-2.6-1.8-5.2-2.5-7.9c-0.7-2.7-1.3-5.4-1.8-8.2c-0.3-1.4-0.5-2.8-0.7-4.1c-0.1-0.7-0.2-1.4-0.3-2.1l-0.1-1l-0.1-1
						L120.8,252.5z"/>
				</g>
			</g>
		</g>
		<g>
			<g>
				<path class="st0" d="M108.5,188.6c-4.3,0-8,1.5-11,4.5c-3,3-4.4,6.9-4.4,11.5c0,5.2,1.9,9.3,5.6,12.3c2.9,2.4,6.2,3.5,10,3.5
					c4.2,0,7.8-1.5,10.8-4.6c3-3.1,4.5-6.8,4.5-11.3c0-4.5-1.5-8.2-4.5-11.3C116.4,190.2,112.8,188.6,108.5,188.6z"/>
			</g>
			<g>
				<path class="st0" d="M143.4,190.3c-1.2,0-2.4,0.1-3.5,0.3c-5.5-11.7-17.4-19.8-31.2-19.8c-9.9,0-18.8,4.2-25.1,10.9
					c-6.3-6.7-15.2-10.9-25.1-10.9c-19,0-34.5,15.4-34.5,34.5c0,19,15.4,34.5,34.5,34.5c9.9,0,18.8-4.2,25.1-10.9
					c6.3,6.7,15.2,10.9,25.1,10.9c7,0,13.5-2.1,18.9-5.7c4.3,3.5,9.8,5.7,15.7,5.7c13.7,0,24.7-11.1,24.7-24.7
					S157.1,190.3,143.4,190.3z M44.1,212.8c1.4,2.4,3.3,4.3,5.8,5.7c2.5,1.4,5.2,2.1,8.3,2.1c2.6,0,5-0.5,7.1-1.5
					c2.1-1,4.5-2.7,7.1-5.3l6.1,6.3c-3.5,3.4-6.7,5.7-9.8,7c-3.1,1.3-6.6,2-10.6,2c-7.3,0-13.3-2.3-17.9-6.9c-4.6-4.6-7-10.6-7-17.8
					c0-4.7,1.1-8.8,3.2-12.5c2.1-3.6,5.1-6.6,9.1-8.8c3.9-2.2,8.2-3.3,12.7-3.3c3.9,0,7.6,0.8,11.2,2.5c3.6,1.6,6.7,4,9.3,7l-6.2,6
					c-4.3-4.5-9-6.7-14.3-6.7c-4.5,0-8.3,1.5-11.3,4.6c-3.1,3.1-4.6,6.8-4.6,11.3C42.1,207.6,42.7,210.4,44.1,212.8z M125.8,222.1
					c-4.7,4.7-10.4,7.1-17.2,7.1c-7,0-12.9-2.4-17.6-7.3c-4.7-4.9-7-10.7-7-17.4c0-4.5,1.1-8.6,3.3-12.4c2.2-3.8,5.2-6.7,9-9
					c3.8-2.2,7.9-3.3,12.3-3.3c6.6,0,12.4,2.4,17.1,7.2c4.8,4.8,7.2,10.7,7.2,17.6C132.9,211.5,130.5,217.3,125.8,222.1z
					 M152.1,229.2h-15.5v-2.1l3.6-3.4c4.8-4.3,7.2-7,7.2-9.9c0-2.2-1.4-4-4.4-4c-2,0-3.7,1-4.8,1.8l-1.2-2.6c1.6-1.3,4.1-2.4,7-2.4
					c5.4,0,7.6,3.4,7.6,6.5c0,4.3-3.3,7.5-7.6,11.3l-1.8,1.6v0.1h9.8V229.2z"/>
			</g>
		</g>
		<g>
			<g>
				<path class="st0" d="M333.1,189.9c-4.3,0-8,1.5-11,4.5c-3,3-4.4,6.9-4.4,11.5c0,5.2,1.9,9.3,5.6,12.3c2.9,2.4,6.2,3.5,10,3.5
					c4.2,0,7.8-1.5,10.8-4.6c3-3.1,4.5-6.8,4.5-11.3c0-4.5-1.5-8.2-4.5-11.3C341,191.5,337.4,189.9,333.1,189.9z"/>
			</g>
			<g>
				<path class="st0" d="M370,191.6c-1.8,0-3.5,0.2-5.2,0.5c-5.2-12.3-17.5-21-31.7-21c-19,0-34.5,15.4-34.5,34.5
					s15.4,34.5,34.5,34.5c7.3,0,14-2.3,19.6-6.1c4.5,4.4,10.6,7.1,17.3,7.1c13.7,0,24.7-11.1,24.7-24.7S383.7,191.6,370,191.6z
					 M350.4,223.4c-4.7,4.7-10.4,7.1-17.2,7.1c-7,0-12.9-2.4-17.6-7.3s-7-10.7-7-17.4c0-4.5,1.1-8.6,3.3-12.4c2.2-3.8,5.2-6.7,9-9
					c3.8-2.2,7.9-3.3,12.3-3.3c6.6,0,12.4,2.4,17.1,7.2c4.8,4.8,7.2,10.7,7.2,17.6C357.5,212.8,355.1,218.6,350.4,223.4z
					 M376.7,230.5h-15.5v-2.1l3.6-3.4c4.8-4.3,7.2-7,7.2-9.9c0-2.2-1.4-4-4.4-4c-2,0-3.7,1-4.8,1.8l-1.2-2.6c1.6-1.3,4.1-2.4,7-2.4
					c5.4,0,7.6,3.4,7.6,6.5c0,4.3-3.3,7.5-7.6,11.3l-1.8,1.6v0.1h9.8V230.5z"/>
			</g>
		</g>
		<g>
			<g>
				<g>
					<path class="st0" d="M278.5,320.8c0.5-0.1,0.9-0.2,1.3-0.4l1.2-0.4c0.8-0.2,1.5-0.5,2.2-0.8c1.5-0.5,2.9-1.1,4.3-1.8
						c2.9-1.3,5.6-2.7,8.3-4.3c2.7-1.6,5.3-3.4,7.8-5.3c2.5-2,4.8-4.1,7-6.4c2.2-2.3,4.2-4.8,6-7.5c0.8-1.4,1.7-2.7,2.5-4.1
						c0.4-0.7,0.8-1.4,1.1-2.1l1-2.2c0.4-0.7,0.6-1.5,0.9-2.2c0.3-0.8,0.6-1.5,0.8-2.3l0.7-2.3l0.3-1.2l0.3-1.2l0.5-2.3
						c0-0.2,0.1-0.4,0.1-0.6l0-0.3l0-0.2l0.1-1l3.3,0.5c-1.9-6-4.7-11.2-8-15.8c-2.4,5.1-5.3,9.6-8.7,13.3l3.3,0.5l-0.1,0.8l0,0.2
						l0,0.2c0,0.2-0.1,0.3-0.1,0.5l-0.4,1.9l-0.2,1l-0.3,0.9l-0.6,1.9c-0.2,0.6-0.5,1.2-0.7,1.8c-0.2,0.6-0.4,1.2-0.7,1.8l-0.8,1.8
						c-0.3,0.6-0.6,1.2-0.9,1.7c-0.6,1.2-1.3,2.2-2,3.4c-1.5,2.2-3.1,4.2-4.9,6.2c-1.8,1.9-3.8,3.7-5.9,5.4
						c-2.1,1.6-4.3,3.2-6.7,4.5c-2.3,1.4-4.7,2.6-7.2,3.7c-1.2,0.6-2.5,1-3.8,1.5c-0.6,0.2-1.3,0.5-1.9,0.7l-0.9,0.3
						c-0.3,0.1-0.6,0.2-0.8,0.2L278.5,320.8z"/>
				</g>
			</g>
		</g>
		<g>
			<path class="st0" d="M294,283.3c-5.5-3.7-10.9-7.5-16.4-11.2c0.6-0.7,1.1-1.4,1.7-2c4.2,0,8.4,0,14.4,0
				c-2.9-4.6-5.2-8.2-7.4-11.7c3.7-3.9,0-5.1-3.7-5.5c-6.9-0.8-12.5-3-15.6-10.8c6-2,11.3-3.8,18.9-6.3c-6.6,0-10.8,0-16.4,0
				c2.3-2.5,3.5-3.8,4.5-4.8c-6-1.8-11.7-3.5-17.5-5.3c0.1-0.5,0.3-0.9,0.4-1.4c8.6-1.8,17.2-3.5,25.8-5.3c-0.1-0.9-0.2-1.7-0.3-2.6
				c-9.7,0.1-19.3,0-26.9-8.5c2.5-1.1,4.2-1.9,6-2.8c-2.3-1-4.4-2-8.6-3.8c7.6-2.2,13-3.8,19-5.5c-13.9-6-13.9-6-12.9-9.8
				c5-1,10-2.1,15-3.1c0-0.5,0.1-1,0.1-1.4c-9.6-1.5-19.2-3-28.8-4.6c-0.1-0.8-0.3-1.6-0.4-2.4c3.4-2.7,6.7-5.3,9.9-7.8
				c-3.6-2.8-7-5.6-11.8-9.4c7.2-1.7,11.5-2.7,15.8-3.7c0-0.6,0-1.3-0.1-1.9c-5.7-0.7-11.5-1.3-19.4-2.2c3.7-1.8,5.3-2.6,7.5-3.7
				c-2.1-1.4-3.8-2.6-6-4.1c2.1-1,3.5-1.7,4.2-2c-2.8-3.6-5.5-7-8.8-11c1-1.1,2.6-2.9,4.2-4.8c-3.8-0.4-6.9-0.7-10.7-1.1
				c2.6-5.2,4.6-9.1,6.6-13.1c-0.6,0.5-1.3,1-1.9,1.5c-2.5-3.1-5.1-6.1-7.6-9.2c-1.2-1.4-2.3-2.9-3.4-4.4c-1.4,1.5-2.7,3.1-4.1,4.6
				c-2.7,3.1-5.4,6.2-8.4,9.7c1.2,2.4,3.1,6.3,5.4,10.9c-3.9,0.4-7,0.7-10.5,1.1c1.8,2.2,3.2,3.9,4,4.9c-3.3,4-6.1,7.4-8.9,10.8
				c0.9,0.4,2.3,1,4.6,2c-2.3,1.6-4.1,2.8-6,4.1c2,1.3,3.6,2.2,6.5,4c-7.4,0.9-13,1.5-18.6,2.2c0,0.6,0,1.3,0.1,1.9
				c4.4,1,8.8,2.1,15.8,3.8c-4.8,3.8-8.1,6.5-11.6,9.2c3.1,2.6,6.4,5.4,11.7,9.9c-12,1.9-21.5,3.4-31,4.9c0.1,0.5,0.2,1.1,0.2,1.6
				c5.3,1.1,10.5,2.2,15.9,3.3c0.1,10.6-10.4,4.3-13.7,9.2c5.6,1.9,10.9,3.7,18.3,6.1c-4.1,1.7-5.9,2.5-7.7,3.2
				c1.6,1.3,3.1,2.5,7.1,5.8c-11.2,2.8-9,4.3-20.4,7.1c10.8,2.2,8.4,4.7,17,6.4c0.1,0.5,0.3,1,0.4,1.5c-6,1.7-12,3.4-17.8,5.1
				c1.2,1.3,2.5,2.8,5.1,5.7c-6.1-0.5-10.2-0.8-14.2-1.1c0,0.3-0.1,0.5-0.1,0.8c5.5,2,10.9,3.9,16.9,6.1c-4,7.3-9.4,9.8-16.1,10.3
				c-5.2,0.4-6.1,2.7-4.2,5.2c-2.1,4.3-3.9,7.8-6.1,12.4c5.9,0,10,0,14.2,0c-5.2,4.7-9.9,9-14.7,13.3c0.7,0.9,1.3,1.7,2,2.6
				c13.3-1.4,26.6-2.7,40-4.1c-0.4,1.3-1,3-1.6,5.2c8.3-0.8,15.9-1.6,24-2.5c0.6,7.6-0.4,13.8,0.6,20.6c0.3,2.2-64.9,7,5.5,6.9
				c74.5,1,6-4.2,6.3-6.4c1.1-6.8-0.6-13.3,0-21.1c8,0.9,15.8,1.7,23.8,2.5c-0.6-2.6-1-4.2-1.3-5.1c13.6,1.3,26.7,2.6,39.7,3.8
				C292.4,285.2,293.2,284.3,294,283.3z M247.4,242.8c-1.6,3.3-3.7,6-6.3,7.9c-2.6,1.9-6.3,3.4-11.1,4.4v13.9h-9.8v-13.6
				c-4.6-0.5-8.4-1.7-11.6-3.4c-4.4-2.4-8.4-5.7-12.2-9.7l9.9-10.2c6.4,6.8,12.5,10.2,18.4,10.2c3,0,5.6-1.1,7.8-3.2
				c2.2-2.1,3.3-4.6,3.3-7.4c0-2.4-0.7-4.5-2.1-6.3c-1.4-1.8-4.2-3.6-8.2-5.5c-8.3-3.8-13.9-6.9-16.8-9.1c-2.9-2.2-5.1-4.8-6.5-7.6
				c-1.4-2.8-2.2-5.8-2.2-8.9c0-5.2,1.9-9.7,5.7-13.5c3.8-3.7,8.6-5.7,14.5-6v-5.2h9.8v5.9c3.4,0.8,6.2,1.9,8.6,3.2s5.1,3.6,8.3,6.9
				l-10.1,9.8c-4.6-4.7-9.1-7.1-13.6-7.1c-2.6,0-4.8,0.7-6.4,2.1c-1.6,1.4-2.5,3-2.5,4.9c0,1.6,0.7,3.1,2.2,4.6
				c1.4,1.6,4.3,3.2,8.6,5c7.7,3.2,13,5.9,15.8,8.2c2.8,2.3,5,5,6.6,8.1c1.5,3.2,2.3,6.7,2.3,10.6
				C249.9,235.8,249.1,239.5,247.4,242.8z"/>
		</g>
	</g>
</g>
</svg>
