<?xml version="1.0" encoding="utf-8"?>
<!-- Generator: Adobe Illustrator 25.2.1, SVG Export Plug-In . SVG Version: 6.00 Build 0)  -->
<svg version="1.1" id="Capa_1" xmlns="http://www.w3.org/2000/svg" xmlns:xlink="http://www.w3.org/1999/xlink" x="0px" y="0px"
	 viewBox="0 0 450.7 450.7" style="enable-background:new 0 0 450.7 450.7;" xml:space="preserve">
<g>
	<g>
		<path d="M225.4,382.2c-86.5,0-156.9-70.4-156.9-156.9S138.9,68.5,225.4,68.5s156.9,70.4,156.9,156.9S311.9,382.2,225.4,382.2z
			 M225.4,78.5c-81,0-146.9,65.9-146.9,146.9s65.9,146.9,146.9,146.9s146.9-65.9,146.9-146.9C372.2,144.4,306.3,78.5,225.4,78.5z"/>
	</g>
	<g>
		<path d="M20.1,194.2l2.2-12.3l1,0.2l-0.5,2.6l35.6,6.4l0.5-2.7l1,0.2l-2.2,12.3l-1-0.2l0.4-2.4l-35.6-6.4l-0.4,2.5L20.1,194.2z"/>
		<path d="M37.7,171.4l3.1,0.9c0-0.1-0.2-0.3-0.4-0.6c-0.9-1.2-1.4-2.3-1.6-3.2s-0.2-1.9,0.2-3c0.5-1.6,1.4-2.7,2.9-3.5
			s3-0.9,4.7-0.4l18.4,5.5l0.7-2.5l1,0.3l-3.2,10.8l-1-0.3l0.5-1.5l-20-5.8c-1.5-0.4-2.3-0.2-2.6,0.7s0.2,1.9,1.5,2.9
			s2.1,1.6,2.5,1.7l17.1,5.1l0.5-1.7l1,0.3l-3.2,10.8l-1-0.3l0.7-2.4l-22.8-6.8l-0.7,2.4l-1-0.3L37.7,171.4z"/>
		<path d="M38,148.7l2.8-6.4l6.6,2.8l1.2-2.7l0.9,0.4l-1.2,2.7l20.6,8.9c0.7,0.3,1.1,0.2,1.3-0.2c0.4-0.9-0.5-2.1-2.8-3.6l0.4-0.9
			c3.3,2,4.3,4.5,3,7.5c-0.7,1.5-1.5,2.6-2.5,3.1s-2.1,0.5-3.4,0L45.5,152l-1.2,2.8l-0.9-0.4l1.2-2.8L38,148.7z"/>
		<path d="M74.9,129.8l0.5-0.8c5,3.4,6.2,7.5,3.6,12.1c-1.6,2.9-4,4.6-7.1,5.1s-6.4-0.2-10-2.3c-3.3-1.9-5.6-4.3-6.8-7.3
			s-1.1-5.7,0.4-8.3c3.3-5.8,8.9-6.3,17-1.5l-6.1,10.8l5.3,3c3.2,1.8,5.5,1.6,6.8-0.6C80.3,136.5,79.2,133.1,74.9,129.8z M67.7,133
			l-8.3-4.7c-0.5-0.3-1.2-0.4-1.8-0.3c-0.7,0.1-1.2,0.4-1.4,0.9c-0.4,0.7-0.5,1.3-0.2,2c0.2,0.7,0.8,1.2,1.6,1.7l7.9,4.5L67.7,133z"
			/>
		<path d="M69,108.5l2.2,1.7l0.1-0.1c-1.1-1.9-1-3.7,0.3-5.5c0.8-1.1,1.8-1.7,3-1.8c1.2-0.2,2.3,0.2,3.4,1c0.8,0.6,1.3,1.4,1.5,2.3
			s-0.1,1.8-0.7,2.6c-0.6,0.8-1.3,1.2-2.1,1.3c-0.8,0.1-1.6-0.1-2.4-0.7c-0.7-0.5-1.1-1.2-1.2-2s-0.3-1.3-0.5-1.4
			c-0.2-0.2-0.5-0.1-0.7,0.3c-0.6,0.8-0.5,1.8,0.1,3.2s1.6,2.5,3,3.6l14.1,10.5l1.7-2.3l0.8,0.6l-7.3,9.8l-0.8-0.6l1.4-1.9
			l-19.1-14.2l-1.5,2l-0.8-0.6L69,108.5z"/>
		<path d="M83.3,91.5l2.3,2.2c0-0.1,0-0.4-0.1-0.7c-0.2-1.5-0.2-2.7,0-3.6s0.7-1.8,1.5-2.6c1.1-1.2,2.5-1.8,4.1-1.8s3.1,0.6,4.3,1.8
			l13.9,13.3l1.8-1.9l0.7,0.7L104,107l-0.7-0.7l1.1-1.2L89.5,91c-1.1-1.1-2-1.2-2.6-0.6c-0.7,0.7-0.6,1.8,0,3.2
			c0.7,1.5,1.1,2.4,1.4,2.6l12.9,12.4l1.2-1.3l0.7,0.7l-7.8,8.1l-0.7-0.7l1.7-1.8L79.2,97.2L77.4,99l-0.7-0.7L83.3,91.5z"/>
		<path d="M111.8,78.9l-4.1-5.2c-0.5-0.6-1.1-0.9-1.8-1c-0.7,0-1.4,0.2-2.1,0.8c-0.6,0.4-1,1-1.3,1.7s-0.3,1.1-0.1,1.4
			c0.2,0.2,0.6,0.3,1.4,0.3c1.5-0.2,2.7,0.2,3.5,1.2c0.6,0.8,0.8,1.6,0.7,2.6c-0.1,1-0.6,1.8-1.4,2.4c-0.9,0.7-1.9,1.1-2.9,1
			s-1.8-0.6-2.5-1.5c-1.1-1.4-1.4-3.2-0.9-5.2c0.6-2,1.8-3.8,3.9-5.4c2.1-1.7,4.2-2.4,6.3-2.3c2.1,0.1,3.9,1.1,5.3,3l9.8,12.4
			c0.4,0.6,0.8,0.7,1.2,0.5c0.4-0.3,0.1-1.2-1-2.6l0.8-0.6l0.6,0.8c0.7,0.9,1,1.8,0.8,2.8c-0.1,1-0.7,1.8-1.7,2.6
			c-1.8,1.5-3.7,1.7-5.7,0.6c0.2,1.2,0.2,2.3-0.2,3.1c-0.3,0.9-1.1,1.8-2.3,2.7c-1.6,1.3-3.2,1.9-4.8,1.8c-1.5-0.1-2.9-0.9-4.1-2.4
			c-1.7-2.2-1.5-5,0.5-8.4c0.9-1.7,1.5-2.8,1.7-3.5C111.4,81.7,111.6,80.5,111.8,78.9z M118.2,87l-5.4-6.8l-0.4,1.6
			c-0.4,1.4-0.6,2.5-0.4,3.3c0.1,0.7,0.6,1.7,1.4,2.7l2.3,2.9c1.1,1.4,2.2,1.8,3.1,1.1c0.5-0.4,0.7-1.1,0.6-2
			C119.3,88.9,118.9,87.9,118.2,87z"/>
		<path d="M114.7,55.8l5.9-3.7l3.8,6.1l2.5-1.6l0.5,0.9L125,59l12,19c0.4,0.6,0.8,0.8,1.2,0.5c0.8-0.5,0.8-2.1-0.2-4.6l0.8-0.5
			c1.6,3.5,1,6.1-1.8,7.9c-1.4,0.9-2.7,1.3-3.8,1.1c-1.1-0.1-2.1-0.8-2.8-1.9l-11.2-17.9l-2.6,1.6l-0.5-0.9l2.6-1.6L114.7,55.8z"/>
		<path d="M128,46.6c-0.5-1-0.6-1.9-0.3-3c0.3-1,1-1.8,1.9-2.3c1-0.5,2-0.6,3-0.3s1.8,1,2.3,1.9c0.5,1,0.6,1.9,0.2,3
			c-0.3,1-1,1.8-1.9,2.3c-1,0.5-2,0.6-3,0.3C129.3,48.2,128.5,47.6,128,46.6z M130.3,54.7l8.5-4.4l11.5,22l2.1-1.1l0.5,0.9
			l-10.6,5.5l-0.5-0.9l2.3-1.2l-11-21.1l-2.3,1.2L130.3,54.7z"/>
		<path d="M149.5,58.9c-1.3-3.5-1.5-6.7-0.5-9.8s2.9-5.2,5.7-6.3c2.7-1.1,5.6-0.8,8.4,0.8c2.9,1.6,5,4.1,6.3,7.4
			c1.5,3.7,1.7,7.2,0.7,10.3s-2.9,5.3-5.8,6.4c-2.9,1.1-5.7,0.9-8.5-0.8S151,62.7,149.5,58.9z M154.1,49l5.8,14.9
			c1,2.7,2.4,3.7,4.1,3c1.8-0.7,2.3-2.3,1.3-4.8l-5.7-14.7c-0.7-1.7-1.3-2.8-2-3.3s-1.5-0.6-2.5-0.2c-0.9,0.4-1.5,0.9-1.6,1.7
			C153.3,46.4,153.5,47.5,154.1,49z"/>
		<path d="M178.9,35.7l0.7,3.1c0.1-0.1,0.2-0.3,0.3-0.6c0.6-1.3,1.3-2.3,1.9-3c0.7-0.6,1.5-1.1,2.7-1.3c1.6-0.4,3.1-0.1,4.4,0.8
			c1.4,0.9,2.2,2.2,2.6,3.9l4.4,18.7l2.5-0.6l0.2,1l-10.9,2.5l-0.2-1l1.6-0.4l-4.7-20.1c-0.3-1.5-1-2.1-1.9-1.9
			c-0.9,0.2-1.5,1.1-1.7,2.7c-0.2,1.6-0.3,2.6-0.2,3l4.1,17.4l1.7-0.4l0.2,1l-11,2.6l-0.2-1l2.5-0.6l-5.4-23.2l-2.5,0.6l-0.2-1
			L178.9,35.7z"/>
		<path d="M209.7,40.7l-0.6-6.6c-0.1-0.8-0.4-1.4-1-1.8s-1.3-0.6-2.2-0.5c-0.7,0.1-1.4,0.3-2,0.7s-0.9,0.8-0.9,1.1s0.4,0.6,1,1
			c1.4,0.6,2.1,1.6,2.3,2.9c0.1,1-0.2,1.8-0.8,2.5s-1.5,1.1-2.5,1.2c-1.2,0.1-2.2-0.1-3-0.8c-0.8-0.6-1.2-1.5-1.3-2.6
			c-0.2-1.8,0.5-3.4,2.1-4.8c1.6-1.4,3.6-2.2,6.2-2.4c2.7-0.2,4.8,0.3,6.5,1.5c1.7,1.2,2.6,3,2.9,5.4l1.5,15.7
			c0.1,0.7,0.3,1.1,0.7,1c0.5-0.1,0.7-1,0.6-2.7l1-0.1l0.1,1c0.1,1.1-0.2,2.1-0.8,2.8c-0.7,0.7-1.6,1.2-2.8,1.3
			c-2.3,0.2-4-0.6-5.1-2.6c-0.5,1.1-1.1,2-1.9,2.5s-1.9,0.9-3.4,1c-2.1,0.2-3.7-0.2-5-1.1s-1.9-2.4-2.1-4.3c-0.3-2.7,1.4-5,5-6.8
			c1.7-0.9,2.8-1.6,3.3-2C207.9,42.8,208.7,42,209.7,40.7z M210.6,51l-0.8-8.6l-1.2,1.1c-1.1,1-1.8,1.8-2.2,2.5s-0.4,1.7-0.3,3.1
			l0.3,3.7c0.2,1.8,0.8,2.7,2,2.6c0.7-0.1,1.2-0.5,1.6-1.3C210.6,53.1,210.7,52.1,210.6,51z"/>
		<path d="M221.9,17.7l9.5,0.2L230.8,55h2.5v1l-12-0.2v-1h2.6l0.6-36.1h-2.6L221.9,17.7z"/>
		<path d="M248,45.3l1,0.2c-0.1,3.7,0.5,6.6,1.8,8.8c1.2,2.2,2.9,3.6,4.9,3.9c1.4,0.3,2.7-0.1,3.9-1.1s1.9-2.4,2.2-4.1
			c0.5-2.9-0.6-5.7-3.2-8.4c-0.8-0.7-2-1.7-3.4-3.1c-1.4-1.3-2.4-2.5-3.1-3.6c-0.7-1-1.1-2.3-1.4-3.9s-0.3-3-0.1-4.4
			c0.5-3.1,1.8-5.5,3.8-7.2c2-1.7,4.3-2.4,6.8-1.9c1.5,0.3,2.8,0.8,3.9,1.7c1.1,0.9,1.8,1.3,2.1,1.4c0.3,0.1,0.7,0,1-0.2
			s0.5-0.5,0.6-0.9v-0.2l1,0.2L268,32.8l-1-0.2c0.1-2.9-0.4-5.4-1.4-7.4s-2.3-3.2-4-3.5c-1.4-0.2-2.6,0-3.5,0.7
			c-1,0.7-1.6,1.8-1.8,3.2c-0.3,1.8,0,3.5,0.9,5c0.9,1.6,2.7,3.4,5.4,5.6c4.2,3.5,5.9,7.8,5,12.9c-0.6,3.4-2,6-4.4,7.9
			c-2.3,1.9-4.9,2.6-7.7,2.1c-1.7-0.3-3.1-1-4.1-2c-1.1-1.1-1.8-1.6-2.3-1.7c-1-0.2-1.7,0.4-2,1.8L246,57L248,45.3z"/>
		<path d="M274.1,35.9l9,2.9l-6.6,20.4c-0.4,1.3,0,2.1,1.1,2.5c0.6,0.2,1.4-0.1,2.2-0.9s1.5-1.6,1.9-2.4c0,0,0.1,0,0.1-0.1l5.5-17.1
			l-2.4-0.8l0.3-1l9,2.9L286.6,66l2.5,0.8l-0.3,1l-9.1-2.9l1.1-3.3h-0.1c-1.1,1-2.2,1.6-3.2,1.9c-1,0.3-2.1,0.3-3.4-0.2
			c-1.6-0.5-2.8-1.5-3.5-2.9s-0.8-3-0.2-4.7l5.8-18.1l-2.4-0.8L274.1,35.9z"/>
		<path d="M294.3,60.9l1,0.5c-1,5.6-0.2,8.9,2.2,10c0.9,0.4,1.8,0.4,2.7,0.1s1.6-1,2-1.9c0.5-1.1,0.6-2.3,0.2-3.5s-1.2-2.5-2.3-3.9
			c-1.2-1.4-2-2.6-2.4-3.6c-0.5-1-0.7-2.1-0.7-3.3s0.3-2.3,0.9-3.6c1-2.1,2.3-3.5,4.1-4.3s3.5-0.7,5.3,0.1c1.2,0.6,2.2,1.2,2.8,2
			c0.7,0.8,1.1,1.2,1.3,1.3c0.4,0.2,0.8,0,1-0.5l0.9,0.4l-3.2,6.8l-1-0.5c1.1-4.5,0.3-7.4-2.2-8.6c-1-0.5-1.9-0.5-2.7-0.3
			c-0.8,0.3-1.4,0.8-1.8,1.7c-0.4,0.8-0.4,1.6,0,2.6c0.4,0.9,1.4,2.4,2.9,4.5s2.5,3.9,2.8,5.4c0.2,1.5-0.1,3.3-1,5.3
			c-1,2.2-2.5,3.7-4.4,4.6s-3.8,0.8-5.7-0.1c-1.3-0.6-2.2-1.3-3-2.2s-1.2-1.3-1.3-1.4c-0.3-0.1-0.6,0.1-1,0.6l-1-0.5L294.3,60.9z"/>
		<path d="M324.4,48.8l6,3.5l-3.6,6.2l2.6,1.5l-0.5,0.9l-2.6-1.5L315,78.8c-0.4,0.6-0.3,1.1,0.1,1.3c0.9,0.5,2.2-0.3,4-2.3l0.8,0.5
			c-2.4,3.1-5,3.7-7.9,2.1c-1.4-0.8-2.4-1.8-2.8-2.9s-0.3-2.2,0.4-3.4l10.6-18.2l-2.6-1.5l0.5-0.9l2.6,1.5L324.4,48.8z"/>
		<path d="M336.8,77.3l4-5.3c0.5-0.6,0.6-1.3,0.5-2s-0.6-1.3-1.3-1.9c-0.6-0.4-1.2-0.7-2-0.8c-0.7-0.1-1.2,0-1.4,0.3
			c-0.2,0.2-0.2,0.7,0.1,1.4c0.6,1.4,0.5,2.6-0.2,3.7c-0.6,0.8-1.3,1.2-2.3,1.3c-1,0.1-1.9-0.1-2.7-0.7c-1-0.7-1.5-1.6-1.7-2.5
			c-0.2-1,0.1-1.9,0.8-2.8c1.1-1.5,2.7-2.2,4.8-2.2c2.1,0,4.2,0.8,6.3,2.3c2.2,1.6,3.4,3.4,3.9,5.5c0.4,2.1-0.1,4-1.5,5.9l-9.4,12.7
			c-0.4,0.6-0.5,1-0.1,1.2c0.4,0.3,1.2-0.2,2.2-1.7l0.8,0.6l-0.6,0.8c-0.7,0.9-1.5,1.4-2.5,1.5s-2-0.2-3-0.9
			c-1.9-1.4-2.6-3.2-2.1-5.3c-1.1,0.5-2.1,0.7-3.1,0.6c-0.9-0.1-2-0.6-3.2-1.5c-1.7-1.2-2.7-2.6-3-4.1s0.1-3,1.3-4.6
			c1.6-2.2,4.4-2.8,8.2-1.7c1.8,0.4,3.1,0.7,3.8,0.7C334.1,77.7,335.2,77.5,336.8,77.3z M330.7,85.6l5.1-7l-1.6,0.1
			c-1.5,0-2.6,0.1-3.3,0.4s-1.5,1-2.3,2.1l-2.2,3c-1.1,1.5-1.2,2.6-0.2,3.3c0.5,0.4,1.2,0.4,2.1,0.1C329.2,87.2,330,86.5,330.7,85.6
			z"/>
		<path d="M352.6,77.2l7.1,6.4L343,102l1.7,1.6l-0.7,0.8l-8.8-8l0.7-0.8l1.9,1.8l16-17.6l-1.9-1.7L352.6,77.2z M359.4,72.3
			c0.7-0.8,1.6-1.2,2.7-1.3c1.1,0,2,0.3,2.8,1s1.2,1.6,1.3,2.7c0.1,1.1-0.3,2-1,2.8s-1.6,1.2-2.7,1.3c-1.1,0-2-0.3-2.8-1
			s-1.2-1.6-1.3-2.7C358.4,74,358.7,73.1,359.4,72.3z"/>
		<path d="M370.5,94.8l-2.4,2.1c0.1,0,0.4,0,0.7-0.1c1.5-0.1,2.7,0,3.5,0.3s1.7,0.8,2.4,1.7c1.1,1.2,1.6,2.7,1.4,4.3
			c-0.1,1.6-0.9,3-2.2,4.2L359.6,120l1.7,1.9l-0.8,0.7l-7.4-8.4l0.8-0.7l1.1,1.2l15.5-13.7c1.1-1,1.4-1.9,0.8-2.6s-1.7-0.8-3.2-0.2
			s-2.4,0.9-2.7,1.2L352,111.2l1.2,1.3l-0.8,0.7l-7.5-8.5l0.8-0.7l1.7,1.9l17.9-15.8l-1.7-1.9l0.8-0.7L370.5,94.8z"/>
		<path d="M380.6,124.2l5.5-3.7c0.6-0.4,1-1,1.1-1.7s-0.1-1.5-0.6-2.2c-0.4-0.6-0.9-1.1-1.6-1.4c-0.6-0.4-1.1-0.4-1.4-0.2
			c-0.2,0.2-0.4,0.6-0.4,1.3c0.1,1.5-0.4,2.7-1.5,3.4c-0.8,0.5-1.7,0.7-2.6,0.5s-1.7-0.8-2.3-1.6c-0.7-1-0.9-2-0.7-3
			c0.2-1,0.7-1.8,1.7-2.4c1.5-1,3.3-1.2,5.2-0.4s3.7,2.2,5.1,4.3c1.5,2.2,2.1,4.4,1.8,6.5c-0.3,2.1-1.4,3.8-3.4,5.1l-13.1,8.7
			c-0.6,0.4-0.8,0.8-0.6,1.1c0.3,0.5,1.2,0.2,2.7-0.8l0.6,0.9l-0.9,0.6c-0.9,0.6-1.9,0.8-2.9,0.6s-1.8-0.9-2.5-1.9
			c-1.3-2-1.3-3.8-0.1-5.7c-1.2,0.1-2.3,0-3.1-0.4c-0.8-0.4-1.7-1.2-2.5-2.5c-1.2-1.7-1.6-3.4-1.4-4.9s1.1-2.8,2.7-3.9
			c2.3-1.5,5.1-1.1,8.3,1.2c1.6,1,2.7,1.7,3.3,2C378,123.6,379.1,123.9,380.6,124.2z M372.1,129.9l7.2-4.8l-1.5-0.5
			c-1.4-0.5-2.5-0.8-3.2-0.7c-0.8,0-1.7,0.5-2.9,1.2l-3.1,2.1c-1.5,1-2,2-1.3,3c0.4,0.6,1,0.8,1.9,0.8
			C370.1,130.9,371.1,130.6,372.1,129.9z"/>
		<path d="M407,124.3l4.1,8.4l-12.4,6.1c1.7,0.5,2.9,1.5,3.6,2.9c1.1,2.3,1,4.7-0.6,7c-1.5,2.3-4.1,4.4-7.6,6.1
			c-3.8,1.9-7.1,2.7-9.9,2.5s-4.7-1.5-5.8-3.8c-0.8-1.6-0.8-3.2,0.1-4.8l-0.1-0.1l-1.7,0.8l-4.1-8.5l0.9-0.5l1.1,2.3l32.5-15.9
			l-1.1-2.2L407,124.3z M396.6,139.9l-14,6.8c-1.3,0.7-2.3,1.4-2.9,2.2s-0.7,1.5-0.3,2.2c0.3,0.7,1,1,2,0.8s2.5-0.7,4.5-1.7
			l10.7-5.2c3-1.4,4.2-2.7,3.6-3.9c-0.3-0.6-0.8-1-1.7-1.2C397.6,139.7,397,139.7,396.6,139.9z"/>
		<path d="M418.6,149.4l3.3,9l-35,12.6l0.9,2.4l-1,0.3l-4.1-11.3l1-0.3l0.9,2.4l34-12.3l-0.9-2.5L418.6,149.4z"/>
		<path d="M400.3,191.2l0.2,0.9c-6,0.9-9.6-1.2-10.9-6.3c-0.8-3.2-0.3-6.1,1.6-8.6s4.8-4.2,8.8-5.2c3.7-0.9,7-0.7,9.9,0.6
			s4.7,3.4,5.4,6.3c1.6,6.4-2.2,10.7-11.3,12.8l-3-12l-5.9,1.5c-3.6,0.9-5.1,2.6-4.5,5.1C391.8,190.1,394.9,191.8,400.3,191.2z
			 M403.3,184l9.2-2.3c0.6-0.2,1.1-0.5,1.5-1.1s0.5-1.1,0.4-1.6c-0.2-0.8-0.6-1.3-1.2-1.6s-1.4-0.3-2.3-0.1l-8.8,2.2L403.3,184z"/>
	</g>
	<g>
		<path d="M62.1,249.8l2.7,12.2c0.4,1.6,0.2,3.6-0.6,5.7c-0.7,2.2-2.5,4.1-5.2,5.8c-2.7,1.7-6.3,3.1-10.8,4.1
			c-5.7,1.3-10.4,1.2-14.1-0.2c-3.7-1.4-5.9-4-6.8-7.7l-2.6-11.6l0.9-0.2l0.6,2.6l35.3-7.9l-0.6-2.6L62.1,249.8z M63.3,259.8
			L28,267.7l0.4,1.6c0.6,2.6,2.7,3.5,6.3,2.7l26.2-5.9c1.1-0.2,1.9-0.7,2.4-1.5c0.5-0.7,0.7-1.6,0.4-2.6L63.3,259.8z"/>
		<path d="M46.9,302.5l0.3,0.9c-5.8,1.6-9.7,0-11.6-5c-1.2-3.1-1-6,0.6-8.7s4.3-4.8,8.1-6.2c3.6-1.4,6.9-1.5,10-0.6
			c3.1,1,5.1,2.9,6.2,5.6c2.3,6.2-0.9,10.9-9.7,14L46.4,291l-5.7,2.2c-3.5,1.3-4.8,3.2-3.8,5.6C38.3,302.5,41.6,303.7,46.9,302.5z
			 M49.1,295l8.9-3.4c0.6-0.2,1-0.6,1.4-1.3c0.3-0.6,0.4-1.2,0.2-1.7c-0.3-0.7-0.7-1.2-1.4-1.4c-0.7-0.2-1.4-0.2-2.3,0.1l-8.5,3.2
			L49.1,295z"/>
		<path d="M64.4,299.8l5.5,10.2l-0.9,0.5l-1.2-2.3l-10.9,11.3l0.1,0.1l11.7-2.3c0.6-0.2,1.2-0.4,1.5-0.6c0.4-0.2,0.8-0.6,0.9-1.1
			s0.1-1-0.1-1.4l-0.6-1.1l0.9-0.5l3.6,6.6l-0.9,0.5c-0.5-0.8-1.1-1.4-1.6-1.6s-1.7-0.2-3.4,0.1l-22.1,4.4l-0.6-1.1l18.3-19.4
			l-1-1.9L64.4,299.8z"/>
		<path d="M73.4,346.6l0.5,0.8c-5.2,3.1-9.4,2.5-12.5-1.8c-1.9-2.7-2.5-5.5-1.7-8.6c0.8-3,2.9-5.7,6.2-8.2c3.1-2.2,6.2-3.3,9.5-3.2
			c3.2,0.1,5.7,1.4,7.4,3.8c3.9,5.4,2,10.7-5.7,16.1l-7.3-10l-4.9,3.6c-3,2.2-3.8,4.3-2.2,6.4C65,348.8,68.6,349.1,73.4,346.6z
			 M73.5,338.7l7.7-5.6c0.5-0.4,0.8-0.9,1-1.6s0.1-1.2-0.2-1.7c-0.5-0.6-1-1-1.7-1s-1.4,0.2-2.2,0.7l-7.3,5.3L73.5,338.7z"/>
		<path d="M99,331l6.4,7.1l-27.7,24.8l1.7,1.9l-0.8,0.7l-8-8.9l0.8-0.7l1.7,1.9l26.9-24.1l-1.8-2L99,331z"/>
		<path d="M91,359.6c2.5-2.8,5.3-4.4,8.6-4.9c3.2-0.5,6,0.3,8.2,2.3s3.2,4.6,3.1,7.9s-1.4,6.3-3.8,8.9c-2.7,3-5.6,4.7-8.9,5.3
			c-3.2,0.6-6-0.2-8.3-2.3c-2.3-2.1-3.4-4.7-3.2-7.9C86.9,365.7,88.3,362.6,91,359.6z M102,359.1L91.3,371c-1.9,2.1-2.2,3.8-0.8,5
			c1.5,1.3,3.1,1,4.9-1l10.6-11.8c1.2-1.3,1.9-2.4,2.1-3.2c0.2-0.8-0.2-1.6-1-2.3c-0.8-0.7-1.5-0.9-2.3-0.7S103,358,102,359.1z"/>
		<path d="M125.2,371.2l-1,1.4c1.9-0.5,3.5-0.2,4.8,0.6c2,1.3,2.9,3.4,2.8,6.2c-0.1,2.8-1.3,5.8-3.5,9.1c-2.5,3.7-5,6.1-7.5,7.2
			s-4.9,1-7.1-0.5c-0.7-0.5-1.2-1-1.5-1.5s-0.6-1.2-0.8-2.1l-7,10.4l2.5,1.7l-0.6,0.8l-10.4-7l0.6-0.8l2,1.4l20.2-29.9l-2.1-1.4
			l0.6-0.8L125.2,371.2z M122.3,375.5l-9.6,14.2c-0.2,1.8,0.1,3,0.9,3.5c0.5,0.3,1.1,0.3,1.8-0.1s1.4-1.2,2.1-2.3l8.2-12.1
			c1.6-2.4,1.8-4,0.6-4.8c-0.5-0.3-1.2-0.4-2,0C123.5,374.2,122.9,374.7,122.3,375.5z"/>
		<path d="M146.3,383.9l-1.4,3.1h0.1c2.4-1.8,4.8-2.1,7.1-1.1s3.3,3.1,3,6.2c1.8-1.2,3.2-1.9,4.2-2s2.1,0.1,3.3,0.6
			c1.5,0.7,2.4,1.8,2.9,3.3c0.5,1.6,0.3,3.2-0.4,4.9l-7.7,17.1l2.1,1l-0.4,0.9l-10-4.5l0.4-0.9l1.5,0.7l7.9-17.7
			c0.9-2,0.9-3.2-0.1-3.7c-0.8-0.4-1.8,0-2.9,1c-1.1,1-1.8,1.8-2,2.4l-7.2,16l1.5,0.7l-0.4,0.9l-9.4-4.2l0.4-0.9l1.5,0.7l8.3-18.5
			c0.3-0.6,0.4-1.2,0.3-1.7c-0.1-0.5-0.3-0.9-0.7-1c-0.7-0.3-1.6,0-2.7,0.8c-1.1,0.8-2,1.8-2.5,3.1l-6.9,15.5l1.5,0.7l-0.4,0.9
			l-10.3-4.6l0.4-0.9l2.4,1.1l9.7-21.7L137,381l0.4-0.9L146.3,383.9z"/>
		<path d="M186,415.8l0.9,0.2c-2,5.7-5.6,7.9-10.7,6.6c-3.2-0.8-5.5-2.7-6.8-5.5s-1.5-6.3-0.4-10.3c0.9-3.7,2.7-6.5,5.2-8.5
			c2.6-1.9,5.3-2.5,8.1-1.8c6.4,1.6,8.4,7,5.9,16l-12-3.1l-1.5,5.9c-0.9,3.6-0.1,5.7,2.4,6.4C181,422.8,184,420.8,186,415.8z
			 M181.1,409.7l2.4-9.2c0.2-0.6,0.1-1.2-0.2-1.8c-0.3-0.6-0.7-1-1.2-1.1c-0.8-0.2-1.4-0.1-2,0.3s-1,1.1-1.2,1.9l-2.2,8.8
			L181.1,409.7z"/>
		<path d="M203.3,400.9l-0.4,3.2c0.1-0.1,0.3-0.2,0.5-0.5c1-1.1,2-1.8,2.8-2.2c0.8-0.4,1.8-0.5,2.9-0.4c1.6,0.2,2.9,0.9,3.9,2.2
			c1,1.3,1.4,2.8,1.2,4.5l-2.1,19.1l2.6,0.3l-0.1,1l-11.2-1.3l0.1-1l1.6,0.2l2.3-20.6c0.2-1.5-0.2-2.3-1.2-2.4
			c-0.9-0.1-1.8,0.6-2.6,2s-1.2,2.3-1.2,2.7l-2,17.8l1.8,0.2l-0.1,1l-11.2-1.3l0.1-1l2.5,0.3l2.7-23.7l-2.5-0.3l0.1-1L203.3,400.9z"
			/>
		<path d="M222.2,395.2l7-0.1l0.1,7.2h3v1h-3l0.4,22.4c0,0.7,0.3,1.1,0.7,1.1c1,0,1.7-1.4,2.2-4h1c-0.4,3.8-2.3,5.8-5.6,5.8
			c-1.7,0-2.9-0.3-3.9-1c-0.9-0.7-1.4-1.7-1.4-3.1l-0.3-21.1h-3v-1h3L222.2,395.2z"/>
		<path d="M267.5,423.9l-2.1-1.5c-1.1,1.7-2.6,2.7-4.5,3c-2.5,0.4-5-0.7-7.5-3.3s-4.4-7.5-5.6-14.8c-0.9-5.6-0.8-10.3,0.5-14
			c1.3-3.8,3.4-5.9,6.3-6.4c1.1-0.2,1.9-0.2,2.6,0.1c0.7,0.2,1.4,0.7,2.2,1.3c0.5-0.5,0.9-1.1,1.3-1.9l1.1-0.2l1.6,9.6l-1.1,0.2
			c-2.3-5.8-4.7-8.5-7.1-8.1c-1.5,0.2-1.9,1.9-1.4,5l4.4,26.4c0.3,1.7,0.7,2.9,1.4,3.7s1.4,1.2,2.2,1.1c1.3-0.2,2.3-1.3,3-3.1
			c0.7-1.8,1-4.4,1-7.6l1-0.2l1.8,10.5L267.5,423.9z"/>
		<path d="M270.5,409.9c-1.1-3.6-1-6.8,0.3-9.8s3.3-5,6.2-5.8c2.8-0.9,5.6-0.4,8.3,1.5c2.7,1.8,4.6,4.5,5.7,7.9
			c1.2,3.8,1.1,7.3-0.1,10.3c-1.2,3.1-3.3,5-6.3,5.9s-5.8,0.4-8.4-1.4C273.5,416.6,271.6,413.7,270.5,409.9z M275.8,400.3l4.6,15.3
			c0.8,2.7,2.1,3.8,3.9,3.3c1.9-0.6,2.4-2.1,1.7-4.7l-4.6-15.1c-0.5-1.7-1.1-2.9-1.7-3.4c-0.6-0.6-1.4-0.7-2.5-0.4
			c-1,0.3-1.6,0.8-1.8,1.6C275.2,397.6,275.3,398.8,275.8,400.3z"/>
		<path d="M298.8,386.4l1.1,2.5h0.1c-0.1-2.2,0.9-3.7,2.9-4.6c1.2-0.5,2.4-0.6,3.5-0.2s1.9,1.3,2.5,2.5c0.4,0.9,0.5,1.8,0.1,2.7
			c-0.3,0.9-0.9,1.5-1.8,1.9s-1.7,0.4-2.4,0.1c-0.8-0.3-1.4-0.9-1.8-1.8c-0.4-0.8-0.4-1.6-0.1-2.3c0.3-0.8,0.4-1.3,0.3-1.5
			s-0.4-0.3-0.8-0.1c-0.9,0.4-1.4,1.3-1.5,2.8s0.1,3,0.8,4.6l7.2,16l2.6-1.2l0.4,0.9l-11.2,5l-0.4-0.9l2.2-1l-9.8-21.7l-2.2,1
			l-0.4-0.9L298.8,386.4z"/>
		<path d="M316.4,377.1l0.9,1.5c0.4-1.9,1.2-3.3,2.6-4.1c2-1.3,4.3-1.3,6.8,0c2.5,1.2,4.8,3.5,6.8,6.9c2.3,3.8,3.5,7,3.4,9.8
			c0,2.8-1.1,4.8-3.4,6.2c-0.7,0.4-1.4,0.7-2,0.7s-1.4,0-2.3-0.1l6.6,10.7l2.6-1.6l0.5,0.9l-10.7,6.5l-0.5-0.9l2.1-1.3L311,381.6
			l-2.2,1.3l-0.5-0.9L316.4,377.1z M319.1,381.5l8.9,14.6c1.5,0.9,2.7,1.1,3.6,0.6c0.5-0.3,0.7-0.9,0.6-1.7
			c-0.1-0.8-0.5-1.8-1.2-2.9l-7.7-12.5c-1.5-2.4-2.9-3.3-4.1-2.5c-0.5,0.3-0.8,0.9-0.8,1.8C318.3,379.9,318.6,380.7,319.1,381.5z"/>
		<path d="M337.8,378.4c-2.4-2.9-3.5-5.9-3.5-9.2c0-3.3,1.2-5.8,3.5-7.8c2.3-1.9,5-2.5,8.3-1.9c3.2,0.6,6,2.3,8.3,5.1
			c2.5,3.1,3.9,6.3,3.9,9.6c0.1,3.3-1.1,5.9-3.5,7.9s-5.2,2.6-8.3,1.9C343.2,383.4,340.4,381.5,337.8,378.4z M339,367.5l10.2,12.4
			c1.8,2.2,3.4,2.7,4.8,1.6c1.5-1.3,1.4-2.9-0.3-5l-10.1-12.2c-1.1-1.4-2.1-2.2-2.9-2.5s-1.6-0.1-2.4,0.6c-0.8,0.6-1.1,1.4-1,2.2
			C337.5,365.3,338,366.3,339,367.5z"/>
		<path d="M354.9,345.9l2,1.9l0.1-0.1c-0.9-2-0.6-3.8,0.9-5.4c0.9-1,2-1.5,3.1-1.5c1.2,0,2.3,0.4,3.3,1.4c0.7,0.7,1.1,1.5,1.2,2.5
			c0,0.9-0.3,1.8-1,2.5c-0.6,0.7-1.4,1-2.2,1c-0.8,0-1.6-0.3-2.3-1c-0.6-0.6-1-1.3-1-2.1c0-0.8-0.1-1.3-0.3-1.5
			c-0.2-0.2-0.5-0.1-0.8,0.2c-0.6,0.7-0.7,1.7-0.3,3.1c0.4,1.4,1.3,2.7,2.5,3.9l12.8,12l2-2.1l0.7,0.7l-8.4,8.9l-0.7-0.7l1.6-1.8
			l-17.4-16.3l-1.7,1.8l-0.7-0.7L354.9,345.9z"/>
		<path d="M377.2,334.3l-5.4-3.9c-0.6-0.5-1.3-0.6-2-0.5c-0.7,0.2-1.3,0.6-1.9,1.3c-0.4,0.6-0.7,1.2-0.8,2c-0.1,0.7,0,1.2,0.3,1.4
			c0.2,0.2,0.7,0.2,1.4-0.1c1.4-0.6,2.6-0.5,3.7,0.2c0.8,0.6,1.2,1.3,1.3,2.3c0.1,1-0.1,1.9-0.7,2.7c-0.7,1-1.5,1.5-2.5,1.7
			s-1.9-0.1-2.9-0.7c-1.5-1.1-2.2-2.7-2.2-4.8c0-2.1,0.8-4.2,2.3-6.3c1.6-2.2,3.4-3.5,5.4-3.9s4,0,5.9,1.4l12.7,9.3
			c0.6,0.4,1,0.5,1.2,0.1c0.3-0.4-0.2-1.2-1.7-2.2l0.6-0.8l0.8,0.6c0.9,0.7,1.4,1.5,1.5,2.5s-0.2,2-0.9,3c-1.4,1.9-3.1,2.6-5.3,2.1
			c0.5,1.1,0.8,2.1,0.7,3.1s-0.6,2-1.5,3.2c-1.2,1.7-2.6,2.7-4.1,3s-3-0.1-4.6-1.2c-2.2-1.6-2.8-4.4-1.8-8.2
			c0.4-1.8,0.7-3.1,0.7-3.8C377.6,337,377.5,335.9,377.2,334.3z M385.5,340.4l-7-5.1l0.1,1.6c0,1.5,0.1,2.6,0.4,3.3
			c0.3,0.7,1,1.4,2.1,2.3l3,2.2c1.5,1.1,2.6,1.2,3.3,0.2c0.4-0.5,0.4-1.2,0.1-2.1C387.1,341.8,386.5,341.1,385.5,340.4z"/>
		<path d="M370.8,313.1l3.5-6l6.2,3.6l1.5-2.6l0.9,0.5l-1.5,2.6l19.4,11.2c0.6,0.4,1.1,0.3,1.3-0.1c0.5-0.9-0.3-2.2-2.3-3.9l0.5-0.8
			c3.1,2.3,3.8,5,2.1,7.8c-0.8,1.4-1.8,2.4-2.9,2.8s-2.2,0.3-3.4-0.4l-18.3-10.5l-1.5,2.6l-0.9-0.5l1.5-2.6L370.8,313.1z"/>
		<path d="M376.4,300.8c-1-0.5-1.6-1.2-2-2.2s-0.3-2,0.1-3c0.5-1,1.2-1.6,2.2-2s2-0.3,3,0.1s1.6,1.2,2,2.2s0.3,2-0.2,3
			s-1.2,1.6-2.2,2S377.3,301.3,376.4,300.8z M383.1,305.9l4.1-8.6l22.5,10.6l1-2.1l0.9,0.4l-5.1,10.8l-0.9-0.4l1.1-2.4L385.1,304
			l-1.1,2.3L383.1,305.9z"/>
		<path d="M401.4,296.8c-3.5-1.2-6.1-3.2-7.8-6c-1.7-2.8-2.1-5.6-1.1-8.4s3-4.8,6.1-5.9c3.1-1.2,6.3-1.1,9.7,0
			c3.8,1.3,6.6,3.3,8.3,6.1s2.2,5.6,1.2,8.5s-3,4.9-6.1,6S405.2,298.1,401.4,296.8z M396.7,286.9l15.2,5.2c2.7,0.9,4.3,0.5,4.9-1.2
			c0.6-1.9-0.3-3.2-2.9-4.1l-15-5.1c-1.7-0.6-3-0.8-3.8-0.6c-0.8,0.2-1.4,0.8-1.8,1.8c-0.3,1-0.2,1.8,0.3,2.4
			C394.2,285.8,395.2,286.4,396.7,286.9z"/>
		<path d="M398.8,260.6l3.1,0.6c-0.1-0.1-0.2-0.3-0.5-0.5c-1-1.1-1.6-2.1-1.9-3s-0.4-1.9-0.2-3c0.3-1.6,1.1-2.9,2.5-3.7
			c1.4-0.9,2.9-1.2,4.6-0.8l18.9,3.6l0.5-2.5l1,0.2l-2.1,11l-1-0.2l0.3-1.6l-20.3-3.9c-1.5-0.3-2.3,0-2.5,1
			c-0.2,0.9,0.4,1.8,1.8,2.7c1.4,0.9,2.2,1.3,2.6,1.4l17.6,3.3l0.3-1.8l1,0.2l-2.1,11.1l-1-0.2l0.5-2.5l-23.4-4.4l-0.5,2.5l-1-0.2
			L398.8,260.6z"/>
	</g>
	<g>
		<path d="M225.4,450.7c-60.2,0-116.8-23.4-159.4-66C23.4,342.2,0,285.6,0,225.4S23.4,108.6,66,66S165.2,0,225.4,0
			s116.8,23.4,159.4,66s66,99.2,66,159.4s-23.4,116.8-66,159.4S285.6,450.7,225.4,450.7z M225.4,10C106.6,10,10,106.6,10,225.4
			s96.6,215.4,215.4,215.4s215.4-96.6,215.4-215.4S344.1,10,225.4,10z"/>
	</g>
	<g>
		<path d="M181.9,342.9h-22.3v-1.2h3.8v-30.8h-3.8v-1.2h22.3v1.2h-4v30.8h4V342.9z"/>
		<path d="M211,320.3c0-3.3-1.3-5.8-3.8-7.5c-2.5-1.8-5-2.6-7.6-2.6c-1.2,0-2.2,0.3-3,1s-1.1,1.5-1.1,2.6c0,0.8,0.2,1.5,0.7,2
			s1.4,1.2,2.8,1.9c4.9,2.7,8.1,4.7,9.7,5.9s2.7,2.4,3.3,3.8c0.6,1.3,0.9,2.9,0.9,4.6c0,2.7-0.7,5-2.2,6.7c-1.4,1.8-3.4,3.1-5.8,3.9
			c-2.5,0.8-4.7,1.2-6.7,1.2c-3.1,0-6-1-8.7-3.1l-4.4,3.5v-14h1.3v0.1c0,2.3,0.4,4.2,1.3,5.8c0.9,1.6,2.2,3,4.1,4.2
			c1.8,1.2,3.7,1.9,5.6,1.9c1.7,0,3.1-0.4,4.2-1.1s1.6-1.7,1.6-2.8c0-0.7-0.2-1.3-0.7-1.9c-0.4-0.6-1-1.1-1.8-1.6
			c-0.7-0.5-2.5-1.4-5.1-2.8c-6.2-3.3-9.3-7.2-9.3-11.7c0-3.3,1.2-6,3.6-8.2c2.4-2.2,5.4-3.3,9.1-3.3c1.2,0,2.5,0.1,3.9,0.4
			s3,1,4.9,2.2l4.5-3.4v12.3H211z"/>
		<path d="M216.1,309.7h25.1c5.4,0,9.3,1.8,11.7,5.3s3.6,7.2,3.6,11c0,4.1-1.3,7.9-3.8,11.5s-6,5.4-10.5,5.4H216v-1.2h3.8v-30.8H216
			v-1.2H216.1z M240.6,337v-21.4c0-1.9-0.2-3.2-0.5-3.8c-0.4-0.6-1.4-0.9-3.2-0.9h-2.5v30.8h2c1.6,0,2.7-0.3,3.3-0.9
			S240.6,338.9,240.6,337z"/>
		<path d="M291.2,337c-1.9,2.4-3.9,4.2-5.9,5.3c-2,1.1-4.6,1.6-7.6,1.6c-5.3,0-9.6-1.6-13-4.9s-5.1-7.5-5.1-12.7
			c0-5.3,1.7-9.6,5-12.8c3.3-3.2,7.6-4.8,13-4.8c3.4,0,6.2,0.9,8.4,2.7l5.1-2.6v13.7h-1.2c0-2.4-0.6-4.5-1.8-6.4
			c-1.2-1.9-2.7-3.3-4.3-4.3c-1.7-1-3.3-1.5-5-1.5c-0.8,0-1.5,0.2-2,0.6s-0.9,0.9-1,1.5s-0.2,1.6-0.2,2.9V337c0,1.9,0.3,3.3,0.9,4.1
			c0.6,0.8,1.6,1.2,3,1.2c4,0,7.5-2,10.6-6.1L291.2,337z"/>
	</g>
	<g>
		<g>
			<path d="M38.3,208.2c0.6,0,1.1,0,1.7,0c0.1,0,0.2,0,0.3,0c1.9,0.1,3.8,0.7,5.5,1.6c2.7,1.4,4.7,3.4,6.1,6c0.8,1.5,1.3,3,1.5,4.7
				c0.1,0.5,0.1,1,0.2,1.4c0,0.5,0,1,0,1.5c0,0.1,0,0.1,0,0.2c-0.1,0.6-0.1,1.2-0.2,1.7c-0.8,3.7-2.7,6.7-5.7,8.9
				c-3.3,2.3-6.9,3.2-10.9,2.5c-3.8-0.7-6.8-2.6-9.1-5.7c-1.7-2.2-2.6-4.7-2.8-7.5c-0.1-2.1,0.2-4.1,0.9-6.1c0.8-2.1,2-3.9,3.6-5.4
				c2.1-2,4.5-3.2,7.4-3.7C37.1,208.4,37.7,208.3,38.3,208.2z M47.9,212.8c-5.3-4.6-12.4-4-16.5-0.8c0.6,0,1.1,0.1,1.5,0.4v0.1
				c0.3,0,0.5,0,0.8,0c-0.2-0.5-0.6-0.2-0.8-0.3c0.1-0.3,0.1-0.4-0.2-0.4c-0.1,0-0.2,0-0.3,0c0.2-0.2,0.4-0.4,0.6-0.5
				c0.3-0.2,0.8,0,1,0.2c0.2,0.3,0.6,0.4,0.9,0.1c0.1-0.1,0.3-0.2,0.4,0c-0.2,0.4-0.6,0.6-1.1,0.5c0,0.2,0,0.3,0.1,0.5
				c0.2,0,0.4,0,0.6,0c0.1,0,0.2,0,0.2-0.1c0.1-0.2,0.2-0.2,0.4-0.2c0.3,0,0.3-0.1,0.3-0.3c-0.1,0-0.2-0.1-0.3-0.1
				c0.1-0.4,0.6-0.5,1.1-0.3c-0.4,0.4-0.4,0.6-0.3,0.6c0.1,0.1,0.3,0.1,0.5,0.2c0-0.2,0-0.4,0-0.5s0-0.2,0.1-0.2
				c0.2-0.1,0.4-0.2,0.6-0.2c0.5-0.2,1,0,1.4,0.2c0.3,0.1,0.6,0.2,0.5,0.7c0.1,0,0.3,0.1,0.4,0.1c-0.1,0.3-0.2,0.4-0.5,0.4
				c-0.2,0-0.3,0-0.4,0.2c0,0.1-0.1,0.1-0.1,0.2c-0.4-0.1-0.8-0.2-1.2-0.3c0.4-0.2,0.7-0.4,1-0.6c-0.2-0.1-0.3-0.3-0.5-0.3
				c-0.3,0-0.6,0.1-0.9,0.2c-0.2,0.1-0.4,0.3-0.7,0.4c0,0,0.1,0.1,0.1,0.2c-0.2,0.1-0.4,0.2-0.6,0.3c-0.1-0.2-0.1-0.3-0.1-0.5
				c-0.6,0.3-1.1,0.6-1.6,0.9c0,0-0.1,0.1-0.1,0.2c0,0.3,0.3,0.6,0.6,0.6c0.2,0,0.3,0.1,0.5,0.1c0,0.3,0,0.5,0,0.8
				c0.2-0.1,0.3-0.2,0.3-0.3c0.1-0.4,0.4-0.5,0.7-0.6c0.2,0,0.2-0.1,0.2-0.3s0-0.4,0-0.5c0-0.2,0.3-0.5,0.5-0.4
				c0.3,0.1,0.6,0.1,0.9,0.2c0,0.2,0,0.4-0.1,0.7c0.3-0.1,0.6-0.3,1-0.4c0,0.2,0,0.4,0,0.5s0.1,0.3,0.2,0.3c0.3,0.1,0.4,0.4,0.3,0.7
				c0,0,0,0-0.1,0c-0.1,0.1-0.2,0.1-0.4,0.2c0.1,0.1,0.2,0.2,0.4,0.2c0.2,0.1,0.3,0.2,0.2,0.5c-0.2-0.1-0.4-0.1-0.6-0.2
				c-0.3-0.1-0.3-0.2-0.1-0.4c0-0.1,0-0.2,0-0.3c-0.1,0-0.2,0-0.2,0.1c-0.2,0.2-0.5,0.1-0.7,0c-0.1-0.1-0.3-0.1-0.4-0.1
				c-0.1,0-0.1,0.1-0.2,0.2c0,0.1,0.1,0.1,0.1,0.2c0.1,0,0.2,0.1,0.3,0.1c-0.1,0.1-0.1,0.2-0.2,0.3c-0.2-0.3-0.4-0.2-0.5,0
				c-0.2,0.2-0.4,0.4-0.6,0.6c-0.5,0.3-0.9,0.7-1.3,1.1c0,0-0.1,0.1-0.1,0.2c0,0.3-0.2,0.4-0.4,0.5c-0.1,0.1-0.3,0.2-0.4,0.3
				c-0.3,0.2-0.6,0.5-0.5,0.9c0,0.1,0,0.2,0,0.3c-0.4-0.1-0.6-0.2-0.5-0.7c-0.5,0-1-0.1-1.5,0c-0.3,0-0.6,0.2-0.9,0.5
				c-0.2,0.2-0.3,0.6-0.4,0.8c-0.1,0.3,0,0.5,0.2,0.7c0.1,0.1,0.6,0.1,0.8,0c0.3-0.2,0.5-0.4,0.8-0.5c0.3,0.4-0.1,0.6-0.2,0.9
				c0.3,0,0.5,0.1,0.7,0.1c0,0.3,0.1,0.5,0.1,0.8s0.1,0.4,0.4,0.5c0.5,0.1,0.8,0,1.1-0.4c0.1-0.2,0.3-0.3,0.6-0.2
				c0.2,0.1,0.5,0,0.6,0.3c0.2,0.3,0.8,0.3,1,0c0.4,0.1,0.5,0.3,0.7,0.6c0.1,0.2,0.3,0.3,0.6,0.3c0.5,0,0.6,0,0.7,0.5
				c0.1,0.2,0.1,0.3,0.1,0.5s0.1,0.2,0.2,0.3c0.5,0.3,1.1,0.3,1.6,0.3c0.1,0,0.2,0,0.3,0.1c0.2,0.3,0.4,0.6,0.8,0.6
				c0,0.4-0.3,0.7-0.5,1c-0.1,0.1-0.2,0.3-0.2,0.4c-0.1,0.3-0.1,0.7-0.1,1s-0.1,0.5-0.4,0.7c-0.2,0.2-0.5,0.1-0.7,0.1
				s-0.3,0.1-0.4,0.2c-0.2,0.2-0.1,0.5,0,0.7c0.1,0.3,0,0.5-0.2,0.7s-0.5,0.5-0.6,0.8c-0.2,0.5-0.7,0.6-1.2,0.8
				c-0.1,0-0.2,0.1-0.3,0.2c0.1,0.1,0.2,0.1,0.3,0.2c0,0,0,0,0.1,0.1c-0.1,0.1-0.2,0.3-0.4,0.5c0.2,0.1,0.4,0.2,0.6,0.3v0.1
				c-0.2,0.5-0.1,0.8,0.3,1v0.3c-0.3,0-0.6,0.1-0.9-0.1c-0.4-0.3-0.7-0.7-1-1.2c-0.2-0.3-0.2-0.5-0.2-0.9c0.1-0.4,0-0.7-0.3-1
				c-0.1-0.1-0.1-0.3-0.1-0.4c0-0.3,0.1-0.5,0.1-0.8c-0.3,0-0.3-0.2-0.3-0.4c0-0.6,0-1.2,0-1.7c0-0.1,0-0.2-0.1-0.3
				c-0.3-0.2-0.7-0.4-1-0.6c-0.1,0-0.1-0.1-0.2-0.1c0-0.4-0.3-0.7-0.6-0.9c-0.3-0.4-0.5-0.7-0.4-1.3c0.1-0.4,0.2-0.7,0.5-0.9
				c0.2-0.1,0.2-0.2,0.2-0.4c-0.1-0.6-0.1-0.6-0.7-0.6c-0.3,0-0.5-0.1-0.7-0.3c-0.3-0.5-0.8-0.8-1.4-0.8c0,0,0,0-0.1,0
				c0-0.1,0-0.2,0-0.4c-0.2,0-0.3,0.1-0.5,0.1h-0.1c-0.5-0.1-1.1-0.1-1.4-0.8c-0.1-0.1-0.1-0.2,0-0.4c0-0.1,0-0.2,0-0.3
				c-0.3-0.5-0.8-1-0.7-1.7c-0.1,0-0.2,0-0.3,0c0,0.5,0.2,0.9,0.4,1.3c0.1,0.1,0.1,0.3,0.1,0.5c0,0-0.1,0-0.1,0.1
				c-0.1-0.1-0.4-0.1-0.4-0.2c-0.3-0.4-0.6-0.9-0.5-1.4c0-0.1,0-0.2,0-0.3s-0.1-0.2-0.2-0.2c-0.3-0.1-0.4-0.3-0.4-0.7
				c0,0,0-0.1,0-0.2c-2.3,5-1.1,12.5,5.3,16.4c6.3,3.8,13.6,1.5,17-3c-0.1,0-0.2,0-0.4,0c0-0.2,0-0.5,0-0.7c0-0.1,0-0.2-0.1-0.3
				c-0.4-0.4-0.5-0.8-0.4-1.3c0-0.2,0-0.4-0.2-0.5c-0.2-0.2-0.3-0.5-0.1-0.8c0.1-0.2,0.2-0.4,0.3-0.6c0.1-0.1,0.1-0.3,0-0.4
				c-0.2-0.4-0.5-0.8-0.7-1.2c-0.1-0.1-0.1-0.3-0.1-0.4c0-0.3,0-0.6,0.1-0.9c-0.2,0-0.5,0-0.7-0.1c-0.1,0-0.2,0-0.2-0.1
				c-0.4-0.3-0.6-0.3-1,0c-0.1,0-0.2,0.1-0.3,0.1c-0.3,0-0.6,0.1-0.9,0.1c-0.3,0-0.5,0-0.7-0.2c-0.2-0.3-0.5-0.6-0.8-0.9
				c-0.4-0.4-0.2-0.9-0.2-1.4c0,0,0,0,0.1-0.1c0.2-0.1,0.2-0.3,0.2-0.5c-0.3,0-0.3-0.1-0.3-0.3c-0.1-0.2,0.1-0.3,0.2-0.4
				c0.3-0.2,0.7-0.5,1-0.7c0.2-0.1,0.2-0.2,0.2-0.4s0-0.4,0-0.5c0.3-0.2,0.5-0.4,0.9-0.4c0.2,0,0.5,0.1,0.7,0
				c0.6-0.3,1.2-0.2,1.9-0.3c0,0.3,0,0.5,0,0.7c0.6,0.2,1.1,0.3,1.6,0.5c0-0.1,0-0.3,0-0.4c0.4-0.1,0.7-0.1,1,0.2
				c0.4,0.4,0.9,0.2,1.4,0.2c-0.1-0.3-0.2-0.6-0.3-0.8s-0.2-0.3-0.4-0.3c-0.5,0-0.7-0.2-0.7-0.7c0-0.1,0-0.2,0-0.3
				c-0.2,0.1-0.2,0.1-0.5,0.9c-0.4-0.3-0.4-0.4-0.5-0.9v-0.1c-0.2-0.4-0.8-0.6-1.2-0.6c0,0.6,0.6,0.6,0.9,0.9c0,0.1-0.1,0.2-0.1,0.3
				c0,0.3-0.2,0.3-0.3,0.3c-0.2,0-0.4,0-0.4-0.3c0.2-0.1,0.4,0.1,0.5-0.2c-0.3-0.4-0.9-0.5-1.1-1c-0.1,0.1-0.2,0.2-0.3,0.3
				c-0.1,0-0.1,0.1-0.2,0.1c-0.3-0.1-0.4,0.1-0.6,0.3c-0.1,0.1-0.2,0.2-0.3,0.4c-0.2,0.5-0.6,0.5-1,0.5h-0.1c-0.3,0-0.4-0.2-0.5-0.4
				c0-0.1,0-0.2-0.1-0.4c0-0.3,0.1-0.5,0.4-0.5c0.3,0,0.7,0,1.1,0c0-0.1,0-0.2,0.1-0.3c-0.1,0-0.2-0.1-0.3-0.1c0-0.1,0-0.1,0-0.2
				c0-0.3,0.1-0.4,0.4-0.4c0.3,0,0.5-0.2,0.6-0.4c0.2-0.4,0.5-0.4,0.8-0.4c0.2,0,0.3,0,0.5,0c0-0.2-0.1-0.4-0.1-0.6
				c-0.2,0.1-0.4,0.1-0.5,0.2c0-0.1-0.1-0.2-0.1-0.3c-0.1-0.1-0.1-0.2-0.2-0.2c-0.2-0.1-0.3-0.3-0.1-0.5c0.1-0.1,0.3-0.2,0.5-0.3
				C47.6,213,47.7,212.9,47.9,212.8z M49.4,214.3c-0.2-0.3-0.4-0.5-0.6-0.7c0,0,0,0-0.1,0c0.1,0.4,0,0.7-0.4,0.8l0,0
				c0,0.1,0,0.2,0,0.2c0.3,0,0.5,0,0.8,0C49.2,214.7,49.3,214.5,49.4,214.3z M33.3,216c0.4,0,0.7,0,1,0c0.1-0.2,0-0.4-0.2-0.4
				C33.8,215.5,33.4,215.7,33.3,216z M34,216.2c-0.4-0.1-0.7,0.1-0.7,0.5c0,0.1,0.1,0.1,0.1,0.2c0,0,0.1,0,0.2,0
				C33.7,216.6,33.8,216.4,34,216.2z M31.3,212.9c0.7,0.1,0.8,0,0.7-0.4c-0.2,0-0.5,0.1-0.7,0.1C31.3,212.7,31.3,212.8,31.3,212.9z
				 M32.8,215.2c0.4,0,0.4-0.2,0.4-0.6c-0.2,0-0.4,0.1-0.6,0.1C32.6,214.9,32.7,215.1,32.8,215.2z M34.6,216.7
				c-0.4,0-0.5,0.1-0.6,0.4C34.5,217.2,34.7,217.1,34.6,216.7z M31.4,213.4v0.1c0.2,0,0.5,0,0.7,0c0,0,0-0.1,0.1-0.3
				C31.8,213.3,31.6,213.3,31.4,213.4z M34.9,216.4c-0.1,0.4,0,0.5,0.5,0.4C35.4,216.4,35.1,216.6,34.9,216.4z M34.7,216.2
				c-0.1,0-0.3,0-0.4,0c0,0.1,0,0.3,0,0.4C34.7,216.6,34.8,216.5,34.7,216.2z M50.9,216.7C50.9,216.7,50.8,216.7,50.9,216.7
				c-0.1,0.2-0.1,0.4-0.1,0.6c0.1,0,0.2,0,0.4,0C51.1,217.1,51,216.9,50.9,216.7z"/>
		</g>
		<g>
			<path d="M45.4,215.4c0-0.4,0-0.4,0.4-0.5c-0.1-0.1-0.2-0.2-0.2-0.3c-0.1-0.1-0.4-0.1-0.3-0.4c0.1-0.3,0.3-0.2,0.5-0.3
				c0.1,0.5,0.2,1,0.7,1.2C46.3,215.4,46.1,215.5,45.4,215.4z"/>
		</g>
		<g>
			<path d="M44.5,215.2c-0.1-0.4,0.2-0.7,0.5-0.7c0.1,0,0.3,0.1,0.3,0.1c0,0.1,0,0.3-0.1,0.3C44.8,215.2,44.8,215.2,44.5,215.2z"/>
		</g>
		<g>
			<path d="M37.6,216.3c0.2-0.1,0.3-0.2,0.4-0.2c0.1,0,0.2,0,0.4,0c-0.2,0.2-0.3,0.3-0.5,0.4C37.7,216.6,37.6,216.5,37.6,216.3z"/>
		</g>
	</g>
	<g>
		<g>
			<path d="M425.2,216.9c0.2,0.2,0.4,0.3,0.7,0.1C425.6,216.8,425.4,216.8,425.2,216.9z"/>
		</g>
		<g>
			<path d="M424.9,218.5c0.2,0.1,0.4,0,0.5-0.3C425.1,218.1,424.9,218.2,424.9,218.5z"/>
		</g>
		<g>
			<path d="M424.6,213c-0.2-0.1-0.4,0-0.4,0.3C424.4,213.4,424.6,213.3,424.6,213z"/>
		</g>
		<g>
			<path d="M405.7,214.9c-0.2-0.2-0.3-0.2-0.5-0.1C405.4,215,405.6,215,405.7,214.9z"/>
		</g>
		<g>
			<path d="M422.8,215c0.2,0.1,0.4,0,0.5-0.2C423,214.6,422.9,214.7,422.8,215z"/>
		</g>
		<g>
			<polygon points="400.8,211.2 400.8,211.2 400.8,211.2 			"/>
		</g>
		<g>
			<path d="M419.2,207.4c-0.2-0.2-0.3-0.2-0.5,0C418.8,207.6,419,207.6,419.2,207.4z"/>
		</g>
		<g>
			<path d="M401.3,215.6c0.2,0.1,0.4,0.1,0.5-0.2C401.5,215.3,401.4,215.4,401.3,215.6z"/>
		</g>
		<g>
			<path d="M401.7,214.3L401.7,214.3c-0.2-0.2-0.3-0.2-0.5-0.1C401.3,214.4,401.5,214.5,401.7,214.3z"/>
		</g>
		<g>
			<path d="M422.8,214.3c-0.2,0.2-0.2,0.3-0.1,0.5C422.9,214.7,422.9,214.5,422.8,214.3z"/>
		</g>
		<g>
			<path d="M408.9,206.6c-0.1-0.2-0.2-0.3-0.5-0.2C408.5,206.7,408.7,206.8,408.9,206.6z"/>
		</g>
		<g>
			<path d="M425.9,218.2c0.1,0.2,0.2,0.3,0.4,0.2C426.2,218.2,426,218.1,425.9,218.2z"/>
		</g>
		<g>
			<path d="M425,217c0,0.2,0.1,0.4,0.3,0.4C425.4,217.2,425.3,217,425,217z"/>
		</g>
		<g>
			<path d="M404.9,215.9c0-0.2-0.2-0.3-0.4-0.3C404.6,215.8,404.7,215.9,404.9,215.9z"/>
		</g>
		<g>
			<path d="M425.3,216.4c-0.2,0.1-0.3,0.2-0.2,0.4C425.3,216.8,425.4,216.7,425.3,216.4z"/>
		</g>
		<g>
			<path d="M422.3,212.7c-0.1,0.2-0.1,0.4,0.1,0.5C422.6,213,422.5,212.9,422.3,212.7z"/>
		</g>
		<g>
			<path d="M425.9,218.1c0.2,0,0.4,0,0.4-0.2C426.1,217.8,426,217.9,425.9,218.1z"/>
		</g>
		<g>
			<path d="M404.8,216c-0.2-0.1-0.4,0-0.4,0.2C404.6,216.3,404.8,216.2,404.8,216z"/>
		</g>
		<g>
			<path d="M405.6,209.3L405.6,209.3L405.6,209.3L405.6,209.3c-0.2,0.1-0.2,0.2-0.2,0.3C405.6,209.6,405.7,209.5,405.6,209.3
				C405.6,209.3,405.6,209.3,405.6,209.3L405.6,209.3z"/>
		</g>
		<g>
			<path d="M417.8,206.4c-0.1,0.2-0.1,0.3,0.1,0.4C418,206.6,418,206.5,417.8,206.4z"/>
		</g>
		<g>
			<path d="M424.9,218.6c0,0.2,0.1,0.3,0.3,0.2C425.2,218.6,425.1,218.5,424.9,218.6z"/>
		</g>
		<g>
			<path d="M418.1,210.4c0-0.2,0-0.3-0.2-0.3C417.8,210.3,417.9,210.4,418.1,210.4z"/>
		</g>
		<g>
			<path d="M401.5,214.7c0.2-0.1,0.2-0.1,0.2-0.3C401.5,214.5,401.5,214.6,401.5,214.7z"/>
		</g>
		<g>
			<path d="M422.1,215.3c-0.1,0.2,0,0.3,0.1,0.3C422.3,215.5,422.3,215.4,422.1,215.3z"/>
		</g>
		<g>
			<path d="M424.1,213.4c0.1,0.2,0.2,0.2,0.4,0.1C424.4,213.4,424.3,213.3,424.1,213.4z"/>
		</g>
		<g>
			<path d="M405.8,215c-0.2,0.1-0.3,0.2-0.2,0.3C405.7,215.2,405.8,215.2,405.8,215z"/>
		</g>
		<g>
			<path d="M401.6,214c0,0.1,0.1,0.2,0.1,0.3c0,0,0.1,0,0.1,0.1C401.8,214.1,401.8,214,401.6,214z"/>
		</g>
		<g>
			<polygon points="401.7,214.3 401.7,214.3 401.7,214.3 			"/>
		</g>
		<g>
			<path d="M401.9,215.4c-0.1,0.1-0.1,0.2,0,0.4C402,215.7,402,215.5,401.9,215.4z"/>
		</g>
		<g>
			<path d="M424.8,219c0.1-0.1,0.1-0.2,0-0.4C424.7,218.7,424.7,218.8,424.8,219z"/>
		</g>
		<g>
			<path d="M421.5,215.6c0.2-0.1,0.2-0.2,0.1-0.3C421.5,215.3,421.5,215.4,421.5,215.6z"/>
		</g>
		<g>
			<path d="M423.1,212.3c0.2-0.1,0.2-0.2,0.1-0.3C423,212,423,212.1,423.1,212.3z"/>
		</g>
		<g>
			<path d="M401.6,215.1c0.1,0.2,0.2,0.2,0.4,0.1C401.9,215.1,401.8,215,401.6,215.1z"/>
		</g>
		<g>
			<path d="M407.4,211.1c0.1-0.2,0.1-0.3-0.1-0.4C407.2,210.9,407.2,211,407.4,211.1z"/>
		</g>
		<g>
			<path d="M421.9,215.7c0.1-0.2,0.1-0.3,0-0.4C421.8,215.5,421.8,215.5,421.9,215.7z"/>
		</g>
		<g>
			<path d="M424.1,213.3c0.1-0.2,0.1-0.3-0.1-0.4C423.9,213.1,424,213.2,424.1,213.3z"/>
		</g>
		<g>
			<path d="M405.9,214.9c0-0.2,0-0.3-0.2-0.3C405.6,214.7,405.7,214.8,405.9,214.9z"/>
		</g>
		<g>
			<path d="M418,206.8c0.2,0,0.2-0.1,0.2-0.3C418.1,206.6,418,206.7,418,206.8z"/>
		</g>
		<g>
			<path d="M422.8,212c0.2,0,0.3-0.1,0.2-0.3C422.8,211.8,422.8,211.9,422.8,212z"/>
		</g>
		<g>
			<path d="M422.4,214.7c0,0.2,0.1,0.3,0.3,0.2C422.6,214.8,422.5,214.7,422.4,214.7z"/>
		</g>
		<g>
			<path d="M424.5,216.3c-0.1,0.2-0.1,0.3,0.1,0.4C424.6,216.5,424.6,216.4,424.5,216.3z"/>
		</g>
		<g>
			<path d="M414.4,208.9c-0.1-0.1-0.2-0.2-0.4,0C414.1,209,414.2,209,414.4,208.9z"/>
		</g>
		<g>
			<path d="M424.1,216.4c0,0.2,0,0.3,0.2,0.3C424.4,216.5,424.3,216.4,424.1,216.4z"/>
		</g>
		<g>
			<path d="M424.8,216.7c0.1-0.1,0.2-0.2,0.1-0.4C424.7,216.5,424.7,216.6,424.8,216.7z"/>
		</g>
		<g>
			<path d="M407.7,211c0-0.2,0-0.3-0.2-0.3C407.5,210.9,407.5,210.9,407.7,211z"/>
		</g>
		<g>
			<path d="M413,206.9c-0.1,0.1-0.1,0.2,0,0.4C413.1,207.2,413.1,207,413,206.9z"/>
		</g>
		<g>
			<path d="M423.4,212c-0.1,0.1-0.1,0.2,0,0.4C423.5,212.2,423.5,212.1,423.4,212z"/>
		</g>
		<g>
			<path d="M425.8,218.1c0.1-0.1,0.1-0.2,0-0.4C425.7,217.9,425.7,218,425.8,218.1z"/>
		</g>
		<g>
			<path d="M406.9,207.2l0.1-0.1l-0.1-0.1l0,0v0.1c-0.1,0-0.1,0-0.2,0C406.7,207.3,406.8,207.3,406.9,207.2z"/>
		</g>
		<g>
			<path d="M409.5,206.6c0-0.2-0.1-0.2-0.3-0.2C409.2,206.5,409.3,206.6,409.5,206.6z"/>
		</g>
		<g>
			<path d="M408,210.7c-0.1-0.2-0.1-0.2-0.3-0.2C407.7,210.7,407.8,210.8,408,210.7z"/>
		</g>
		<g>
			<path d="M404.9,216.4c0.2-0.1,0.2-0.2,0.1-0.4C404.9,216.1,404.8,216.2,404.9,216.4z"/>
		</g>
		<g>
			<path d="M411.8,206.1c0-0.2-0.1-0.2-0.3-0.2C411.5,206.1,411.6,206.1,411.8,206.1z"/>
		</g>
		<g>
			<path d="M422.8,212.9c-0.1,0-0.2,0.1-0.2,0.2C422.7,213.2,422.8,213.1,422.8,212.9z"/>
		</g>
		<g>
			<path d="M409.7,206.2c-0.1,0.1-0.1,0.2-0.1,0.3C409.7,206.4,409.8,206.4,409.7,206.2z"/>
		</g>
		<g>
			<path d="M411.8,209c0.2,0.1,0.3,0,0.3-0.1C412,208.8,411.9,208.8,411.8,209z"/>
		</g>
		<g>
			<path d="M411.4,209C411.3,209,411.3,209,411.4,209C411.3,209,411.3,209.1,411.4,209c-0.1,0.1-0.2,0-0.3,0c0,0,0,0,0,0.1
				c0.1,0,0.1,0.1,0.2,0.1c0,0,0.1,0,0.2,0C411.4,209.1,411.4,209,411.4,209z"/>
		</g>
		<g>
			<path d="M405.9,210.3c0.2,0,0.2,0,0.3-0.2C406,210.1,405.9,210.2,405.9,210.3z"/>
		</g>
		<g>
			<path d="M420.3,208.2L420.3,208.2L420.3,208.2L420.3,208.2c-0.1,0-0.2-0.1-0.4,0c0.1,0,0.2,0.1,0.3,0.1
				C420.2,208.3,420.3,208.2,420.3,208.2z"/>
		</g>
		<g>
			<path d="M422.7,215.1c0,0.2,0.1,0.2,0.3,0.2C422.9,215.1,422.9,215,422.7,215.1z"/>
		</g>
		<g>
			<path d="M407.8,207.2c-0.1-0.2-0.2-0.2-0.3-0.1C407.6,207.2,407.6,207.2,407.8,207.2z"/>
		</g>
		<g>
			<path d="M412.2,210.8c-0.1-0.2-0.2-0.2-0.3-0.1C412,210.8,412.1,210.8,412.2,210.8z"/>
		</g>
		<g>
			<path d="M419.2,207.3c0.1-0.1,0-0.2-0.1-0.3C419,207.2,419,207.3,419.2,207.3z"/>
		</g>
		<g>
			<path d="M425.8,218.5c0.1-0.1,0.1-0.2,0-0.3C425.6,218.3,425.6,218.4,425.8,218.5z"/>
		</g>
		<g>
			<path d="M405.1,215.6c-0.1,0.1-0.1,0.2,0,0.3C405.2,215.8,405.2,215.7,405.1,215.6z"/>
		</g>
		<g>
			<path d="M423.9,211.3c0,0.2,0.1,0.2,0.2,0.2C424.1,211.3,424,211.3,423.9,211.3z"/>
		</g>
		<g>
			<path d="M417.7,211.1L417.7,211.1c0-0.2-0.1-0.2-0.3-0.1C417.5,211.1,417.6,211.1,417.7,211.1z"/>
		</g>
		<g>
			<path d="M422.5,213.3c0.1,0.1,0.2,0.2,0.3,0.1C422.7,213.2,422.7,213.2,422.5,213.3z"/>
		</g>
		<g>
			<path d="M408.9,206.6c0.1-0.1,0.1-0.2,0-0.3C408.8,206.4,408.8,206.5,408.9,206.6z"/>
		</g>
		<g>
			<path d="M418.2,210.1c-0.1,0.1-0.1,0.2,0,0.3C418.3,210.3,418.3,210.3,418.2,210.1z"/>
		</g>
		<g>
			<path d="M418.1,210.5c-0.1-0.1-0.2,0-0.3,0.1C417.9,210.6,418,210.6,418.1,210.5z"/>
		</g>
		<g>
			<path d="M411.3,210.6c0.1,0.1,0.2,0.1,0.3,0.1C411.5,210.6,411.4,210.5,411.3,210.6z"/>
		</g>
		<g>
			<path d="M405.3,209.2c0.1,0.1,0.2,0.1,0.3,0.1v-0.1C405.5,209.1,405.4,209.1,405.3,209.2z"/>
		</g>
		<g>
			<path d="M416.1,209.3c0-0.1,0-0.2-0.2-0.1C416,209.2,416,209.2,416.1,209.3c-0.1,0-0.2,0-0.2,0.1
				C416,209.4,416.1,209.4,416.1,209.3z"/>
		</g>
		<g>
			<path d="M406.2,210.1c-0.1-0.1-0.1-0.2-0.3-0.1C406,210.1,406,210.1,406.2,210.1z"/>
		</g>
		<g>
			<path d="M413.6,208.9c0.1-0.1,0-0.2-0.1-0.3C413.4,208.8,413.5,208.8,413.6,208.9z"/>
		</g>
		<g>
			<path d="M407.8,206.8c0,0.1,0,0.2,0.1,0.3C407.9,207,407.9,206.9,407.8,206.8z"/>
		</g>
		<g>
			<path d="M418.6,210.8c0.1,0.1,0.2,0.1,0.3,0C418.8,210.7,418.7,210.7,418.6,210.8z"/>
		</g>
		<g>
			<path d="M405.6,208.9c-0.1,0.1,0,0.2,0.1,0.3C405.7,209.1,405.7,209,405.6,208.9z"/>
		</g>
		<g>
			<path d="M412.3,210.7c0.1-0.1,0.1-0.2-0.1-0.3C412.2,210.6,412.2,210.6,412.3,210.7z"/>
		</g>
		<g>
			<path d="M405.8,215.3c0,0.1,0.1,0.2,0.2,0.1C405.9,215.3,405.9,215.3,405.8,215.3z"/>
		</g>
		<g>
			<path d="M410.6,205.7c-0.1,0-0.2,0-0.3,0l0,0C410.5,205.8,410.5,205.8,410.6,205.7z"/>
		</g>
		<g>
			<path d="M405.7,215.7c0.1,0,0.2,0,0.2-0.1C405.8,215.5,405.8,215.5,405.7,215.7z"/>
		</g>
		<g>
			<path d="M410.9,205.7C410.9,205.6,410.9,205.6,410.9,205.7c-0.1,0-0.2,0-0.2,0C410.8,205.8,410.9,205.7,410.9,205.7z"/>
		</g>
		<g>
			<path d="M414.4,208.8L414.4,208.8c0-0.1,0-0.2,0-0.2C414.3,208.7,414.3,208.8,414.4,208.8z"/>
		</g>
		<g>
			<path d="M412.1,208.8c0-0.1-0.1-0.2-0.2-0.1C411.9,208.7,412,208.8,412.1,208.8L412.1,208.8z"/>
		</g>
		<g>
			<path d="M411.9,205.8C411.9,205.8,411.8,205.8,411.9,205.8c-0.1,0.1-0.1,0.1-0.1,0.2c0,0,0,0,0.1,0
				C411.9,206,411.9,205.9,411.9,205.8z"/>
		</g>
		<g>
			<path d="M410.8,209.5C410.8,209.5,410.8,209.6,410.8,209.5c0.1,0.1,0.2,0.1,0.2,0.1v-0.1C411,209.5,410.9,209.5,410.8,209.5z"/>
		</g>
		<g>
			<path d="M413.3,207.2L413.3,207.2c-0.1-0.1-0.2,0-0.2,0.1C413.2,207.3,413.2,207.3,413.3,207.2z"/>
		</g>
		<g>
			<path d="M415.2,211.3c0.1,0,0.1,0,0.2,0c0,0,0,0,0-0.1C415.4,211.3,415.3,211.3,415.2,211.3L415.2,211.3z"/>
		</g>
		<g>
			<path d="M414.3,210.9c0-0.1,0-0.2-0.1-0.2C414.2,210.8,414.2,210.8,414.3,210.9L414.3,210.9z"/>
		</g>
		<g>
			<path d="M420.2,207.9c-0.1,0.1,0,0.2,0.1,0.2C420.3,208.1,420.3,208,420.2,207.9z"/>
		</g>
		<g>
			<path d="M417.7,210.7c0,0.1,0,0.2,0,0.3C417.8,210.9,417.8,210.9,417.7,210.7z"/>
		</g>
		<g>
			<polygon points="417.7,211 417.7,211 417.7,211 417.7,211 			"/>
		</g>
		<g>
			<path d="M408.5,207.2c-0.1,0-0.1,0.1-0.2,0.1l0,0C408.5,207.4,408.5,207.4,408.5,207.2z"/>
		</g>
		<g>
			<path d="M418.6,208.7C418.6,208.8,418.6,208.8,418.6,208.7c0.1,0,0.1,0,0.2-0.1c0,0,0,0,0-0.1
				C418.7,208.6,418.7,208.6,418.6,208.7c0.1-0.2,0.1-0.3,0-0.4c0,0.1,0,0.2-0.1,0.3C418.6,208.6,418.6,208.7,418.6,208.7
				L418.6,208.7z"/>
		</g>
		<g>
			<path d="M412.1,208.8C412.1,208.8,412.2,208.8,412.1,208.8c0.1-0.1,0.1-0.1,0.1-0.2c0,0,0,0-0.1,0
				C412.1,208.6,412.1,208.7,412.1,208.8z"/>
		</g>
		<g>
			<path d="M415.4,211.1C415.3,211,415.3,211,415.4,211.1c-0.1,0-0.1,0.1-0.2,0.1c0,0,0,0,0.1,0
				C415.3,211.2,415.3,211.1,415.4,211.1z"/>
		</g>
		<g>
			<path d="M418.5,208.6c-0.1,0-0.1,0-0.2-0.1c0,0,0,0,0,0.1C418.4,208.6,418.4,208.7,418.5,208.6
				C418.5,208.7,418.5,208.6,418.5,208.6z"/>
		</g>
		<g>
			<polygon points="418.5,208.6 418.5,208.6 418.5,208.6 418.5,208.6 			"/>
		</g>
		<g>
			<path d="M420.5,208.1C420.5,208.1,420.5,208,420.5,208.1c-0.1,0-0.1,0.1-0.2,0.1c0,0,0,0,0.1,0.1
				C420.4,208.2,420.5,208.1,420.5,208.1z"/>
		</g>
		<g>
			<path d="M417.8,211C417.8,211,417.8,211.1,417.8,211c0.1,0,0.1,0,0.2-0.1c0,0,0,0,0-0.1C417.9,210.9,417.8,211,417.8,211z"/>
		</g>
		<g>
			<path d="M426.4,213.4c0-0.1-0.1-0.2-0.1-0.2c-0.4-0.9-0.9-1.8-1.5-2.7c0,0,0-0.1-0.1-0.1c-0.2-0.2-0.3-0.5-0.5-0.7l-0.1-0.1
				c0,0,0,0-0.1-0.1l-0.1-0.1c-0.2-0.2-0.4-0.4-0.6-0.6l0,0c-0.2-0.2-0.4-0.4-0.6-0.5l0,0c-0.2-0.1-0.3-0.3-0.5-0.4l0,0
				c-0.3-0.3-0.7-0.5-1-0.8c0,0-0.1,0-0.1-0.1l0,0c-0.1,0-0.1-0.1-0.2-0.1c-0.2-0.1-0.4-0.3-0.6-0.4c-0.1-0.1-0.2-0.1-0.3-0.2
				c-0.2-0.1-0.5-0.3-0.7-0.4h-0.1c-0.6-0.3-1.2-0.5-1.9-0.7h-0.1c-0.2,0-0.3-0.1-0.5-0.1h-0.1h-0.1c0,0-0.1,0-0.2,0
				c-0.5-0.1-1-0.2-1.5-0.3c-0.1,0-0.1,0-0.2,0c-0.5-0.1-1-0.1-1.4-0.1c-0.1,0-0.1,0-0.2,0l0,0c-0.1,0-0.3,0-0.4,0h-0.1
				c-0.5,0-0.9,0.1-1.4,0.1H411c-0.2,0-0.5,0.1-0.7,0.1c-0.1,0-0.1,0-0.2,0c-1.7,0.3-3.2,1-4.6,1.8h-0.1c-0.1,0-0.1,0.1-0.2,0.1l0,0
				c-0.1,0.1-0.2,0.1-0.3,0.2c-0.1,0-0.1,0.1-0.2,0.1c-0.1,0.1-0.3,0.2-0.4,0.3c0,0,0,0-0.1,0.1s-0.2,0.1-0.2,0.2l0,0
				c-0.3,0.2-0.6,0.5-0.8,0.7c0,0,0,0-0.1,0.1l-0.1,0.1c-0.1,0.1-0.2,0.2-0.3,0.3c-0.1,0.1-0.2,0.2-0.3,0.3l0,0c0,0-0.1,0.1-0.1,0.2
				c-0.1,0.1-0.1,0.1-0.2,0.2c-0.4,0.5-0.8,1-1.2,1.6c0,0.1-0.1,0.1-0.1,0.2l0,0l-0.1,0.1c-0.1,0.2-0.2,0.4-0.4,0.6l0,0
				c0,0.1-0.1,0.1-0.1,0.2c0,0.1-0.1,0.2-0.1,0.3c-0.1,0.3-0.3,0.6-0.4,0.9l0,0l0,0c0,0.1-0.1,0.2-0.1,0.3c0,0,0,0-0.1,0.1l0,0
				c-0.6,1.6-0.9,3.3-0.9,5.1c0,2.8,0.8,5.4,2.2,7.6c0,0,0,0.1,0.1,0.1c0.1,0.1,0.1,0.2,0.2,0.3l0.1,0.1l0,0c0,0,0,0.1,0.1,0.1
				c0.2,0.3,0.4,0.5,0.6,0.7c0,0,0,0.1,0.1,0.1c0.2,0.3,0.5,0.6,0.8,0.9l0.1,0.1c0.1,0.1,0.1,0.1,0.2,0.2l0.1,0.1
				c0.1,0.1,0.2,0.2,0.3,0.3c0,0,0.1,0,0.1,0.1c0.6,0.6,1.3,1.1,2.1,1.6l0,0c0,0,0.1,0,0.1,0.1c0,0,0.1,0,0.1,0.1
				c0.2,0.1,0.5,0.3,0.7,0.4c0.1,0.1,0.3,0.1,0.4,0.2c0.4,0.2,0.9,0.4,1.3,0.6h0.1c0.1,0.1,0.3,0.1,0.4,0.1h0.1
				c0.4,0.1,0.8,0.2,1.2,0.3l0,0c0.2,0,0.4,0.1,0.6,0.1c0,0,0,0,0.1,0c0.5,0.1,1.1,0.2,1.6,0.2l0,0c0.2,0,0.5,0,0.7,0s0.3,0,0.5,0
				l0,0l0,0c0.1,0,0.3,0,0.4,0h0.1c0.1,0,0.2,0,0.4,0c0.1,0,0.1,0,0.2,0l0,0c0.1,0,0.1,0,0.2,0c0.5-0.1,1-0.2,1.5-0.3l0,0
				c0.5-0.1,0.9-0.2,1.4-0.4l0,0h0.1c0,0,0,0,0.1,0c0.5-0.2,1-0.4,1.4-0.6h0.1c0.3-0.1,0.6-0.3,0.8-0.5c0,0,0.1,0,0.1-0.1
				c0.9-0.6,1.8-1.3,2.6-2l0.1-0.1c0.1-0.1,0.2-0.2,0.2-0.3l0,0c0,0,0,0,0-0.1l0,0c0.1-0.1,0.2-0.3,0.3-0.4l0.1-0.1c0,0,0,0,0.1-0.1
				l0.1-0.1c0.1-0.2,0.3-0.3,0.4-0.5c0-0.1,0.1-0.1,0.1-0.2c1.7-2.4,2.8-5.3,2.8-8.4C427.4,216.9,427.1,215.1,426.4,213.4z
				 M425.5,213.8c-0.5,0.1-0.9,0.2-1.5,0.3c0.2-0.2,0.3-0.3,0.5-0.5c0,0-0.1,0-0.1,0.1c-0.4,0.3-0.6,0.6-0.7,1.1
				c-0.1,0.3-0.2,0.5-0.5,0.6c-0.1,0.1-0.2,0.2-0.4,0.2l-0.1,0.1c-0.2,0.1-0.5,0.2-0.7,0.3c-0.4,0.2-0.9,0.5-1.3,0.7
				c-0.3,0.2-0.5,0.1-0.7-0.1c-0.2-0.1-0.3-0.2-0.5-0.3c-0.3-0.1-0.6-0.2-1-0.4l0,0c0.3-0.5,0.7-0.8,1.3-0.7c0.2,0,0.4,0,0.6,0
				s0.3,0,0.5,0c0.3,0,0.6,0.1,1,0.1c0.2,0,0.4,0,0.5,0c-0.2,0-0.5,0-0.7-0.1c-0.2,0-0.5-0.1-0.8-0.1c0.1,0,0.1,0,0.1-0.1
				c0.3-0.2,0.7-0.4,1-0.6c0.2-0.1,0.3-0.3,0.5-0.4c0.4-0.3,0.9-0.4,1.4-0.5c-0.2,0-0.4,0-0.6,0.1c-0.5,0.1-0.9,0.4-1.3,0.6
				c-0.1,0.1-0.2,0.1-0.3,0.2c0.1-0.4,0.3-0.6,0.5-0.9c-0.3,0.2-0.6,0.5-0.6,0.9l-0.1,0.1c-0.1,0.1-0.3,0.1-0.5,0.2
				c-0.4,0.2-0.8,0.2-1.2,0.2c-0.1,0-0.2,0-0.3,0c-0.4,0-0.7,0.1-1,0.4c-0.1,0.2-0.3,0.3-0.4,0.5c-0.1,0.1-0.1,0.1-0.2,0.1
				c-0.6-0.1-1.2-0.1-1.8,0.1c-0.4,0.1-0.7,0.3-1,0.5c0.2-0.2,0.4-0.4,0.6-0.5c0.4-0.2,0.9-0.4,1.3-0.7c0.3-0.2,0.6-0.4,0.9-0.6
				c0.2-0.2,0.4-0.4,0.6-0.7c0.2-0.2,0.4-0.3,0.7-0.3c0.1,0,0.3,0,0.4,0c0.2,0,0.4,0,0.7,0c0.4,0,0.6-0.2,0.7-0.6
				c0.1-0.4,0.1-0.8,0.1-1.1s0-0.6,0.1-0.9c0-0.1,0.1-0.2,0.2-0.3c0.2-0.1,0.4-0.1,0.6-0.1c0.1,0,0.2,0.1,0.2,0.1
				c0.1,0.2,0.2,0.4,0.4,0.5c0.2,0.2,0.5,0.4,0.7,0.5c-0.4-0.3-0.8-0.6-1-1.1c0.2,0.1,0.4,0.2,0.6,0.3s0.4,0.1,0.7,0.2l0,0h-0.1
				c-0.3-0.1-0.7-0.2-0.9-0.5c-0.2-0.2-0.4-0.2-0.7-0.3c-0.2,0-0.4,0-0.5,0c0.1-0.2,0.3-0.3,0.5-0.4c0.1-0.1,0.2-0.1,0.3,0
				c0.4,0.2,0.7,0.2,1.1,0.1c0.3,0.3,0.5,0.7,0.8,1l-0.1,0.1c0.1,0.1,0.2,0.1,0.2,0C424.6,212,425.1,212.9,425.5,213.8z
				 M416.8,212.9c0-0.2-0.1-0.4-0.2-0.6c-0.1-0.3-0.2-0.5-0.1-0.8c0-0.3,0.2-0.5,0.4-0.8c0.2-0.2,0.3-0.3,0.4-0.6s0.3-0.5,0.5-0.6
				s0.4-0.3,0.5-0.4c-0.2,0.2-0.5,0.3-0.8,0.5l0,0l0.1-0.1c0.2-0.2,0.3-0.5,0.1-0.7c-0.1-0.2-0.1-0.5,0-0.7s0.2-0.4,0.4-0.6
				c0,0,0,0,0-0.1l0,0c-0.1,0.2-0.2,0.3-0.4,0.5c0-0.1-0.1-0.3-0.1-0.4c0-0.1,0.1-0.2,0.1-0.4c-0.1,0.1-0.2,0.2-0.2,0.4
				c0,0.1,0,0.3,0,0.4v0.1c-0.2,0.3-0.2,0.6-0.1,0.9c0.1,0.2,0,0.3-0.2,0.5c-0.1-0.4-0.4-0.6-0.7-0.8c-0.2-0.2-0.5-0.3-0.7-0.5
				c-0.3-0.2-0.5-0.4-0.7-0.7c-0.1-0.2-0.1-0.5,0-0.7c0.1,0,0.2,0,0.2,0.1c0.6,0.2,1.2,0.2,1.7-0.2c0.1-0.1,0.3-0.2,0.5-0.2
				c0.1,0,0.1,0,0.2,0c1.1,0.4,2.2,1,3.1,1.7c0,0.1,0,0.1,0,0.2c-0.1,0.7-0.3,1.5-0.5,2.2l0,0c-0.2-0.3-0.6-0.4-0.8-0.7
				c0.4-0.2,0.8-0.8,0.7-1.1c-0.1,0.4-0.3,0.7-0.6,0.9c0,0-0.1,0-0.1,0.1c0-0.1-0.1-0.1-0.1-0.2c0-0.2,0-0.4,0.1-0.5
				c0.1-0.3,0.1-0.6,0.2-0.9c0-0.2-0.1-0.4-0.3-0.5c0.1,0.1,0.2,0.3,0.2,0.5c-0.1,0.4-0.2,0.8-0.3,1.2c-0.4-0.3-0.5-0.7-0.6-1
				c0,0.1,0,0.2,0.1,0.3c0.1,0.3,0.2,0.7,0.5,0.9v0.1c0,0.2,0,0.4,0.2,0.6c0.1,0.2,0.3,0.3,0.5,0.5c0.2,0.1,0.3,0.3,0.3,0.5
				c0.2,0.6,0.2,1.2,0,1.9c-0.1,0.2-0.2,0.3-0.4,0.3c-0.2,0-0.3-0.1-0.5-0.1c-0.3,0-0.6,0-0.9,0c0,0,0.1-0.1,0.1-0.2
				c0.2-0.2,0.3-0.3,0.5-0.5s0.3-0.4,0.4-0.7c0-0.2,0-0.4-0.2-0.6c0.1,0.2,0.1,0.3,0.1,0.5c0,0.3-0.4,0.8-0.7,0.9
				c0.1-0.9,0-1.5-0.4-1.8c0.3,0.6,0.4,1.3,0.2,1.7c-0.1-0.1-0.1-0.2-0.2-0.3c-0.2-0.2-0.4-0.4-0.5-0.7c0,0.1,0,0.2,0.1,0.3
				c0.1,0.2,0.2,0.3,0.4,0.5c0.1,0.2,0.2,0.4,0.1,0.6c-0.1,0.2-0.2,0.3-0.3,0.4c-0.2,0.2-0.4,0.4-0.7,0.6c-0.3,0.3-0.6,0.5-0.9,0.6
				c-0.5,0.2-1,0.4-1.6,0.6c0.1-0.2,0.2-0.5,0.3-0.7c0.1-0.2,0.3-0.3,0.5-0.3c0.1,0,0.2,0,0.3-0.1
				C416.6,213.9,416.9,213.5,416.8,212.9z M417.8,206.3L417.8,206.3c-0.3,0.1-0.5,0.2-0.7,0.3c-0.1,0-0.2,0.1-0.3,0.1
				c0.1-0.3,0.2-0.5,0.4-0.6C417.4,206.1,417.6,206.2,417.8,206.3z M422.4,209.3c0.2,0.2,0.4,0.4,0.6,0.6c-0.3,0-0.5,0-0.8-0.1
				C422.3,209.6,422.4,209.4,422.4,209.3L422.4,209.3z M422.3,209.2c0,0.2-0.1,0.3-0.3,0.4c-0.1,0.1-0.2,0.1-0.3,0.2
				c-0.3,0.2-0.6,0.3-0.8,0.6c0,0,0,0,0-0.1v-0.1c0.2-0.7,0.3-1.3,0.3-2C421.6,208.5,422,208.8,422.3,209.2z M416.6,206.6
				c0,0.1-0.1,0.1-0.2,0.1c-0.4,0-0.8-0.1-1.1-0.3c0.1-0.3,0.3-0.5,0.5-0.7c0.4,0.1,0.9,0.2,1.3,0.3
				C416.9,206.2,416.7,206.4,416.6,206.6z M415.7,205.7c-0.2,0.2-0.4,0.4-0.5,0.7c-0.3,0.6-0.2,1.2,0.2,1.7l0.1,0.1
				c-0.4,0-0.7-0.1-1-0.3c-0.4-0.3-0.5-0.6-0.5-1.1c0-0.4,0.1-0.9,0.3-1.3C414.8,205.5,415.2,205.6,415.7,205.7z M414.2,205.5
				c-0.2,0.3-0.2,0.7-0.3,1c-0.3-0.3-0.3-0.7-0.2-1c-0.2,0.3-0.2,0.7,0,1l0.1,0.1c0,0.1,0,0.2,0,0.2c-0.1,0-0.1,0-0.1,0h-0.1
				c-0.3-0.1-0.5-0.3-0.6-0.7c-0.1-0.2-0.1-0.5-0.2-0.7c0.1,0,0.1,0,0.2,0C413.4,205.4,413.8,205.4,414.2,205.5z M410.7,205.6
				L410.7,205.6L410.7,205.6c0.6-0.1,1.3-0.2,2-0.2c0.1,0.4,0.1,0.7,0.3,1c0.2,0.4,0.5,0.6,0.9,0.7l0.1,0.1c0.2,0.5,0.5,0.9,1,1.1
				c0.3,0.1,0.6,0.1,0.9,0.2c0.1,0,0.2,0,0.2,0.1c0.2,0.1,0.4,0.3,0.5,0.4c0.1,0.1,0.2,0.2,0.3,0.4c0.1,0.1,0.1,0.2,0.1,0.3l0,0
				c-0.1-0.1-0.1-0.1-0.2-0.2c0.2,0.3,0.2,0.5,0,0.8c-0.1,0.1-0.3,0.2-0.4,0.4c-0.2-0.3-0.4-0.5-0.8-0.6c-0.3-0.1-0.5-0.2-0.6-0.5
				c0-0.1-0.1-0.2-0.2-0.3l0,0c0.1,0.2,0.2,0.5,0.3,0.7c-0.6,0-0.8-0.4-1.2-0.7c0.1,0.2,0.3,0.3,0.4,0.5c-0.5,0.1-0.7-0.3-1-0.7
				c0.1,0,0.1,0,0.1,0c-0.1-0.2-0.1-0.2-0.3-0.1c0.1,0.2,0.3,0.4,0.4,0.6c0.1,0.2,0.4,0.3,0.6,0.4c0.1,0,0.3,0,0.4,0.1
				c0.2,0.1,0.5,0.2,0.7,0.2c0.1,0,0.3,0.1,0.4,0.1c0.1,0.1,0.3,0.2,0.4,0.3c0,0.1,0.1,0.2,0,0.3c-0.3,0.4-0.3,0.8-0.2,1.2
				c0,0.3,0.1,0.5,0.2,0.8s0,0.4-0.3,0.4h-0.1c-0.4,0-0.7,0.2-0.9,0.4c-0.1,0.1-0.2,0.3-0.3,0.4c-0.2,0.4-0.4,0.9-0.5,1.3
				c-0.1,0.2-0.2,0.5-0.2,0.7v-0.1c0.1-0.3,0.2-0.6,0.3-0.9c0.2-0.7,0.1-1.3-0.5-1.8c-0.2-0.2-0.3-0.4-0.4-0.5s-0.1-0.3,0-0.5
				s0.2-0.3,0.4-0.3c0.2,0,0.3-0.1,0.5-0.1c0.1,0,0.1,0,0.2,0s0.2,0,0.3-0.1c0.1-0.2,0.2-0.4,0.4-0.5c-0.1,0-0.1,0-0.1,0.1
				c-0.1,0.1-0.2,0.3-0.3,0.4c-0.1,0.1-0.1,0.1-0.2,0.1c0.1-0.2,0.1-0.4,0.2-0.6l0,0c-0.1,0.2-0.1,0.4-0.3,0.5c0-0.1,0-0.3-0.1-0.4
				c0,0.1,0,0.2,0,0.3s0,0.2-0.1,0.2s-0.3,0-0.4,0c-0.2,0-0.3,0.1-0.4,0.2c0,0,0,0,0,0.1c0-0.2,0.1-0.3,0.2-0.5
				c0.1-0.1,0.2-0.3,0.3-0.4c0.1-0.2,0.1-0.4,0-0.5s-0.2-0.2-0.3-0.3c-0.2-0.1-0.4-0.3-0.6-0.4l-0.1-0.1c0-0.2,0-0.4,0-0.5
				s0-0.2,0-0.3c0,0.3,0,0.5,0,0.8l0,0c-0.2-0.2-0.3-0.4-0.5-0.6l0,0c0.1,0.2,0.3,0.4,0.4,0.6c-0.3,0.1-0.5-0.1-0.6-0.5l0,0
				c0,0.1,0.1,0.2,0.1,0.3c-0.1,0-0.1-0.1-0.2-0.1c0.2,0.2,0.4,0.2,0.7,0.3c0.1,0,0.2,0,0.2,0.1c0.3,0.2,0.5,0.4,0.8,0.6
				c0.2,0.2,0.2,0.3,0,0.5c-0.1,0.1-0.3,0.3-0.4,0.4c-0.2,0.2-0.3,0.5-0.2,0.8c0,0.1,0,0.1,0,0.2c-0.4-0.2-0.5-0.7-0.4-1.1
				c0.1-0.1,0.1-0.2,0.2-0.4c0.1-0.1,0-0.3,0-0.4c0,0.1,0,0.2,0,0.4c-0.1-0.3-0.4-0.5-0.6-0.6c0.2,0.2,0.5,0.4,0.4,0.8
				c-0.2-0.2-0.3-0.3-0.5-0.5l0,0c0.1,0.1,0.1,0.1,0.2,0.2c0.2,0.2,0.3,0.3,0.2,0.5c0,0.1-0.1,0.2-0.1,0.3c0,0.4,0.2,0.6,0.5,0.9
				c0.1,0.1,0.2,0.1,0.2,0.2c0.2,0.2,0.3,0.4,0.5,0.6c0.2,0.2,0.3,0.5,0.2,0.8c0,0.2-0.1,0.4-0.2,0.6c-0.1,0.4-0.3,0.8-0.3,1.2
				c0,0,0,0,0,0.1c-0.1-0.3-0.2-0.7-0.3-1c-0.2-0.7-0.4-1.4-0.6-2c-0.2-0.5-0.5-0.8-1-1c-0.1-0.1-0.3-0.1-0.4-0.2
				c-0.3-0.1-0.5-0.4-0.7-0.7c-0.2-0.4-0.2-0.9-0.1-1.4c0.1-0.4,0.2-0.9,0.3-1.3c0.1-0.3,0.2-0.6,0.5-0.8c0.1-0.1,0.3-0.2,0.5-0.2
				c0.4,0,0.7,0.1,0.9,0.4c0.1,0.1,0.2,0.2,0.3,0.3l0,0c-0.2-0.2-0.3-0.3-0.5-0.5c0.1,0,0.3,0,0.4,0.1c0.2,0,0.3,0,0.4-0.2
				c0.1-0.1,0.1-0.3,0.1-0.4l0,0c0,0.1,0,0.2-0.1,0.2c-0.1,0.3-0.3,0.4-0.6,0.2c0-0.1,0.1-0.1,0.1-0.2c-0.1,0-0.2,0.1-0.3,0.1
				c-0.3,0-0.5-0.1-0.8-0.2c0.4-0.4,0.5-0.9,0.5-1.4c0,0.3-0.1,0.6-0.3,0.9c-0.1-0.1-0.2-0.2-0.2-0.4c0,0.1,0,0.2,0.1,0.3
				s0.1,0.3,0,0.4c-0.1,0.1-0.2,0.1-0.3,0.2c-0.3,0.1-0.5,0.2-0.8,0.5c0.1-0.7,0.3-1.4,0.3-2.1c-0.1,0.3-0.1,0.7-0.2,1
				c-0.1,0.4-0.2,0.7-0.3,1.1c0-0.1-0.1-0.2-0.1-0.3c-0.1-0.1-0.1-0.2,0-0.3c0.1-0.2,0-0.6-0.1-0.8c0.1,0.4,0.1,0.6,0,0.7
				c-0.2-0.3-0.5-0.5-0.7-0.8c0.1,0,0.3-0.1,0.3-0.2c-0.2-0.1-0.4,0-0.5,0.2c0.6,0.3,1.1,1.5,1,2c-0.2-0.2-0.4-0.4-0.7-0.4
				c-0.4,0-0.7-0.2-0.9-0.6c-0.1-0.1-0.1-0.2-0.2-0.3l-0.1-0.1l0,0c0.1,0.2,0.2,0.4,0.3,0.6c-0.2,0-0.4-0.1-0.5-0.2
				c-0.1-0.1-0.3-0.3-0.4-0.4c-0.1-0.1-0.1-0.1-0.2-0.2c0.1,0.2,0.2,0.3,0.3,0.5c0.2,0.2,0.4,0.4,0.7,0.4c0,0,0.1,0,0.1,0.1
				c0.1,0.2,0.3,0.3,0.5,0.3c0.1,0,0.2,0,0.4,0.1c0.4,0.1,0.6,0.4,0.5,0.8c-0.1,0.3-0.2,0.7-0.3,1c-0.3-0.4-0.6-0.7-1-0.9
				s-0.9-0.4-1.3-0.6c-0.5-0.2-0.8-0.6-1-1.1c0-0.2-0.1-0.3-0.1-0.5v-0.1C407.5,206.5,409.1,205.9,410.7,205.6z M413.8,231.1
				c-0.1,0-0.1,0.1-0.1,0.2c0,0.1-0.1,0.3-0.1,0.4c0,0.1-0.1,0.2-0.1,0.4c0,0,0,0.1-0.1,0.1s-0.2,0-0.3,0c-0.1-0.3-0.1-0.6-0.2-0.8
				c-0.2-0.9-0.3-1.7,0.2-2.5c0-0.1,0.1-0.2,0.1-0.3c0.1,0.3,0.2,0.6,0.2,0.8c0,0.1,0,0.2,0,0.2c-0.2,0.2-0.3,0.4-0.3,0.7
				c0,0.5,0,0.9,0,1.4l0,0c0-0.3,0-0.5,0-0.8c0-0.4,0.1-0.6,0.1-0.8c0,0.1,0.1,0.2,0.1,0.3s0.1,0.2,0.1,0.3c-0.2-0.7-0.2-0.9,0-1
				c0,0.1,0,0.2,0,0.3c0-0.3,0.1-0.6,0.4-0.7v0.1c0,0.4,0,0.8,0,1.2C413.9,230.8,413.9,231,413.8,231.1z M411.5,227.5
				c-0.1,0.1-0.2,0.2-0.4,0.4c0-0.7,0.3-1.4,0.6-2c0.2,0.3,0.3,0.6,0.2,0.9C411.9,227.1,411.7,227.3,411.5,227.5z M411.6,228.3
				c-0.1,0.3-0.3,0.6-0.4,0.8C411.1,228.8,411.2,228.5,411.6,228.3z M411.9,228.5c0-0.1,0.1-0.1,0.1-0.2c0.3-0.5,0.6-0.9,0.8-1.5
				c0-0.1,0.1-0.2,0.1-0.2c-0.2,1.1-0.6,2.2-1.2,3.2C411.8,229.4,411.8,229,411.9,228.5z M413.9,229c-0.1,0.2-0.3,0.3-0.4,0.5l0,0
				c-0.1-0.3-0.1-0.7-0.2-1c0-0.1,0-0.1,0-0.2c0.2-0.3,0.5-0.6,0.8-0.9c0,0.3-0.1,0.6-0.1,0.9c0,0.2,0,0.3-0.1,0.5
				C413.9,228.9,413.9,229,413.9,229z M404,209h0.1c0.5,0.1,0.8,0.4,0.9,0.9s0.3,1,0.6,1.5l0,0c-0.3-0.2-0.7-0.5-1-0.7
				c0,0,0-0.1-0.1-0.1c-0.1-0.1-0.1-0.3-0.2-0.4c-0.3-0.3-0.6-0.5-1-0.6C403.6,209.4,403.8,209.2,404,209z M405.6,210.6
				c-0.2-0.3-0.3-0.7-0.4-1c-0.2-0.3-0.4-0.6-0.8-0.6c-0.1,0-0.1,0-0.2-0.1c0.2-0.2,0.5-0.4,0.7-0.6c0.1,0,0.1,0,0.2,0.1
				c0.3,0.1,0.5,0,0.8-0.1c0.2,0,0.3,0,0.4,0.2c0.2,0.4,0.5,0.7,0.9,0.9s0.8,0.4,1.2,0.6c0,0,0.1,0,0.1,0.1
				c-0.5,0.1-0.9,0.2-1.3,0.1c-0.4-0.1-0.8-0.3-1.2-0.5c0.4,0.4,0.9,0.7,1.5,0.7c-0.1,0.1-0.1,0.1-0.2,0.2c-0.2,0.1-0.5-0.1-0.7-0.1
				c0.1,0.1,0.2,0.1,0.3,0.1c0.3,0.1,0.5,0.1,0.7-0.1l0.1-0.1c0.3,0,0.6-0.1,0.8-0.1c0.1,0,0.2,0.1,0.3,0.1c0.3,0.3,0.5,0.6,0.5,1
				c0.1,0.7,0.4,1.3,1.1,1.6c0.2,0.1,0.3,0.2,0.5,0.3c0.1,0.1,0.2,0.2,0.3,0.3l0,0c-0.3-0.2-0.7-0.3-1.1-0.4
				c-0.3-0.1-0.6-0.2-0.8-0.5c-0.2-0.2-0.4-0.4-0.6-0.6c-0.3-0.3-0.7-0.5-1.1-0.5c-0.3,0-0.5,0-0.8,0s-0.6,0-0.7-0.3
				C405.9,211.1,405.7,210.8,405.6,210.6z M405.4,207.8c0.1,0,0.2,0.1,0.3,0.1c0.1,0,0.2,0.1,0.3,0.1c-0.4,0.1-0.8,0.3-1.1,0.2
				C405.1,208.1,405.2,207.9,405.4,207.8z M406.1,207.4c0,0.1,0.1,0.3,0.1,0.5c-0.2,0-0.4-0.1-0.5-0.1l0,0
				C405.8,207.6,405.9,207.5,406.1,207.4z M401.9,211.5l0.1,0.1c0.1-0.1,0.1-0.3,0.1-0.4c0.1-0.1,0.2-0.3,0.3-0.4c0,0.1,0,0.1,0,0.2
				c0.2-0.1,0.2-0.2,0.1-0.3l0,0c0.3-0.4,0.6-0.7,0.9-1c0.3,0.1,0.6,0.3,0.8,0.5c0.1,0.1,0.2,0.2,0.2,0.4c-0.5-0.2-0.9-0.4-1.4-0.4
				c0.5,0.1,0.9,0.2,1.3,0.5c-0.5,0.1-1,0-1.5-0.1c0.2,0,0.3,0.1,0.5,0.1c0.3,0,0.6,0.1,0.9,0.1c0.2,0,0.4,0,0.5,0.2
				c0.3,0.3,0.7,0.6,1.1,0.8c0.2,0.1,0.3,0.2,0.5,0.2c0.3,0.1,0.7,0.1,1,0.1c0.4,0,0.8,0.1,1,0.5l0.1,0.1c0.4,0.6,1,1.1,1.7,1.3h0.1
				c0.5,0.1,0.8,0.4,0.9,0.9s0.3,1,0.2,1.5v0.1c0-0.1,0-0.1-0.1-0.1c-0.2-0.4-0.4-0.9-0.6-1.3c-0.2-0.4-0.5-0.7-0.9-0.7
				c-0.2,0-0.4,0-0.6,0s-0.4,0-0.6,0c-0.4,0-0.8-0.3-1.1-0.6c-0.4-0.3-0.7-0.6-1.2-0.7c-0.5-0.2-1-0.1-1.5-0.1
				c-0.6,0.1-1.3,0-1.8-0.3c0,0-0.1,0-0.1-0.1c-0.2-0.3-0.5-0.5-0.7-0.6c-0.1-0.1-0.3-0.1-0.4-0.2
				C401.8,211.6,401.8,211.5,401.9,211.5z M401.2,212.6c0.1,0,0.2,0.1,0.3,0.1c0.4,0.1,0.8,0.1,1.1,0c0.2-0.1,0.3,0,0.4,0
				c0.2,0.2,0.5,0.3,0.8,0.3c-0.3,0.1-0.6,0.2-0.9,0.3s-0.6,0.2-0.9,0.3s-0.6,0.1-0.9,0.1c-0.2,0-0.3,0-0.5,0
				C400.8,213.3,401,213,401.2,212.6z M401.7,211.7c0.1,0,0.2,0.1,0.2,0.1c0.4,0.2,0.6,0.3,0.6,0.5c-0.4-0.1-0.7-0.2-1.1-0.2
				C401.6,211.9,401.6,211.8,401.7,211.7z M402.6,212.5c-0.5,0.2-1,0.2-1.4,0.1c0.1-0.1,0.2-0.3,0.2-0.4
				C401.8,212.3,402.2,212.3,402.6,212.5z M399.7,218.8c0-1.8,0.4-3.5,1-5c0.6,0.1,1.2,0.1,1.9-0.1c0.5-0.1,0.9-0.2,1.4-0.4
				c0.1,0,0.2,0,0.4-0.1c-0.2,0.5-0.4,0.9-0.8,1.1c-0.4,0.2-0.9,0.2-1.4,0.1c0.5,0.2,1.1,0.2,1.6-0.1c0.1,0.5-0.1,0.7-0.5,0.9
				c-0.1,0-0.3,0.1-0.4,0.1s-0.3,0-0.4,0c0.2,0,0.4,0,0.6,0c0.6-0.1,0.8-0.3,0.9-0.9v-0.1c0,0,0-0.1,0.1-0.1
				c0.1-0.2,0.3-0.3,0.4-0.5c0.1-0.1,0.1-0.2,0.2-0.3c0.1-0.2,0.2-0.3,0.4-0.2c0.2,0,0.3,0,0.5,0c0.6,0,1.1,0.2,1.5,0.6
				c0.1,0.1,0.2,0.2,0.4,0.3c0.4,0.4,0.8,0.7,1.4,0.8c0.3,0,0.6,0.1,0.8,0.1c0.2,0,0.4,0,0.5,0.2c0.2,0.2,0.3,0.5,0.4,0.7
				c-0.4-0.1-0.7,0-1,0.1s-0.6,0.1-0.9,0.2c-0.2,0-0.3,0-0.4-0.1c-0.2-0.2-0.3-0.3-0.5-0.5s-0.4-0.4-0.7-0.4c-0.2,0-0.4,0-0.7,0
				c0.2,0.1,0.5,0.1,0.7,0.1c0.2,0.1,0.4,0.2,0.6,0.4c-0.4,0.1-0.7,0.1-1.1,0.1c0.2,0,0.4,0.1,0.6,0.1c0.1,0,0.3,0,0.4,0
				s0.2,0,0.2,0c0.1,0.1,0.2,0.3,0.3,0.4c-0.8,0.1-1.6,0.1-2.4-0.1h0.1c0.5,0.1,1,0.2,1.6,0.2c0.8,0,1.5,0,2.3-0.2
				c0.2-0.1,0.4-0.1,0.7,0c0.1,0,0.2,0.1,0.2,0.2c0,0.4,0.1,0.7,0.4,0.9c0.2,0.2,0.4,0.4,0.7,0.6c0.3,0.2,0.4,0.5,0.4,0.8
				c0,0.2,0,0.4,0,0.5c0,0.8-0.1,1.6-0.1,2.4c0,0.4-0.1,0.7-0.4,1c-0.2,0.3-0.4,0.6-0.5,0.9c-0.1,0.2-0.2,0.4-0.4,0.6
				c-0.4,0.4-0.9,0.5-1.4,0.6c-0.7,0.2-1.5,0.4-2.2,0.6c-0.5,0.1-0.9,0.3-1.4,0.4c-0.6,0.1-1.2,0.2-1.8,0.3
				c-0.6,0.1-1.1,0.2-1.7,0.3C400.5,224.1,399.7,221.5,399.7,218.8z M406.8,230.6c-0.1,0-0.1-0.1-0.2-0.1c0.1,0,0.2-0.1,0.2-0.1l0,0
				C406.8,230.5,406.8,230.6,406.8,230.6z M406.4,230.4c-0.1,0-0.1-0.1-0.2-0.1c0-0.2,0-0.4,0-0.6c0-0.1,0-0.3,0.1-0.4
				c0.2-0.2,0.4-0.3,0.6-0.2s0.4,0.1,0.6,0.1c0,0.1-0.1,0.2-0.1,0.3l0,0c0-0.1,0.1-0.1,0.1-0.2c0-0.1,0.1-0.1,0.1-0.1
				c0.1,0,0.2,0,0.3,0.1c-0.1,0-0.2,0.1-0.3,0.1l0,0c0.1,0,0.1,0,0.2,0c0.2-0.1,0.4-0.1,0.6-0.1c0.3,0,0.6,0,0.9,0h0.1l0,0
				c-0.1,0-0.1,0.1-0.2,0.1c-0.4,0.2-0.9,0.3-1.3,0.4C407.5,230,406.9,230.1,406.4,230.4z M408.6,228.5c-0.2,0.1-0.5,0.3-0.7,0.4
				h-0.1c-0.3,0-0.7,0-1-0.1l0,0c0.8-0.4,1.5-0.7,2.3-1.1C409,228,408.9,228.3,408.6,228.5z M408.9,228.4c-0.1,0.2-0.2,0.3-0.2,0.4
				h-0.1c-0.2,0-0.4,0-0.6,0c0,0,0,0,0-0.1C408.3,228.7,408.6,228.6,408.9,228.4z M408.1,227.6c-0.6,0.2-1.1,0.4-1.7,0.3
				c-0.2,0-0.4,0-0.6,0c0.1-0.2,0.1-0.4,0.2-0.6c0.2-0.5,0.1-0.4,0.6-0.5s1-0.1,1.5-0.2c-0.4,0.4-0.8,0.9-1.5,0.9
				c0.4,0,0.7-0.1,1-0.3c0.2-0.2,0.5-0.4,0.7-0.6c0.1-0.1,0.2-0.1,0.4-0.2c0.5-0.1,1-0.3,1.4-0.5c0.3-0.1,0.5-0.3,0.8-0.4l0,0
				c-0.1,0.1-0.1,0.1-0.2,0.2C409.9,226.5,409.1,227.1,408.1,227.6z M409.3,225.3c-0.2,0.2-0.3,0.3-0.5,0.5s-0.5,0.3-0.8,0.4
				c-0.5,0.1-1,0.2-1.5,0.2c0,0,0,0-0.1,0c0.1-0.1,0.2-0.2,0.2-0.3c0.1-0.1,0.3-0.3,0.5-0.4c0.2-0.2,0.4-0.3,0.7-0.3
				c0.5-0.1,1-0.1,1.5-0.2C409.4,225.2,409.4,225.2,409.3,225.3C409.3,225.2,409.3,225.2,409.3,225.3z M406.2,226.4
				C406.2,226.4,406.1,226.4,406.2,226.4c-1.1,0.2-2,0.6-2.8,1.2c-0.1,0.1-0.2,0.1-0.3,0.2c-0.1-0.1-0.1-0.1-0.2-0.2
				c0-0.3,0.1-0.6,0.2-0.9c0.1-0.1,0.1-0.2,0.2-0.3c0,0,0.1-0.1,0.2-0.1c1.1-0.1,2.1-0.4,3.2-0.6h0.1
				C406.6,225.9,406.4,226.1,406.2,226.4z M403.2,227.8c0.2-0.1,0.4-0.2,0.6-0.3c-0.1,0.2-0.2,0.4-0.3,0.6
				C403.4,228,403.3,227.9,403.2,227.8z M403.5,228.1c0-0.1,0.1-0.2,0.1-0.3c0.2-0.3,0.4-0.5,0.7-0.6c0.4-0.1,0.7-0.2,1.1-0.3
				c0.1,0,0.3,0,0.5-0.1c-0.1,0.2-0.2,0.4-0.4,0.4c-0.1,0-0.1,0-0.2,0.1c-0.3,0.1-0.6,0.3-0.8,0.6c0,0,0,0.1-0.1,0.1
				c-0.2,0.1-0.4,0.2-0.6,0.3C403.7,228.3,403.6,228.2,403.5,228.1z M405.7,227.5c0,0.1-0.1,0.3-0.1,0.4c-0.3,0-0.6,0.1-0.9,0.1
				C405,227.7,405.3,227.6,405.7,227.5z M405.7,228.2c0.5,0,1,0.1,1.4,0.1c-0.2,0.1-0.5,0.3-0.7,0.5c0,0,0,0-0.1,0
				c-0.3,0-0.5,0.1-0.8,0.1C405.5,228.7,405.6,228.4,405.7,228.2z M406.4,229c-0.2,0.2-0.4,0.4-0.5,0.6
				C406.1,229.4,406.2,229.2,406.4,229z M408.8,228.9c0.3-0.4,0.3-0.8,0.4-1.2c0-0.1,0.1-0.2,0.2-0.3c0.3-0.2,0.6-0.4,1-0.6
				c-0.1,0.2-0.2,0.3-0.3,0.5c-0.2,0.4-0.4,0.9-0.5,1.4c0,0.1-0.1,0.2-0.2,0.2C409.3,228.9,409.1,228.9,408.8,228.9z M411,227
				c0,0.3,0,0.7,0,1v0.1c-0.2,0.2-0.5,0.4-0.8,0.5C410.3,228,410.7,227.5,411,227z M402.1,226.4c0.1,0,0.2,0,0.3,0
				c-0.1,0.1-0.1,0.1-0.1,0.2C402.1,226.5,402.1,226.5,402.1,226.4z M402.3,226.8c0.2-0.3,0.5-0.5,0.9-0.5c-0.3,0.4-0.3,0.8-0.3,1.2
				C402.7,227.2,402.5,227,402.3,226.8z M404.3,228.4c0,0.1,0,0.3-0.1,0.4c-0.1-0.1-0.2-0.1-0.2-0.2
				C404.1,228.5,404.2,228.5,404.3,228.4z M404.4,228.5c0-0.1,0.1-0.2,0.1-0.2c0.3-0.2,0.7-0.2,1-0.2c0,0.2-0.1,0.4-0.1,0.6
				c0,0.1-0.1,0.2-0.2,0.2c-0.2,0.1-0.3,0.2-0.4,0.3c-0.2-0.2-0.4-0.3-0.6-0.5C404.3,228.7,404.3,228.6,404.4,228.5z M405.3,229.3
				c0,0.1,0,0.1,0,0.1c0.2-0.4,0.5-0.3,0.8-0.4c-0.2,0.3-0.3,0.6-0.4,0.9c-0.2-0.1-0.4-0.3-0.6-0.4
				C405.1,229.4,405.2,229.4,405.3,229.3z M406.1,229.6c0,0.2,0,0.4,0,0.6c-0.1-0.1-0.2-0.1-0.4-0.2
				C405.9,229.9,406,229.7,406.1,229.6z M407.1,230.4L407.1,230.4c0.2-0.1,0.4-0.1,0.6-0.2c-0.2,0.2-0.3,0.4-0.3,0.6
				c-0.1-0.1-0.3-0.1-0.4-0.2C407,230.6,407,230.5,407.1,230.4z M407.6,230.5c0.2-0.2,0.4-0.3,0.7-0.3c-0.2,0.3-0.3,0.7-0.3,1
				c-0.2-0.1-0.4-0.2-0.7-0.3C407.5,230.8,407.5,230.6,407.6,230.5z M408.2,231.3c0-0.3,0.1-0.6,0.3-0.8c0.1-0.2,0.2-0.4,0.5-0.4
				c0.1,0,0.2-0.1,0.3-0.1h0.1c-0.1,0.5-0.3,0.9-0.4,1.4c0,0.1,0,0.1,0,0.2C408.7,231.4,408.4,231.3,408.2,231.3z M409.1,231.6
				c0-0.1,0.1-0.3,0.1-0.4c0.1,0.2,0.3,0.4,0.4,0.5C409.4,231.7,409.2,231.6,409.1,231.6z M409.7,231.7L409.7,231.7
				c-0.1-0.2-0.2-0.4-0.3-0.5c-0.1-0.1-0.1-0.2,0-0.3c0.1-0.3,0.3-0.7,0.4-1c0-0.1,0.1-0.1,0.1-0.2c0.1-0.1,0.3-0.2,0.4-0.4
				c0.2-0.2,0.5-0.3,0.7-0.5c0,0.2,0,0.3-0.1,0.4c-0.2,0.1-0.3,0.3-0.5,0.4c-0.5,0.6-0.6,1.3-0.5,2c0-0.9,0.2-1.7,1.1-2.2
				c-0.1,0.5-0.2,1-0.4,1.5c0.1-0.2,0.2-0.3,0.2-0.5c0,0.3,0,0.7,0,1c0,0,0,0.1-0.1,0.1c-0.1,0.1-0.2,0.1-0.3,0.2
				c-0.1,0.1-0.1,0.1-0.1,0.2C410.1,231.8,409.9,231.8,409.7,231.7z M410.5,231.9c0.1-0.1,0.2-0.2,0.4-0.3c0,0.1,0,0.2,0,0.3
				C410.7,232,410.6,231.9,410.5,231.9z M410.9,232c0.1-0.3,0.1-0.7,0.1-1c0-0.4,0.1-0.9,0.2-1.3c0.1-0.2,0.2-0.4,0.3-0.6l0,0v0.1
				c-0.1,0.7-0.1,1.3-0.2,2c0,0.3-0.1,0.6-0.1,0.8C411.2,232,411,232,410.9,232z M411.3,232.1c0-0.4,0.1-0.8,0.2-1.1
				c0.1,0.4,0.1,0.8,0.2,1.2C411.6,232.1,411.4,232.1,411.3,232.1z M411.8,232.1c0-0.3,0-0.7-0.1-1l0,0c0,0.1,0.1,0.3,0.1,0.4l0,0
				c-0.3-0.9-0.1-1.6,0.4-2.3c0,0.7-0.1,1.3-0.2,2C411.9,231.5,411.9,231.8,411.8,232.1C411.9,232.1,411.8,232.1,411.8,232.1z
				 M412.3,230.6c0.1,0.2,0.1,0.4,0.2,0.6c0,0.1,0.1,0.2,0,0.3c-0.1,0.2-0.1,0.4-0.2,0.7c-0.1,0-0.2,0-0.4,0
				C412.1,231.5,412.2,230.8,412.3,230.6z M412.5,232.2c0.1-0.3,0.1-0.5,0.2-0.6c0.1,0.2,0.1,0.4,0.2,0.6
				C412.8,232.2,412.6,232.2,412.5,232.2z M413.5,232.1L413.5,232.1L413.5,232.1C413.5,232.2,413.5,232.2,413.5,232.1L413.5,232.1z
				 M413.6,232.2c0.1-0.3,0.1-0.7,0.3-1c0.1,0.3,0.2,0.6,0.2,0.9l0,0C414,232.1,413.8,232.1,413.6,232.2z M414.4,232.1
				c0-0.2-0.1-0.3-0.1-0.5c0.2,0.1,0.4,0.2,0.6,0.3c0.1,0,0.2,0.1,0.3,0.1C414.9,232,414.7,232.1,414.4,232.1z M415.3,232
				c-0.1,0-0.1-0.1-0.2-0.1c-0.2-0.1-0.5-0.3-0.7-0.4c-0.1-0.1-0.2-0.2-0.2-0.4c0-0.4,0-0.7,0.1-1.1c0-0.2,0-0.5,0.1-0.7
				c0.6,0.6,0.7,1.3,0.7,2c0-0.4,0-0.7,0-1.1l0,0c0.1,0.3,0.3,0.5,0.4,0.8c-0.1-0.5-0.4-0.8-0.6-1.2c0.5,0.4,1,0.9,1.1,1.6
				c0-0.1,0-0.3-0.1-0.4c-0.1-0.5-0.4-0.8-0.8-1.1c-0.2-0.2-0.4-0.4-0.6-0.6c-0.1-0.1-0.2-0.3-0.1-0.5c0-0.1,0-0.3,0.1-0.4
				c0.1-0.6,0.2-1.2,0.2-1.8l0,0c0.2,0.1,0.4,0.3,0.6,0.4c0.3,0.2,0.4,0.5,0.1,0.8l0,0c-0.3,0.4-0.3,1,0,1.4c-0.4-0.8-0.2-1,0.3-1.4
				c0.1,0.2,0,0.4-0.1,0.6c-0.2,0.4-0.1,0.8,0.1,1.1c-0.2-0.4-0.2-0.9,0.1-1.3c0.1,0.2,0.1,0.5,0.2,0.7c0.2,0.6,0.3,1.2,0.5,1.7
				c0,0.1,0.1,0.1,0.1,0.2c-0.1-0.5-0.3-0.9-0.4-1.4c-0.1-0.6-0.2-1.3-0.3-2c0.1,0.1,0.1,0.2,0.2,0.3c0.4,0.7,0.5,1.5,0.5,2.3
				c0,0.2,0,0.5,0,0.7v0.1c0,0.1,0,0.1,0,0.2c0,0.2,0,0.5-0.1,0.7C416.1,231.8,415.7,231.9,415.3,232z M417.1,225.6
				C417.2,225.6,417.2,225.5,417.1,225.6c0.7,0.4,1.4,0.9,1.8,1.6c0.3,0.5,0.4,1,0.5,1.5c0,0.1,0,0.2,0.1,0.3
				c0.1,0.2,0.1,0.4-0.1,0.6c-0.1,0.1-0.2,0.3-0.2,0.4c-0.2-0.2-0.4-0.4-0.5-0.6c-0.1-0.1-0.2-0.2-0.1-0.4c0.2-0.4,0.1-0.7-0.2-1
				c-0.2-0.2-0.5-0.4-0.8-0.6c-0.4-0.3-0.7-0.7-0.9-1.1c-0.1-0.1-0.1-0.3-0.2-0.4c-0.1-0.3-0.2-0.6-0.3-0.9c0.2,0.2,0.5,0.3,0.6,0.5
				c0.3,0.5,0.7,1.1,1.1,1.6c0,0.1,0.1,0.1,0.2,0.2l0,0C417.8,226.8,417.5,226.2,417.1,225.6z M417.6,231.4
				c-0.4-0.8-0.9-1.7-0.8-2.6c0.2,0.2,0.4,0.4,0.6,0.6c0,0,0,0.1,0.1,0.1c0.1,0.2,0.1,0.2,0,0.5c0-0.1,0.1-0.1,0.1-0.1
				C417.8,230.4,417.6,230.9,417.6,231.4C417.7,231.4,417.7,231.4,417.6,231.4z M417.8,230.3c-0.1-0.3-0.1-0.6,0-0.8
				c0.1-0.5,0-1-0.3-1.5c-0.1-0.1-0.2-0.3-0.3-0.5c0.3,0.1,0.5,0.3,0.7,0.4c0.1,0.1,0.3,0.2,0.4,0.3c0.2,0.2,0.2,0.4,0.1,0.6
				c0,0.1-0.1,0.1-0.1,0.2C418,229.4,417.9,229.8,417.8,230.3L417.8,230.3z M416.7,227c0.1,0.1,0.1,0.3,0.2,0.4
				c0.1,0.2,0.3,0.5,0.5,0.7c0.2,0.3,0.3,0.6,0.3,1c0,0.1,0,0.2,0,0.4l0,0c-0.1-0.1-0.1-0.3-0.2-0.4c-0.1-0.2-0.3-0.4-0.5-0.6
				c-0.1-0.1-0.2-0.3-0.3-0.4c-0.1-0.6-0.4-1.1-0.8-1.6c-0.2-0.3-0.4-0.5-0.6-0.8c-0.1-0.1,0-0.1,0.1-0.2c0.2-0.1,0.3,0,0.5,0.2
				C416.1,226.2,416.4,226.6,416.7,227z M416.9,230.1c0.1,0.1,0.1,0.3,0.1,0.4c0,0.1,0,0.3,0.1,0.4c0.1,0.2,0.1,0.4,0.1,0.6
				c-0.2,0.1-0.4,0.1-0.6,0.2C416.7,231.1,416.8,230.6,416.9,230.1z M417.3,231.5c0-0.3-0.1-0.5-0.1-0.8c0.1,0.2,0.2,0.5,0.4,0.7
				C417.5,231.4,417.4,231.4,417.3,231.5z M417.8,231.3c0-0.1,0-0.3,0-0.4c0.1-0.6,0.3-1.1,0.6-1.6c0.1,0.1,0.2,0.2,0.3,0.3
				c0.1,0.1,0.2,0.2,0.3,0.3c0.3,0.3,0.3,0.3-0.1,0.6c-0.2,0.2-0.3,0.4-0.4,0.6C418.3,231.1,418,231.2,417.8,231.3z M418.6,231
				c0.1-0.2,0.3-0.5,0.6-0.6c0,0.1,0.1,0.2,0.1,0.3C419.1,230.7,418.9,230.8,418.6,231z M419.4,230.6c0-0.1,0-0.2,0-0.2
				c0-0.1,0-0.1,0-0.2c0.1-0.2,0.2-0.3,0.3-0.5c0.1,0.2,0.1,0.5,0.1,0.7C419.6,230.4,419.5,230.5,419.4,230.6z M420.1,230.2
				c-0.2-0.6-0.3-1.3-0.4-1.9c0,0,0,0,0-0.1c0.2,0.1,0.5,0.1,0.7,0.2c0.3,0.1,0.3,0.2,0.2,0.5c0,0.1,0,0.1-0.1,0.2
				c-0.1,0.2-0.1,0.4,0.1,0.6c0,0,0,0.1,0.1,0.1C420.5,229.9,420.3,230,420.1,230.2z M420.8,229.7
				C420.7,229.7,420.7,229.7,420.8,229.7c-0.1-0.2-0.1-0.4-0.1-0.6c0-0.2,0.1-0.3,0.2-0.5c0.2,0.2,0.4,0.4,0.5,0.6
				C421.2,229.4,421,229.6,420.8,229.7z M421.4,229.2c-0.1-0.2-0.2-0.3-0.3-0.5c0.1,0,0.3,0,0.4,0c0.2,0,0.3,0,0.5,0
				C421.8,228.9,421.6,229.1,421.4,229.2z M422,228.7c-0.1-0.1-0.3-0.1-0.4-0.1c-0.3,0-0.6-0.1-0.9-0.2c-0.3-0.2-0.6-0.3-0.9-0.4
				c-0.1,0-0.1-0.1-0.2-0.2c-0.1-0.4-0.3-0.8-0.5-1.1c0,0,0-0.1-0.1-0.1l0,0c0.2,0.1,0.4,0.1,0.6,0.2c0.4,0.2,0.9,0.4,1.3,0.5
				c0.6,0.2,1.1,0.5,1.5,1.1C422.3,228.4,422.2,228.6,422,228.7z M423.2,227.5c-0.2-0.1-0.3-0.2-0.5-0.2c-0.1,0-0.2-0.1-0.2-0.1
				c0.1,0,0.1,0,0.2,0c0.3,0,0.5,0.1,0.8,0.1C423.4,227.3,423.3,227.4,423.2,227.5z M423,227.8c0-0.1-0.1-0.2-0.1-0.2
				c0.1,0,0.1,0.1,0.2,0.1C423,227.7,423,227.7,423,227.8z M422.9,227.9c-0.1,0.1-0.2,0.2-0.3,0.3c-0.2-0.3-0.4-0.6-0.7-0.8l0,0l0,0
				C422.4,227.3,422.7,227.5,422.9,227.9z M423.6,227h-0.1c-0.5-0.1-0.9-0.2-1.4-0.1c-0.6,0.1-1.2,0-1.8-0.4
				c-0.4-0.2-0.7-0.4-1.1-0.4c-0.2,0-0.4-0.1-0.5-0.1s-0.2-0.1-0.2-0.1c-0.4-0.4-0.9-0.7-1.3-1.1c-0.6-0.4-1.1-0.9-1.7-1.3
				c-0.3-0.2-0.5-0.5-0.5-0.9c0-0.2,0-0.4,0-0.6c0-0.8,0-1.6-0.1-2.5c0-0.6,0-1.2,0.1-1.8c0.1-0.4,0.3-0.7,0.6-0.9
				c0.2-0.2,0.5-0.3,0.8-0.4c0.5-0.2,1.1-0.2,1.6-0.1c0.7,0.1,1.3,0.2,1.9,0.6c0.3,0.2,0.5,0.2,0.8,0.1c0.2-0.1,0.4-0.1,0.6,0
				c0.1,0,0.2,0.1,0.3,0.1c0.1,0.1,0.3,0.2,0.4,0.3c0.2,0.1,0.4,0.2,0.6,0.2c0.3,0,0.6,0.2,0.8,0.4c0.3,0.3,0.9,0.5,1.2,0.4
				c-0.7-0.1-1.1-0.3-1.4-0.7c0.8,0,1.6,0,2.3,0.3c-0.8-0.4-1.6-0.5-2.5-0.5c0.5-0.6,1.2-0.6,1.8-0.6l0,0c-0.1,0-0.1,0-0.2,0
				c-0.6,0-1.2,0-1.6,0.5c-0.1,0.1-0.3,0.2-0.4,0.1c-0.1,0-0.3-0.1-0.4-0.2c-0.3-0.2-0.6-0.4-0.9-0.7c1.1-0.9,2.3-1.2,3.7-0.9
				c-0.6-0.1-1.1-0.2-1.7-0.2c0.1-0.1,0.2-0.1,0.3-0.2c0.2-0.1,0.2-0.3,0.3-0.5c0.1-0.4,0.3-0.6,0.7-0.7c0.3-0.1,0.7-0.2,1-0.3
				c0.6,1.5,1,3.2,1,5C426.4,221.9,425.4,224.7,423.6,227z"/>
		</g>
	</g>
	<g>
		<g>
			<path d="M212.8,199.8l2.6-0.1c0-0.7,0-1.3,0-2c0-2.2,0-4.2-0.1-6.3c0-0.3-0.5-0.7-0.8-1c-0.1-0.1-0.2-0.2-0.3-0.3
				c-0.1,0.1-0.2,0.2-0.3,0.3c-0.4,0.3-0.9,0.7-0.9,1c-0.1,2.1-0.1,4.2-0.1,6.5C212.8,198.4,212.8,199.1,212.8,199.8z"/>
		</g>
		<g>
			<path d="M223.2,213c-0.8,0-1.5,0.7-1.5,1.5v17.6h3v-17.6C224.7,213.7,224,213,223.2,213z"/>
		</g>
		<g>
			<path d="M214.3,213c-0.8,0-1.5,0.7-1.5,1.5v17.6h3v-17.6C215.8,213.7,215.1,213,214.3,213z"/>
		</g>
		<g>
			<path d="M232,213c-0.8,0-1.5,0.7-1.5,1.5v17.6h3v-17.6C233.5,213.7,232.8,213,232,213z"/>
		</g>
		<g>
			<path d="M199.1,199.8l2.4-0.2c0-0.7,0-1.4,0-2c0-2.2,0-4.2-0.1-6.3c0-0.3-0.5-0.7-0.8-1c-0.1-0.1-0.2-0.2-0.3-0.3
				c-0.1,0.1-0.2,0.2-0.3,0.3c-0.4,0.3-0.8,0.7-0.8,1c-0.1,2-0.1,4.1-0.1,6.3C199.1,198.4,199.1,199.1,199.1,199.8z"/>
		</g>
		<g>
			<path d="M205.9,199.7h2.5c0-0.7,0-1.3,0-2c0-2.2,0-4.3-0.1-6.4c0-0.2-0.5-0.6-0.9-1c-0.1-0.1-0.2-0.2-0.3-0.3
				c-0.1,0.1-0.2,0.2-0.3,0.3c-0.4,0.3-0.8,0.7-0.8,1c-0.1,2.1-0.1,4.2-0.1,6.4C205.9,198.4,205.9,199,205.9,199.7z"/>
		</g>
		<g>
			<path d="M187.8,213c-0.8,0-1.5,0.7-1.5,1.5v17.6h3v-17.6C189.3,213.7,188.6,213,187.8,213z"/>
		</g>
		<g>
			<path d="M192.2,199.4c0,0.1,0.1,0.2,0.2,0.3l0,0h2.2c0-0.7,0-1.4,0-2.1c0-2.1,0-4.1-0.1-6c0-0.3-0.5-0.8-0.9-1.2
				c-0.1-0.1-0.2-0.2-0.3-0.3c-0.1,0.1-0.2,0.2-0.3,0.3c-0.4,0.5-0.8,0.9-0.8,1.3c-0.1,2-0.1,4,0,6
				C192.1,198.3,192.2,198.8,192.2,199.4z"/>
		</g>
		<g>
			<path d="M205.5,213c-0.8,0-1.5,0.7-1.5,1.5v17.6h3v-17.6C207,213.7,206.3,213,205.5,213z"/>
		</g>
		<g>
			<rect x="164.2" y="245.4" width="2.6" height="40.1"/>
		</g>
		<g>
			<path d="M240.8,213c-0.8,0-1.5,0.7-1.5,1.5v17.6h3v-17.6C242.4,213.7,241.7,213,240.8,213z"/>
		</g>
		<g>
			<path d="M176.9,245.5c-0.5,0.3-0.7,1.2-0.7,2.5c0.1,8.2,0.1,16.6,0.1,24.6c0,3.5,0,7,0,10.5c0,0.6,0,1.2,0.1,1.9
				c0,0.2,0,0.4,0,0.6h2.9v-40.1C178.1,245.2,177.3,245.2,176.9,245.5z"/>
		</g>
		<g>
			<path d="M150.8,280.5c-0.4,0.4-0.3,1.2-0.2,1.9c0.1,0.5,0.1,1.1,0,1.5c-0.1,0.6-0.1,1.3,0.2,1.6c0.3,0.2,0.9,0.2,1.7,0v-5.4
				c-0.2,0-0.4,0-0.5,0C151.4,280.1,151,280.2,150.8,280.5z"/>
		</g>
		<g>
			<path d="M152,270.8c0.2,0,0.4,0.1,0.6,0.1V265c-0.2,0.1-0.4,0.1-0.6,0.1c-0.4,0.1-0.9,0.2-1.1,0.3c-0.2,1.6-0.2,3.4,0.1,5.2
				C151.1,270.7,151.6,270.8,152,270.8z"/>
		</g>
		<g>
			<path d="M249.7,213c-0.8,0-1.5,0.7-1.5,1.5v17.6h3v-17.6C251.2,213.7,250.5,213,249.7,213z"/>
		</g>
		<g>
			<path d="M258.5,213c-0.8,0-1.5,0.7-1.5,1.5v17.6h3v-17.6C260.1,213.7,259.4,213,258.5,213z"/>
		</g>
		<g>
			<path d="M267.4,213c-0.8,0-1.5,0.7-1.5,1.5v17.6h3v-17.6C268.9,213.7,268.2,213,267.4,213z"/>
		</g>
		<g>
			<path d="M223.9,171.8c-0.7,0-1.2,0.5-1.2,1.2v3.2c0,0.7,0.5,1.2,1.2,1.2s1.2-0.5,1.2-1.2V173
				C225.2,172.3,224.6,171.8,223.9,171.8z"/>
		</g>
		<g>
			<path d="M245.5,171.8c-0.7,0-1.2,0.5-1.2,1.2v3.2c0,0.7,0.5,1.2,1.2,1.2s1.2-0.5,1.2-1.2V173
				C246.7,172.3,246.2,171.8,245.5,171.8z"/>
		</g>
		<g>
			<path d="M216.8,171.8c-0.7,0-1.2,0.5-1.2,1.2v3.2c0,0.7,0.5,1.2,1.2,1.2s1.2-0.5,1.2-1.2V173C218,172.3,217.4,171.8,216.8,171.8z
				"/>
		</g>
		<g>
			<path d="M231.1,171.8c-0.7,0-1.2,0.5-1.2,1.2v3.2c0,0.7,0.5,1.2,1.2,1.2s1.2-0.5,1.2-1.2V173
				C232.4,172.3,231.8,171.8,231.1,171.8z"/>
		</g>
		<g>
			<path d="M238.3,171.8c-0.7,0-1.2,0.5-1.2,1.2v3.2c0,0.7,0.5,1.2,1.2,1.2s1.2-0.5,1.2-1.2V173C239.5,172.3,239,171.8,238.3,171.8z
				"/>
		</g>
		<g>
			<polygon points="189,285.8 191.7,285.6 191.7,245.4 189,245.4 			"/>
		</g>
		<g>
			<path d="M195.2,171.8c-0.7,0-1.2,0.5-1.2,1.2v3.2c0,0.7,0.5,1.2,1.2,1.2s1.2-0.5,1.2-1.2V173
				C196.4,172.3,195.9,171.8,195.2,171.8z"/>
		</g>
		<g>
			<path d="M219.7,199.7h2.5c0-0.6,0-1.3,0-1.9c0-2.2,0-4.4-0.1-6.5c0-0.2-0.5-0.6-0.9-0.9c-0.1-0.1-0.2-0.2-0.3-0.3
				c-0.1,0.1-0.2,0.2-0.3,0.3c-0.4,0.4-0.8,0.8-0.8,1.1c-0.1,2-0.1,4.1-0.1,6.2C219.7,198.4,219.7,199,219.7,199.7z"/>
		</g>
		<g>
			<path d="M209.6,171.8c-0.7,0-1.2,0.5-1.2,1.2v3.2c0,0.7,0.5,1.2,1.2,1.2s1.2-0.5,1.2-1.2V173
				C210.8,172.3,210.2,171.8,209.6,171.8z"/>
		</g>
		<g>
			<path d="M202.4,171.8c-0.7,0-1.2,0.5-1.2,1.2v3.2c0,0.7,0.5,1.2,1.2,1.2s1.2-0.5,1.2-1.2V173
				C203.6,172.3,203.1,171.8,202.4,171.8z"/>
		</g>
		<g>
			<path d="M247.5,199.5C247.6,199.6,247.6,199.6,247.5,199.5c0.1,0.1,0.2,0.2,0.2,0.2h2.2c0-0.7,0-1.4,0-2c0-2.1,0-4.1-0.1-6
				c0-0.4-0.5-0.8-0.9-1.2c-0.1-0.1-0.2-0.2-0.3-0.3c-0.1,0.1-0.2,0.2-0.3,0.3c-0.4,0.4-0.9,0.9-0.9,1.3c-0.1,2,0,4.1,0,6
				C247.5,198.4,247.5,198.9,247.5,199.5z"/>
		</g>
		<g>
			<path d="M233.6,199.7h2.4c0-0.7,0-1.4,0-2c0-2.2,0-4.2-0.1-6.2c0-0.3-0.4-0.7-0.8-1.1c-0.1-0.1-0.2-0.2-0.3-0.3
				c-0.1,0.1-0.2,0.2-0.3,0.3c-0.4,0.3-0.8,0.7-0.9,0.9c-0.1,2.1-0.1,4.2-0.1,6.4C233.6,198.4,233.6,199,233.6,199.7z"/>
		</g>
		<g>
			<path d="M240.5,199.6l2.5,0.2c0-0.7,0-1.4,0-2.1c0-2.1,0-4.1-0.1-6c0-0.4-0.5-0.8-0.9-1.2c-0.1-0.1-0.2-0.2-0.3-0.3
				c-0.1,0.1-0.2,0.2-0.3,0.3c-0.4,0.4-0.9,0.9-0.9,1.2c-0.1,2-0.1,3.9-0.1,6C240.5,198.3,240.5,199,240.5,199.6z"/>
		</g>
		<g>
			<path d="M226.7,199.6h2.4c0-0.7,0-1.4,0-2c0-2.1,0-4.1-0.1-6c0-0.3-0.5-0.8-0.9-1.2c-0.1-0.1-0.2-0.2-0.3-0.3
				c-0.1,0.1-0.2,0.2-0.3,0.3c-0.4,0.4-0.8,0.8-0.8,1.1c-0.1,2-0.1,4.1-0.1,6.2C226.7,198.3,226.7,199,226.7,199.6z"/>
		</g>
		<g>
			<path d="M259.9,171.8c-0.7,0-1.2,0.5-1.2,1.2v3.2c0,0.7,0.5,1.2,1.2,1.2s1.2-0.5,1.2-1.2V173
				C261.1,172.3,260.6,171.8,259.9,171.8z"/>
		</g>
		<g>
			<path d="M254.5,199.6L254.5,199.6c0.1,0.1,0.1,0.1,0.2,0.2h2.1c0-0.7,0-1.4,0-2.1c0-2.2,0-4.3-0.1-6.3c0-0.3-0.5-0.7-0.8-1
				c-0.1-0.1-0.2-0.2-0.3-0.3c-0.1,0.1-0.2,0.2-0.3,0.3c-0.4,0.3-0.8,0.8-0.8,1c-0.1,2.1,0,4.3,0,6.4
				C254.4,198.4,254.4,199,254.5,199.6z"/>
		</g>
		<g>
			<path d="M252.7,171.8c-0.7,0-1.2,0.5-1.2,1.2v3.2c0,0.7,0.5,1.2,1.2,1.2s1.2-0.5,1.2-1.2V173
				C253.9,172.3,253.4,171.8,252.7,171.8z"/>
		</g>
		<g>
			<path d="M261.3,199.6h2.4c0-0.7,0-1.4,0-2.1c0-2.1,0-4.1-0.1-6.1c0-0.3-0.4-0.7-0.8-1.1c-0.1-0.1-0.2-0.2-0.2-0.3
				c-0.1,0.1-0.2,0.2-0.3,0.3c-0.4,0.4-0.9,0.8-0.9,1.1c-0.2,2-0.1,4-0.1,6.2C261.2,198.3,261.2,199,261.3,199.6z"/>
		</g>
		<g>
			<path d="M196.6,213c-0.8,0-1.5,0.7-1.5,1.5v17.6h3v-17.6C198.1,213.7,197.5,213,196.6,213z"/>
		</g>
		<g>
			<path d="M241.4,245.6c-0.2-0.2-0.7-0.4-1.3-0.4c-0.7,0-1.2,0.1-1.4,0.4c-0.3,0.3-0.3,1-0.3,1.7c0,0.2,0,0.5,0,0.7
				c0,7.8,0,15.7,0,23.5v14.1h3.2c0-0.2,0-0.4,0-0.5c0-0.5,0.1-1,0.1-1.5c0-11.9,0-23.9,0-35.8c0-0.2,0-0.4,0-0.6
				C241.7,246.5,241.7,245.9,241.4,245.6z"/>
		</g>
		<g>
			<rect x="251.2" y="245.6" width="2.6" height="40.1"/>
		</g>
		<g>
			<rect x="226.2" y="245.5" width="2.7" height="40.1"/>
		</g>
		<g>
			<path d="M263.8,245.4c-0.1,0-0.2,0-0.3,0v40.1h2.7c0-0.1,0-0.1,0.1-0.2c0.1-0.2,0.1-0.4,0.1-0.5c0-4.5,0-8.9,0-13.4
				c0-8.1,0-16.3,0-24.4c0-0.8-0.1-1.4-0.4-1.7C265.6,245.1,264.8,245.2,263.8,245.4z"/>
		</g>
		<g>
			<path d="M303.1,282c0.1,0.5,0,1,0,1.5c-0.1,0.8-0.2,1.6,0.2,1.9c0.3,0.3,0.9,0.3,1.7,0.2v-5.4c-0.4-0.1-0.7-0.2-0.9-0.2
				c-0.3,0-0.5,0.1-0.6,0.2C303.1,280.5,303,281.1,303.1,282z"/>
		</g>
		<g>
			<rect x="275.9" y="245.5" width="2.8" height="40.1"/>
		</g>
		<g>
			<path d="M303.2,269.3c-0.1,0.5-0.1,1.1,0.2,1.4c0.3,0.2,0.9,0.2,1.6,0v-5.6h-0.1c-0.8,0-1.3,0.1-1.6,0.4
				c-0.4,0.4-0.3,1.3-0.2,2.1C303.2,268.2,303.2,268.8,303.2,269.3z"/>
		</g>
		<g>
			<polygon points="288.3,285.6 291.1,285.8 291.1,245.5 288.3,245.5 			"/>
		</g>
		<g>
			<rect x="213.8" y="245.4" width="2.7" height="40.2"/>
		</g>
		<g>
			<rect x="201.3" y="245.5" width="2.8" height="40"/>
		</g>
		<g>
			<path d="M298.4,244.2l-0.1-1.2c0-0.5-0.1-0.9-0.1-1.3c-0.2-4.3-0.8-4.9-5-4.9H162c-3.3,0-4.3,0.9-4.4,4.2l-0.2,3.6h-0.5
				c-2.9-0.2-5.8-0.2-8.6-0.1c-1.2,0-2.3,0.1-3.5,0.1v50h164.8v-50.2c-1.7,0-3.4,0-5.1,0c-1.9,0-3.8,0-5.7,0h-0.4V244.2z
				 M153.5,286.3l-0.3,0.1c-0.6,0.2-1.2,0.3-1.7,0.3s-1-0.1-1.3-0.4c-0.6-0.5-0.8-1.3-0.5-2.5c0.1-0.3,0-0.8,0-1.3
				c-0.1-0.9-0.2-2,0.5-2.7c0.6-0.5,1.5-0.7,2.9-0.5l0.4,0.1L153.5,286.3L153.5,286.3z M153.5,272.1l-0.6-0.1
				c-0.3-0.1-0.7-0.1-1.1-0.2c-1.1-0.2-1.8-0.3-1.9-0.8c-0.3-2-0.3-3.9-0.1-5.7c0.1-0.6,0.7-0.7,1.8-1c0.4-0.1,0.8-0.2,1.2-0.3
				l0.6-0.2v8.3H153.5z M167.7,286.5h-4.5v-42h4.5V286.5z M180.3,286.5h-4.7V286c0-0.4,0-0.7-0.1-1c0-0.7-0.1-1.3-0.1-2
				c0-3.5,0-7,0-10.5c0-8.1,0-16.4-0.1-24.6c0-1.7,0.3-2.7,1-3.3s1.9-0.6,3.6-0.1l0.3,0.1v41.9H180.3z M192.6,286.5l-4.5,0.2v-42.3
				h4.5V286.5z M205.1,286.5h-4.7v-41.9h4.7V286.5z M217.5,286.6h-4.6v-42.1h4.6V286.6z M229.9,286.5h-4.6v-42h4.6V286.5z
				 M242.6,283.6c0,0.5,0,1-0.1,1.5c0,0.3,0,0.6-0.1,1v0.5h-5v-15.1c0-7.8,0-15.7,0-23.5c0-0.2,0-0.4,0-0.6c0-0.8-0.1-1.8,0.5-2.4
				c0.4-0.5,1.1-0.7,2.1-0.7c0.9,0,1.6,0.2,2,0.7c0.6,0.6,0.5,1.5,0.5,2.3c0,0.2,0,0.4,0,0.6C242.6,259.7,242.6,271.7,242.6,283.6z
				 M254.7,286.6h-4.5v-42h4.5V286.6z M267.4,271.5c0,4.5,0,8.9,0,13.4l0,0c0,0.3-0.1,0.5-0.2,0.8c0,0.1-0.1,0.3-0.1,0.4l-0.1,0.3
				h-4.4v-41.9h0.4c0.2,0,0.5-0.1,0.7-0.1c1.1-0.2,2.2-0.3,3,0.3c0.5,0.5,0.8,1.2,0.8,2.4C267.4,255.3,267.4,263.4,267.4,271.5z
				 M279.6,286.6h-4.7v-42h4.7V286.6z M292,286.8l-4.6-0.2v-42h4.6V286.8z M305.9,286.5l-0.4,0.1c-0.5,0.1-0.9,0.1-1.2,0.1
				c-0.8,0-1.3-0.2-1.7-0.5c-0.7-0.7-0.6-1.8-0.5-2.7c0.1-0.5,0.1-0.9,0.1-1.3c-0.2-1.5,0.2-2.3,0.6-2.6c0.6-0.5,1.6-0.5,2.8-0.1
				l0.3,0.1L305.9,286.5L305.9,286.5z M302.6,264.9c0.6-0.6,1.5-0.8,2.9-0.7h0.4v7.2l-0.3,0.1c-0.6,0.2-1.1,0.3-1.6,0.3
				s-0.9-0.1-1.2-0.4c-0.5-0.5-0.7-1.2-0.6-2.3c0.1-0.4,0-0.8-0.1-1.4C302,266.8,301.9,265.7,302.6,264.9z"/>
		</g>
		<g>
			<path d="M221.3,137h13.2v-18h-13.2V137z M232.2,120.6h1.7v14.7l-1.7,0.2V120.6z M228.7,120.7h1.7v14.7h-1.7V120.7z M225.4,120.6
				h1.7v14.8h-1.7V120.6z M222,120.6l1.7,0.1v14.7H222V120.6z"/>
		</g>
		<g>
			<path d="M229.7,110l0.1-0.3c2.2-5,2.2-9-0.1-12.7c-0.3-0.4-0.7-1.1-0.5-1.7v-0.1c0.3-1.4,0.4-1.6-0.8-2.1c0,0.2-0.1,0.3-0.1,0.5
				c-0.2,0.8-0.4,1.5-0.8,2.2c-2.7,4-3.2,7.8-1.4,11.6c0.7,1.6,0.8,2.9-1,4.3c-1.2,0.9-2.1,2.1-3.3,3.6c-0.4,0.5-0.8,1-1.2,1.5h14.1
				l0.3-0.3L229.7,110z"/>
		</g>
		<g>
			<path d="M265.2,174.6c-2-12.8-8.9-21.9-21.4-28c-0.4-0.2-0.7-0.4-1.1-0.5c-2.8-1.3-5.8-2.6-4.6-7.1h-20.5
				c1.3,4.6-1.7,5.9-4.6,7.1c-0.4,0.2-0.7,0.3-1.1,0.5c-15,6.9-22.7,18-22.8,32.9h76.7c-0.2-1-0.3-2.1-0.4-3
				C265.4,175.8,265.3,175.2,265.2,174.6z M197.4,176.2c0,1.2-1,2.2-2.2,2.2s-2.2-1-2.2-2.2V173c0-1.2,1-2.2,2.2-2.2s2.2,1,2.2,2.2
				V176.2z M204.6,176.2c0,1.2-1,2.2-2.2,2.2s-2.2-1-2.2-2.2V173c0-1.2,1-2.2,2.2-2.2s2.2,1,2.2,2.2V176.2z M211.7,176.2
				c0,1.2-1,2.2-2.2,2.2s-2.2-1-2.2-2.2V173c0-1.2,1-2.2,2.2-2.2s2.2,1,2.2,2.2V176.2z M218.9,176.2c0,1.2-1,2.2-2.2,2.2
				s-2.2-1-2.2-2.2V173c0-1.2,1-2.2,2.2-2.2s2.2,1,2.2,2.2V176.2z M226.1,176.2c0,1.2-1,2.2-2.2,2.2s-2.2-1-2.2-2.2V173
				c0-1.2,1-2.2,2.2-2.2s2.2,1,2.2,2.2V176.2z M233.3,176.2c0,1.2-1,2.2-2.2,2.2s-2.2-1-2.2-2.2V173c0-1.2,1-2.2,2.2-2.2
				s2.2,1,2.2,2.2V176.2z M240.5,176.2c0,1.2-1,2.2-2.2,2.2s-2.2-1-2.2-2.2V173c0-1.2,1-2.2,2.2-2.2s2.2,1,2.2,2.2V176.2z
				 M247.7,176.2c0,1.2-1,2.2-2.2,2.2s-2.2-1-2.2-2.2V173c0-1.2,1-2.2,2.2-2.2s2.2,1,2.2,2.2V176.2z M254.9,176.2
				c0,1.2-1,2.2-2.2,2.2s-2.2-1-2.2-2.2V173c0-1.2,1-2.2,2.2-2.2s2.2,1,2.2,2.2V176.2z M262.1,176.2c0,1.2-1,2.2-2.2,2.2
				s-2.2-1-2.2-2.2V173c0-1.2,1-2.2,2.2-2.2s2.2,1,2.2,2.2V176.2z"/>
		</g>
		<g>
			<path d="M187.8,187.8h0.9l0.1,0.4c0,0.1,0,0.2,0,0.3c-0.1,1.5,0,3,0.1,4.5c0.2,3.3,0.4,6.7-1.1,10h80c-0.1-0.6-0.2-1.1-0.3-1.6
				c-0.3-1.4-0.5-2.7-0.5-4c0-1.1,0-2.1,0-3.2c-0.1-2-0.1-4.1,0.3-6.1l0.1-0.3h0.3c1.5-0.2,2.7-1.5,2.7-3.1c0-1.7-1.4-3.1-3.1-3.1
				h-79.4c-1.7,0-3.1,1.4-3.1,3.1S186.1,187.8,187.8,187.8z M260.4,191.4c0.1-0.7,0.7-1.2,1.3-1.7c0.2-0.2,0.5-0.4,0.6-0.6l0.4-0.4
				l0.3,0.5c0.1,0.2,0.3,0.4,0.5,0.6c0.5,0.5,1,1.1,1,1.7c0.1,2,0.1,4,0.1,6.1c0,0.8,0,1.7,0,2.5v0.5h-4.3v-0.5c0-0.8,0-1.6,0-2.4
				C260.3,195.5,260.2,193.5,260.4,191.4z M253.4,191.4c0-0.7,0.6-1.2,1.1-1.7c0.2-0.2,0.4-0.4,0.6-0.6l0.4-0.4l0.4,0.4
				c0.2,0.2,0.4,0.4,0.6,0.5c0.6,0.5,1.1,1,1.2,1.6c0.1,2.1,0.1,4.2,0.1,6.4c0,0.8,0,1.7,0,2.5v0.5h-3.5l-0.1-0.2
				c-0.1-0.1-0.1-0.1-0.2-0.2c-0.2-0.2-0.4-0.4-0.4-0.7c0-0.6,0-1.2-0.1-1.8C253.4,195.7,253.3,193.5,253.4,191.4z M246.5,191.7
				c0-0.7,0.6-1.3,1.2-1.9c0.2-0.2,0.4-0.4,0.6-0.7l0.4-0.5l0.4,0.5c0.2,0.2,0.4,0.4,0.6,0.7c0.6,0.6,1.1,1.1,1.2,1.8
				c0.2,2,0.1,4,0.1,6.1c0,0.8,0,1.7,0,2.5v0.5h-3.6l-0.1-0.2c-0.1-0.1-0.1-0.1-0.2-0.2c-0.2-0.2-0.4-0.4-0.4-0.7
				c0-0.6,0-1.2-0.1-1.9C246.4,195.8,246.4,193.7,246.5,191.7z M239.6,191.6c0.1-0.7,0.6-1.3,1.2-1.8c0.2-0.2,0.4-0.4,0.6-0.7
				l0.4-0.5l0.4,0.5c0.2,0.2,0.4,0.4,0.6,0.6c0.5,0.6,1.1,1.1,1.2,1.8c0.1,2,0.1,4,0.1,6.1c0,0.8,0,1.7,0,2.6v0.5l-4.5-0.3V200
				c0-0.8,0-1.6,0-2.4C239.5,195.6,239.4,193.6,239.6,191.6z M232.8,191.2c0-0.6,0.6-1.1,1.2-1.6c0.2-0.2,0.4-0.4,0.6-0.5l0.4-0.4
				l0.3,0.4c0.2,0.2,0.4,0.4,0.6,0.6c0.5,0.5,1.1,1,1.1,1.7c0.1,2.1,0.1,4.1,0.1,6.3c0,0.8,0,1.6,0,2.5v0.5h-4.3v-0.5
				c0-0.8,0-1.6,0-2.4C232.6,195.5,232.6,193.4,232.8,191.2z M225.8,191.4c0-0.7,0.6-1.2,1.1-1.7c0.2-0.2,0.4-0.4,0.6-0.6l0.4-0.5
				l0.4,0.4c0.2,0.2,0.4,0.4,0.6,0.6c0.6,0.5,1.1,1.1,1.2,1.8c0.2,2,0.1,4,0.1,6.1c0,0.8,0,1.7,0,2.5v0.5h-4.3V200
				c0-0.8,0-1.6,0-2.4C225.7,195.5,225.7,193.5,225.8,191.4z M218.9,191.4c0-0.7,0.6-1.2,1.1-1.7c0.2-0.2,0.4-0.4,0.5-0.6l0.3-0.4
				l0.4,0.4c0.2,0.2,0.4,0.4,0.6,0.5c0.6,0.5,1.2,0.9,1.3,1.6c0.1,2.2,0.1,4.4,0.1,6.6c0,0.8,0,1.6,0,2.4v0.5h-4.4v-0.5
				c0-0.8,0-1.6,0-2.4C218.7,195.5,218.7,193.5,218.9,191.4z M211.9,191.2c0-0.7,0.7-1.2,1.2-1.6c0.2-0.2,0.4-0.4,0.6-0.5l0.4-0.4
				l0.3,0.4c0.2,0.2,0.4,0.4,0.6,0.6c0.6,0.5,1.1,1,1.2,1.7c0.1,2.1,0.1,4.2,0.1,6.3c0,0.8,0,1.6,0,2.4v0.5l-4.5,0.2v-0.5
				c0-0.8,0-1.7,0-2.5C211.8,195.5,211.8,193.4,211.9,191.2z M205.1,191.3c0-0.7,0.6-1.1,1.2-1.6c0.2-0.2,0.4-0.4,0.6-0.5l0.3-0.4
				l0.4,0.4c0.2,0.2,0.4,0.4,0.6,0.5c0.6,0.5,1.1,1,1.2,1.6c0.1,2.2,0.1,4.3,0.1,6.5c0,0.8,0,1.6,0,2.4v0.5H205v-0.5
				c0-0.8,0-1.6,0-2.4C204.9,195.5,204.9,193.4,205.1,191.3z M198.2,191.3c0-0.7,0.6-1.2,1.1-1.7c0.2-0.2,0.4-0.4,0.6-0.6l0.4-0.4
				l0.4,0.4c0.2,0.2,0.4,0.4,0.6,0.6c0.5,0.5,1.1,1,1.1,1.7c0.1,2.1,0.1,4.2,0.1,6.3c0,0.8,0,1.6,0,2.5v0.4l-4.3,0.3v-0.5
				c0-0.9,0-1.8,0-2.6C198.1,195.5,198.1,193.4,198.2,191.3z M191.2,191.7c0.1-0.7,0.6-1.3,1.1-1.9c0.2-0.2,0.4-0.4,0.6-0.7l0.4-0.5
				l0.4,0.5c0.2,0.2,0.4,0.4,0.6,0.6c0.6,0.5,1.1,1.1,1.2,1.8c0.2,2,0.1,4,0.1,6.1c0,0.8,0,1.7,0,2.5v0.5h-3.7l-0.1-0.3
				c0-0.1-0.1-0.1-0.1-0.2c-0.1-0.2-0.3-0.5-0.3-0.8c0-0.5,0-1.1,0-1.6C191.1,195.8,191.1,193.7,191.2,191.7z"/>
		</g>
		<g>
			<path d="M274.1,213.9c0-0.9,0.3-1.7,0.6-2.6l0.1-0.2l0.2-0.1c1.1-0.5,1.9-1.6,1.9-2.9c0-0.8-0.3-1.6-0.9-2.2l-0.1-0.2
				c0,0-0.1-0.1-0.5-0.3c-0.6-0.3-1.1-0.5-1.6-0.5h-92.3c-1.7,0-3.1,1.4-3.1,3.1c0,1.6,1.3,3,2.9,3.1h0.3l0.1,0.3
				c0.1,0.3,0.1,0.6,0.1,0.8c-0.2,2.6,0,5.2,0.1,7.7c0.2,4.8,0.4,9.8-1.1,14.7H275c-0.1-0.7-0.2-1.3-0.3-1.9
				c-0.3-1.6-0.5-3.2-0.6-4.7C273.9,223.6,273.9,218.7,274.1,213.9z M190.2,233h-4.9v-18.5c0-1.4,1.1-2.5,2.5-2.5s2.5,1.1,2.5,2.5
				V233H190.2z M199.1,233h-4.9v-18.5c0-1.4,1.1-2.5,2.5-2.5s2.5,1.1,2.5,2.5V233H199.1z M207.9,233H203v-18.5
				c0-1.4,1.1-2.5,2.5-2.5s2.5,1.1,2.5,2.5V233H207.9z M216.8,233h-4.9v-18.5c0-1.4,1.1-2.5,2.5-2.5s2.5,1.1,2.5,2.5V233H216.8z
				 M225.6,233h-4.9v-18.5c0-1.4,1.1-2.5,2.5-2.5s2.5,1.1,2.5,2.5V233H225.6z M234.5,233h-4.9v-18.5c0-1.4,1.1-2.5,2.5-2.5
				s2.5,1.1,2.5,2.5V233H234.5z M243.3,233h-4.9v-18.5c0-1.4,1.1-2.5,2.5-2.5s2.5,1.1,2.5,2.5V233H243.3z M252.2,233h-4.9v-18.5
				c0-1.4,1.1-2.5,2.5-2.5s2.5,1.1,2.5,2.5V233H252.2z M261,233h-4.9v-18.5c0-1.4,1.1-2.5,2.5-2.5s2.5,1.1,2.5,2.5V233H261z
				 M269.9,233H265v-18.5c0-1.4,1.1-2.5,2.5-2.5s2.5,1.1,2.5,2.5V233H269.9z"/>
		</g>
	</g>
</g>
</svg>
