<?xml version="1.0" encoding="utf-8"?>
<!-- Generator: Adobe Illustrator 25.2.1, SVG Export Plug-In . SVG Version: 6.00 Build 0)  -->
<svg version="1.1" id="Capa_1" xmlns="http://www.w3.org/2000/svg" xmlns:xlink="http://www.w3.org/1999/xlink" x="0px" y="0px"
	 viewBox="0 0 450.7 450.7" style="enable-background:new 0 0 450.7 450.7;" xml:space="preserve">
<g>
	<g>
		<g>
			<path d="M302.5,166.9c-51.7,0-102.7,0-154.2,0c0.8-0.7,1.2-1,1.6-1.3c24.5-14.5,49.1-29,73.6-43.5c1.3-0.8,2.2-0.9,3.5-0.1
				c24.7,14.6,49.3,29.2,74,43.8C301.4,165.9,301.7,166.2,302.5,166.9z M225.3,158.3c6.8,0,12.1-5.2,12.1-11.9c0-6.7-5.3-12-12.1-12
				c-6.6,0-11.9,5.2-12,11.8C213.3,152.9,218.6,158.2,225.3,158.3z"/>
		</g>
		<g>
			<path d="M136.4,162.5c-0.8-2.4,0.8-3.8,3.1-5.1c28-16.7,56-33.5,84-50.4c1.3-0.8,2.3-0.9,3.7-0.1c28.3,17.1,56.7,34.1,85,51.1
				c0.8,0.5,2,1.3,2.1,2.1c0.3,2.1,0,4.2-0.1,6.3c0,0.2-0.5,0.5-0.7,0.5c-2.4-0.2-5.3,0.2-7.3-0.9c-26-15.2-51.8-30.5-77.6-45.9
				c-2.4-1.4-4.1-1.4-6.5,0c-25.7,15.4-51.5,30.7-77.4,45.8c-1.9,1.1-4.8,0.8-7.2,1c-0.3,0-0.9-0.8-1-1.3
				C136.3,164.7,136.4,163.8,136.4,162.5z"/>
		</g>
		<g>
			<path d="M120.3,286.7c0-2.2,0-4.3,0-6.6c70,0,140,0,210.2,0c0,2.1,0,4.3,0,6.6C260.4,286.7,190.4,286.7,120.3,286.7z"/>
		</g>
		<g>
			<path d="M225.6,169.3c25.9,0,51.7,0,77.6-0.1c2.3,0,3,0.6,3,3c-0.1,6,0,6-6,6c-50.6,0-101.2,0-151.8,0c-3.8,0-3.8,0-3.8-3.8
				c0-5.1,0-5.1,5.1-5.1C175,169.3,200.3,169.3,225.6,169.3z"/>
		</g>
		<g>
			<path d="M322.3,270.8c0,2.2,0,4.4,0,6.7c-64.6,0-129.1,0-193.8,0c0-2.2,0-4.3,0-6.7C193.1,270.8,257.6,270.8,322.3,270.8z"/>
		</g>
		<g>
			<path d="M314.3,261.4c0,2,0.1,3.8-0.1,5.7c0,0.4-0.7,1-1.2,1.1c-0.7,0.2-1.4,0.1-2.2,0.1c-57,0-114,0-171,0c-3.5,0-3.5,0-3.4-3.4
				c0-1.1,0.1-2.2,0.1-3.5C195.9,261.4,254.9,261.4,314.3,261.4z"/>
		</g>
		<g>
			<path d="M287.7,189.8c2.8,0,5.5,0,8.3,0c1.6,0,1.5,1.1,1.5,2.2c0.4,13,0.7,26.1,1.1,39.1c0.1,5.5,0.3,11,0.5,16.5
				c0.1,1.7-0.4,2.3-2.2,2.2c-2.8-0.1-5.7-0.2-8.5,0c-2.2,0.1-2.7-0.7-2.6-2.8c0.5-13.6,0.9-27.2,1.3-40.8c0.2-4.9,0.3-9.9,0.4-14.8
				C287.5,190.9,287.6,190.5,287.7,189.8z"/>
		</g>
		<g>
			<path d="M163.7,189.7c0,5.1-0.1,10,0,14.8c0.4,14.1,0.8,28.2,1.3,42.2c0.1,2.4-0.6,3.1-2.9,3c-2.7-0.2-5.3-0.1-8,0
				c-1.8,0.1-2.4-0.4-2.4-2.3c0.5-15.3,0.9-30.6,1.3-45.9c0.1-3.2,0.2-6.5,0.2-9.7c0-1.5,0.4-2.2,2.1-2.1
				C157.9,189.8,160.5,189.7,163.7,189.7z"/>
		</g>
		<g>
			<path d="M242.7,189.9c3.6,0,6.6,0,10.3,0c0,3.8-0.1,7.4,0,11c0.4,15.3,0.7,30.6,1.2,45.9c0.1,2.3-0.5,3.2-2.9,3
				c-3.2-0.2-6.5,0-10.2,0C241.7,229.7,242.2,209.9,242.7,189.9z"/>
		</g>
		<g>
			<path d="M209.6,249.7c-4.2,0-7.9,0-11.6,0c-1.7,0-1.5-1.2-1.4-2.2c0.2-7.9,0.4-15.9,0.6-23.8c0.3-10.6,0.6-21.2,0.9-31.8
				c0-1.7,0.5-2.3,2.2-2.2c2.5,0.1,5,0,7.8,0C208.6,209.8,209.1,229.6,209.6,249.7z"/>
		</g>
		<g>
			<path d="M158.3,259c-3.8,0-7.6,0.1-11.4-0.1c-0.7,0-1.4-0.8-2.1-1.2c0.7-0.4,1.3-1.1,2-1.1c7.7-0.1,15.4-0.1,23.1,0
				c0.7,0,1.4,0.8,2.1,1.2c-0.7,0.4-1.5,1-2.2,1.1C165.9,259.1,162.1,259,158.3,259z"/>
		</g>
		<g>
			<path d="M203,259c-3.9,0-7.8,0.1-11.6-0.1c-0.7,0-1.3-0.7-1.9-1.1c0.7-0.4,1.3-1.2,2-1.2c7.8-0.1,15.7-0.1,23.5,0
				c0.6,0,1.2,0.9,1.8,1.3c-0.6,0.3-1.2,1-1.8,1C210.9,259.1,207,259,203,259C203,259,203,259,203,259z"/>
		</g>
		<g>
			<path d="M247.6,259c-3.9,0-7.8,0-11.6,0c-0.6,0-1.2-0.6-1.8-1c0.6-0.5,1.2-1.3,1.8-1.4c7.9-0.1,15.9-0.1,23.8,0
				c0.6,0,1.2,0.7,1.7,1.1c-0.6,0.4-1.3,1.1-1.9,1.2C255.5,259.1,251.6,259,247.6,259C247.6,259,247.6,259,247.6,259z"/>
		</g>
		<g>
			<path d="M292.6,259c-4,0-7.9,0-11.9,0c-0.6,0-1.2-0.6-1.8-1c0.6-0.5,1.2-1.3,1.8-1.3c7.9-0.1,15.7-0.1,23.6,0
				c0.6,0,1.2,0.8,1.8,1.3c-0.6,0.4-1.2,1-1.8,1C300.3,259.1,296.4,259,292.6,259z"/>
		</g>
		<g>
			<path d="M167.9,182.7c-6,0-12.1,0-18.1-0.1c-0.5,0-0.9-0.7-1.4-1.1c0.5-0.3,1-1,1.5-1c5.6-0.1,11.1-0.1,16.7,0
				c0.6,0,1.2,0.8,1.9,1.2C168.3,182.1,168.1,182.4,167.9,182.7z"/>
		</g>
		<g>
			<path d="M282.8,182.7c-0.6-1.7-0.1-2.3,1.4-2.2c5.5,0.1,11,0,16.5,0.1c0.6,0,1.1,0.7,1.7,1.1c-0.4,0.4-0.8,1-1.2,1
				C295,182.7,288.9,182.7,282.8,182.7z"/>
		</g>
		<g>
			<path d="M192.4,254.1c2.3-3,19.1-2.9,21.1,0C206.5,254.1,199.6,254.1,192.4,254.1z"/>
		</g>
		<g>
			<path d="M258.2,254.2c-7.1,0-13.9,0-20.8,0c-0.1-0.3-0.2-0.5-0.3-0.8c1.1-0.4,2.2-1.2,3.4-1.3
				C253.9,251.3,256.6,251.6,258.2,254.2z"/>
		</g>
		<g>
			<path d="M168.6,254.2c-6.8,0-13.6,0-20.4,0c-0.1-0.2-0.2-0.5-0.3-0.7c1-0.5,2-1.4,3-1.4c5-0.1,10-0.1,15,0c1,0,2,0.9,3,1.3
				C168.8,253.7,168.7,253.9,168.6,254.2z"/>
		</g>
		<g>
			<path d="M282,254.1c2.1-2.9,18.8-2.9,20.9,0C295.9,254.1,289,254.1,282,254.1z"/>
		</g>
		<g>
			<path d="M212.6,182.7c-6,0-12.1,0-18.1,0c-0.4,0-0.8-0.7-1.3-1c0.5-0.4,0.9-1.1,1.4-1.1c5.7-0.1,11.3-0.1,17,0
				c0.6,0,1.1,0.9,1.7,1.3C213,182.2,212.8,182.4,212.6,182.7z"/>
		</g>
		<g>
			<path d="M237.6,181.8c0.6-0.4,1.2-1.2,1.9-1.2c5.5-0.1,11-0.1,16.5,0c0.5,0,1.1,0.7,1.6,1.1c-0.5,0.4-1,1-1.5,1
				c-6,0.1-11.9,0-17.9,0C238,182.4,237.8,182.1,237.6,181.8z"/>
		</g>
		<g>
			<path d="M166.4,185.3c-1.1,2.8-0.6,2.1-12.8,2.2c-2.2,0-2.4-0.2-3.3-2.2C155.7,185.3,161,185.3,166.4,185.3z"/>
		</g>
		<g>
			<path d="M300.6,185.3c-0.6,2-2,2.4-3.5,2.2c-4.2-0.5-8.9,1.4-12.8-1.2c0-0.3,0.1-0.6,0.1-0.9
				C289.8,185.3,295.1,185.3,300.6,185.3z"/>
		</g>
		<g>
			<path d="M211.2,185.3c-0.5,1.9-1.8,2.3-3.2,2.1c-4.3-0.5-8.9,1.3-13-1.2c0-0.3,0.1-0.6,0.1-0.9
				C200.3,185.3,205.6,185.3,211.2,185.3z"/>
		</g>
		<g>
			<path d="M255.8,186.2c-4,2.5-8.7,0.8-13,1.2c-2,0.2-2.2-0.1-3.2-2.1c5.4,0,10.7,0,16,0C255.7,185.6,255.7,185.9,255.8,186.2z"/>
		</g>
	</g>
	<g>
		<path d="M225.4,382.2c-86.5,0-156.9-70.4-156.9-156.9S138.9,68.5,225.4,68.5s156.9,70.4,156.9,156.9S311.9,382.2,225.4,382.2z
			 M225.4,78.5c-81,0-146.9,65.9-146.9,146.9c0,81,65.9,146.9,146.9,146.9s146.9-65.9,146.9-146.9
			C372.2,144.4,306.3,78.5,225.4,78.5z"/>
	</g>
	<g>
		<path d="M122.5,90.5l-2.5-0.2c-0.1,2-0.9,3.6-2.3,4.9c-1.9,1.6-4.6,1.9-8.1,1c-3.5-1-7.6-4.3-12.4-9.9c-3.7-4.3-5.9-8.4-6.7-12.3
			c-0.8-3.9-0.1-6.8,2.1-8.7c0.8-0.7,1.6-1.1,2.3-1.2c0.7-0.1,1.5-0.1,2.5,0c0.2-0.7,0.2-1.5,0.1-2.3l0.8-0.7l6.3,7.5l-0.8,0.7
			c-4.9-3.8-8.3-4.9-10.2-3.3c-1.1,1-0.7,2.6,1.4,5.1l17.3,20.4c1.1,1.3,2.1,2.1,3.1,2.5c1,0.4,1.8,0.3,2.4-0.2c1-0.9,1.4-2.3,1-4.2
			c-0.3-2-1.4-4.3-3.1-7l0.7-0.6l6.8,8.1L122.5,90.5z"/>
		<path d="M125,69.6l-3.7-5.6c-0.4-0.7-1-1-1.7-1.1c-0.7-0.1-1.5,0.1-2.2,0.6c-0.6,0.4-1.1,0.9-1.4,1.6c-0.4,0.6-0.4,1.1-0.2,1.4
			c0.2,0.2,0.6,0.4,1.3,0.4c1.5-0.1,2.7,0.4,3.4,1.5c0.5,0.8,0.7,1.7,0.4,2.6c-0.2,0.9-0.8,1.7-1.6,2.3c-1,0.7-2,0.9-3,0.7
			c-1-0.2-1.8-0.7-2.4-1.7c-1-1.5-1.1-3.3-0.4-5.2c0.7-2,2.2-3.7,4.3-5.1c2.2-1.5,4.4-2.1,6.5-1.7c2.1,0.3,3.8,1.4,5.1,3.4l8.7,13.2
			c0.4,0.6,0.8,0.8,1.1,0.6c0.5-0.3,0.2-1.2-0.8-2.7l0.9-0.6l0.6,0.9c0.6,0.9,0.8,1.9,0.6,2.9c-0.2,1-0.9,1.8-1.9,2.5
			c-2,1.3-3.9,1.3-5.7,0.1c0.1,1.2,0,2.3-0.4,3.1c-0.4,0.8-1.3,1.7-2.5,2.5c-1.7,1.1-3.4,1.6-4.9,1.4c-1.5-0.2-2.8-1.2-3.9-2.8
			c-1.5-2.3-1.1-5.1,1.2-8.3c1-1.6,1.7-2.7,2-3.3C124.4,72.2,124.7,71.1,125,69.6z M130.7,78.2l-4.8-7.2l-0.5,1.5
			c-0.5,1.4-0.8,2.5-0.7,3.2c0,0.8,0.4,1.7,1.2,2.9l2,3.1c1,1.5,2,2,3,1.3c0.6-0.4,0.8-1,0.8-1.9S131.3,79.2,130.7,78.2z"/>
		<path d="M139.6,49.9l1.2,2.5l0.1-0.1c-0.1-2.2,0.8-3.8,2.8-4.7c1.2-0.6,2.3-0.7,3.5-0.3c1.1,0.4,2,1.2,2.6,2.5
			c0.5,0.9,0.5,1.8,0.2,2.7c-0.3,0.9-0.9,1.6-1.8,2c-0.8,0.4-1.7,0.5-2.4,0.2c-0.8-0.3-1.4-0.9-1.8-1.7c-0.4-0.8-0.5-1.6-0.2-2.3
			c0.3-0.8,0.3-1.3,0.2-1.5c-0.1-0.2-0.4-0.3-0.8-0.1c-0.8,0.4-1.3,1.4-1.4,2.8c-0.1,1.5,0.2,3,1,4.5l7.8,15.8l2.6-1.3l0.5,0.9
			l-11,5.4l-0.5-0.9l2.2-1.1l-10.6-21.3l-2.2,1.1l-0.5-0.9L139.6,49.9z"/>
		<path d="M146.9,32.9l8.9-3.1l4.5,13c0.7-1.6,1.9-2.7,3.3-3.2c2.5-0.9,4.8-0.4,6.9,1.4c2.1,1.8,3.8,4.6,5.1,8.3
			c1.4,4,1.8,7.4,1.2,10.1s-2,4.5-4.4,5.3c-1.7,0.6-3.3,0.4-4.8-0.7l-0.1,0l0.6,1.7l-8.9,3.1l-0.3-1l2.4-0.8L149.5,33l-2.3,0.8
			L146.9,32.9z M161.1,45.1l5.1,14.7c0.5,1.4,1.1,2.4,1.8,3.1c0.7,0.7,1.4,0.9,2.2,0.6c0.7-0.3,1.1-0.9,1-1.9c0-1-0.4-2.6-1.2-4.7
			l-3.9-11.3c-1.1-3.1-2.2-4.4-3.4-4c-0.6,0.2-1,0.7-1.4,1.6S160.9,44.7,161.1,45.1z"/>
		<path d="M179.7,48.3c-0.7-3.6-0.3-6.9,1.2-9.8c1.5-2.9,3.8-4.6,6.7-5.2c2.9-0.6,5.6,0.2,8.2,2.3c2.5,2.1,4.2,4.9,4.9,8.4
			c0.8,3.9,0.4,7.4-1.1,10.3c-1.5,2.9-3.8,4.7-6.8,5.3c-3,0.6-5.8-0.1-8.3-2.2C182.1,55.2,180.5,52.2,179.7,48.3z M185.9,39.3
			L189,55c0.6,2.8,1.7,4,3.5,3.7c1.9-0.4,2.6-1.9,2.1-4.5l-3.1-15.5c-0.3-1.8-0.8-3-1.3-3.6c-0.6-0.6-1.4-0.8-2.4-0.6
			c-1,0.2-1.6,0.7-1.9,1.4S185.6,37.7,185.9,39.3z"/>
		<path d="M212.7,30.5l0.2,3.2c0.1-0.1,0.2-0.3,0.4-0.6c0.9-1.2,1.7-2.1,2.4-2.6c0.8-0.5,1.7-0.8,2.8-0.9c1.6-0.1,3,0.4,4.2,1.5
			c1.2,1.1,1.8,2.5,1.9,4.3l1,19.2l2.6-0.1l0.1,1l-11.2,0.6l-0.1-1l1.6-0.1l-1.1-20.7c-0.1-1.5-0.6-2.3-1.6-2.2
			c-0.9,0.1-1.7,0.8-2.2,2.4c-0.5,1.5-0.8,2.5-0.8,2.9l1,17.8l1.8-0.1l0.1,1l-11.3,0.6l-0.1-1l2.5-0.1l-1.3-23.8l-2.5,0.1l-0.1-1
			L212.7,30.5z"/>
		<path d="M256.9,58.7l-1.6-2c-1.6,1.3-3.3,1.8-5.2,1.5c-2.5-0.3-4.5-2.1-6.2-5.4c-1.6-3.3-1.9-8.5-0.9-15.8
			c0.8-5.6,2.3-10,4.7-13.3c2.4-3.2,5-4.6,7.9-4.2c1.1,0.1,1.9,0.4,2.5,0.9s1.1,1,1.7,1.9c0.6-0.3,1.2-0.8,1.8-1.5l1.1,0.1l-1.3,9.7
			l-1.1-0.1c-0.5-6.2-1.9-9.5-4.3-9.8c-1.5-0.2-2.4,1.3-2.8,4.4l-3.6,26.5c-0.2,1.7-0.2,3,0.2,4c0.3,1,0.9,1.5,1.8,1.7
			c1.3,0.2,2.6-0.5,3.8-2.1c1.2-1.6,2.3-3.9,3.2-7l1,0.1L258,58.9L256.9,58.7z"/>
		<path d="M274.6,36.4l-0.7,2.7l0.1,0c1.3-1.7,3-2.3,5.2-1.8c1.3,0.3,2.2,1,2.8,2c0.6,1,0.7,2.2,0.4,3.6c-0.3,1-0.8,1.7-1.6,2.2
			c-0.8,0.5-1.7,0.6-2.6,0.4c-0.9-0.2-1.6-0.7-2-1.4c-0.4-0.7-0.5-1.6-0.3-2.5c0.2-0.9,0.7-1.5,1.4-1.9c0.7-0.4,1.1-0.7,1.1-1
			c0.1-0.3-0.1-0.5-0.6-0.6c-0.9-0.2-1.9,0.2-2.9,1.2c-1,1.1-1.8,2.4-2.2,4.1l-4.3,17l2.8,0.7l-0.3,1l-11.9-3l0.3-1l2.3,0.6
			l5.9-23.1l-2.4-0.6l0.3-1L274.6,36.4z"/>
		<path d="M298.8,62.9l0.9,0.3c-2.7,5.4-6.5,7.2-11.5,5.2c-3.1-1.2-5.1-3.3-6.1-6.3c-1-3-0.7-6.4,0.8-10.2c1.4-3.6,3.5-6.2,6.3-7.8
			c2.8-1.6,5.5-1.9,8.3-0.8c6.2,2.4,7.5,7.9,3.9,16.6l-11.5-4.5l-2.2,5.7c-1.4,3.5-0.8,5.7,1.6,6.6C293,69.3,296.1,67.6,298.8,62.9z
			 M294.6,56.3l3.5-8.9c0.2-0.6,0.2-1.2,0-1.9c-0.2-0.7-0.6-1.1-1.1-1.3c-0.7-0.3-1.4-0.3-2,0.1c-0.6,0.3-1.1,0.9-1.4,1.8l-3.3,8.4
			L294.6,56.3z"/>
		<path d="M325.8,43.7l8.5,4.7l-18,32.5l2.2,1.2l-0.5,0.9l-8.2-4.6l0.9-1.6c-1.2,0.3-2.2,0.5-2.8,0.4s-1.3-0.3-2.1-0.7
			c-2.1-1.1-3.2-3.1-3.4-5.9c-0.2-2.8,0.7-5.8,2.5-9.1c2.1-3.9,4.5-6.5,7-7.9c2.5-1.4,4.9-1.5,7.2-0.2c1.4,0.8,2.2,2,2.6,3.6
			l6.2-11.2l-2.4-1.3L325.8,43.7z M312.1,73.9l8.2-14.8c0.1-1,0.1-1.8,0-2.3c-0.1-0.5-0.5-0.9-1-1.2c-1.2-0.6-2.4,0.2-3.7,2.5
			l-7.2,13c-0.6,1.1-1,2.1-1,3c0,0.9,0.3,1.4,0.9,1.8c0.6,0.3,1.2,0.3,1.9-0.1S311.6,74.8,312.1,73.9z"/>
		<path d="M333,62.4l7.8,5.5l-14.3,20.3l1.9,1.3l-0.6,0.8l-9.7-6.9l0.6-0.8l2.2,1.5l13.7-19.5l-2.1-1.5L333,62.4z M339.1,56.6
			c0.6-0.9,1.5-1.4,2.5-1.6c1.1-0.2,2,0,2.9,0.7c0.9,0.6,1.4,1.5,1.6,2.5c0.2,1.1,0,2-0.6,2.9c-0.6,0.9-1.5,1.4-2.5,1.6
			c-1.1,0.2-2,0-2.9-0.7c-0.9-0.6-1.4-1.5-1.6-2.5S338.5,57.5,339.1,56.6z"/>
		<path d="M352.2,67.6l5.4,4.5l-4.6,5.5l2.3,1.9l-0.7,0.8l-2.3-1.9L338,95.6c-0.5,0.6-0.5,1-0.1,1.3c0.8,0.6,2.2,0.1,4.3-1.6
			l0.7,0.6c-2.8,2.6-5.5,2.9-8.1,0.7c-1.3-1.1-2-2.2-2.3-3.3c-0.2-1.1,0.1-2.2,1-3.2L347,73.9l-2.3-2l0.7-0.8l2.3,2L352.2,67.6z"/>
	</g>
	<g>
		<path d="M183.1,385l12.7,2.4c3,0.6,5.2,1.9,6.7,3.9s2,4.5,1.5,7.3c-0.3,1.7-1,3.1-2.2,4.4c-1.1,1.2-2.6,2.1-4.3,2.6
			c-1.7,0.5-2.7,0.7-3,0.6l0,0.1c5.4,2,7.6,5.7,6.6,10.9c-0.6,3-1.9,5.2-3.9,6.6c-2.1,1.4-4.6,1.9-7.5,1.3l-13.7-2.6l0.2-1l2.8,0.5
			l6.6-35.6L183,386L183.1,385z M189.6,405.7l-3.3,17.7l2.5,0.5c1.8,0.3,3-0.7,3.4-3.1l1.9-10.3c0.5-2.5-0.2-3.9-2.1-4.3
			L189.6,405.7z M192.9,387.8l-3.1,16.8l2.2,0.4c1.9,0.3,3-0.4,3.4-2.4l1.9-10.3c0.2-1.3,0.2-2.3,0-2.9c-0.3-0.6-0.8-1-1.7-1.2
			L192.9,387.8z"/>
		<path d="M218.4,412.1l0.3-6.6c0-0.8-0.2-1.4-0.7-1.9c-0.5-0.5-1.2-0.8-2.1-0.8c-0.7,0-1.4,0.1-2.1,0.4c-0.7,0.3-1,0.6-1,1
			c0,0.3,0.3,0.7,0.8,1.1c1.3,0.8,1.9,1.9,1.8,3.2c0,1-0.4,1.8-1.2,2.4c-0.7,0.6-1.6,0.9-2.6,0.9c-1.2-0.1-2.1-0.4-2.8-1.2
			c-0.7-0.7-1-1.7-1-2.8c0.1-1.8,1-3.3,2.7-4.5c1.7-1.2,3.9-1.7,6.5-1.6c2.7,0.1,4.8,0.9,6.3,2.4c1.5,1.5,2.2,3.4,2.1,5.7l-0.7,15.8
			c0,0.7,0.2,1.1,0.6,1.1c0.5,0,0.9-0.8,0.9-2.6l1,0l0,1c-0.1,1.1-0.5,2-1.2,2.7c-0.8,0.6-1.7,0.9-3,0.9c-2.3-0.1-3.9-1.2-4.7-3.3
			c-0.6,1.1-1.4,1.8-2.2,2.2s-2,0.6-3.5,0.5c-2.1-0.1-3.7-0.7-4.8-1.8c-1.1-1.1-1.6-2.6-1.5-4.5c0.1-2.7,2.1-4.8,5.9-6
			c1.8-0.7,3-1.2,3.5-1.5C216.4,413.9,217.2,413.2,218.4,412.1z M217.9,422.4l0.4-8.6l-1.3,0.9c-1.2,0.8-2.1,1.5-2.5,2.2
			s-0.6,1.6-0.7,3l-0.2,3.7c-0.1,1.8,0.5,2.8,1.6,2.8c0.7,0,1.3-0.3,1.8-1.1C217.6,424.5,217.9,423.6,217.9,422.4z"/>
		<path d="M239.4,401.7l0.3,3.2c0.1-0.1,0.2-0.3,0.4-0.6c0.8-1.2,1.6-2.1,2.3-2.7c0.7-0.5,1.7-0.9,2.8-1c1.6-0.1,3.1,0.3,4.3,1.4
			c1.2,1.1,1.9,2.5,2.1,4.2l1.7,19.2l2.6-0.2l0.1,1l-11.2,1l-0.1-1l1.6-0.1l-1.9-20.6c-0.1-1.5-0.7-2.2-1.6-2.1
			c-0.9,0.1-1.6,0.9-2.1,2.5c-0.5,1.6-0.7,2.5-0.7,2.9l1.6,17.8l1.8-0.2l0.1,1l-11.2,1l-0.1-1l2.5-0.2l-2.1-23.7l-2.5,0.2l-0.1-1
			L239.4,401.7z"/>
		<path d="M252.6,388.2l9.2-2.2l8.6,36.1l2.3-0.6l0.2,1l-11.6,2.8l-0.2-1l2.5-0.6l-8.4-35.1l-2.5,0.6L252.6,388.2z M269.5,396.8
			l6.8-1.6l0.2,1l-0.9,0.2c-0.5,0.1-0.9,0.3-1.2,0.7s-0.6,0.9-1.1,1.8l-1.7,3.8l10.7,16.6l2-0.5l0.2,1l-10.3,2.5l-0.2-1l1.6-0.4
			l-7.7-12l4.1-9.5c0.2-0.6,0.3-1,0.2-1.4c-0.1-0.5-0.5-0.6-1.1-0.5l-1.4,0.3L269.5,396.8z"/>
	</g>
	<g>
		<path d="M225.4,450.7c-60.2,0-116.8-23.4-159.4-66C23.4,342.2,0,285.6,0,225.4S23.4,108.6,66,66c42.6-42.6,99.2-66,159.4-66
			s116.8,23.4,159.4,66c42.6,42.6,66,99.2,66,159.4s-23.4,116.8-66,159.4S285.6,450.7,225.4,450.7z M225.4,10
			C106.6,10,10,106.6,10,225.4s96.6,215.4,215.4,215.4s215.4-96.6,215.4-215.4S344.1,10,225.4,10z"/>
	</g>
	<g>
		<path d="M202.5,337c-1.9,2.4-3.9,4.2-5.9,5.3c-2,1.1-4.6,1.6-7.6,1.6c-5.3,0-9.6-1.6-13-4.9c-3.4-3.3-5.1-7.5-5.1-12.7
			c0-5.3,1.7-9.6,5-12.8c3.3-3.2,7.6-4.8,13-4.8c3.4,0,6.2,0.9,8.4,2.7l5.1-2.6v13.7h-1.2c0-2.4-0.6-4.5-1.8-6.4
			c-1.2-1.9-2.7-3.3-4.3-4.3c-1.7-1-3.3-1.5-5-1.5c-0.8,0-1.5,0.2-2,0.6c-0.5,0.4-0.9,0.9-1,1.5c-0.1,0.6-0.2,1.6-0.2,2.9V337
			c0,1.9,0.3,3.3,0.9,4.1s1.6,1.2,3,1.2c4,0,7.5-2,10.6-6.1L202.5,337z"/>
		<path d="M237.3,337c-1.9,2.4-3.9,4.2-5.9,5.3c-2,1.1-4.6,1.6-7.6,1.6c-5.3,0-9.6-1.6-13-4.9c-3.4-3.3-5.1-7.5-5.1-12.7
			c0-5.3,1.7-9.6,5-12.8c3.3-3.2,7.7-4.8,13-4.8c3.4,0,6.2,0.9,8.4,2.7l5.1-2.6v13.7h-1.2c0-2.4-0.6-4.5-1.8-6.4
			c-1.2-1.9-2.7-3.3-4.3-4.3c-1.7-1-3.3-1.5-5-1.5c-0.8,0-1.5,0.2-2,0.6c-0.5,0.4-0.9,0.9-1,1.5c-0.1,0.6-0.2,1.6-0.2,2.9V337
			c0,1.9,0.3,3.3,0.9,4.1c0.6,0.8,1.6,1.2,3,1.2c4,0,7.5-2,10.6-6.1L237.3,337z"/>
		<path d="M272.3,325.7c2.3,0.5,4,1.6,5.2,3.1c1.2,1.5,1.8,3.3,1.8,5.5c0,2.7-0.9,4.8-2.7,6.3c-1.8,1.5-4.7,2.3-8.6,2.3h-27.9v-1.2
			h4.2v-30.8h-4.2v-1.2h28.2c2.5,0,4.4,0.3,5.7,0.8s2.3,1.5,3.1,2.9c0.8,1.4,1.1,2.9,1.1,4.5C278.3,322.2,276.3,324.7,272.3,325.7
			L272.3,325.7z M264.1,322.1v-6.9c0-1.8-0.2-3-0.6-3.6c-0.4-0.6-1.3-0.8-2.6-0.8h-2.1v14.7h2.2c1.2,0,2.1-0.2,2.5-0.7
			S264.1,323.5,264.1,322.1z M264.1,338.7v-8.8c0-1.4-0.2-2.2-0.6-2.6c-0.4-0.4-1.3-0.6-2.7-0.6h-2v15h2.2c1.3,0,2.1-0.2,2.5-0.6
			C263.9,340.7,264.1,339.9,264.1,338.7z"/>
	</g>
	<g>
		<g>
			<path d="M425.2,216.9c0.2,0.2,0.4,0.3,0.7,0.1C425.6,216.8,425.4,216.8,425.2,216.9z"/>
		</g>
		<g>
			<path d="M424.9,218.5c0.2,0.1,0.4,0,0.5-0.3C425.1,218.1,424.9,218.2,424.9,218.5z"/>
		</g>
		<g>
			<path d="M424.6,213c-0.2-0.1-0.4,0-0.4,0.3C424.4,213.4,424.6,213.3,424.6,213z"/>
		</g>
		<g>
			<path d="M405.7,214.9c-0.2-0.2-0.3-0.2-0.5-0.1C405.4,215,405.6,215,405.7,214.9z"/>
		</g>
		<g>
			<path d="M422.8,215c0.2,0.1,0.4,0,0.5-0.2C423,214.6,422.9,214.7,422.8,215z"/>
		</g>
		<g>
			<polygon points="400.8,211.2 400.8,211.2 400.8,211.2 400.8,211.2 			"/>
		</g>
		<g>
			<path d="M419.2,207.4c-0.2-0.2-0.3-0.2-0.5,0C418.8,207.6,419,207.6,419.2,207.4z"/>
		</g>
		<g>
			<path d="M401.3,215.6c0.2,0.1,0.4,0.1,0.5-0.2C401.5,215.3,401.4,215.4,401.3,215.6z"/>
		</g>
		<g>
			<path d="M401.7,214.3C401.7,214.3,401.7,214.3,401.7,214.3c-0.2-0.2-0.3-0.2-0.5-0.1C401.3,214.4,401.5,214.5,401.7,214.3z"/>
		</g>
		<g>
			<path d="M422.8,214.3c-0.2,0.2-0.2,0.3-0.1,0.5C422.9,214.7,422.9,214.5,422.8,214.3z"/>
		</g>
		<g>
			<path d="M408.9,206.6c-0.1-0.2-0.2-0.3-0.5-0.2C408.5,206.7,408.7,206.8,408.9,206.6z"/>
		</g>
		<g>
			<path d="M425.9,218.2c0.1,0.2,0.2,0.3,0.4,0.2C426.2,218.2,426,218.1,425.9,218.2z"/>
		</g>
		<g>
			<path d="M425,217c0,0.2,0.1,0.4,0.3,0.4C425.4,217.2,425.3,217,425,217z"/>
		</g>
		<g>
			<path d="M404.9,215.9c0-0.2-0.2-0.3-0.4-0.3C404.6,215.8,404.7,215.9,404.9,215.9z"/>
		</g>
		<g>
			<path d="M425.3,216.4c-0.2,0.1-0.3,0.2-0.2,0.4C425.3,216.8,425.4,216.7,425.3,216.4z"/>
		</g>
		<g>
			<path d="M422.3,212.7c-0.1,0.2-0.1,0.4,0.1,0.5C422.6,213,422.5,212.9,422.3,212.7z"/>
		</g>
		<g>
			<path d="M425.9,218.1c0.2,0,0.4,0,0.4-0.2C426.1,217.8,426,217.9,425.9,218.1z"/>
		</g>
		<g>
			<path d="M404.8,216c-0.2-0.1-0.4,0-0.4,0.2C404.6,216.3,404.8,216.2,404.8,216z"/>
		</g>
		<g>
			<path d="M405.6,209.3C405.6,209.3,405.6,209.3,405.6,209.3C405.6,209.3,405.6,209.3,405.6,209.3
				C405.6,209.3,405.6,209.3,405.6,209.3c-0.2,0.1-0.2,0.2-0.2,0.3c0.2,0,0.3-0.1,0.3-0.3C405.6,209.3,405.6,209.3,405.6,209.3
				L405.6,209.3z"/>
		</g>
		<g>
			<path d="M417.8,206.4c-0.1,0.2-0.1,0.3,0.1,0.4C418,206.6,418,206.5,417.8,206.4z"/>
		</g>
		<g>
			<path d="M424.9,218.6c0,0.2,0.1,0.3,0.3,0.2C425.2,218.6,425.1,218.5,424.9,218.6z"/>
		</g>
		<g>
			<path d="M418.1,210.4c0-0.2,0-0.3-0.2-0.3C417.8,210.3,417.9,210.4,418.1,210.4z"/>
		</g>
		<g>
			<path d="M401.5,214.7c0.2-0.1,0.2-0.1,0.2-0.3C401.5,214.5,401.5,214.6,401.5,214.7z"/>
		</g>
		<g>
			<path d="M422.1,215.3c-0.1,0.2,0,0.3,0.1,0.3C422.3,215.5,422.3,215.4,422.1,215.3z"/>
		</g>
		<g>
			<path d="M424.1,213.4c0.1,0.2,0.2,0.2,0.4,0.1C424.4,213.4,424.3,213.3,424.1,213.4z"/>
		</g>
		<g>
			<path d="M405.8,215c-0.2,0.1-0.3,0.2-0.2,0.3C405.7,215.2,405.8,215.2,405.8,215z"/>
		</g>
		<g>
			<path d="M401.6,214c0,0.1,0.1,0.2,0.1,0.3c0,0,0.1,0,0.1,0.1C401.8,214.1,401.8,214,401.6,214z"/>
		</g>
		<g>
			<polygon points="401.7,214.3 401.7,214.3 401.7,214.3 401.7,214.3 			"/>
		</g>
		<g>
			<path d="M401.9,215.4c-0.1,0.1-0.1,0.2,0,0.4C402,215.7,402,215.5,401.9,215.4z"/>
		</g>
		<g>
			<path d="M424.8,219c0.1-0.1,0.1-0.2,0-0.4C424.7,218.7,424.7,218.8,424.8,219z"/>
		</g>
		<g>
			<path d="M421.5,215.6c0.2-0.1,0.2-0.2,0.1-0.3C421.5,215.3,421.5,215.4,421.5,215.6z"/>
		</g>
		<g>
			<path d="M423.1,212.3c0.2-0.1,0.2-0.2,0.1-0.3C423,212,423,212.1,423.1,212.3z"/>
		</g>
		<g>
			<path d="M401.6,215.1c0.1,0.2,0.2,0.2,0.4,0.1C401.9,215.1,401.8,215,401.6,215.1z"/>
		</g>
		<g>
			<path d="M407.4,211.1c0.1-0.2,0.1-0.3-0.1-0.4C407.2,210.9,407.2,211,407.4,211.1z"/>
		</g>
		<g>
			<path d="M421.9,215.7c0.1-0.2,0.1-0.3,0-0.4C421.8,215.5,421.8,215.5,421.9,215.7z"/>
		</g>
		<g>
			<path d="M424.1,213.3c0.1-0.2,0.1-0.3-0.1-0.4C423.9,213.1,424,213.2,424.1,213.3z"/>
		</g>
		<g>
			<path d="M405.9,214.9c0-0.2,0-0.3-0.2-0.3C405.6,214.7,405.7,214.8,405.9,214.9z"/>
		</g>
		<g>
			<path d="M418,206.8c0.2,0,0.2-0.1,0.2-0.3C418.1,206.6,418,206.7,418,206.8z"/>
		</g>
		<g>
			<path d="M422.8,212c0.2,0,0.3-0.1,0.2-0.3C422.8,211.8,422.8,211.9,422.8,212z"/>
		</g>
		<g>
			<path d="M422.4,214.7c0,0.2,0.1,0.3,0.3,0.2C422.6,214.8,422.5,214.7,422.4,214.7z"/>
		</g>
		<g>
			<path d="M424.5,216.3c-0.1,0.2-0.1,0.3,0.1,0.4C424.6,216.5,424.6,216.4,424.5,216.3z"/>
		</g>
		<g>
			<path d="M414.4,208.9c-0.1-0.1-0.2-0.2-0.4,0C414.1,209,414.2,209,414.4,208.9z"/>
		</g>
		<g>
			<path d="M424.1,216.4c0,0.2,0,0.3,0.2,0.3C424.4,216.5,424.3,216.4,424.1,216.4z"/>
		</g>
		<g>
			<path d="M424.8,216.7c0.1-0.1,0.2-0.2,0.1-0.4C424.7,216.5,424.7,216.6,424.8,216.7z"/>
		</g>
		<g>
			<path d="M407.7,211c0-0.2,0-0.3-0.2-0.3C407.5,210.9,407.5,210.9,407.7,211z"/>
		</g>
		<g>
			<path d="M413,206.9c-0.1,0.1-0.1,0.2,0,0.4C413.1,207.2,413.1,207,413,206.9z"/>
		</g>
		<g>
			<path d="M423.4,212c-0.1,0.1-0.1,0.2,0,0.4C423.5,212.2,423.5,212.1,423.4,212z"/>
		</g>
		<g>
			<path d="M425.8,218.1c0.1-0.1,0.1-0.2,0-0.4C425.7,217.9,425.7,218,425.8,218.1z"/>
		</g>
		<g>
			<path d="M406.9,207.2c0,0,0.1-0.1,0.1-0.1c0,0-0.1-0.1-0.1-0.1c0,0,0,0,0,0c0,0,0,0.1,0,0.1c-0.1,0-0.1,0-0.2,0
				C406.7,207.3,406.8,207.3,406.9,207.2z"/>
		</g>
		<g>
			<path d="M409.5,206.6c0-0.2-0.1-0.2-0.3-0.2C409.2,206.5,409.3,206.6,409.5,206.6z"/>
		</g>
		<g>
			<path d="M408,210.7c-0.1-0.2-0.1-0.2-0.3-0.2C407.7,210.7,407.8,210.8,408,210.7z"/>
		</g>
		<g>
			<path d="M404.9,216.4c0.2-0.1,0.2-0.2,0.1-0.4C404.9,216.1,404.8,216.2,404.9,216.4z"/>
		</g>
		<g>
			<path d="M411.8,206.1c0-0.2-0.1-0.2-0.3-0.2C411.5,206.1,411.6,206.1,411.8,206.1z"/>
		</g>
		<g>
			<path d="M422.8,212.9c-0.1,0-0.2,0.1-0.2,0.2C422.7,213.2,422.8,213.1,422.8,212.9z"/>
		</g>
		<g>
			<path d="M409.7,206.2c-0.1,0.1-0.1,0.2-0.1,0.3C409.7,206.4,409.8,206.4,409.7,206.2z"/>
		</g>
		<g>
			<path d="M411.8,209c0.2,0.1,0.3,0,0.3-0.1C412,208.8,411.9,208.8,411.8,209z"/>
		</g>
		<g>
			<path d="M411.4,209C411.3,209,411.3,209,411.4,209C411.3,209,411.3,209.1,411.4,209c-0.1,0.1-0.2,0-0.3,0c0,0,0,0,0,0.1
				c0.1,0,0.1,0.1,0.2,0.1c0,0,0.1,0,0.2,0C411.4,209.1,411.4,209,411.4,209z"/>
		</g>
		<g>
			<path d="M405.9,210.3c0.2,0,0.2,0,0.3-0.2C406,210.1,405.9,210.2,405.9,210.3z"/>
		</g>
		<g>
			<path d="M420.3,208.2L420.3,208.2C420.3,208.2,420.3,208.2,420.3,208.2C420.3,208.2,420.3,208.2,420.3,208.2
				c-0.1,0-0.2-0.1-0.4,0c0.1,0,0.2,0.1,0.3,0.1C420.2,208.3,420.3,208.2,420.3,208.2z"/>
		</g>
		<g>
			<path d="M422.7,215.1c0,0.2,0.1,0.2,0.3,0.2C422.9,215.1,422.9,215,422.7,215.1z"/>
		</g>
		<g>
			<path d="M407.8,207.2c-0.1-0.2-0.2-0.2-0.3-0.1C407.6,207.2,407.6,207.2,407.8,207.2z"/>
		</g>
		<g>
			<path d="M412.2,210.8c-0.1-0.2-0.2-0.2-0.3-0.1C412,210.8,412.1,210.8,412.2,210.8z"/>
		</g>
		<g>
			<path d="M419.2,207.3c0.1-0.1,0-0.2-0.1-0.3C419,207.2,419,207.3,419.2,207.3z"/>
		</g>
		<g>
			<path d="M425.8,218.5c0.1-0.1,0.1-0.2,0-0.3C425.6,218.3,425.6,218.4,425.8,218.5z"/>
		</g>
		<g>
			<path d="M405.1,215.6c-0.1,0.1-0.1,0.2,0,0.3C405.2,215.8,405.2,215.7,405.1,215.6z"/>
		</g>
		<g>
			<path d="M423.9,211.3c0,0.2,0.1,0.2,0.2,0.2C424.1,211.3,424,211.3,423.9,211.3z"/>
		</g>
		<g>
			<path d="M417.7,211.1C417.7,211.1,417.7,211.1,417.7,211.1c0-0.2-0.1-0.2-0.3-0.1C417.5,211.1,417.6,211.1,417.7,211.1z"/>
		</g>
		<g>
			<path d="M422.5,213.3c0.1,0.1,0.2,0.2,0.3,0.1C422.7,213.2,422.7,213.2,422.5,213.3z"/>
		</g>
		<g>
			<path d="M408.9,206.6c0.1-0.1,0.1-0.2,0-0.3C408.8,206.4,408.8,206.5,408.9,206.6z"/>
		</g>
		<g>
			<path d="M418.2,210.1c-0.1,0.1-0.1,0.2,0,0.3C418.3,210.3,418.3,210.3,418.2,210.1z"/>
		</g>
		<g>
			<path d="M418.1,210.5c-0.1-0.1-0.2,0-0.3,0.1C417.9,210.6,418,210.6,418.1,210.5z"/>
		</g>
		<g>
			<path d="M411.3,210.6c0.1,0.1,0.2,0.1,0.3,0.1C411.5,210.6,411.4,210.5,411.3,210.6z"/>
		</g>
		<g>
			<path d="M405.3,209.2c0.1,0.1,0.2,0.1,0.3,0.1c0,0,0-0.1,0-0.1C405.5,209.1,405.4,209.1,405.3,209.2z"/>
		</g>
		<g>
			<path d="M416.1,209.3c0-0.1,0-0.2-0.2-0.1C416,209.2,416,209.2,416.1,209.3c-0.1,0-0.2,0-0.2,0.1
				C416,209.4,416.1,209.4,416.1,209.3z"/>
		</g>
		<g>
			<path d="M406.2,210.1c-0.1-0.1-0.1-0.2-0.3-0.1C406,210.1,406,210.1,406.2,210.1z"/>
		</g>
		<g>
			<path d="M413.6,208.9c0.1-0.1,0-0.2-0.1-0.3C413.4,208.8,413.5,208.8,413.6,208.9z"/>
		</g>
		<g>
			<path d="M407.8,206.8c0,0.1,0,0.2,0.1,0.3C407.9,207,407.9,206.9,407.8,206.8z"/>
		</g>
		<g>
			<path d="M418.6,210.8c0.1,0.1,0.2,0.1,0.3,0C418.8,210.7,418.7,210.7,418.6,210.8z"/>
		</g>
		<g>
			<path d="M405.6,208.9c-0.1,0.1,0,0.2,0.1,0.3C405.7,209.1,405.7,209,405.6,208.9z"/>
		</g>
		<g>
			<path d="M412.3,210.7c0.1-0.1,0.1-0.2-0.1-0.3C412.2,210.6,412.2,210.6,412.3,210.7z"/>
		</g>
		<g>
			<path d="M405.8,215.3c0,0.1,0.1,0.2,0.2,0.1C405.9,215.3,405.9,215.3,405.8,215.3z"/>
		</g>
		<g>
			<path d="M410.6,205.7c-0.1,0-0.2,0-0.3,0c0,0,0,0,0,0C410.5,205.8,410.5,205.8,410.6,205.7z"/>
		</g>
		<g>
			<path d="M405.7,215.7c0.1,0,0.2,0,0.2-0.1C405.8,215.5,405.8,215.5,405.7,215.7z"/>
		</g>
		<g>
			<path d="M410.9,205.7C410.9,205.6,410.9,205.6,410.9,205.7c-0.1,0-0.2,0-0.2,0C410.8,205.8,410.9,205.7,410.9,205.7z"/>
		</g>
		<g>
			<path d="M414.4,208.8C414.4,208.8,414.4,208.8,414.4,208.8c0-0.1,0-0.2,0-0.2C414.3,208.7,414.3,208.8,414.4,208.8z"/>
		</g>
		<g>
			<path d="M412.1,208.8c0-0.1-0.1-0.2-0.2-0.1C411.9,208.7,412,208.8,412.1,208.8C412.1,208.8,412.1,208.8,412.1,208.8z"/>
		</g>
		<g>
			<path d="M411.9,205.8C411.9,205.8,411.8,205.8,411.9,205.8c-0.1,0.1-0.1,0.1-0.1,0.2c0,0,0,0,0.1,0
				C411.9,206,411.9,205.9,411.9,205.8z"/>
		</g>
		<g>
			<path d="M410.8,209.5C410.8,209.5,410.8,209.6,410.8,209.5c0.1,0.1,0.2,0.1,0.2,0.1c0,0,0-0.1,0-0.1
				C411,209.5,410.9,209.5,410.8,209.5z"/>
		</g>
		<g>
			<path d="M413.3,207.2C413.3,207.2,413.3,207.2,413.3,207.2c-0.1-0.1-0.2,0-0.2,0.1C413.2,207.3,413.2,207.3,413.3,207.2z"/>
		</g>
		<g>
			<path d="M415.2,211.3c0.1,0,0.1,0,0.2,0c0,0,0,0,0-0.1C415.4,211.3,415.3,211.3,415.2,211.3C415.2,211.3,415.2,211.3,415.2,211.3
				z"/>
		</g>
		<g>
			<path d="M414.3,210.9c0-0.1,0-0.2-0.1-0.2C414.2,210.8,414.2,210.8,414.3,210.9C414.3,210.9,414.3,210.9,414.3,210.9z"/>
		</g>
		<g>
			<path d="M420.2,207.9c-0.1,0.1,0,0.2,0.1,0.2C420.3,208.1,420.3,208,420.2,207.9z"/>
		</g>
		<g>
			<path d="M417.7,210.7c0,0.1,0,0.2,0,0.3C417.8,210.9,417.8,210.9,417.7,210.7z"/>
		</g>
		<g>
			<polygon points="417.7,211 417.7,211 417.7,211 417.7,211 417.7,211 			"/>
		</g>
		<g>
			<path d="M408.5,207.2c-0.1,0-0.1,0.1-0.2,0.1c0,0,0,0,0,0C408.5,207.4,408.5,207.4,408.5,207.2z"/>
		</g>
		<g>
			<path d="M418.6,208.7C418.6,208.8,418.6,208.8,418.6,208.7c0.1,0,0.1,0,0.2-0.1c0,0,0,0,0-0.1
				C418.7,208.6,418.7,208.6,418.6,208.7c0.1-0.2,0.1-0.3,0-0.4c0,0.1,0,0.2-0.1,0.3C418.6,208.6,418.6,208.7,418.6,208.7
				C418.6,208.7,418.6,208.7,418.6,208.7z"/>
		</g>
		<g>
			<path d="M412.1,208.8C412.1,208.8,412.2,208.8,412.1,208.8c0.1-0.1,0.1-0.1,0.1-0.2c0,0,0,0-0.1,0
				C412.1,208.6,412.1,208.7,412.1,208.8z"/>
		</g>
		<g>
			<path d="M415.4,211.1C415.3,211,415.3,211,415.4,211.1c-0.1,0-0.1,0.1-0.2,0.1c0,0,0,0,0.1,0
				C415.3,211.2,415.3,211.1,415.4,211.1z"/>
		</g>
		<g>
			<path d="M418.5,208.6c-0.1,0-0.1,0-0.2-0.1c0,0,0,0,0,0.1C418.4,208.6,418.4,208.7,418.5,208.6
				C418.5,208.7,418.5,208.6,418.5,208.6z"/>
		</g>
		<g>
			<polygon points="418.5,208.6 418.5,208.6 418.5,208.6 418.5,208.6 418.5,208.6 			"/>
		</g>
		<g>
			<path d="M420.5,208.1C420.5,208.1,420.5,208,420.5,208.1c-0.1,0-0.1,0.1-0.2,0.1c0,0,0,0,0.1,0.1
				C420.4,208.2,420.5,208.1,420.5,208.1z"/>
		</g>
		<g>
			<path d="M417.8,211C417.8,211,417.8,211.1,417.8,211c0.1,0,0.1,0,0.2-0.1c0,0,0,0,0-0.1C417.9,210.9,417.8,211,417.8,211z"/>
		</g>
		<g>
			<path d="M426.4,213.4c0-0.1-0.1-0.2-0.1-0.2c-0.4-0.9-0.9-1.8-1.5-2.7c0,0,0-0.1-0.1-0.1c-0.2-0.2-0.3-0.5-0.5-0.7
				c0,0-0.1-0.1-0.1-0.1c0,0,0,0-0.1-0.1c0,0-0.1-0.1-0.1-0.1c-0.2-0.2-0.4-0.4-0.6-0.6c0,0,0,0,0,0c-0.2-0.2-0.4-0.4-0.6-0.5
				c0,0,0,0,0,0c-0.2-0.1-0.3-0.3-0.5-0.4c0,0,0,0,0,0c-0.3-0.3-0.7-0.5-1-0.8c0,0-0.1,0-0.1-0.1c0,0,0,0,0,0
				c-0.1,0-0.1-0.1-0.2-0.1c-0.2-0.1-0.4-0.3-0.6-0.4c-0.1-0.1-0.2-0.1-0.3-0.2c-0.2-0.1-0.5-0.3-0.7-0.4c0,0-0.1,0-0.1,0
				c-0.6-0.3-1.2-0.5-1.9-0.7c0,0-0.1,0-0.1,0c-0.2,0-0.3-0.1-0.5-0.1c0,0-0.1,0-0.1,0c0,0-0.1,0-0.1,0c0,0-0.1,0-0.2,0
				c-0.5-0.1-1-0.2-1.5-0.3c-0.1,0-0.1,0-0.2,0c-0.5-0.1-1-0.1-1.4-0.1c-0.1,0-0.1,0-0.2,0c0,0,0,0,0,0c-0.1,0-0.3,0-0.4,0
				c0,0-0.1,0-0.1,0c-0.5,0-0.9,0.1-1.4,0.1c0,0-0.1,0-0.1,0c-0.2,0-0.5,0.1-0.7,0.1c-0.1,0-0.1,0-0.2,0c-1.7,0.3-3.2,1-4.6,1.8
				c0,0-0.1,0-0.1,0c-0.1,0-0.1,0.1-0.2,0.1c0,0,0,0,0,0c-0.1,0.1-0.2,0.1-0.3,0.2c-0.1,0-0.1,0.1-0.2,0.1c-0.1,0.1-0.3,0.2-0.4,0.3
				c0,0,0,0-0.1,0.1c-0.1,0.1-0.2,0.1-0.2,0.2c0,0,0,0,0,0c-0.3,0.2-0.6,0.5-0.8,0.7c0,0,0,0-0.1,0.1c0,0-0.1,0.1-0.1,0.1
				c-0.1,0.1-0.2,0.2-0.3,0.3c-0.1,0.1-0.2,0.2-0.3,0.3c0,0,0,0,0,0c0,0-0.1,0.1-0.1,0.2c-0.1,0.1-0.1,0.1-0.2,0.2
				c-0.4,0.5-0.8,1-1.2,1.6c0,0.1-0.1,0.1-0.1,0.2c0,0,0,0,0,0c0,0-0.1,0.1-0.1,0.1c-0.1,0.2-0.2,0.4-0.4,0.6c0,0,0,0,0,0
				c0,0.1-0.1,0.1-0.1,0.2c0,0.1-0.1,0.2-0.1,0.3c-0.1,0.3-0.3,0.6-0.4,0.9c0,0,0,0,0,0c0,0,0,0,0,0c0,0.1-0.1,0.2-0.1,0.3
				c0,0,0,0-0.1,0.1c0,0,0,0,0,0c-0.6,1.6-0.9,3.3-0.9,5.1c0,2.8,0.8,5.4,2.2,7.6c0,0,0,0.1,0.1,0.1c0.1,0.1,0.1,0.2,0.2,0.3
				c0,0,0.1,0.1,0.1,0.1c0,0,0,0,0,0c0,0,0,0.1,0.1,0.1c0.2,0.3,0.4,0.5,0.6,0.7c0,0,0,0.1,0.1,0.1c0.2,0.3,0.5,0.6,0.8,0.9
				c0,0,0.1,0.1,0.1,0.1c0.1,0.1,0.1,0.1,0.2,0.2c0,0,0.1,0.1,0.1,0.1c0.1,0.1,0.2,0.2,0.3,0.3c0,0,0.1,0,0.1,0.1
				c0.6,0.6,1.3,1.1,2.1,1.6c0,0,0,0,0,0c0,0,0.1,0,0.1,0.1c0,0,0.1,0,0.1,0.1c0.2,0.1,0.5,0.3,0.7,0.4c0.1,0.1,0.3,0.1,0.4,0.2
				c0.4,0.2,0.9,0.4,1.3,0.6c0,0,0.1,0,0.1,0c0.1,0.1,0.3,0.1,0.4,0.1c0,0,0.1,0,0.1,0c0.4,0.1,0.8,0.2,1.2,0.3c0,0,0,0,0,0
				c0.2,0,0.4,0.1,0.6,0.1c0,0,0,0,0.1,0c0.5,0.1,1.1,0.2,1.6,0.2c0,0,0,0,0,0c0.2,0,0.5,0,0.7,0c0.2,0,0.3,0,0.5,0c0,0,0,0,0,0
				c0,0,0,0,0,0c0.1,0,0.3,0,0.4,0c0,0,0.1,0,0.1,0c0.1,0,0.2,0,0.4,0c0.1,0,0.1,0,0.2,0c0,0,0,0,0,0c0.1,0,0.1,0,0.2,0
				c0.5-0.1,1-0.2,1.5-0.3c0,0,0,0,0,0c0.5-0.1,0.9-0.2,1.4-0.4c0,0,0,0,0,0c0,0,0.1,0,0.1,0c0,0,0,0,0.1,0c0.5-0.2,1-0.4,1.4-0.6
				c0,0,0.1,0,0.1,0c0.3-0.1,0.6-0.3,0.8-0.5c0,0,0.1,0,0.1-0.1c0.9-0.6,1.8-1.3,2.6-2c0,0,0.1-0.1,0.1-0.1c0.1-0.1,0.2-0.2,0.2-0.3
				c0,0,0,0,0,0c0,0,0,0,0-0.1c0,0,0,0,0,0c0.1-0.1,0.2-0.3,0.3-0.4c0,0,0.1-0.1,0.1-0.1c0,0,0,0,0.1-0.1c0,0,0.1-0.1,0.1-0.1
				c0.1-0.2,0.3-0.3,0.4-0.5c0-0.1,0.1-0.1,0.1-0.2c1.7-2.4,2.8-5.3,2.8-8.4C427.4,216.9,427.1,215.1,426.4,213.4z M425.5,213.8
				c-0.5,0.1-0.9,0.2-1.5,0.3c0.2-0.2,0.3-0.3,0.5-0.5c0,0-0.1,0-0.1,0.1c-0.4,0.3-0.6,0.6-0.7,1.1c-0.1,0.3-0.2,0.5-0.5,0.6
				c-0.1,0.1-0.2,0.2-0.4,0.2c0,0-0.1,0.1-0.1,0.1c-0.2,0.1-0.5,0.2-0.7,0.3c-0.4,0.2-0.9,0.5-1.3,0.7c-0.3,0.2-0.5,0.1-0.7-0.1
				c-0.2-0.1-0.3-0.2-0.5-0.3c-0.3-0.1-0.6-0.2-1-0.4c0,0,0,0,0,0c0.3-0.5,0.7-0.8,1.3-0.7c0.2,0,0.4,0,0.6,0c0.2,0,0.3,0,0.5,0
				c0.3,0,0.6,0.1,1,0.1c0.2,0,0.4,0,0.5,0c-0.2,0-0.5,0-0.7-0.1c-0.2,0-0.5-0.1-0.8-0.1c0.1,0,0.1,0,0.1-0.1c0.3-0.2,0.7-0.4,1-0.6
				c0.2-0.1,0.3-0.3,0.5-0.4c0.4-0.3,0.9-0.4,1.4-0.5c-0.2,0-0.4,0-0.6,0.1c-0.5,0.1-0.9,0.4-1.3,0.6c-0.1,0.1-0.2,0.1-0.3,0.2
				c0.1-0.4,0.3-0.6,0.5-0.9c-0.3,0.2-0.6,0.5-0.6,0.9c0,0-0.1,0.1-0.1,0.1c-0.1,0.1-0.3,0.1-0.5,0.2c-0.4,0.2-0.8,0.2-1.2,0.2
				c-0.1,0-0.2,0-0.3,0c-0.4,0-0.7,0.1-1,0.4c-0.1,0.2-0.3,0.3-0.4,0.5c-0.1,0.1-0.1,0.1-0.2,0.1c-0.6-0.1-1.2-0.1-1.8,0.1
				c-0.4,0.1-0.7,0.3-1,0.5c0.2-0.2,0.4-0.4,0.6-0.5c0.4-0.2,0.9-0.4,1.3-0.7c0.3-0.2,0.6-0.4,0.9-0.6c0.2-0.2,0.4-0.4,0.6-0.7
				c0.2-0.2,0.4-0.3,0.7-0.3c0.1,0,0.3,0,0.4,0c0.2,0,0.4,0,0.7,0c0.4,0,0.6-0.2,0.7-0.6c0.1-0.4,0.1-0.8,0.1-1.1
				c0-0.3,0-0.6,0.1-0.9c0-0.1,0.1-0.2,0.2-0.3c0.2-0.1,0.4-0.1,0.6-0.1c0.1,0,0.2,0.1,0.2,0.1c0.1,0.2,0.2,0.4,0.4,0.5
				c0.2,0.2,0.5,0.4,0.7,0.5c-0.4-0.3-0.8-0.6-1-1.1c0.2,0.1,0.4,0.2,0.6,0.3c0.2,0.1,0.4,0.1,0.7,0.2c0,0,0,0,0,0c0,0-0.1,0-0.1,0
				c-0.3-0.1-0.7-0.2-0.9-0.5c-0.2-0.2-0.4-0.2-0.7-0.3c-0.2,0-0.4,0-0.5,0c0.1-0.2,0.3-0.3,0.5-0.4c0.1-0.1,0.2-0.1,0.3,0
				c0.4,0.2,0.7,0.2,1.1,0.1c0.3,0.3,0.5,0.7,0.8,1c0,0-0.1,0.1-0.1,0.1c0.1,0.1,0.2,0.1,0.2,0C424.6,212,425.1,212.9,425.5,213.8z
				 M416.8,212.9c0-0.2-0.1-0.4-0.2-0.6c-0.1-0.3-0.2-0.5-0.1-0.8c0-0.3,0.2-0.5,0.4-0.8c0.2-0.2,0.3-0.3,0.4-0.6
				c0.1-0.3,0.3-0.5,0.5-0.6c0.2-0.1,0.4-0.3,0.5-0.4c-0.2,0.2-0.5,0.3-0.8,0.5c0,0,0,0,0,0c0,0,0.1-0.1,0.1-0.1
				c0.2-0.2,0.3-0.5,0.1-0.7c-0.1-0.2-0.1-0.5,0-0.7c0.1-0.2,0.2-0.4,0.4-0.6c0,0,0,0,0-0.1c0,0,0,0,0,0c-0.1,0.2-0.2,0.3-0.4,0.5
				c0-0.1-0.1-0.3-0.1-0.4c0-0.1,0.1-0.2,0.1-0.4c-0.1,0.1-0.2,0.2-0.2,0.4c0,0.1,0,0.3,0,0.4c0,0,0,0.1,0,0.1
				c-0.2,0.3-0.2,0.6-0.1,0.9c0.1,0.2,0,0.3-0.2,0.5c-0.1-0.4-0.4-0.6-0.7-0.8c-0.2-0.2-0.5-0.3-0.7-0.5c-0.3-0.2-0.5-0.4-0.7-0.7
				c-0.1-0.2-0.1-0.5,0-0.7c0.1,0,0.2,0,0.2,0.1c0.6,0.2,1.2,0.2,1.7-0.2c0.1-0.1,0.3-0.2,0.5-0.2c0.1,0,0.1,0,0.2,0
				c1.1,0.4,2.2,1,3.1,1.7c0,0.1,0,0.1,0,0.2c-0.1,0.7-0.3,1.5-0.5,2.2c0,0,0,0,0,0c-0.2-0.3-0.6-0.4-0.8-0.7
				c0.4-0.2,0.8-0.8,0.7-1.1c-0.1,0.4-0.3,0.7-0.6,0.9c0,0-0.1,0-0.1,0.1c0-0.1-0.1-0.1-0.1-0.2c0-0.2,0-0.4,0.1-0.5
				c0.1-0.3,0.1-0.6,0.2-0.9c0-0.2-0.1-0.4-0.3-0.5c0.1,0.1,0.2,0.3,0.2,0.5c-0.1,0.4-0.2,0.8-0.3,1.2c-0.4-0.3-0.5-0.7-0.6-1
				c0,0.1,0,0.2,0.1,0.3c0.1,0.3,0.2,0.7,0.5,0.9c0,0,0,0.1,0,0.1c0,0.2,0,0.4,0.2,0.6c0.1,0.2,0.3,0.3,0.5,0.5
				c0.2,0.1,0.3,0.3,0.3,0.5c0.2,0.6,0.2,1.2,0,1.9c-0.1,0.2-0.2,0.3-0.4,0.3c-0.2,0-0.3-0.1-0.5-0.1c-0.3,0-0.6,0-0.9,0
				c0,0,0.1-0.1,0.1-0.2c0.2-0.2,0.3-0.3,0.5-0.5c0.2-0.2,0.3-0.4,0.4-0.7c0-0.2,0-0.4-0.2-0.6c0.1,0.2,0.1,0.3,0.1,0.5
				c0,0.3-0.4,0.8-0.7,0.9c0.1-0.9,0-1.5-0.4-1.8c0.3,0.6,0.4,1.3,0.2,1.7c-0.1-0.1-0.1-0.2-0.2-0.3c-0.2-0.2-0.4-0.4-0.5-0.7
				c0,0.1,0,0.2,0.1,0.3c0.1,0.2,0.2,0.3,0.4,0.5c0.1,0.2,0.2,0.4,0.1,0.6c-0.1,0.2-0.2,0.3-0.3,0.4c-0.2,0.2-0.4,0.4-0.7,0.6
				c-0.3,0.3-0.6,0.5-0.9,0.6c-0.5,0.2-1,0.4-1.6,0.6c0.1-0.2,0.2-0.5,0.3-0.7c0.1-0.2,0.3-0.3,0.5-0.3c0.1,0,0.2,0,0.3-0.1
				C416.6,213.9,416.9,213.5,416.8,212.9z M417.8,206.3C417.8,206.3,417.8,206.3,417.8,206.3c-0.3,0.1-0.5,0.2-0.7,0.3
				c-0.1,0-0.2,0.1-0.3,0.1c0.1-0.3,0.2-0.5,0.4-0.6C417.4,206.1,417.6,206.2,417.8,206.3z M422.4,209.3c0.2,0.2,0.4,0.4,0.6,0.6
				c-0.3,0-0.5,0-0.8-0.1C422.3,209.6,422.4,209.4,422.4,209.3C422.4,209.3,422.4,209.3,422.4,209.3z M422.3,209.2
				c0,0.2-0.1,0.3-0.3,0.4c-0.1,0.1-0.2,0.1-0.3,0.2c-0.3,0.2-0.6,0.3-0.8,0.6c0,0,0,0,0-0.1c0,0,0-0.1,0-0.1c0.2-0.7,0.3-1.3,0.3-2
				C421.6,208.5,422,208.8,422.3,209.2z M416.6,206.6c0,0.1-0.1,0.1-0.2,0.1c-0.4,0-0.8-0.1-1.1-0.3c0.1-0.3,0.3-0.5,0.5-0.7
				c0.4,0.1,0.9,0.2,1.3,0.3C416.9,206.2,416.7,206.4,416.6,206.6z M415.7,205.7c-0.2,0.2-0.4,0.4-0.5,0.7c-0.3,0.6-0.2,1.2,0.2,1.7
				c0,0,0.1,0.1,0.1,0.1c-0.4,0-0.7-0.1-1-0.3c-0.4-0.3-0.5-0.6-0.5-1.1c0-0.4,0.1-0.9,0.3-1.3C414.8,205.5,415.2,205.6,415.7,205.7
				z M414.2,205.5c-0.2,0.3-0.2,0.7-0.3,1c-0.3-0.3-0.3-0.7-0.2-1c-0.2,0.3-0.2,0.7,0,1c0,0,0.1,0.1,0.1,0.1c0,0.1,0,0.2,0,0.2
				c-0.1,0-0.1,0-0.1,0c0,0-0.1,0-0.1,0c-0.3-0.1-0.5-0.3-0.6-0.7c-0.1-0.2-0.1-0.5-0.2-0.7c0.1,0,0.1,0,0.2,0
				C413.4,205.4,413.8,205.4,414.2,205.5z M410.7,205.6C410.7,205.6,410.7,205.6,410.7,205.6C410.7,205.6,410.7,205.6,410.7,205.6
				c0.6-0.1,1.3-0.2,2-0.2c0.1,0.4,0.1,0.7,0.3,1c0.2,0.4,0.5,0.6,0.9,0.7c0,0,0.1,0.1,0.1,0.1c0.2,0.5,0.5,0.9,1,1.1
				c0.3,0.1,0.6,0.1,0.9,0.2c0.1,0,0.2,0,0.2,0.1c0.2,0.1,0.4,0.3,0.5,0.4c0.1,0.1,0.2,0.2,0.3,0.4c0.1,0.1,0.1,0.2,0.1,0.3
				c0,0,0,0,0,0c-0.1-0.1-0.1-0.1-0.2-0.2c0.2,0.3,0.2,0.5,0,0.8c-0.1,0.1-0.3,0.2-0.4,0.4c-0.2-0.3-0.4-0.5-0.8-0.6
				c-0.3-0.1-0.5-0.2-0.6-0.5c0-0.1-0.1-0.2-0.2-0.3c0,0,0,0,0,0c0.1,0.2,0.2,0.5,0.3,0.7c-0.6,0-0.8-0.4-1.2-0.7
				c0.1,0.2,0.3,0.3,0.4,0.5c-0.5,0.1-0.7-0.3-1-0.7c0.1,0,0.1,0,0.1,0c-0.1-0.2-0.1-0.2-0.3-0.1c0.1,0.2,0.3,0.4,0.4,0.6
				c0.1,0.2,0.4,0.3,0.6,0.4c0.1,0,0.3,0,0.4,0.1c0.2,0.1,0.5,0.2,0.7,0.2c0.1,0,0.3,0.1,0.4,0.1c0.1,0.1,0.3,0.2,0.4,0.3
				c0,0.1,0.1,0.2,0,0.3c-0.3,0.4-0.3,0.8-0.2,1.2c0,0.3,0.1,0.5,0.2,0.8c0.1,0.3,0,0.4-0.3,0.4c0,0-0.1,0-0.1,0
				c-0.4,0-0.7,0.2-0.9,0.4c-0.1,0.1-0.2,0.3-0.3,0.4c-0.2,0.4-0.4,0.9-0.5,1.3c-0.1,0.2-0.2,0.5-0.2,0.7c0,0,0-0.1,0-0.1
				c0.1-0.3,0.2-0.6,0.3-0.9c0.2-0.7,0.1-1.3-0.5-1.8c-0.2-0.2-0.3-0.4-0.4-0.5c-0.1-0.1-0.1-0.3,0-0.5c0.1-0.2,0.2-0.3,0.4-0.3
				c0.2,0,0.3-0.1,0.5-0.1c0.1,0,0.1,0,0.2,0c0.1,0,0.2,0,0.3-0.1c0.1-0.2,0.2-0.4,0.4-0.5c-0.1,0-0.1,0-0.1,0.1
				c-0.1,0.1-0.2,0.3-0.3,0.4c-0.1,0.1-0.1,0.1-0.2,0.1c0.1-0.2,0.1-0.4,0.2-0.6c0,0,0,0,0,0c-0.1,0.2-0.1,0.4-0.3,0.5
				c0-0.1,0-0.3-0.1-0.4c0,0.1,0,0.2,0,0.3c0,0.1,0,0.2-0.1,0.2c-0.1,0-0.3,0-0.4,0c-0.2,0-0.3,0.1-0.4,0.2c0,0,0,0,0,0.1
				c0-0.2,0.1-0.3,0.2-0.5c0.1-0.1,0.2-0.3,0.3-0.4c0.1-0.2,0.1-0.4,0-0.5c-0.1-0.1-0.2-0.2-0.3-0.3c-0.2-0.1-0.4-0.3-0.6-0.4
				c0,0-0.1-0.1-0.1-0.1c0-0.2,0-0.4,0-0.5c0-0.1,0-0.2,0-0.3c0,0.3,0,0.5,0,0.8c0,0,0,0,0,0c-0.2-0.2-0.3-0.4-0.5-0.6c0,0,0,0,0,0
				c0.1,0.2,0.3,0.4,0.4,0.6c-0.3,0.1-0.5-0.1-0.6-0.5c0,0,0,0,0,0c0,0.1,0.1,0.2,0.1,0.3c-0.1,0-0.1-0.1-0.2-0.1
				c0.2,0.2,0.4,0.2,0.7,0.3c0.1,0,0.2,0,0.2,0.1c0.3,0.2,0.5,0.4,0.8,0.6c0.2,0.2,0.2,0.3,0,0.5c-0.1,0.1-0.3,0.3-0.4,0.4
				c-0.2,0.2-0.3,0.5-0.2,0.8c0,0.1,0,0.1,0,0.2c-0.4-0.2-0.5-0.7-0.4-1.1c0.1-0.1,0.1-0.2,0.2-0.4c0.1-0.1,0-0.3,0-0.4
				c0,0.1,0,0.2,0,0.4c-0.1-0.3-0.4-0.5-0.6-0.6c0.2,0.2,0.5,0.4,0.4,0.8c-0.2-0.2-0.3-0.3-0.5-0.5c0,0,0,0,0,0
				c0.1,0.1,0.1,0.1,0.2,0.2c0.2,0.2,0.3,0.3,0.2,0.5c0,0.1-0.1,0.2-0.1,0.3c0,0.4,0.2,0.6,0.5,0.9c0.1,0.1,0.2,0.1,0.2,0.2
				c0.2,0.2,0.3,0.4,0.5,0.6c0.2,0.2,0.3,0.5,0.2,0.8c0,0.2-0.1,0.4-0.2,0.6c-0.1,0.4-0.3,0.8-0.3,1.2c0,0,0,0,0,0.1
				c-0.1-0.3-0.2-0.7-0.3-1c-0.2-0.7-0.4-1.4-0.6-2c-0.2-0.5-0.5-0.8-1-1c-0.1-0.1-0.3-0.1-0.4-0.2c-0.3-0.1-0.5-0.4-0.7-0.7
				c-0.2-0.4-0.2-0.9-0.1-1.4c0.1-0.4,0.2-0.9,0.3-1.3c0.1-0.3,0.2-0.6,0.5-0.8c0.1-0.1,0.3-0.2,0.5-0.2c0.4,0,0.7,0.1,0.9,0.4
				c0.1,0.1,0.2,0.2,0.3,0.3c0,0,0,0,0,0c-0.2-0.2-0.3-0.3-0.5-0.5c0.1,0,0.3,0,0.4,0.1c0.2,0,0.3,0,0.4-0.2
				c0.1-0.1,0.1-0.3,0.1-0.4c0,0,0,0,0,0c0,0.1,0,0.2-0.1,0.2c-0.1,0.3-0.3,0.4-0.6,0.2c0-0.1,0.1-0.1,0.1-0.2
				c-0.1,0-0.2,0.1-0.3,0.1c-0.3,0-0.5-0.1-0.8-0.2c0.4-0.4,0.5-0.9,0.5-1.4c0,0.3-0.1,0.6-0.3,0.9c-0.1-0.1-0.2-0.2-0.2-0.4
				c0,0.1,0,0.2,0.1,0.3c0.1,0.1,0.1,0.3,0,0.4c-0.1,0.1-0.2,0.1-0.3,0.2c-0.3,0.1-0.5,0.2-0.8,0.5c0.1-0.7,0.3-1.4,0.3-2.1
				c-0.1,0.3-0.1,0.7-0.2,1c-0.1,0.4-0.2,0.7-0.3,1.1c0-0.1-0.1-0.2-0.1-0.3c-0.1-0.1-0.1-0.2,0-0.3c0.1-0.2,0-0.6-0.1-0.8
				c0.1,0.4,0.1,0.6,0,0.7c-0.2-0.3-0.5-0.5-0.7-0.8c0.1,0,0.3-0.1,0.3-0.2c-0.2-0.1-0.4,0-0.5,0.2c0.6,0.3,1.1,1.5,1,2
				c-0.2-0.2-0.4-0.4-0.7-0.4c-0.4,0-0.7-0.2-0.9-0.6c-0.1-0.1-0.1-0.2-0.2-0.3c0,0-0.1-0.1-0.1-0.1c0,0,0,0,0,0
				c0.1,0.2,0.2,0.4,0.3,0.6c-0.2,0-0.4-0.1-0.5-0.2c-0.1-0.1-0.3-0.3-0.4-0.4c-0.1-0.1-0.1-0.1-0.2-0.2c0.1,0.2,0.2,0.3,0.3,0.5
				c0.2,0.2,0.4,0.4,0.7,0.4c0,0,0.1,0,0.1,0.1c0.1,0.2,0.3,0.3,0.5,0.3c0.1,0,0.2,0,0.4,0.1c0.4,0.1,0.6,0.4,0.5,0.8
				c-0.1,0.3-0.2,0.7-0.3,1c-0.3-0.4-0.6-0.7-1-0.9c-0.4-0.2-0.9-0.4-1.3-0.6c-0.5-0.2-0.8-0.6-1-1.1c0-0.2-0.1-0.3-0.1-0.5
				c0,0,0-0.1,0-0.1C407.5,206.5,409.1,205.9,410.7,205.6z M413.8,231.1c-0.1,0-0.1,0.1-0.1,0.2c0,0.1-0.1,0.3-0.1,0.4
				c0,0.1-0.1,0.2-0.1,0.4c0,0,0,0.1-0.1,0.1c-0.1,0-0.2,0-0.3,0c-0.1-0.3-0.1-0.6-0.2-0.8c-0.2-0.9-0.3-1.7,0.2-2.5
				c0-0.1,0.1-0.2,0.1-0.3c0.1,0.3,0.2,0.6,0.2,0.8c0,0.1,0,0.2,0,0.2c-0.2,0.2-0.3,0.4-0.3,0.7c0,0.5,0,0.9,0,1.4c0,0,0,0,0,0
				c0-0.3,0-0.5,0-0.8c0-0.4,0.1-0.6,0.1-0.8c0,0.1,0.1,0.2,0.1,0.3c0,0.1,0.1,0.2,0.1,0.3c-0.2-0.7-0.2-0.9,0-1c0,0.1,0,0.2,0,0.3
				c0-0.3,0.1-0.6,0.4-0.7c0,0,0,0.1,0,0.1c0,0.4,0,0.8,0,1.2C413.9,230.8,413.9,231,413.8,231.1z M411.5,227.5
				c-0.1,0.1-0.2,0.2-0.4,0.4c0-0.7,0.3-1.4,0.6-2c0.2,0.3,0.3,0.6,0.2,0.9C411.9,227.1,411.7,227.3,411.5,227.5z M411.6,228.3
				c-0.1,0.3-0.3,0.6-0.4,0.8C411.1,228.8,411.2,228.5,411.6,228.3z M411.9,228.5c0-0.1,0.1-0.1,0.1-0.2c0.3-0.5,0.6-0.9,0.8-1.5
				c0-0.1,0.1-0.2,0.1-0.2c-0.2,1.1-0.6,2.2-1.2,3.2C411.8,229.4,411.8,229,411.9,228.5z M413.9,229c-0.1,0.2-0.3,0.3-0.4,0.5
				c0,0,0,0,0,0c-0.1-0.3-0.1-0.7-0.2-1c0-0.1,0-0.1,0-0.2c0.2-0.3,0.5-0.6,0.8-0.9c0,0.3-0.1,0.6-0.1,0.9c0,0.2,0,0.3-0.1,0.5
				C413.9,228.9,413.9,229,413.9,229z M404,209c0,0,0.1,0,0.1,0c0.5,0.1,0.8,0.4,0.9,0.9c0.1,0.5,0.3,1,0.6,1.5c0,0,0,0,0,0
				c-0.3-0.2-0.7-0.5-1-0.7c0,0,0-0.1-0.1-0.1c-0.1-0.1-0.1-0.3-0.2-0.4c-0.3-0.3-0.6-0.5-1-0.6C403.6,209.4,403.8,209.2,404,209z
				 M405.6,210.6c-0.2-0.3-0.3-0.7-0.4-1c-0.2-0.3-0.4-0.6-0.8-0.6c-0.1,0-0.1,0-0.2-0.1c0.2-0.2,0.5-0.4,0.7-0.6
				c0.1,0,0.1,0,0.2,0.1c0.3,0.1,0.5,0,0.8-0.1c0.2,0,0.3,0,0.4,0.2c0.2,0.4,0.5,0.7,0.9,0.9c0.4,0.2,0.8,0.4,1.2,0.6
				c0,0,0.1,0,0.1,0.1c-0.5,0.1-0.9,0.2-1.3,0.1c-0.4-0.1-0.8-0.3-1.2-0.5c0.4,0.4,0.9,0.7,1.5,0.7c-0.1,0.1-0.1,0.1-0.2,0.2
				c-0.2,0.1-0.5-0.1-0.7-0.1c0.1,0.1,0.2,0.1,0.3,0.1c0.3,0.1,0.5,0.1,0.7-0.1c0,0,0.1-0.1,0.1-0.1c0.3,0,0.6-0.1,0.8-0.1
				c0.1,0,0.2,0.1,0.3,0.1c0.3,0.3,0.5,0.6,0.5,1c0.1,0.7,0.4,1.3,1.1,1.6c0.2,0.1,0.3,0.2,0.5,0.3c0.1,0.1,0.2,0.2,0.3,0.3
				c0,0,0,0,0,0c-0.3-0.2-0.7-0.3-1.1-0.4c-0.3-0.1-0.6-0.2-0.8-0.5c-0.2-0.2-0.4-0.4-0.6-0.6c-0.3-0.3-0.7-0.5-1.1-0.5
				c-0.3,0-0.5,0-0.8,0c-0.3,0-0.6,0-0.7-0.3C405.9,211.1,405.7,210.8,405.6,210.6z M405.4,207.8c0.1,0,0.2,0.1,0.3,0.1
				c0.1,0,0.2,0.1,0.3,0.1c-0.4,0.1-0.8,0.3-1.1,0.2C405.1,208.1,405.2,207.9,405.4,207.8z M406.1,207.4c0,0.1,0.1,0.3,0.1,0.5
				c-0.2,0-0.4-0.1-0.5-0.1c0,0,0,0,0,0C405.8,207.6,405.9,207.5,406.1,207.4z M401.9,211.5c0,0,0.1,0.1,0.1,0.1
				c0.1-0.1,0.1-0.3,0.1-0.4c0.1-0.1,0.2-0.3,0.3-0.4c0,0.1,0,0.1,0,0.2c0.2-0.1,0.2-0.2,0.1-0.3c0,0,0,0,0,0c0.3-0.4,0.6-0.7,0.9-1
				c0.3,0.1,0.6,0.3,0.8,0.5c0.1,0.1,0.2,0.2,0.2,0.4c-0.5-0.2-0.9-0.4-1.4-0.4c0.5,0.1,0.9,0.2,1.3,0.5c-0.5,0.1-1,0-1.5-0.1
				c0.2,0,0.3,0.1,0.5,0.1c0.3,0,0.6,0.1,0.9,0.1c0.2,0,0.4,0,0.5,0.2c0.3,0.3,0.7,0.6,1.1,0.8c0.2,0.1,0.3,0.2,0.5,0.2
				c0.3,0.1,0.7,0.1,1,0.1c0.4,0,0.8,0.1,1,0.5c0,0,0.1,0.1,0.1,0.1c0.4,0.6,1,1.1,1.7,1.3c0,0,0.1,0,0.1,0c0.5,0.1,0.8,0.4,0.9,0.9
				c0.1,0.5,0.3,1,0.2,1.5c0,0,0,0.1,0,0.1c0-0.1,0-0.1-0.1-0.1c-0.2-0.4-0.4-0.9-0.6-1.3c-0.2-0.4-0.5-0.7-0.9-0.7
				c-0.2,0-0.4,0-0.6,0c-0.2,0-0.4,0-0.6,0c-0.4,0-0.8-0.3-1.1-0.6c-0.4-0.3-0.7-0.6-1.2-0.7c-0.5-0.2-1-0.1-1.5-0.1
				c-0.6,0.1-1.3,0-1.8-0.3c0,0-0.1,0-0.1-0.1c-0.2-0.3-0.5-0.5-0.7-0.6c-0.1-0.1-0.3-0.1-0.4-0.2
				C401.8,211.6,401.8,211.5,401.9,211.5z M401.2,212.6c0.1,0,0.2,0.1,0.3,0.1c0.4,0.1,0.8,0.1,1.1,0c0.2-0.1,0.3,0,0.4,0
				c0.2,0.2,0.5,0.3,0.8,0.3c-0.3,0.1-0.6,0.2-0.9,0.3c-0.3,0.1-0.6,0.2-0.9,0.3c-0.3,0.1-0.6,0.1-0.9,0.1c-0.2,0-0.3,0-0.5,0
				C400.8,213.3,401,213,401.2,212.6z M401.7,211.7c0.1,0,0.2,0.1,0.2,0.1c0.4,0.2,0.6,0.3,0.6,0.5c-0.4-0.1-0.7-0.2-1.1-0.2
				C401.6,211.9,401.6,211.8,401.7,211.7z M402.6,212.5c-0.5,0.2-1,0.2-1.4,0.1c0.1-0.1,0.2-0.3,0.2-0.4
				C401.8,212.3,402.2,212.3,402.6,212.5z M399.7,218.8c0-1.8,0.4-3.5,1-5c0.6,0.1,1.2,0.1,1.9-0.1c0.5-0.1,0.9-0.2,1.4-0.4
				c0.1,0,0.2,0,0.4-0.1c-0.2,0.5-0.4,0.9-0.8,1.1c-0.4,0.2-0.9,0.2-1.4,0.1c0.5,0.2,1.1,0.2,1.6-0.1c0.1,0.5-0.1,0.7-0.5,0.9
				c-0.1,0-0.3,0.1-0.4,0.1c-0.1,0-0.3,0-0.4,0c0.2,0,0.4,0,0.6,0c0.6-0.1,0.8-0.3,0.9-0.9c0,0,0-0.1,0-0.1c0,0,0-0.1,0.1-0.1
				c0.1-0.2,0.3-0.3,0.4-0.5c0.1-0.1,0.1-0.2,0.2-0.3c0.1-0.2,0.2-0.3,0.4-0.2c0.2,0,0.3,0,0.5,0c0.6,0,1.1,0.2,1.5,0.6
				c0.1,0.1,0.2,0.2,0.4,0.3c0.4,0.4,0.8,0.7,1.4,0.8c0.3,0,0.6,0.1,0.8,0.1c0.2,0,0.4,0,0.5,0.2c0.2,0.2,0.3,0.5,0.4,0.7
				c-0.4-0.1-0.7,0-1,0.1c-0.3,0.1-0.6,0.1-0.9,0.2c-0.2,0-0.3,0-0.4-0.1c-0.2-0.2-0.3-0.3-0.5-0.5c-0.2-0.2-0.4-0.4-0.7-0.4
				c-0.2,0-0.4,0-0.7,0c0.2,0.1,0.5,0.1,0.7,0.1c0.2,0.1,0.4,0.2,0.6,0.4c-0.4,0.1-0.7,0.1-1.1,0.1c0.2,0,0.4,0.1,0.6,0.1
				c0.1,0,0.3,0,0.4,0c0.1,0,0.2,0,0.2,0c0.1,0.1,0.2,0.3,0.3,0.4c-0.8,0.1-1.6,0.1-2.4-0.1c0,0,0.1,0,0.1,0c0.5,0.1,1,0.2,1.6,0.2
				c0.8,0,1.5,0,2.3-0.2c0.2-0.1,0.4-0.1,0.7,0c0.1,0,0.2,0.1,0.2,0.2c0,0.4,0.1,0.7,0.4,0.9c0.2,0.2,0.4,0.4,0.7,0.6
				c0.3,0.2,0.4,0.5,0.4,0.8c0,0.2,0,0.4,0,0.5c0,0.8-0.1,1.6-0.1,2.4c0,0.4-0.1,0.7-0.4,1c-0.2,0.3-0.4,0.6-0.5,0.9
				c-0.1,0.2-0.2,0.4-0.4,0.6c-0.4,0.4-0.9,0.5-1.4,0.6c-0.7,0.2-1.5,0.4-2.2,0.6c-0.5,0.1-0.9,0.3-1.4,0.4
				c-0.6,0.1-1.2,0.2-1.8,0.3c-0.6,0.1-1.1,0.2-1.7,0.3C400.5,224.1,399.7,221.5,399.7,218.8z M406.8,230.6c-0.1,0-0.1-0.1-0.2-0.1
				c0.1,0,0.2-0.1,0.2-0.1c0,0,0,0,0,0C406.8,230.5,406.8,230.6,406.8,230.6z M406.4,230.4c-0.1,0-0.1-0.1-0.2-0.1
				c0-0.2,0-0.4,0-0.6c0-0.1,0-0.3,0.1-0.4c0.2-0.2,0.4-0.3,0.6-0.2c0.2,0.1,0.4,0.1,0.6,0.1c0,0.1-0.1,0.2-0.1,0.3c0,0,0,0,0,0
				c0-0.1,0.1-0.1,0.1-0.2c0-0.1,0.1-0.1,0.1-0.1c0.1,0,0.2,0,0.3,0.1c-0.1,0-0.2,0.1-0.3,0.1c0,0,0,0,0,0c0.1,0,0.1,0,0.2,0
				c0.2-0.1,0.4-0.1,0.6-0.1c0.3,0,0.6,0,0.9,0c0,0,0.1,0,0.1,0c0,0,0,0,0,0c-0.1,0-0.1,0.1-0.2,0.1c-0.4,0.2-0.9,0.3-1.3,0.4
				C407.5,230,406.9,230.1,406.4,230.4z M408.6,228.5c-0.2,0.1-0.5,0.3-0.7,0.4c0,0-0.1,0-0.1,0c-0.3,0-0.7,0-1-0.1c0,0,0,0,0,0
				c0.8-0.4,1.5-0.7,2.3-1.1C409,228,408.9,228.3,408.6,228.5z M408.9,228.4c-0.1,0.2-0.2,0.3-0.2,0.4c0,0-0.1,0-0.1,0
				c-0.2,0-0.4,0-0.6,0c0,0,0,0,0-0.1C408.3,228.7,408.6,228.6,408.9,228.4z M408.1,227.6c-0.6,0.2-1.1,0.4-1.7,0.3
				c-0.2,0-0.4,0-0.6,0c0.1-0.2,0.1-0.4,0.2-0.6c0.2-0.5,0.1-0.4,0.6-0.5c0.5-0.1,1-0.1,1.5-0.2c-0.4,0.4-0.8,0.9-1.5,0.9
				c0.4,0,0.7-0.1,1-0.3c0.2-0.2,0.5-0.4,0.7-0.6c0.1-0.1,0.2-0.1,0.4-0.2c0.5-0.1,1-0.3,1.4-0.5c0.3-0.1,0.5-0.3,0.8-0.4
				c0,0,0,0,0,0c-0.1,0.1-0.1,0.1-0.2,0.2C409.9,226.5,409.1,227.1,408.1,227.6z M409.3,225.3c-0.2,0.2-0.3,0.3-0.5,0.5
				c-0.2,0.2-0.5,0.3-0.8,0.4c-0.5,0.1-1,0.2-1.5,0.2c0,0,0,0-0.1,0c0.1-0.1,0.2-0.2,0.2-0.3c0.1-0.1,0.3-0.3,0.5-0.4
				c0.2-0.2,0.4-0.3,0.7-0.3c0.5-0.1,1-0.1,1.5-0.2C409.4,225.2,409.4,225.2,409.3,225.3C409.3,225.2,409.3,225.2,409.3,225.3z
				 M406.2,226.4C406.2,226.4,406.1,226.4,406.2,226.4c-1.1,0.2-2,0.6-2.8,1.2c-0.1,0.1-0.2,0.1-0.3,0.2c-0.1-0.1-0.1-0.1-0.2-0.2
				c0-0.3,0.1-0.6,0.2-0.9c0.1-0.1,0.1-0.2,0.2-0.3c0,0,0.1-0.1,0.2-0.1c1.1-0.1,2.1-0.4,3.2-0.6c0,0,0.1,0,0.1,0
				C406.6,225.9,406.4,226.1,406.2,226.4z M403.2,227.8c0.2-0.1,0.4-0.2,0.6-0.3c-0.1,0.2-0.2,0.4-0.3,0.6
				C403.4,228,403.3,227.9,403.2,227.8z M403.5,228.1c0-0.1,0.1-0.2,0.1-0.3c0.2-0.3,0.4-0.5,0.7-0.6c0.4-0.1,0.7-0.2,1.1-0.3
				c0.1,0,0.3,0,0.5-0.1c-0.1,0.2-0.2,0.4-0.4,0.4c-0.1,0-0.1,0-0.2,0.1c-0.3,0.1-0.6,0.3-0.8,0.6c0,0,0,0.1-0.1,0.1
				c-0.2,0.1-0.4,0.2-0.6,0.3C403.7,228.3,403.6,228.2,403.5,228.1z M405.7,227.5c0,0.1-0.1,0.3-0.1,0.4c-0.3,0-0.6,0.1-0.9,0.1
				C405,227.7,405.3,227.6,405.7,227.5z M405.7,228.2c0.5,0,1,0.1,1.4,0.1c-0.2,0.1-0.5,0.3-0.7,0.5c0,0,0,0-0.1,0
				c-0.3,0-0.5,0.1-0.8,0.1C405.5,228.7,405.6,228.4,405.7,228.2z M406.4,229c-0.2,0.2-0.4,0.4-0.5,0.6
				C406.1,229.4,406.2,229.2,406.4,229z M408.8,228.9c0.3-0.4,0.3-0.8,0.4-1.2c0-0.1,0.1-0.2,0.2-0.3c0.3-0.2,0.6-0.4,1-0.6
				c-0.1,0.2-0.2,0.3-0.3,0.5c-0.2,0.4-0.4,0.9-0.5,1.4c0,0.1-0.1,0.2-0.2,0.2C409.3,228.9,409.1,228.9,408.8,228.9z M411,227
				c0,0.3,0,0.7,0,1c0,0,0,0.1,0,0.1c-0.2,0.2-0.5,0.4-0.8,0.5C410.3,228,410.7,227.5,411,227z M402.1,226.4c0.1,0,0.2,0,0.3,0
				c-0.1,0.1-0.1,0.1-0.1,0.2C402.1,226.5,402.1,226.5,402.1,226.4z M402.3,226.8c0.2-0.3,0.5-0.5,0.9-0.5c-0.3,0.4-0.3,0.8-0.3,1.2
				C402.7,227.2,402.5,227,402.3,226.8z M404.3,228.4c0,0.1,0,0.3-0.1,0.4c-0.1-0.1-0.2-0.1-0.2-0.2
				C404.1,228.5,404.2,228.5,404.3,228.4z M404.4,228.5c0-0.1,0.1-0.2,0.1-0.2c0.3-0.2,0.7-0.2,1-0.2c0,0.2-0.1,0.4-0.1,0.6
				c0,0.1-0.1,0.2-0.2,0.2c-0.2,0.1-0.3,0.2-0.4,0.3c-0.2-0.2-0.4-0.3-0.6-0.5C404.3,228.7,404.3,228.6,404.4,228.5z M405.3,229.3
				c0,0.1,0,0.1,0,0.1c0.2-0.4,0.5-0.3,0.8-0.4c-0.2,0.3-0.3,0.6-0.4,0.9c-0.2-0.1-0.4-0.3-0.6-0.4
				C405.1,229.4,405.2,229.4,405.3,229.3z M406.1,229.6c0,0.2,0,0.4,0,0.6c-0.1-0.1-0.2-0.1-0.4-0.2
				C405.9,229.9,406,229.7,406.1,229.6z M407.1,230.4C407.1,230.4,407.1,230.4,407.1,230.4c0.2-0.1,0.4-0.1,0.6-0.2
				c-0.2,0.2-0.3,0.4-0.3,0.6c-0.1-0.1-0.3-0.1-0.4-0.2C407,230.6,407,230.5,407.1,230.4z M407.6,230.5c0.2-0.2,0.4-0.3,0.7-0.3
				c-0.2,0.3-0.3,0.7-0.3,1c-0.2-0.1-0.4-0.2-0.7-0.3C407.5,230.8,407.5,230.6,407.6,230.5z M408.2,231.3c0-0.3,0.1-0.6,0.3-0.8
				c0.1-0.2,0.2-0.4,0.5-0.4c0.1,0,0.2-0.1,0.3-0.1c0,0,0.1,0,0.1,0c-0.1,0.5-0.3,0.9-0.4,1.4c0,0.1,0,0.1,0,0.2
				C408.7,231.4,408.4,231.3,408.2,231.3z M409.1,231.6c0-0.1,0.1-0.3,0.1-0.4c0.1,0.2,0.3,0.4,0.4,0.5
				C409.4,231.7,409.2,231.6,409.1,231.6z M409.7,231.7C409.7,231.7,409.7,231.7,409.7,231.7c-0.1-0.2-0.2-0.4-0.3-0.5
				c-0.1-0.1-0.1-0.2,0-0.3c0.1-0.3,0.3-0.7,0.4-1c0-0.1,0.1-0.1,0.1-0.2c0.1-0.1,0.3-0.2,0.4-0.4c0.2-0.2,0.5-0.3,0.7-0.5
				c0,0.2,0,0.3-0.1,0.4c-0.2,0.1-0.3,0.3-0.5,0.4c-0.5,0.6-0.6,1.3-0.5,2c0-0.9,0.2-1.7,1.1-2.2c-0.1,0.5-0.2,1-0.4,1.5
				c0.1-0.2,0.2-0.3,0.2-0.5c0,0.3,0,0.7,0,1c0,0,0,0.1-0.1,0.1c-0.1,0.1-0.2,0.1-0.3,0.2c-0.1,0.1-0.1,0.1-0.1,0.2
				C410.1,231.8,409.9,231.8,409.7,231.7z M410.5,231.9c0.1-0.1,0.2-0.2,0.4-0.3c0,0.1,0,0.2,0,0.3
				C410.7,232,410.6,231.9,410.5,231.9z M410.9,232c0.1-0.3,0.1-0.7,0.1-1c0-0.4,0.1-0.9,0.2-1.3c0.1-0.2,0.2-0.4,0.3-0.6
				c0,0,0,0,0,0c0,0,0,0.1,0,0.1c-0.1,0.7-0.1,1.3-0.2,2c0,0.3-0.1,0.6-0.1,0.8C411.2,232,411,232,410.9,232z M411.3,232.1
				c0-0.4,0.1-0.8,0.2-1.1c0.1,0.4,0.1,0.8,0.2,1.2C411.6,232.1,411.4,232.1,411.3,232.1z M411.8,232.1c0-0.3,0-0.7-0.1-1
				c0,0,0,0,0,0c0,0.1,0.1,0.3,0.1,0.4c0,0,0,0,0,0c-0.3-0.9-0.1-1.6,0.4-2.3c0,0.7-0.1,1.3-0.2,2c-0.1,0.3-0.1,0.6-0.1,0.9
				C411.9,232.1,411.8,232.1,411.8,232.1z M412.3,230.6c0.1,0.2,0.1,0.4,0.2,0.6c0,0.1,0.1,0.2,0,0.3c-0.1,0.2-0.1,0.4-0.2,0.7
				c-0.1,0-0.2,0-0.4,0C412.1,231.5,412.2,230.8,412.3,230.6z M412.5,232.2c0.1-0.3,0.1-0.5,0.2-0.6c0.1,0.2,0.1,0.4,0.2,0.6
				C412.8,232.2,412.6,232.2,412.5,232.2z M413.5,232.1C413.5,232.1,413.5,232.1,413.5,232.1C413.5,232.1,413.5,232.1,413.5,232.1
				C413.5,232.2,413.5,232.2,413.5,232.1C413.5,232.1,413.5,232.1,413.5,232.1z M413.6,232.2c0.1-0.3,0.1-0.7,0.3-1
				c0.1,0.3,0.2,0.6,0.2,0.9c0,0,0,0,0,0C414,232.1,413.8,232.1,413.6,232.2z M414.4,232.1c0-0.2-0.1-0.3-0.1-0.5
				c0.2,0.1,0.4,0.2,0.6,0.3c0.1,0,0.2,0.1,0.3,0.1C414.9,232,414.7,232.1,414.4,232.1z M415.3,232c-0.1,0-0.1-0.1-0.2-0.1
				c-0.2-0.1-0.5-0.3-0.7-0.4c-0.1-0.1-0.2-0.2-0.2-0.4c0-0.4,0-0.7,0.1-1.1c0-0.2,0-0.5,0.1-0.7c0.6,0.6,0.7,1.3,0.7,2
				c0-0.4,0-0.7,0-1.1c0,0,0,0,0,0c0.1,0.3,0.3,0.5,0.4,0.8c-0.1-0.5-0.4-0.8-0.6-1.2c0.5,0.4,1,0.9,1.1,1.6c0-0.1,0-0.3-0.1-0.4
				c-0.1-0.5-0.4-0.8-0.8-1.1c-0.2-0.2-0.4-0.4-0.6-0.6c-0.1-0.1-0.2-0.3-0.1-0.5c0-0.1,0-0.3,0.1-0.4c0.1-0.6,0.2-1.2,0.2-1.8
				c0,0,0,0,0,0c0.2,0.1,0.4,0.3,0.6,0.4c0.3,0.2,0.4,0.5,0.1,0.8c0,0,0,0,0,0c-0.3,0.4-0.3,1,0,1.4c-0.4-0.8-0.2-1,0.3-1.4
				c0.1,0.2,0,0.4-0.1,0.6c-0.2,0.4-0.1,0.8,0.1,1.1c-0.2-0.4-0.2-0.9,0.1-1.3c0.1,0.2,0.1,0.5,0.2,0.7c0.2,0.6,0.3,1.2,0.5,1.7
				c0,0.1,0.1,0.1,0.1,0.2c-0.1-0.5-0.3-0.9-0.4-1.4c-0.1-0.6-0.2-1.3-0.3-2c0.1,0.1,0.1,0.2,0.2,0.3c0.4,0.7,0.5,1.5,0.5,2.3
				c0,0.2,0,0.5,0,0.7c0,0,0,0.1,0,0.1c0,0.1,0,0.1,0,0.2c0,0.2,0,0.5-0.1,0.7C416.1,231.8,415.7,231.9,415.3,232z M417.1,225.6
				C417.2,225.6,417.2,225.5,417.1,225.6c0.7,0.4,1.4,0.9,1.8,1.6c0.3,0.5,0.4,1,0.5,1.5c0,0.1,0,0.2,0.1,0.3
				c0.1,0.2,0.1,0.4-0.1,0.6c-0.1,0.1-0.2,0.3-0.2,0.4c-0.2-0.2-0.4-0.4-0.5-0.6c-0.1-0.1-0.2-0.2-0.1-0.4c0.2-0.4,0.1-0.7-0.2-1
				c-0.2-0.2-0.5-0.4-0.8-0.6c-0.4-0.3-0.7-0.7-0.9-1.1c-0.1-0.1-0.1-0.3-0.2-0.4c-0.1-0.3-0.2-0.6-0.3-0.9c0.2,0.2,0.5,0.3,0.6,0.5
				c0.3,0.5,0.7,1.1,1.1,1.6c0,0.1,0.1,0.1,0.2,0.2c0,0,0,0,0,0C417.8,226.8,417.5,226.2,417.1,225.6z M417.6,231.4
				c-0.4-0.8-0.9-1.7-0.8-2.6c0.2,0.2,0.4,0.4,0.6,0.6c0,0,0,0.1,0.1,0.1c0.1,0.2,0.1,0.2,0,0.5c0-0.1,0.1-0.1,0.1-0.1
				C417.8,230.4,417.6,230.9,417.6,231.4C417.7,231.4,417.7,231.4,417.6,231.4z M417.8,230.3c-0.1-0.3-0.1-0.6,0-0.8
				c0.1-0.5,0-1-0.3-1.5c-0.1-0.1-0.2-0.3-0.3-0.5c0.3,0.1,0.5,0.3,0.7,0.4c0.1,0.1,0.3,0.2,0.4,0.3c0.2,0.2,0.2,0.4,0.1,0.6
				c0,0.1-0.1,0.1-0.1,0.2C418,229.4,417.9,229.8,417.8,230.3C417.8,230.3,417.8,230.3,417.8,230.3z M416.7,227
				c0.1,0.1,0.1,0.3,0.2,0.4c0.1,0.2,0.3,0.5,0.5,0.7c0.2,0.3,0.3,0.6,0.3,1c0,0.1,0,0.2,0,0.4c0,0,0,0,0,0
				c-0.1-0.1-0.1-0.3-0.2-0.4c-0.1-0.2-0.3-0.4-0.5-0.6c-0.1-0.1-0.2-0.3-0.3-0.4c-0.1-0.6-0.4-1.1-0.8-1.6
				c-0.2-0.3-0.4-0.5-0.6-0.8c-0.1-0.1,0-0.1,0.1-0.2c0.2-0.1,0.3,0,0.5,0.2C416.1,226.2,416.4,226.6,416.7,227z M416.9,230.1
				c0.1,0.1,0.1,0.3,0.1,0.4c0,0.1,0,0.3,0.1,0.4c0.1,0.2,0.1,0.4,0.1,0.6c-0.2,0.1-0.4,0.1-0.6,0.2
				C416.7,231.1,416.8,230.6,416.9,230.1z M417.3,231.5c0-0.3-0.1-0.5-0.1-0.8c0.1,0.2,0.2,0.5,0.4,0.7
				C417.5,231.4,417.4,231.4,417.3,231.5z M417.8,231.3c0-0.1,0-0.3,0-0.4c0.1-0.6,0.3-1.1,0.6-1.6c0.1,0.1,0.2,0.2,0.3,0.3
				c0.1,0.1,0.2,0.2,0.3,0.3c0.3,0.3,0.3,0.3-0.1,0.6c-0.2,0.2-0.3,0.4-0.4,0.6C418.3,231.1,418,231.2,417.8,231.3z M418.6,231
				c0.1-0.2,0.3-0.5,0.6-0.6c0,0.1,0.1,0.2,0.1,0.3C419.1,230.7,418.9,230.8,418.6,231z M419.4,230.6c0-0.1,0-0.2,0-0.2
				c0-0.1,0-0.1,0-0.2c0.1-0.2,0.2-0.3,0.3-0.5c0.1,0.2,0.1,0.5,0.1,0.7C419.6,230.4,419.5,230.5,419.4,230.6z M420.1,230.2
				c-0.2-0.6-0.3-1.3-0.4-1.9c0,0,0,0,0-0.1c0.2,0.1,0.5,0.1,0.7,0.2c0.3,0.1,0.3,0.2,0.2,0.5c0,0.1,0,0.1-0.1,0.2
				c-0.1,0.2-0.1,0.4,0.1,0.6c0,0,0,0.1,0.1,0.1C420.5,229.9,420.3,230,420.1,230.2z M420.8,229.7
				C420.7,229.7,420.7,229.7,420.8,229.7c-0.1-0.2-0.1-0.4-0.1-0.6c0-0.2,0.1-0.3,0.2-0.5c0.2,0.2,0.4,0.4,0.5,0.6
				C421.2,229.4,421,229.6,420.8,229.7z M421.4,229.2c-0.1-0.2-0.2-0.3-0.3-0.5c0.1,0,0.3,0,0.4,0c0.2,0,0.3,0,0.5,0
				C421.8,228.9,421.6,229.1,421.4,229.2z M422,228.7c-0.1-0.1-0.3-0.1-0.4-0.1c-0.3,0-0.6-0.1-0.9-0.2c-0.3-0.2-0.6-0.3-0.9-0.4
				c-0.1,0-0.1-0.1-0.2-0.2c-0.1-0.4-0.3-0.8-0.5-1.1c0,0,0-0.1-0.1-0.1c0,0,0,0,0,0c0.2,0.1,0.4,0.1,0.6,0.2
				c0.4,0.2,0.9,0.4,1.3,0.5c0.6,0.2,1.1,0.5,1.5,1.1C422.3,228.4,422.2,228.6,422,228.7z M423.2,227.5c-0.2-0.1-0.3-0.2-0.5-0.2
				c-0.1,0-0.2-0.1-0.2-0.1c0.1,0,0.1,0,0.2,0c0.3,0,0.5,0.1,0.8,0.1C423.4,227.3,423.3,227.4,423.2,227.5z M423,227.8
				c0-0.1-0.1-0.2-0.1-0.2c0.1,0,0.1,0.1,0.2,0.1C423,227.7,423,227.7,423,227.8z M422.9,227.9c-0.1,0.1-0.2,0.2-0.3,0.3
				c-0.2-0.3-0.4-0.6-0.7-0.8c0,0,0,0,0,0c0,0,0,0,0,0C422.4,227.3,422.7,227.5,422.9,227.9z M423.6,227c0,0-0.1,0-0.1,0
				c-0.5-0.1-0.9-0.2-1.4-0.1c-0.6,0.1-1.2,0-1.8-0.4c-0.4-0.2-0.7-0.4-1.1-0.4c-0.2,0-0.4-0.1-0.5-0.1c-0.1,0-0.2-0.1-0.2-0.1
				c-0.4-0.4-0.9-0.7-1.3-1.1c-0.6-0.4-1.1-0.9-1.7-1.3c-0.3-0.2-0.5-0.5-0.5-0.9c0-0.2,0-0.4,0-0.6c0-0.8,0-1.6-0.1-2.5
				c0-0.6,0-1.2,0.1-1.8c0.1-0.4,0.3-0.7,0.6-0.9c0.2-0.2,0.5-0.3,0.8-0.4c0.5-0.2,1.1-0.2,1.6-0.1c0.7,0.1,1.3,0.2,1.9,0.6
				c0.3,0.2,0.5,0.2,0.8,0.1c0.2-0.1,0.4-0.1,0.6,0c0.1,0,0.2,0.1,0.3,0.1c0.1,0.1,0.3,0.2,0.4,0.3c0.2,0.1,0.4,0.2,0.6,0.2
				c0.3,0,0.6,0.2,0.8,0.4c0.3,0.3,0.9,0.5,1.2,0.4c-0.7-0.1-1.1-0.3-1.4-0.7c0.8,0,1.6,0,2.3,0.3c-0.8-0.4-1.6-0.5-2.5-0.5
				c0.5-0.6,1.2-0.6,1.8-0.6c0,0,0,0,0,0c-0.1,0-0.1,0-0.2,0c-0.6,0-1.2,0-1.6,0.5c-0.1,0.1-0.3,0.2-0.4,0.1c-0.1,0-0.3-0.1-0.4-0.2
				c-0.3-0.2-0.6-0.4-0.9-0.7c1.1-0.9,2.3-1.2,3.7-0.9c-0.6-0.1-1.1-0.2-1.7-0.2c0.1-0.1,0.2-0.1,0.3-0.2c0.2-0.1,0.2-0.3,0.3-0.5
				c0.1-0.4,0.3-0.6,0.7-0.7c0.3-0.1,0.7-0.2,1-0.3c0.6,1.5,1,3.2,1,5C426.4,221.9,425.4,224.7,423.6,227z"/>
		</g>
	</g>
	<g>
		<g>
			<path d="M38.3,208.2c0.6,0,1.1,0,1.7,0c0.1,0,0.2,0,0.3,0c1.9,0.1,3.8,0.7,5.5,1.6c2.7,1.4,4.7,3.4,6.1,6c0.8,1.5,1.3,3,1.5,4.7
				c0.1,0.5,0.1,1,0.2,1.4c0,0.5,0,1,0,1.5c0,0.1,0,0.1,0,0.2c-0.1,0.6-0.1,1.2-0.2,1.7c-0.8,3.7-2.7,6.7-5.7,8.9
				c-3.3,2.3-6.9,3.2-10.9,2.5c-3.8-0.7-6.8-2.6-9.1-5.7c-1.7-2.2-2.6-4.7-2.8-7.5c-0.1-2.1,0.2-4.1,0.9-6.1c0.8-2.1,2-3.9,3.6-5.4
				c2.1-2,4.5-3.2,7.4-3.7C37.1,208.4,37.7,208.3,38.3,208.2z M47.9,212.8c-5.3-4.6-12.4-4-16.5-0.8c0.6,0,1.1,0.1,1.5,0.4
				c0,0,0,0.1,0,0.1c0.3,0,0.5,0,0.8,0c-0.2-0.5-0.6-0.2-0.8-0.3c0.1-0.3,0.1-0.4-0.2-0.4c-0.1,0-0.2,0-0.3,0
				c0.2-0.2,0.4-0.4,0.6-0.5c0.3-0.2,0.8,0,1,0.2c0.2,0.3,0.6,0.4,0.9,0.1c0.1-0.1,0.3-0.2,0.4,0c-0.2,0.4-0.6,0.6-1.1,0.5
				c0,0.2,0,0.3,0.1,0.5c0.2,0,0.4,0,0.6,0c0.1,0,0.2,0,0.2-0.1c0.1-0.2,0.2-0.2,0.4-0.2c0.3,0,0.3-0.1,0.3-0.3
				c-0.1,0-0.2-0.1-0.3-0.1c0.1-0.4,0.6-0.5,1.1-0.3c-0.4,0.4-0.4,0.6-0.3,0.6c0.1,0.1,0.3,0.1,0.5,0.2c0-0.2,0-0.4,0-0.5
				c0-0.1,0-0.2,0.1-0.2c0.2-0.1,0.4-0.2,0.6-0.2c0.5-0.2,1,0,1.4,0.2c0.3,0.1,0.6,0.2,0.5,0.7c0.1,0,0.3,0.1,0.4,0.1
				c-0.1,0.3-0.2,0.4-0.5,0.4c-0.2,0-0.3,0-0.4,0.2c0,0.1-0.1,0.1-0.1,0.2c-0.4-0.1-0.8-0.2-1.2-0.3c0.4-0.2,0.7-0.4,1-0.6
				c-0.2-0.1-0.3-0.3-0.5-0.3c-0.3,0-0.6,0.1-0.9,0.2c-0.2,0.1-0.4,0.3-0.7,0.4c0,0,0.1,0.1,0.1,0.2c-0.2,0.1-0.4,0.2-0.6,0.3
				c-0.1-0.2-0.1-0.3-0.1-0.5c-0.6,0.3-1.1,0.6-1.6,0.9c0,0-0.1,0.1-0.1,0.2c0,0.3,0.3,0.6,0.6,0.6c0.2,0,0.3,0.1,0.5,0.1
				c0,0.3,0,0.5,0,0.8c0.2-0.1,0.3-0.2,0.3-0.3c0.1-0.4,0.4-0.5,0.7-0.6c0.2,0,0.2-0.1,0.2-0.3c0-0.2,0-0.4,0-0.5
				c0-0.2,0.3-0.5,0.5-0.4c0.3,0.1,0.6,0.1,0.9,0.2c0,0.2,0,0.4-0.1,0.7c0.3-0.1,0.6-0.3,1-0.4c0,0.2,0,0.4,0,0.5
				c0,0.1,0.1,0.3,0.2,0.3c0.3,0.1,0.4,0.4,0.3,0.7c0,0,0,0-0.1,0c-0.1,0.1-0.2,0.1-0.4,0.2c0.1,0.1,0.2,0.2,0.4,0.2
				c0.2,0.1,0.3,0.2,0.2,0.5c-0.2-0.1-0.4-0.1-0.6-0.2c-0.3-0.1-0.3-0.2-0.1-0.4c0-0.1,0-0.2,0-0.3c-0.1,0-0.2,0-0.2,0.1
				c-0.2,0.2-0.5,0.1-0.7,0c-0.1-0.1-0.3-0.1-0.4-0.1c-0.1,0-0.1,0.1-0.2,0.2c0,0.1,0.1,0.1,0.1,0.2c0.1,0,0.2,0.1,0.3,0.1
				c-0.1,0.1-0.1,0.2-0.2,0.3c-0.2-0.3-0.4-0.2-0.5,0c-0.2,0.2-0.4,0.4-0.6,0.6c-0.5,0.3-0.9,0.7-1.3,1.1c0,0-0.1,0.1-0.1,0.2
				c0,0.3-0.2,0.4-0.4,0.5c-0.1,0.1-0.3,0.2-0.4,0.3c-0.3,0.2-0.6,0.5-0.5,0.9c0,0.1,0,0.2,0,0.3c-0.4-0.1-0.6-0.2-0.5-0.7
				c-0.5,0-1-0.1-1.5,0c-0.3,0-0.6,0.2-0.9,0.5c-0.2,0.2-0.3,0.6-0.4,0.8c-0.1,0.3,0,0.5,0.2,0.7c0.1,0.1,0.6,0.1,0.8,0
				c0.3-0.2,0.5-0.4,0.8-0.5c0.3,0.4-0.1,0.6-0.2,0.9c0.3,0,0.5,0.1,0.7,0.1c0,0.3,0.1,0.5,0.1,0.8c0,0.3,0.1,0.4,0.4,0.5
				c0.5,0.1,0.8,0,1.1-0.4c0.1-0.2,0.3-0.3,0.6-0.2c0.2,0.1,0.5,0,0.6,0.3c0.2,0.3,0.8,0.3,1,0c0.4,0.1,0.5,0.3,0.7,0.6
				c0.1,0.2,0.3,0.3,0.6,0.3c0.5,0,0.6,0,0.7,0.5c0.1,0.2,0.1,0.3,0.1,0.5c0,0.2,0.1,0.2,0.2,0.3c0.5,0.3,1.1,0.3,1.6,0.3
				c0.1,0,0.2,0,0.3,0.1c0.2,0.3,0.4,0.6,0.8,0.6c0,0.4-0.3,0.7-0.5,1c-0.1,0.1-0.2,0.3-0.2,0.4c-0.1,0.3-0.1,0.7-0.1,1
				c0,0.3-0.1,0.5-0.4,0.7c-0.2,0.2-0.5,0.1-0.7,0.1c-0.2,0-0.3,0.1-0.4,0.2c-0.2,0.2-0.1,0.5,0,0.7c0.1,0.3,0,0.5-0.2,0.7
				c-0.2,0.2-0.5,0.5-0.6,0.8c-0.2,0.5-0.7,0.6-1.2,0.8c-0.1,0-0.2,0.1-0.3,0.2c0.1,0.1,0.2,0.1,0.3,0.2c0,0,0,0,0.1,0.1
				c-0.1,0.1-0.2,0.3-0.4,0.5c0.2,0.1,0.4,0.2,0.6,0.3c0,0,0,0.1,0,0.1c-0.2,0.5-0.1,0.8,0.3,1c0,0,0,0.3,0,0.3
				c-0.3,0-0.6,0.1-0.9-0.1c-0.4-0.3-0.7-0.7-1-1.2c-0.2-0.3-0.2-0.5-0.2-0.9c0.1-0.4,0-0.7-0.3-1c-0.1-0.1-0.1-0.3-0.1-0.4
				c0-0.3,0.1-0.5,0.1-0.8c-0.3,0-0.3-0.2-0.3-0.4c0-0.6,0-1.2,0-1.7c0-0.1,0-0.2-0.1-0.3c-0.3-0.2-0.7-0.4-1-0.6
				c-0.1,0-0.1-0.1-0.2-0.1c0-0.4-0.3-0.7-0.6-0.9c-0.3-0.4-0.5-0.7-0.4-1.3c0.1-0.4,0.2-0.7,0.5-0.9c0.2-0.1,0.2-0.2,0.2-0.4
				c-0.1-0.6-0.1-0.6-0.7-0.6c-0.3,0-0.5-0.1-0.7-0.3c-0.3-0.5-0.8-0.8-1.4-0.8c0,0,0,0-0.1,0c0-0.1,0-0.2,0-0.4
				c-0.2,0-0.3,0.1-0.5,0.1c0,0-0.1,0-0.1,0c-0.5-0.1-1.1-0.1-1.4-0.8c-0.1-0.1-0.1-0.2,0-0.4c0-0.1,0-0.2,0-0.3
				c-0.3-0.5-0.8-1-0.7-1.7c-0.1,0-0.2,0-0.3,0c0,0.5,0.2,0.9,0.4,1.3c0.1,0.1,0.1,0.3,0.1,0.5c0,0-0.1,0-0.1,0.1
				c-0.1-0.1-0.4-0.1-0.4-0.2c-0.3-0.4-0.6-0.9-0.5-1.4c0-0.1,0-0.2,0-0.3c0-0.1-0.1-0.2-0.2-0.2c-0.3-0.1-0.4-0.3-0.4-0.7
				c0,0,0-0.1,0-0.2c-2.3,5-1.1,12.5,5.3,16.4c6.3,3.8,13.6,1.5,17-3c-0.1,0-0.2,0-0.4,0c0-0.2,0-0.5,0-0.7c0-0.1,0-0.2-0.1-0.3
				c-0.4-0.4-0.5-0.8-0.4-1.3c0-0.2,0-0.4-0.2-0.5c-0.2-0.2-0.3-0.5-0.1-0.8c0.1-0.2,0.2-0.4,0.3-0.6c0.1-0.1,0.1-0.3,0-0.4
				c-0.2-0.4-0.5-0.8-0.7-1.2c-0.1-0.1-0.1-0.3-0.1-0.4c0-0.3,0-0.6,0.1-0.9c-0.2,0-0.5,0-0.7-0.1c-0.1,0-0.2,0-0.2-0.1
				c-0.4-0.3-0.6-0.3-1,0c-0.1,0-0.2,0.1-0.3,0.1c-0.3,0-0.6,0.1-0.9,0.1c-0.3,0-0.5,0-0.7-0.2c-0.2-0.3-0.5-0.6-0.8-0.9
				c-0.4-0.4-0.2-0.9-0.2-1.4c0,0,0,0,0.1-0.1c0.2-0.1,0.2-0.3,0.2-0.5c-0.3,0-0.3-0.1-0.3-0.3c-0.1-0.2,0.1-0.3,0.2-0.4
				c0.3-0.2,0.7-0.5,1-0.7c0.2-0.1,0.2-0.2,0.2-0.4c0-0.2,0-0.4,0-0.5c0.3-0.2,0.5-0.4,0.9-0.4c0.2,0,0.5,0.1,0.7,0
				c0.6-0.3,1.2-0.2,1.9-0.3c0,0.3,0,0.5,0,0.7c0.6,0.2,1.1,0.3,1.6,0.5c0-0.1,0-0.3,0-0.4c0.4-0.1,0.7-0.1,1,0.2
				c0.4,0.4,0.9,0.2,1.4,0.2c-0.1-0.3-0.2-0.6-0.3-0.8c-0.1-0.2-0.2-0.3-0.4-0.3c-0.5,0-0.7-0.2-0.7-0.7c0-0.1,0-0.2,0-0.3
				c-0.2,0.1-0.2,0.1-0.5,0.9c-0.4-0.3-0.4-0.4-0.5-0.9c0,0,0-0.1,0-0.1c-0.2-0.4-0.8-0.6-1.2-0.6c0,0.6,0.6,0.6,0.9,0.9
				c0,0.1-0.1,0.2-0.1,0.3c0,0.3-0.2,0.3-0.3,0.3c-0.2,0-0.4,0-0.4-0.3c0.2-0.1,0.4,0.1,0.5-0.2c-0.3-0.4-0.9-0.5-1.1-1
				c-0.1,0.1-0.2,0.2-0.3,0.3c-0.1,0-0.1,0.1-0.2,0.1c-0.3-0.1-0.4,0.1-0.6,0.3c-0.1,0.1-0.2,0.2-0.3,0.4c-0.2,0.5-0.6,0.5-1,0.5
				c0,0-0.1,0-0.1,0c-0.3,0-0.4-0.2-0.5-0.4c0-0.1,0-0.2-0.1-0.4c0-0.3,0.1-0.5,0.4-0.5c0.3,0,0.7,0,1.1,0c0-0.1,0-0.2,0.1-0.3
				c-0.1,0-0.2-0.1-0.3-0.1c0-0.1,0-0.1,0-0.2c0-0.3,0.1-0.4,0.4-0.4c0.3,0,0.5-0.2,0.6-0.4c0.2-0.4,0.5-0.4,0.8-0.4
				c0.2,0,0.3,0,0.5,0c0-0.2-0.1-0.4-0.1-0.6c-0.2,0.1-0.4,0.1-0.5,0.2c0-0.1-0.1-0.2-0.1-0.3c-0.1-0.1-0.1-0.2-0.2-0.2
				c-0.2-0.1-0.3-0.3-0.1-0.5c0.1-0.1,0.3-0.2,0.5-0.3C47.6,213,47.7,212.9,47.9,212.8z M49.4,214.3c-0.2-0.3-0.4-0.5-0.6-0.7
				c0,0,0,0-0.1,0c0.1,0.4,0,0.7-0.4,0.8c0,0,0,0,0,0c0,0.1,0,0.2,0,0.2c0.3,0,0.5,0,0.8,0C49.2,214.7,49.3,214.5,49.4,214.3z
				 M33.3,216c0.4,0,0.7,0,1,0c0.1-0.2,0-0.4-0.2-0.4C33.8,215.5,33.4,215.7,33.3,216z M34,216.2c-0.4-0.1-0.7,0.1-0.7,0.5
				c0,0.1,0.1,0.1,0.1,0.2c0,0,0.1,0,0.2,0C33.7,216.6,33.8,216.4,34,216.2z M31.3,212.9c0.7,0.1,0.8,0,0.7-0.4
				c-0.2,0-0.5,0.1-0.7,0.1C31.3,212.7,31.3,212.8,31.3,212.9z M32.8,215.2c0.4,0,0.4-0.2,0.4-0.6c-0.2,0-0.4,0.1-0.6,0.1
				C32.6,214.9,32.7,215.1,32.8,215.2z M34.6,216.7c-0.4,0-0.5,0.1-0.6,0.4C34.5,217.2,34.7,217.1,34.6,216.7z M31.4,213.4
				c0,0,0,0.1,0,0.1c0.2,0,0.5,0,0.7,0c0,0,0-0.1,0.1-0.3C31.8,213.3,31.6,213.3,31.4,213.4z M34.9,216.4c-0.1,0.4,0,0.5,0.5,0.4
				C35.4,216.4,35.1,216.6,34.9,216.4z M34.7,216.2c-0.1,0-0.3,0-0.4,0c0,0.1,0,0.3,0,0.4C34.7,216.6,34.8,216.5,34.7,216.2z
				 M50.9,216.7C50.9,216.7,50.8,216.7,50.9,216.7c-0.1,0.2-0.1,0.4-0.1,0.6c0.1,0,0.2,0,0.4,0C51.1,217.1,51,216.9,50.9,216.7z"/>
		</g>
		<g>
			<path d="M45.4,215.4c0-0.4,0-0.4,0.4-0.5c-0.1-0.1-0.2-0.2-0.2-0.3c-0.1-0.1-0.4-0.1-0.3-0.4c0.1-0.3,0.3-0.2,0.5-0.3
				c0.1,0.5,0.2,1,0.7,1.2C46.3,215.4,46.1,215.5,45.4,215.4z"/>
		</g>
		<g>
			<path d="M44.5,215.2c-0.1-0.4,0.2-0.7,0.5-0.7c0.1,0,0.3,0.1,0.3,0.1c0,0.1,0,0.3-0.1,0.3C44.8,215.2,44.8,215.2,44.5,215.2z"/>
		</g>
		<g>
			<path d="M37.6,216.3c0.2-0.1,0.3-0.2,0.4-0.2c0.1,0,0.2,0,0.4,0c-0.2,0.2-0.3,0.3-0.5,0.4C37.7,216.6,37.6,216.5,37.6,216.3z"/>
		</g>
	</g>
	<g>
		<path d="M228.9,149.5c0.4-1.5,0.3-3.1,0-4.6c-0.5-2.9-1.4-5.6-3-8.1c-0.2-0.3-0.4-0.6-0.6-0.9c-0.3,0.4-0.5,0.7-0.7,1
			c-1.8,3-2.8,6.3-3.1,9.8c-0.1,1.1,0,2.2,0.4,3.3c0.4,1.2,1.1,2.1,2.4,2.4c0.3,0.1,0.3,0.2,0.3,0.4c-0.1,1.2-0.1,2.3-0.1,3.5
			c0,0.3-0.1,0.4-0.4,0.5c-0.6,0.1-1.3,0.2-1.9,0.4c0,0,0,0,0,0c2.1,0,4.3,0,6.4,0c-0.1-0.1-0.2-0.1-0.3-0.1
			c-0.6-0.1-1.1-0.2-1.7-0.3c-0.1,0-0.3-0.2-0.3-0.2c-0.1-1.3-0.1-2.6-0.2-4c0.3-0.1,0.5-0.1,0.7-0.2
			C228.1,151.7,228.6,150.7,228.9,149.5z M225.9,150.1v1.4h-1v-1.3c-0.4-0.1-0.8-0.2-1.1-0.3c-0.4-0.2-0.8-0.5-1.2-0.9l1-1
			c0.6,0.7,1.2,1,1.8,1c0.3,0,0.5-0.1,0.8-0.3c0.2-0.2,0.3-0.4,0.3-0.7c0-0.2-0.1-0.4-0.2-0.6c-0.1-0.2-0.4-0.4-0.8-0.5
			c-0.8-0.4-1.3-0.7-1.6-0.9c-0.3-0.2-0.5-0.5-0.6-0.7c-0.1-0.3-0.2-0.6-0.2-0.9c0-0.5,0.2-0.9,0.6-1.3c0.4-0.4,0.8-0.6,1.4-0.6
			v-0.5h1v0.6c0.3,0.1,0.6,0.2,0.8,0.3c0.2,0.1,0.5,0.4,0.8,0.7l-1,1c-0.4-0.5-0.9-0.7-1.3-0.7c-0.3,0-0.5,0.1-0.6,0.2
			c-0.2,0.1-0.2,0.3-0.2,0.5c0,0.2,0.1,0.3,0.2,0.5c0.1,0.2,0.4,0.3,0.8,0.5c0.7,0.3,1.3,0.6,1.5,0.8c0.3,0.2,0.5,0.5,0.6,0.8
			c0.1,0.3,0.2,0.7,0.2,1c0,0.4-0.1,0.7-0.2,1.1c-0.2,0.3-0.4,0.6-0.6,0.8C226.7,149.9,226.4,150,225.9,150.1z"/>
	</g>
</g>
</svg>
