<?xml version="1.0" encoding="utf-8"?>
<!-- Generator: Adobe Illustrator 22.1.0, SVG Export Plug-In . SVG Version: 6.00 Build 0)  -->
<svg version="1.1" id="Capa_1" xmlns="http://www.w3.org/2000/svg" xmlns:xlink="http://www.w3.org/1999/xlink" x="0px" y="0px"
	 viewBox="0 0 126.9 34.8" style="enable-background:new 0 0 126.9 34.8;" xml:space="preserve">
<style type="text/css">
	.st0{fill:#51AAE1;}
	.st1{fill:#FFFFFF;}
</style>
<g>
	<g>
		<polygon class="st0" points="6.7,2 9.9,2 9.9,32.8 6.7,32.8 		"/>
	</g>
	<g>
		<path class="st1" d="M20.1,6.3l-1.7,0.1L17.9,9h-1l0.2-3.5h7.7L25,9h-0.9l-0.5-2.6l-1.7-0.1v7.3l1.7,0.1v0.7h-5v-0.7l1.5-0.1
			C20.1,13.6,20.1,6.3,20.1,6.3z"/>
		<path class="st1" d="M26.7,10.9c0.7-0.4,1.7-0.6,2.8-0.6V10c0-0.3,0-0.6-0.1-0.8c0-0.1-0.1-0.2-0.3-0.3s-0.4-0.1-0.8-0.1
			c-0.4,0-0.7,0-1.1,0.1c-0.3,0.1-0.6,0.2-1,0.4l-0.4-0.8c0.1-0.1,0.3-0.2,0.6-0.4c0.3-0.1,0.6-0.3,1-0.4s0.8-0.2,1.2-0.2
			c0.6,0,1.1,0.1,1.4,0.2c0.3,0.2,0.6,0.4,0.8,0.8C31,8.9,31,9.3,31,9.9v3.7h0.6v0.7c-0.2,0-0.4,0.1-0.7,0.1c-0.3,0-0.6,0.1-0.8,0.1
			c-0.3,0-0.5,0-0.5-0.1c-0.1-0.1-0.1-0.2-0.1-0.5v-0.3c-0.2,0.2-0.5,0.5-0.8,0.6c-0.3,0.2-0.7,0.3-1.2,0.3c-0.4,0-0.7-0.1-1-0.2
			c-0.3-0.2-0.6-0.4-0.7-0.7c-0.2-0.3-0.3-0.7-0.3-1.1C25.7,11.8,26,11.3,26.7,10.9z M29,13.4c0.2-0.1,0.4-0.2,0.6-0.4v-2
			c-0.7,0-1.3,0.1-1.6,0.4c-0.4,0.3-0.6,0.6-0.6,1s0.1,0.7,0.3,0.9s0.4,0.3,0.7,0.3C28.6,13.6,28.8,13.5,29,13.4z"/>
		<path class="st1" d="M32.8,9.3c0.3-0.5,0.7-1,1.2-1.3s1.1-0.5,1.8-0.5c0.3,0,0.6,0,0.8,0.1c0.2,0,0.5,0.1,0.8,0.2L37.8,8l-0.1,2
			h-1l-0.3-1.3c0-0.2-0.3-0.3-0.7-0.3c-0.4,0-0.8,0.2-1,0.6s-0.4,1-0.4,1.8c0,0.9,0.2,1.6,0.5,2c0.3,0.5,0.7,0.7,1.2,0.7
			c0.6,0,1.2-0.2,1.7-0.5l0.3,0.6c-0.2,0.2-0.5,0.4-1,0.6c-0.4,0.2-0.9,0.3-1.4,0.3c-1,0-1.8-0.3-2.3-0.9c-0.6-0.6-0.9-1.4-0.9-2.5
			C32.4,10.4,32.6,9.8,32.8,9.3z"/>
		<path class="st1" d="M39.7,14.2c-0.2-0.2-0.4-0.6-0.4-1.1V8.7h-0.8V8.1c0.1,0,0.2-0.1,0.3-0.1s0.3-0.1,0.4-0.2s0.3-0.3,0.3-0.5
			c0.1-0.2,0.2-0.6,0.4-1.2h1v1.8h1.8v0.9h-1.8v3.4c0,0.4,0,0.8,0,0.9c0,0.2,0.1,0.3,0.2,0.4s0.2,0.1,0.4,0.1s0.4,0,0.6-0.1
			c0.2,0,0.4-0.1,0.5-0.2l0.2,0.7c-0.2,0.2-0.6,0.3-1,0.5c-0.4,0.1-0.9,0.2-1.3,0.2C40.3,14.5,39.9,14.4,39.7,14.2z"/>
		<path class="st1" d="M44.5,8.9l-0.9-0.2V7.9l2.2-0.3l0,0l0.3,0.2v5.8l0.8,0.1v0.7h-3.3v-0.7l0.8-0.1L44.5,8.9L44.5,8.9z M44.4,6.4
			c-0.2-0.2-0.3-0.4-0.3-0.6c0-0.3,0.1-0.6,0.3-0.8c0.2-0.2,0.4-0.3,0.8-0.3c0.3,0,0.6,0.1,0.7,0.3c0.2,0.2,0.3,0.4,0.3,0.6
			c0,0.3-0.1,0.6-0.3,0.8c-0.2,0.2-0.5,0.3-0.8,0.3l0,0C44.8,6.7,44.6,6.6,44.4,6.4z"/>
		<path class="st1" d="M48.1,9.3c0.3-0.5,0.7-1,1.2-1.3s1.1-0.5,1.8-0.5c0.3,0,0.6,0,0.8,0.1c0.2,0,0.5,0.1,0.8,0.2L53.1,8L53,10h-1
			l-0.3-1.3c0-0.2-0.3-0.3-0.7-0.3c-0.4,0-0.8,0.2-1,0.6s-0.4,1-0.4,1.8c0,0.9,0.2,1.6,0.5,2c0.3,0.5,0.7,0.7,1.2,0.7
			c0.6,0,1.2-0.2,1.7-0.5l0.3,0.6c-0.2,0.2-0.5,0.4-1,0.6c-0.4,0.2-0.9,0.3-1.4,0.3c-1,0-1.8-0.3-2.3-0.9c-0.5-0.6-0.8-1.5-0.8-2.5
			C47.7,10.4,47.9,9.8,48.1,9.3z"/>
		<path class="st1" d="M55.1,10.9c0.7-0.4,1.7-0.6,2.8-0.6V10c0-0.3,0-0.6-0.1-0.8c-0.1-0.1-0.2-0.2-0.4-0.3S57,8.8,56.6,8.8
			s-0.7,0-1.1,0.1c-0.3,0.1-0.6,0.2-1,0.4l-0.4-0.8c0.1-0.1,0.3-0.2,0.6-0.4c0.3-0.1,0.6-0.3,1-0.4s0.8-0.2,1.2-0.2
			c0.6,0,1.1,0.1,1.4,0.2c0.3,0.2,0.6,0.4,0.8,0.8c0.3,0.5,0.4,0.9,0.4,1.5v3.7h0.6v0.7c-0.2,0-0.4,0.1-0.7,0.1
			c-0.3,0-0.6,0.1-0.8,0.1c-0.3,0-0.5,0-0.5-0.1C58,14.4,58,14.3,58,14v-0.3c-0.2,0.2-0.5,0.5-0.8,0.6c-0.3,0.2-0.7,0.3-1.2,0.3
			c-0.4,0-0.7-0.1-1-0.2c-0.3-0.2-0.6-0.4-0.7-0.7C54.1,13.4,54,13,54,12.6C54,11.8,54.3,11.3,55.1,10.9z M57.3,13.4
			c0.2-0.1,0.4-0.2,0.6-0.4v-2c-0.7,0-1.3,0.1-1.6,0.4c-0.4,0.2-0.5,0.6-0.5,0.9c0,0.4,0.1,0.7,0.3,0.9c0.2,0.2,0.4,0.3,0.7,0.3
			C56.9,13.6,57.1,13.5,57.3,13.4z"/>
		<path class="st1" d="M61.6,5.7l-0.9-0.2V4.9l2.2-0.3l0,0l0.3,0.2v8.8l0.9,0.1v0.7h-3.4v-0.7l0.8-0.1L61.6,5.7L61.6,5.7z"/>
		<path class="st1" d="M69.3,13.6c-0.6-0.6-0.8-1.6-0.8-2.9V6.3l-0.9-0.1V5.5h3.2v0.6l-1,0.2v4.5c0,1.1,0.2,1.9,0.6,2.4
			s0.9,0.7,1.7,0.7s1.3-0.3,1.6-0.8s0.5-1.3,0.5-2.2V6.3l-1-0.2V5.5H76v0.6l-0.9,0.1v4.5c0,1.2-0.3,2.2-0.9,2.8s-1.4,0.9-2.4,0.9
			C70.7,14.5,69.8,14.2,69.3,13.6z"/>
		<path class="st1" d="M77.4,8.7l-0.9-0.2V7.8l1.7-0.2l0,0l0.3,0.2v0.5v0.3c0.3-0.3,0.7-0.5,1.1-0.7c0.5-0.2,0.9-0.3,1.4-0.3
			s0.9,0.1,1.2,0.3c0.3,0.2,0.5,0.5,0.6,0.9S83,9.7,83,10.4v3.4l0.8,0.1v0.6H81v-0.6l0.7-0.1v-3.4c0-0.5,0-0.8-0.1-1.1
			s-0.2-0.5-0.4-0.6c-0.2-0.1-0.4-0.2-0.8-0.2c-0.3,0-0.6,0.1-0.9,0.2S78.9,9,78.6,9.2v4.5l0.8,0.1v0.6h-2.8v-0.6l0.8-0.1L77.4,8.7
			L77.4,8.7z"/>
		<path class="st1" d="M85.5,5.5l-1-0.1V4.8l1.9-0.2l0,0l0.3,0.2v9l1,0.1v0.6h-3.2v-0.6l1-0.1C85.5,13.8,85.5,5.5,85.5,5.5z"/>
		<path class="st1" d="M89.6,8.7l-0.9-0.2V7.8l1.9-0.2l0,0l0.3,0.2v5.9l1,0.1v0.6h-3.2v-0.6l1-0.1v-5H89.6z M89.5,6.4
			c-0.1-0.1-0.2-0.3-0.2-0.6c0-0.3,0.1-0.5,0.2-0.6c0.2-0.2,0.4-0.3,0.6-0.3c0.3,0,0.5,0.1,0.6,0.2s0.2,0.3,0.2,0.6
			c0,0.3-0.1,0.5-0.2,0.6S90.3,6.5,90,6.5l0,0C89.8,6.6,89.6,6.5,89.5,6.4z"/>
		<path class="st1" d="M92.7,13.8l0.7-0.1v-5l-0.9-0.2V7.8l1.7-0.2l0.2,0.2l0.1,0.5v0.4c0.3-0.3,0.7-0.5,1.1-0.7s0.9-0.3,1.3-0.3
			c0.4,0,0.8,0.1,1,0.2c0.3,0.1,0.5,0.4,0.6,0.7c0.3-0.2,0.6-0.4,1.1-0.6s0.9-0.3,1.3-0.3c0.5,0,0.9,0.1,1.2,0.3s0.5,0.5,0.6,0.9
			s0.2,0.9,0.2,1.6v3.4l0.9,0.1v0.6h-2.9V14l0.7-0.1v-3.3c0-0.5,0-0.8-0.1-1.1s-0.2-0.5-0.4-0.6s-0.5-0.2-0.8-0.2s-0.5,0.1-0.8,0.2
			C99.2,9,99,9.2,98.7,9.3c0.1,0.3,0.1,0.8,0.1,1.3v3.3l0.9,0.1v0.6h-2.9V14l0.8-0.1v-3.4c0-0.5,0-0.9-0.1-1.1
			c-0.1-0.3-0.2-0.5-0.3-0.6c-0.2-0.1-0.4-0.2-0.8-0.2c-0.3,0-0.6,0.1-0.9,0.2s-0.6,0.3-0.8,0.5v4.5l0.8,0.1v0.6h-2.8L92.7,13.8
			L92.7,13.8z"/>
		<path class="st1" d="M105.5,8.7l-0.9-0.2V7.8l1.9-0.2l0,0l0.3,0.2v5.9l1,0.1v0.6h-3.2v-0.6l1-0.1v-5H105.5z M105.5,6.4
			c-0.1-0.1-0.2-0.3-0.2-0.6c0-0.3,0.1-0.5,0.2-0.6c0.2-0.2,0.4-0.3,0.6-0.3c0.3,0,0.5,0.1,0.6,0.2s0.2,0.3,0.2,0.6
			c0,0.3-0.1,0.5-0.2,0.6s-0.4,0.2-0.7,0.2l0,0C105.8,6.6,105.6,6.5,105.5,6.4z"/>
		<path class="st1" d="M109.6,14.2c-0.2-0.2-0.3-0.6-0.3-1.1V8.6h-0.9V8c0,0,0.2,0,0.3-0.1c0.2,0,0.3-0.1,0.4-0.1
			c0.1-0.1,0.2-0.2,0.3-0.4c0.1-0.2,0.1-0.4,0.2-0.7s0.1-0.5,0.2-0.6h0.7v1.7h2v0.8h-2v3.7c0,0.5,0,0.8,0,1s0.1,0.3,0.2,0.4
			s0.3,0.1,0.5,0.1s0.5,0,0.7-0.1s0.5-0.1,0.6-0.2l0.2,0.5c-0.2,0.1-0.5,0.3-0.9,0.4c-0.4,0.1-0.8,0.2-1.2,0.2
			C110.2,14.6,109.9,14.5,109.6,14.2z"/>
		<path class="st1" d="M114.2,13.6c-0.5-0.6-0.8-1.5-0.8-2.5c0-0.7,0.1-1.3,0.4-1.8c0.3-0.5,0.6-0.9,1.1-1.2s1-0.4,1.6-0.4
			c0.7,0,1.3,0.2,1.7,0.6c0.4,0.4,0.6,1,0.7,1.8c0,0.5,0,0.9-0.1,1.1h-4.1c0,0.8,0.2,1.4,0.6,1.9c0.4,0.5,0.9,0.7,1.5,0.7
			c0.3,0,0.7-0.1,1-0.2c0.3-0.1,0.6-0.3,0.8-0.4l0.2,0.5c-0.2,0.2-0.6,0.4-1,0.6c-0.5,0.2-0.9,0.3-1.4,0.3
			C115.5,14.6,114.7,14.3,114.2,13.6z M117.7,10.5c0-0.2,0-0.3,0-0.5c0-0.5-0.1-0.9-0.3-1.2s-0.5-0.5-1-0.5s-0.8,0.2-1.1,0.5
			s-0.4,0.9-0.5,1.7H117.7z"/>
		<path class="st1" d="M121.3,14.2c-0.4-0.2-0.7-0.6-1-1.1c-0.2-0.5-0.4-1.1-0.4-1.8s0.1-1.3,0.4-1.9c0.3-0.6,0.7-1,1.2-1.3
			s1.1-0.5,1.9-0.5c0.4,0,0.8,0,1.1,0.1V5.5l-1.1-0.2V4.8l2.2-0.2l0,0l0.3,0.2v9h0.7v0.6c-0.3,0.1-0.5,0.1-0.7,0.1s-0.4,0-0.6,0
			s-0.4,0-0.4-0.1c-0.1-0.1-0.1-0.2-0.1-0.5v-0.4c-0.2,0.3-0.5,0.5-0.9,0.7s-0.8,0.3-1.2,0.3C122.1,14.6,121.7,14.4,121.3,14.2z
			 M124,13.5c0.3-0.1,0.5-0.3,0.6-0.5V8.6c-0.1-0.1-0.2-0.2-0.5-0.3s-0.5-0.1-0.8-0.1c-0.6,0-1.1,0.2-1.5,0.7s-0.6,1.2-0.6,2.2
			c0,0.9,0.2,1.5,0.5,1.9s0.8,0.6,1.3,0.6C123.4,13.7,123.7,13.6,124,13.5z"/>
		<path class="st1" d="M18.3,20.7l-0.9-0.1V20H19c0.3,0,0.6,0,0.9,0c0.4,0,0.8,0,1.2,0c1.2,0,2,0.2,2.5,0.6s0.7,1.1,0.7,1.9
			c0,0.6-0.1,1.2-0.4,1.7c-0.3,0.5-0.7,0.8-1.2,1.1c-0.5,0.2-1.1,0.4-1.8,0.4c-0.2,0-0.5,0-0.7,0s-0.4,0-0.4,0v2.6l1.6,0.1V29h-3.9
			v-0.6l1-0.1v-7.6H18.3z M20.7,24.9c0.6,0,1.1-0.2,1.5-0.6s0.6-1,0.6-1.9c0-0.7-0.2-1.2-0.5-1.5s-0.9-0.5-1.6-0.5
			c-0.3,0-0.5,0-0.8,0c-0.2,0-0.3,0-0.3,0v4.3C19.8,24.9,20.2,24.9,20.7,24.9z"/>
		<path class="st1" d="M26.2,25.4c0.8-0.4,1.7-0.5,2.9-0.6v-0.3c0-0.4,0-0.7-0.1-0.9s-0.2-0.4-0.4-0.5C28.3,23,28,23,27.6,23
			c-0.4,0-0.8,0.1-1.1,0.2s-0.6,0.3-1,0.4L25.2,23c0.1-0.1,0.3-0.2,0.6-0.3c0.3-0.1,0.6-0.3,1-0.4s0.7-0.2,1.1-0.2
			c0.6,0,1,0.1,1.4,0.2c0.3,0.2,0.6,0.4,0.7,0.8c0.1,0.3,0.2,0.8,0.2,1.4v3.9h0.7v0.5c-0.2,0-0.4,0.1-0.6,0.1s-0.4,0-0.6,0
			s-0.4,0-0.5-0.1s-0.1-0.2-0.1-0.5V28c-0.2,0.2-0.5,0.5-0.9,0.7C27.9,28.9,27.5,29,27,29c-0.6,0-1.1-0.2-1.4-0.5S25,27.7,25,27.1
			C25,26.3,25.4,25.7,26.2,25.4z M28.3,28c0.3-0.1,0.5-0.3,0.7-0.5v-2.1c-0.9,0-1.5,0.1-2,0.4s-0.7,0.6-0.7,1s0.1,0.8,0.3,1
			s0.5,0.3,0.9,0.3C27.8,28.2,28,28.1,28.3,28z"/>
		<path class="st1" d="M31.8,28.3l0.9-0.1v-5.1l-0.9-0.2v-0.6l1.7-0.2l0,0l0.3,0.2v0.2v0.9l0,0c0.1-0.1,0.2-0.3,0.4-0.5
			c0.2-0.2,0.5-0.4,0.8-0.6s0.7-0.3,1.1-0.3c0.2,0,0.3,0,0.4,0.1v1.3c-0.1,0-0.1-0.1-0.3-0.1s-0.3-0.1-0.4-0.1
			c-0.7,0-1.3,0.2-1.8,0.6v4.3l1.5,0.1v0.6h-3.7V28.3z"/>
		<path class="st1" d="M38.3,28.6C38.1,28.4,38,28,38,27.5V23h-0.9v-0.5c0,0,0.2,0,0.3-0.1c0.2,0,0.3-0.1,0.4-0.1
			c0.1-0.1,0.2-0.2,0.3-0.4c0.1-0.2,0.1-0.4,0.2-0.7s0.1-0.5,0.2-0.6h0.7v1.7h2V23h-2v3.7c0,0.5,0,0.8,0,1s0.1,0.3,0.2,0.4
			s0.3,0.1,0.5,0.1s0.5,0,0.7-0.1c0.3-0.1,0.5-0.1,0.6-0.2l0.2,0.5c-0.2,0.1-0.5,0.3-0.9,0.4S39.7,29,39.3,29
			C38.9,29,38.5,28.9,38.3,28.6z"/>
		<path class="st1" d="M42.9,23.1L42,22.9v-0.6l1.7-0.2l0,0l0.3,0.2v0.5v0.3c0.3-0.3,0.7-0.5,1.1-0.7c0.5-0.2,0.9-0.3,1.4-0.3
			s0.9,0.1,1.2,0.3c0.3,0.2,0.5,0.5,0.6,0.9s0.2,0.9,0.2,1.6v3.4l0.8,0.1V29h-2.9v-0.6l0.7-0.1v-3.4c0-0.5,0-0.8-0.1-1.1
			c-0.1-0.3-0.2-0.5-0.4-0.6c-0.2-0.1-0.4-0.2-0.8-0.2c-0.3,0-0.6,0.1-0.9,0.2s-0.6,0.3-0.9,0.5v4.5l0.8,0.1v0.6H42v-0.6l0.8-0.1
			v-5.1H42.9z"/>
		<path class="st1" d="M50.9,28c-0.5-0.6-0.8-1.5-0.8-2.5c0-0.7,0.1-1.3,0.4-1.8s0.6-0.9,1.1-1.2c0.5-0.3,1-0.4,1.6-0.4
			c0.7,0,1.3,0.2,1.7,0.6s0.6,1,0.7,1.8c0,0.5,0,0.9-0.1,1.1h-4.1c0,0.8,0.2,1.4,0.6,1.9s0.9,0.7,1.5,0.7c0.3,0,0.7-0.1,1-0.2
			s0.6-0.3,0.8-0.4l0.2,0.5c-0.2,0.2-0.6,0.4-1,0.6C54,28.9,53.6,29,53.1,29C52.1,29,51.4,28.7,50.9,28z M54.3,24.9
			c0-0.2,0-0.3,0-0.5c0-0.5-0.1-0.9-0.3-1.2c-0.2-0.3-0.5-0.5-1-0.5s-0.8,0.2-1.1,0.5c-0.3,0.3-0.4,0.9-0.5,1.7H54.3z"/>
		<path class="st1" d="M56.7,28.3l0.9-0.1v-5.1l-0.9-0.2v-0.6l1.7-0.3l0,0l0.3,0.2v0.2v0.9l0,0c0.1-0.1,0.2-0.3,0.4-0.5
			c0.2-0.2,0.5-0.4,0.8-0.6s0.7-0.3,1.1-0.3c0.2,0,0.3,0,0.4,0.1v1.3c-0.1,0-0.1-0.1-0.3-0.1s-0.3-0.1-0.4-0.1
			c-0.7,0-1.3,0.2-1.8,0.6V28l1.5,0.1v0.6h-3.7V28.3z"/>
		<path class="st1" d="M63.3,27.9c0.1,0.1,0.3,0.2,0.5,0.3c0.3,0.1,0.5,0.1,0.8,0.1c0.5,0,0.8-0.1,1-0.3c0.2-0.2,0.3-0.4,0.3-0.7
			c0-0.2-0.1-0.4-0.2-0.6s-0.3-0.3-0.6-0.4c-0.2-0.1-0.6-0.3-1-0.5c-0.6-0.2-1.1-0.5-1.4-0.8s-0.4-0.8-0.4-1.3
			c0-0.4,0.1-0.7,0.3-0.9c0.2-0.3,0.5-0.5,0.9-0.6s0.8-0.2,1.2-0.2c0.4,0,0.7,0,1,0.1s0.5,0.1,0.7,0.2s0.3,0.1,0.3,0.1v1.5H66
			L65.8,23c0-0.1-0.2-0.2-0.4-0.2c-0.2-0.1-0.4-0.1-0.7-0.1c-0.4,0-0.7,0.1-0.9,0.2c-0.2,0.2-0.3,0.4-0.3,0.6s0.1,0.4,0.2,0.6
			s0.3,0.3,0.4,0.4c0.2,0.1,0.4,0.2,0.7,0.3l0.2,0.1c0.4,0.2,0.8,0.3,1.1,0.5s0.5,0.4,0.7,0.6c0.2,0.3,0.3,0.6,0.3,1
			c0,0.6-0.2,1.1-0.7,1.4c-0.5,0.4-1.1,0.5-1.9,0.5c-0.4,0-0.8-0.1-1.2-0.2c-0.4-0.1-0.8-0.2-1.1-0.3v-1.5H63L63.3,27.9z"/>
	</g>
</g>
</svg>
