<?xml version="1.0" encoding="utf-8"?>
<!-- Generator: Adobe Illustrator 22.1.0, SVG Export Plug-In . SVG Version: 6.00 Build 0)  -->
<svg version="1.1" id="Capa_1" xmlns="http://www.w3.org/2000/svg" xmlns:xlink="http://www.w3.org/1999/xlink" x="0px" y="0px"
	 viewBox="0 0 161.5 34.8" style="enable-background:new 0 0 161.5 34.8;" xml:space="preserve">
<style type="text/css">
	.st0{fill-rule:evenodd;clip-rule:evenodd;fill:#51AAE1;}
	.st1{fill:#FFFFFF;}
</style>
<g>
	<g>
		<polygon class="st0" points="41.3,2 44.5,2 44.5,32.8 41.3,32.8 41.3,2 		"/>
	</g>
	<g>
		<path class="st1" d="M54.7,6.3L53,6.4L52.5,9h-1l0.2-3.5h7.7L59.6,9h-0.9l-0.5-2.6l-1.7-0.1v7.3l1.7,0.1v0.7h-5v-0.7l1.5-0.1V6.3z
			"/>
		<path class="st1" d="M61.3,10.9c0.7-0.4,1.7-0.6,2.8-0.6v-0.3c0-0.3,0-0.6-0.1-0.8C64,9.1,63.9,9,63.7,8.9
			c-0.2-0.1-0.4-0.1-0.8-0.1c-0.4,0-0.7,0-1.1,0.1c-0.3,0.1-0.6,0.2-1,0.4l-0.4-0.8c0.1-0.1,0.3-0.2,0.6-0.4c0.3-0.1,0.6-0.3,1-0.4
			c0.4-0.1,0.8-0.2,1.2-0.2c0.6,0,1.1,0.1,1.4,0.2c0.3,0.2,0.6,0.4,0.8,0.8c0.2,0.4,0.2,0.8,0.2,1.4v3.7h0.6v0.7
			c-0.2,0-0.4,0.1-0.7,0.1c-0.3,0-0.6,0.1-0.8,0.1c-0.3,0-0.5,0-0.5-0.1c-0.1-0.1-0.1-0.2-0.1-0.5v-0.3c-0.2,0.2-0.5,0.5-0.8,0.6
			c-0.3,0.2-0.7,0.3-1.2,0.3c-0.4,0-0.7-0.1-1-0.2c-0.3-0.2-0.6-0.4-0.7-0.7c-0.2-0.3-0.3-0.7-0.3-1.1
			C60.3,11.8,60.6,11.3,61.3,10.9z M63.6,13.4c0.2-0.1,0.4-0.2,0.6-0.4v-2c-0.7,0-1.3,0.1-1.6,0.4C62.2,11.7,62,12,62,12.4
			c0,0.4,0.1,0.7,0.3,0.9c0.2,0.2,0.4,0.3,0.7,0.3C63.2,13.6,63.4,13.5,63.6,13.4z"/>
		<path class="st1" d="M67.4,9.3c0.3-0.5,0.7-1,1.2-1.3c0.5-0.3,1.1-0.5,1.8-0.5c0.3,0,0.6,0,0.8,0.1c0.2,0,0.5,0.1,0.8,0.2L72.4,8
			L72.3,10h-1L71,8.7c0-0.2-0.3-0.3-0.7-0.3c-0.4,0-0.8,0.2-1,0.6s-0.4,1-0.4,1.8c0,0.9,0.2,1.6,0.5,2c0.3,0.5,0.7,0.7,1.2,0.7
			c0.6,0,1.2-0.2,1.7-0.5l0.3,0.6c-0.2,0.2-0.5,0.4-1,0.6c-0.4,0.2-0.9,0.3-1.4,0.3c-1,0-1.8-0.3-2.3-0.9C67.3,13,67,12.2,67,11.1
			C67,10.4,67.2,9.8,67.4,9.3z"/>
		<path class="st1" d="M74.3,14.2c-0.2-0.2-0.4-0.6-0.4-1.1V8.7h-0.8V8.1c0.1,0,0.2-0.1,0.3-0.1s0.3-0.1,0.4-0.2
			c0.1-0.1,0.3-0.3,0.3-0.5c0.1-0.2,0.2-0.6,0.4-1.2h1l0,1.8h1.8v0.9h-1.8v3.4c0,0.4,0,0.8,0,0.9c0,0.2,0.1,0.3,0.2,0.4
			s0.2,0.1,0.4,0.1s0.4,0,0.6-0.1c0.2,0,0.4-0.1,0.5-0.2l0.2,0.7c-0.2,0.2-0.6,0.3-1,0.5c-0.4,0.1-0.9,0.2-1.3,0.2
			C74.9,14.5,74.5,14.4,74.3,14.2z"/>
		<path class="st1" d="M79.1,8.9l-0.9-0.2V7.9l2.2-0.3h0l0.3,0.2v5.8l0.8,0.1v0.7h-3.3v-0.7l0.8-0.1V8.9z M79,6.4
			c-0.2-0.2-0.3-0.4-0.3-0.6c0-0.3,0.1-0.6,0.3-0.8c0.2-0.2,0.4-0.3,0.8-0.3c0.3,0,0.6,0.1,0.7,0.3c0.2,0.2,0.3,0.4,0.3,0.6
			c0,0.3-0.1,0.6-0.3,0.8c-0.2,0.2-0.5,0.3-0.8,0.3h0C79.4,6.7,79.2,6.6,79,6.4z"/>
		<path class="st1" d="M82.7,9.3c0.3-0.5,0.7-1,1.2-1.3c0.5-0.3,1.1-0.5,1.8-0.5c0.3,0,0.6,0,0.8,0.1c0.2,0,0.5,0.1,0.8,0.2L87.7,8
			L87.6,10h-1l-0.3-1.3c0-0.2-0.3-0.3-0.7-0.3c-0.4,0-0.8,0.2-1,0.6s-0.4,1-0.4,1.8c0,0.9,0.2,1.6,0.5,2c0.3,0.5,0.7,0.7,1.2,0.7
			c0.6,0,1.2-0.2,1.7-0.5l0.3,0.6c-0.2,0.2-0.5,0.4-1,0.6c-0.4,0.2-0.9,0.3-1.4,0.3c-1,0-1.8-0.3-2.3-0.9c-0.5-0.6-0.8-1.5-0.8-2.5
			C82.3,10.4,82.5,9.8,82.7,9.3z"/>
		<path class="st1" d="M89.7,10.9c0.7-0.4,1.7-0.6,2.8-0.6v-0.3c0-0.3,0-0.6-0.1-0.8C92.3,9.1,92.2,9,92,8.9
			c-0.2-0.1-0.4-0.1-0.8-0.1c-0.4,0-0.7,0-1.1,0.1c-0.3,0.1-0.6,0.2-1,0.4l-0.4-0.8c0.1-0.1,0.3-0.2,0.6-0.4c0.3-0.1,0.6-0.3,1-0.4
			c0.4-0.1,0.8-0.2,1.2-0.2c0.6,0,1.1,0.1,1.4,0.2c0.3,0.2,0.6,0.4,0.8,0.8C94,9,94.1,9.4,94.1,10v3.7h0.6v0.7
			c-0.2,0-0.4,0.1-0.7,0.1c-0.3,0-0.6,0.1-0.8,0.1c-0.3,0-0.5,0-0.5-0.1c-0.1-0.1-0.1-0.2-0.1-0.5v-0.3c-0.2,0.2-0.5,0.5-0.8,0.6
			c-0.3,0.2-0.7,0.3-1.2,0.3c-0.4,0-0.7-0.1-1-0.2c-0.3-0.2-0.6-0.4-0.7-0.7c-0.2-0.3-0.3-0.7-0.3-1.1
			C88.6,11.8,88.9,11.3,89.7,10.9z M91.9,13.4c0.2-0.1,0.4-0.2,0.6-0.4v-2c-0.7,0-1.3,0.1-1.6,0.4c-0.4,0.2-0.5,0.6-0.5,0.9
			c0,0.4,0.1,0.7,0.3,0.9c0.2,0.2,0.4,0.3,0.7,0.3C91.5,13.6,91.7,13.5,91.9,13.4z"/>
		<path class="st1" d="M96.2,5.7l-0.9-0.2V4.9l2.2-0.3h0l0.3,0.2v8.8l0.9,0.1v0.7h-3.4v-0.7l0.8-0.1V5.7z"/>
		<path class="st1" d="M103.9,13.6c-0.6-0.6-0.8-1.6-0.8-2.9V6.3l-0.9-0.1V5.5h3.2v0.6l-1,0.2v4.5c0,1.1,0.2,1.9,0.6,2.4
			c0.4,0.5,0.9,0.7,1.7,0.7s1.3-0.3,1.6-0.8s0.5-1.3,0.5-2.2V6.3l-1-0.2V5.5h2.8v0.6l-0.9,0.1v4.5c0,1.2-0.3,2.2-0.9,2.8
			c-0.6,0.6-1.4,0.9-2.4,0.9C105.3,14.5,104.4,14.2,103.9,13.6z"/>
		<path class="st1" d="M112,8.7l-0.9-0.2V7.8l1.7-0.2h0l0.3,0.2v0.5l0,0.3c0.3-0.3,0.7-0.5,1.1-0.7c0.5-0.2,0.9-0.3,1.4-0.3
			c0.5,0,0.9,0.1,1.2,0.3c0.3,0.2,0.5,0.5,0.6,0.9c0.1,0.4,0.2,0.9,0.2,1.6v3.4l0.8,0.1v0.6h-2.8v-0.6l0.7-0.1v-3.4
			c0-0.5,0-0.8-0.1-1.1c-0.1-0.3-0.2-0.5-0.4-0.6c-0.2-0.1-0.4-0.2-0.8-0.2c-0.3,0-0.6,0.1-0.9,0.2s-0.6,0.3-0.9,0.5v4.5l0.8,0.1
			v0.6h-2.8v-0.6l0.8-0.1V8.7z"/>
		<path class="st1" d="M120.1,5.5l-1-0.1V4.8l1.9-0.2h0l0.3,0.2v9l1,0.1v0.6h-3.2v-0.6l1-0.1V5.5z"/>
		<path class="st1" d="M124.2,8.7l-0.9-0.2V7.8l1.9-0.2h0l0.3,0.2v5.9l1,0.1v0.6h-3.2v-0.6l1-0.1V8.7z M124.1,6.4
			c-0.1-0.1-0.2-0.3-0.2-0.6c0-0.3,0.1-0.5,0.2-0.6c0.2-0.2,0.4-0.3,0.6-0.3c0.3,0,0.5,0.1,0.6,0.2s0.2,0.3,0.2,0.6
			c0,0.3-0.1,0.5-0.2,0.6s-0.4,0.2-0.7,0.2h0C124.4,6.6,124.2,6.5,124.1,6.4z"/>
		<path class="st1" d="M127.3,13.8l0.7-0.1v-5l-0.9-0.2V7.8l1.7-0.2l0.2,0.2l0.1,0.5l0,0.4c0.3-0.3,0.7-0.5,1.1-0.7s0.9-0.3,1.3-0.3
			c0.4,0,0.8,0.1,1,0.2c0.3,0.1,0.5,0.4,0.6,0.7c0.3-0.2,0.6-0.4,1.1-0.6s0.9-0.3,1.3-0.3c0.5,0,0.9,0.1,1.2,0.3
			c0.3,0.2,0.5,0.5,0.6,0.9c0.1,0.4,0.2,0.9,0.2,1.6v3.4l0.9,0.1v0.6h-2.9v-0.6l0.7-0.1v-3.3c0-0.5,0-0.8-0.1-1.1
			c-0.1-0.3-0.2-0.5-0.4-0.6c-0.2-0.1-0.5-0.2-0.8-0.2c-0.3,0-0.5,0.1-0.8,0.2c-0.3,0.1-0.5,0.3-0.8,0.4c0.1,0.3,0.1,0.8,0.1,1.3
			v3.3l0.9,0.1v0.6h-2.9v-0.6l0.8-0.1v-3.4c0-0.5,0-0.9-0.1-1.1c-0.1-0.3-0.2-0.5-0.3-0.6c-0.2-0.1-0.4-0.2-0.8-0.2
			c-0.3,0-0.6,0.1-0.9,0.2s-0.6,0.3-0.8,0.5v4.5l0.8,0.1v0.6h-2.8V13.8z"/>
		<path class="st1" d="M140.1,8.7l-0.9-0.2V7.8l1.9-0.2h0l0.3,0.2v5.9l1,0.1v0.6h-3.2v-0.6l1-0.1V8.7z M140.1,6.4
			c-0.1-0.1-0.2-0.3-0.2-0.6c0-0.3,0.1-0.5,0.2-0.6c0.2-0.2,0.4-0.3,0.6-0.3c0.3,0,0.5,0.1,0.6,0.2s0.2,0.3,0.2,0.6
			c0,0.3-0.1,0.5-0.2,0.6s-0.4,0.2-0.7,0.2h0C140.4,6.6,140.2,6.5,140.1,6.4z"/>
		<path class="st1" d="M144.2,14.2c-0.2-0.2-0.3-0.6-0.3-1.1V8.6H143V8c0,0,0.2,0,0.3-0.1c0.2,0,0.3-0.1,0.4-0.1
			c0.1-0.1,0.2-0.2,0.3-0.4c0.1-0.2,0.1-0.4,0.2-0.7s0.1-0.5,0.2-0.6h0.7l0,1.7h2v0.8h-2v3.7c0,0.5,0,0.8,0,1c0,0.2,0.1,0.3,0.2,0.4
			s0.3,0.1,0.5,0.1c0.2,0,0.5,0,0.7-0.1s0.5-0.1,0.6-0.2l0.2,0.5c-0.2,0.1-0.5,0.3-0.9,0.4c-0.4,0.1-0.8,0.2-1.2,0.2
			C144.8,14.6,144.5,14.5,144.2,14.2z"/>
		<path class="st1" d="M148.8,13.6c-0.5-0.6-0.8-1.5-0.8-2.5c0-0.7,0.1-1.3,0.4-1.8c0.3-0.5,0.6-0.9,1.1-1.2c0.5-0.3,1-0.4,1.6-0.4
			c0.7,0,1.3,0.2,1.7,0.6s0.6,1,0.7,1.8c0,0.5,0,0.9-0.1,1.1h-4.1c0,0.8,0.2,1.4,0.6,1.9c0.4,0.5,0.9,0.7,1.5,0.7
			c0.3,0,0.7-0.1,1-0.2c0.3-0.1,0.6-0.3,0.8-0.4l0.2,0.5c-0.2,0.2-0.6,0.4-1,0.6c-0.5,0.2-0.9,0.3-1.4,0.3
			C150.1,14.6,149.3,14.3,148.8,13.6z M152.3,10.5c0-0.2,0-0.3,0-0.5c0-0.5-0.1-0.9-0.3-1.2c-0.2-0.3-0.5-0.5-1-0.5
			c-0.5,0-0.8,0.2-1.1,0.5c-0.3,0.3-0.4,0.9-0.5,1.7H152.3z"/>
		<path class="st1" d="M155.9,14.2c-0.4-0.2-0.7-0.6-1-1.1c-0.2-0.5-0.4-1.1-0.4-1.8c0-0.7,0.1-1.3,0.4-1.9c0.3-0.6,0.7-1,1.2-1.3
			c0.5-0.3,1.1-0.5,1.9-0.5c0.4,0,0.8,0,1.1,0.1V5.5L158,5.3V4.8l2.2-0.2h0l0.3,0.2v9h0.7v0.6c-0.3,0.1-0.5,0.1-0.7,0.1
			c-0.2,0-0.4,0-0.6,0s-0.4,0-0.4-0.1c-0.1-0.1-0.1-0.2-0.1-0.5v-0.4c-0.2,0.3-0.5,0.5-0.9,0.7s-0.8,0.3-1.2,0.3
			C156.7,14.6,156.3,14.4,155.9,14.2z M158.6,13.5c0.3-0.1,0.5-0.3,0.6-0.5V8.6c-0.1-0.1-0.2-0.2-0.5-0.3s-0.5-0.1-0.8-0.1
			c-0.6,0-1.1,0.2-1.5,0.7s-0.6,1.2-0.6,2.2c0,0.9,0.2,1.5,0.5,1.9s0.8,0.6,1.3,0.6C158,13.7,158.3,13.6,158.6,13.5z"/>
		<path class="st1" d="M52.9,20.7l-0.9-0.1v-0.6h1.6c0.3,0,0.6,0,0.9,0c0.4,0,0.8,0,1.2,0c1.2,0,2,0.2,2.5,0.6
			c0.5,0.4,0.7,1.1,0.7,1.9c0,0.6-0.1,1.2-0.4,1.7c-0.3,0.5-0.7,0.8-1.2,1.1c-0.5,0.2-1.1,0.4-1.8,0.4c-0.2,0-0.5,0-0.7,0
			c-0.2,0-0.4,0-0.4,0v2.6l1.6,0.1v0.6h-3.9v-0.6l1-0.1V20.7z M55.3,24.9c0.6,0,1.1-0.2,1.5-0.6c0.4-0.4,0.6-1,0.6-1.9
			c0-0.7-0.2-1.2-0.5-1.5c-0.3-0.3-0.9-0.5-1.6-0.5c-0.3,0-0.5,0-0.8,0c-0.2,0-0.3,0-0.3,0v4.3C54.4,24.9,54.8,24.9,55.3,24.9z"/>
		<path class="st1" d="M60.8,25.4c0.8-0.4,1.7-0.5,2.9-0.6v-0.3c0-0.4,0-0.7-0.1-0.9s-0.2-0.4-0.4-0.5C62.9,23,62.6,23,62.2,23
			c-0.4,0-0.8,0.1-1.1,0.2s-0.6,0.3-1,0.4l-0.3-0.6c0.1-0.1,0.3-0.2,0.6-0.3c0.3-0.1,0.6-0.3,1-0.4c0.4-0.1,0.7-0.2,1.1-0.2
			c0.6,0,1,0.1,1.4,0.2c0.3,0.2,0.6,0.4,0.7,0.8c0.1,0.3,0.2,0.8,0.2,1.4v3.9h0.7v0.5c-0.2,0-0.4,0.1-0.6,0.1S64.5,29,64.3,29
			c-0.2,0-0.4,0-0.5-0.1c-0.1-0.1-0.1-0.2-0.1-0.5V28c-0.2,0.2-0.5,0.5-0.9,0.7c-0.3,0.2-0.7,0.3-1.2,0.3c-0.6,0-1.1-0.2-1.4-0.5
			s-0.6-0.8-0.6-1.4C59.6,26.3,60,25.7,60.8,25.4z M62.9,28c0.3-0.1,0.5-0.3,0.7-0.5v-2.1c-0.9,0-1.5,0.1-2,0.4s-0.7,0.6-0.7,1
			c0,0.4,0.1,0.8,0.3,1c0.2,0.2,0.5,0.3,0.9,0.3C62.4,28.2,62.6,28.1,62.9,28z"/>
		<path class="st1" d="M66.4,28.3l0.9-0.1v-5.1l-0.9-0.2v-0.6l1.7-0.2h0l0.3,0.2v0.2l0,0.9h0c0.1-0.1,0.2-0.3,0.4-0.5
			c0.2-0.2,0.5-0.4,0.8-0.6c0.3-0.2,0.7-0.3,1.1-0.3c0.2,0,0.3,0,0.4,0.1v1.3c-0.1,0-0.1-0.1-0.3-0.1s-0.3-0.1-0.4-0.1
			c-0.7,0-1.3,0.2-1.8,0.6v4.3l1.5,0.1v0.6h-3.7V28.3z"/>
		<path class="st1" d="M72.9,28.6c-0.2-0.2-0.3-0.6-0.3-1.1V23h-0.9v-0.5c0,0,0.2,0,0.3-0.1c0.2,0,0.3-0.1,0.4-0.1
			c0.1-0.1,0.2-0.2,0.3-0.4c0.1-0.2,0.1-0.4,0.2-0.7s0.1-0.5,0.2-0.6h0.7l0,1.7h2V23h-2v3.7c0,0.5,0,0.8,0,1c0,0.2,0.1,0.3,0.2,0.4
			c0.1,0.1,0.3,0.1,0.5,0.1c0.2,0,0.5,0,0.7-0.1c0.3-0.1,0.5-0.1,0.6-0.2l0.2,0.5c-0.2,0.1-0.5,0.3-0.9,0.4
			c-0.4,0.1-0.8,0.2-1.2,0.2C73.5,29,73.1,28.9,72.9,28.6z"/>
		<path class="st1" d="M77.5,23.1l-0.9-0.2v-0.6l1.7-0.2h0l0.3,0.2v0.5l0,0.3c0.3-0.3,0.7-0.5,1.1-0.7c0.5-0.2,0.9-0.3,1.4-0.3
			c0.5,0,0.9,0.1,1.2,0.3c0.3,0.2,0.5,0.5,0.6,0.9c0.1,0.4,0.2,0.9,0.2,1.6v3.4l0.8,0.1v0.6H81v-0.6l0.7-0.1v-3.4
			c0-0.5,0-0.8-0.1-1.1c-0.1-0.3-0.2-0.5-0.4-0.6c-0.2-0.1-0.4-0.2-0.8-0.2c-0.3,0-0.6,0.1-0.9,0.2c-0.3,0.1-0.6,0.3-0.9,0.5v4.5
			l0.8,0.1v0.6h-2.8v-0.6l0.8-0.1V23.1z"/>
		<path class="st1" d="M85.5,28c-0.5-0.6-0.8-1.5-0.8-2.5c0-0.7,0.1-1.3,0.4-1.8c0.3-0.5,0.6-0.9,1.1-1.2c0.5-0.3,1-0.4,1.6-0.4
			c0.7,0,1.3,0.2,1.7,0.6s0.6,1,0.7,1.8c0,0.5,0,0.9-0.1,1.1H86c0,0.8,0.2,1.4,0.6,1.9c0.4,0.5,0.9,0.7,1.5,0.7c0.3,0,0.7-0.1,1-0.2
			c0.3-0.1,0.6-0.3,0.8-0.4l0.2,0.5c-0.2,0.2-0.6,0.4-1,0.6c-0.5,0.2-0.9,0.3-1.4,0.3C86.7,29,86,28.7,85.5,28z M88.9,24.9
			c0-0.2,0-0.3,0-0.5c0-0.5-0.1-0.9-0.3-1.2c-0.2-0.3-0.5-0.5-1-0.5c-0.5,0-0.8,0.2-1.1,0.5c-0.3,0.3-0.4,0.9-0.5,1.7H88.9z"/>
		<path class="st1" d="M91.3,28.3l0.9-0.1v-5.1l-0.9-0.2v-0.6L93,22h0l0.3,0.2v0.2l0,0.9h0c0.1-0.1,0.2-0.3,0.4-0.5
			c0.2-0.2,0.5-0.4,0.8-0.6c0.3-0.2,0.7-0.3,1.1-0.3c0.2,0,0.3,0,0.4,0.1v1.3c-0.1,0-0.1-0.1-0.3-0.1s-0.3-0.1-0.4-0.1
			c-0.7,0-1.3,0.2-1.8,0.6v4.3l1.5,0.1v0.6h-3.7V28.3z"/>
		<path class="st1" d="M97.9,27.9c0.1,0.1,0.3,0.2,0.5,0.3c0.3,0.1,0.5,0.1,0.8,0.1c0.5,0,0.8-0.1,1-0.3c0.2-0.2,0.3-0.4,0.3-0.7
			c0-0.2-0.1-0.4-0.2-0.6s-0.3-0.3-0.6-0.4c-0.2-0.1-0.6-0.3-1-0.5c-0.6-0.2-1.1-0.5-1.4-0.8s-0.4-0.8-0.4-1.3
			c0-0.4,0.1-0.7,0.3-0.9c0.2-0.3,0.5-0.5,0.9-0.6c0.4-0.1,0.8-0.2,1.2-0.2c0.4,0,0.7,0,1,0.1c0.3,0.1,0.5,0.1,0.7,0.2
			c0.2,0.1,0.3,0.1,0.3,0.1v1.5h-0.7l-0.2-0.9c0-0.1-0.2-0.2-0.4-0.2c-0.2-0.1-0.4-0.1-0.7-0.1c-0.4,0-0.7,0.1-0.9,0.2
			c-0.2,0.2-0.3,0.4-0.3,0.6c0,0.2,0.1,0.4,0.2,0.6c0.1,0.2,0.3,0.3,0.4,0.4c0.2,0.1,0.4,0.2,0.7,0.3l0.2,0.1
			c0.4,0.2,0.8,0.3,1.1,0.5s0.5,0.4,0.7,0.6c0.2,0.3,0.3,0.6,0.3,1c0,0.6-0.2,1.1-0.7,1.4c-0.5,0.4-1.1,0.5-1.9,0.5
			c-0.4,0-0.8-0.1-1.2-0.2c-0.4-0.1-0.8-0.2-1.1-0.3v-1.5h0.8L97.9,27.9z"/>
	</g>
	<g>
		<path class="st1" d="M17.1,6.9c-5.5,0-10,4.5-10,10c0,5.5,4.5,10,10,10c5.5,0,10-4.5,10-10C27.2,11.4,22.7,6.9,17.1,6.9z
			 M23.9,23.7c-1.8,1.8-4.2,2.8-6.8,2.8c-2.6,0-5-1-6.8-2.8c-1.8-1.8-2.8-4.2-2.8-6.8c0-2.6,1-5,2.8-6.8c0,0,0.1-0.1,0.1-0.1
			c0,0.1-0.1,0.2-0.1,0.3c-0.1,0.2-0.4,0.3-0.5,0.5c-0.1,0.2-0.2,0.5-0.3,0.7c-0.1,0.2,0,0.5-0.1,0.7c-0.1,0.3-0.3,0.4-0.2,0.8
			c0.4,0.1,0.2-0.6,0.5-0.6c0.1,0.3,0,0.7,0,1c0,0.4-0.1,0.5,0.1,0.8c0.2,0.3,0.2,0.4,0.6,0.5c0.3,0,0.5,0.2,0.6,0.5
			c0.2,0.1,0.4,0.1,0.4,0.4c0.1,0.1,0.3,0.3,0.4,0.3c0.2,0,0.4-0.2,0.6,0c0.3,0.3-0.3,1.1-0.4,1.4c-0.2,0.4-0.2,1,0.2,1.3
			c0.2,0.1,0.4,0.2,0.5,0.5c0.1,0.2,0,0.5,0.1,0.7c0.2,0.4,0.6,0.5,0.8,0.8c0.4,0.4,0.3,0.8,0.3,1.4c0,0.5,0.2,1,0.3,1.5
			c0.1,0.5,0.2,1,0.3,1.5c0.1,0.4,0.4,0.9,0.9,0.9c0-0.2-0.2-0.3-0.2-0.5c0-0.2,0-0.3,0-0.5c-0.1-0.3-0.1-0.5,0.2-0.8
			c0.1-0.1,0.2-0.2,0.3-0.3c0.2-0.2,0-0.1,0-0.4c0-0.3,0.1-0.1,0.2-0.2c0.1,0,0.2-0.2,0.2-0.2c0.1-0.2,0.4-0.3,0.5-0.5
			c0.1-0.2,0.1-0.5,0.2-0.7c0.1-0.2,0.4-0.2,0.6-0.4c0.3-0.2,0.2-0.4,0.2-0.7c0.1-0.5,0.3-1,0.6-1.3c0.4-0.5,0.5-0.9,0.1-1.3
			c-0.2-0.2-0.3-0.2-0.6-0.2c-0.2-0.1-0.4-0.2-0.6-0.2c-0.1,0-0.2,0-0.3,0c-0.1,0-0.1-0.1-0.2-0.1c-0.2,0-0.4,0.4-0.6,0.1
			c-0.1-0.1,0.2-0.5,0.2-0.7c0-0.2-0.1-0.6-0.3-0.7c-0.1,0-0.3-0.1-0.4-0.1c-0.1,0-0.2-0.1-0.3-0.2c-0.1-0.1-0.4-0.2-0.5-0.4
			c-0.2,0-0.3-0.1-0.5-0.1c-0.2,0-0.3,0.1-0.4,0.1c-0.1,0-0.3-0.1-0.5-0.1c-0.1,0-0.3,0.2-0.4,0.2c-0.2,0.1-0.5,0.2-0.8,0.3
			c-0.4,0.1-0.5-0.1-0.5-0.5l-0.1-0.1c0.2-0.4-0.1-0.5-0.4-0.6c0-0.3,0.3-0.5,0.2-0.9c-0.3,0-0.7,0.9-0.9,0.5
			c-0.2-0.3,0.1-1,0.2-1.2c0.2-0.2,0.7-0.6,1-0.6c0.2,0,0.4,0.1,0.5,0.2c0.1,0.2,0,0.4,0,0.6c0.3-0.1,0.2-0.4,0.2-0.6
			c0-0.3,0.1-0.3,0.3-0.5c0.1-0.2,0.2-0.4,0.3-0.6c0.1-0.2,0.3-0.3,0.4-0.4c0.2-0.2,0.4-0.1,0.5-0.3c0.3-0.2-0.1-0.5,0.3-0.5
			c0.1,0,0.1,0.1,0.3,0.1c0.1,0,0.2-0.1,0.3-0.1c0.4-0.2,0.1-0.2-0.1-0.4c-0.2-0.3,0.1-0.2,0.3-0.2c0.2,0,0.1-0.1,0.3,0
			c0.1,0.1,0.1,0.2,0.2,0.2c0.4,0,0.1-0.4,0-0.5c-0.1-0.2-0.2-0.3-0.5-0.4c0-0.1,0-0.2,0-0.3c-0.2,0-0.3-0.1-0.5-0.2
			c-0.3-0.1-0.3,0.1-0.4,0.3C14.3,8.8,14,8.7,14,9c-0.1,0.2,0,0.4-0.4,0.3c0-0.1,0-0.3,0-0.5c-0.1,0-0.2,0-0.3-0.1
			c0-0.4,0.4-0.4,0.7-0.4c0.3,0,0.4-0.4,0.7-0.4c0.3,0,0.4,0.4,0.8,0.1c0.2-0.1,0.1-0.2,0-0.3c0,0-0.1-0.1-0.1-0.1c0,0,0,0,0,0
			c0.2,0,0.5-0.1,0.7-0.1c0,0.1,0.1,0.3,0.2,0.4c0,0.1,0.1,0.1,0.1,0.2c0,0.1-0.1,0.2,0.1,0.3c0.2,0.1,0.7-0.5,0.8-0.6
			c0.1-0.1,0.2-0.2,0.2-0.3c0.8,0,1.6,0.1,2.3,0.3c0.1,0.1,0.1,0.1,0.2,0.2c0.1,0.2,0.2,0.3,0.4,0.4c0.1,0,0.6,0,0.4,0.3
			c-0.2,0.3-0.4-0.1-0.4-0.2c-0.1-0.1-0.5-0.3-0.4,0c0,0.4,1,0.4,0.8,0.8c0.1,0.1,0.3,0.2,0.3,0.3c0,0.2-0.3,0.1-0.3,0.3
			c0,0.4,0.4,0.7,0.8,0.5c0.4-0.1,0.1-0.7,0.6-0.8c0.2,0,0.3,0,0.5,0.2c0.1,0.1,0.2,0.3,0.4,0.3c0-0.1-0.1-0.2-0.1-0.3
			c0.1,0,0.4,0.2,0.5,0.3c0.1,0.2,0.1,0.5,0.4,0.2c0,0-0.1-0.1-0.1-0.2c0.4,0,0.7,0.2,0.8,0.5c0.4,0.8-0.5,0.2-0.6,0.5
			c-0.2-0.1-0.3-0.3-0.5-0.4c-0.1-0.1-0.3,0-0.3-0.1c-0.1-0.1-0.1-0.2-0.2-0.3c-0.3-0.3-1.1,0.2-1.4,0.3c-0.1,0-0.2,0.1-0.2,0.1
			c-0.1,0.2,0,0.2,0,0.3c0,0.2-0.3,0.3-0.4,0.5c-0.2,0.4,0.2,1,0.1,1.4c0,0.2-0.3,0.5-0.2,0.7c0,0.1,0.2,0.2,0.3,0.3
			c0.1,0.1,0.1,0.2,0.1,0.3c0.2,0.3,0.6,0.7,0.8,1c0.2,0.2,0.4,0.2,0.6,0.2c0.2,0,0.5-0.1,0.7-0.2c0.2-0.1,0.3-0.3,0.5-0.2
			c0.2,0.1,0.4,0.3,0.6,0.1c0.2,0.2,0,0.5-0.1,0.7c-0.1,0.3,0.1,0.5,0.2,0.7c0.2,0.3,0.2,0.3,0.2,0.7c0,0.3-0.1,0.5-0.2,0.8
			c-0.1,0.3-0.2,0.5-0.2,0.7c0,0.3,0.1,0.5,0.1,0.7c0,0.2,0,0.5-0.1,0.8c-0.1,0.2-0.2,0.5-0.3,0.7c-0.1,0.2,0,0.5,0.1,0.7
			c0.2,0.2,0.3,0.1,0.5-0.1c0.4-0.3,0.6-0.8,0.9-1.2c0.3-0.4,0.5-0.8,0.7-1.2c0-0.1,0.1-0.2,0.1-0.3C25.9,21.1,25.1,22.5,23.9,23.7z
			"/>
		<g>
			<g>
				<path class="st1" d="M17.1,29.4c-6.9,0-12.5-5.6-12.5-12.5c0-6.9,5.6-12.5,12.5-12.5s12.5,5.6,12.5,12.5
					C29.6,23.8,24,29.4,17.1,29.4z M17.1,6c-6,0-10.9,4.9-10.9,10.9c0,6,4.9,10.9,10.9,10.9c6,0,10.9-4.9,10.9-10.9
					C28.1,10.9,23.2,6,17.1,6z"/>
			</g>
		</g>
		<g>
			<g>
				<path class="st1" d="M17.1,0c-0.2,0-0.4,0.2-0.4,0.4v8.6c0,0.2,0.2,0.4,0.4,0.4c0.2,0,0.4-0.2,0.4-0.4V0.4
					C17.5,0.2,17.3,0,17.1,0z"/>
				<path class="st1" d="M9.1,16.6H0.4c-0.2,0-0.4,0.2-0.4,0.4c0,0.2,0.2,0.4,0.4,0.4h8.8c0.2,0,0.4-0.2,0.4-0.4
					C9.5,16.7,9.3,16.6,9.1,16.6z"/>
				<path class="st1" d="M33.9,16.6h-9c-0.2,0-0.4,0.2-0.4,0.4c0,0.2,0.2,0.4,0.4,0.4h9c0.2,0,0.4-0.2,0.4-0.4
					C34.2,16.7,34.1,16.6,33.9,16.6z"/>
				<path class="st1" d="M17.1,24.7c-0.2,0-0.4,0.2-0.4,0.4v9.4c0,0.2,0.2,0.4,0.4,0.4c0.2,0,0.4-0.2,0.4-0.4V25
					C17.5,24.8,17.3,24.7,17.1,24.7z"/>
			</g>
		</g>
	</g>
</g>
</svg>
