<?xml version="1.0" encoding="utf-8"?>
<!-- Generator: Adobe Illustrator 22.1.0, SVG Export Plug-In . SVG Version: 6.00 Build 0)  -->
<svg version="1.1" id="Layer_1" xmlns="http://www.w3.org/2000/svg" xmlns:xlink="http://www.w3.org/1999/xlink" x="0px" y="0px"
	 viewBox="0 0 1001.9 1200" style="enable-background:new 0 0 1001.9 1200;" xml:space="preserve">
<style type="text/css">
	.st0{fill-rule:evenodd;clip-rule:evenodd;fill:#CCCCCC;}
	.st1{fill:#0E3987;}
</style>
<g>
	<g>
		<path class="st0" d="M677.1,780.3c0-0.1,0-0.2,0-0.2c-0.1,0-0.2,0-0.3,0C676.9,780.1,676.9,780.1,677.1,780.3
			C677,780.2,677,780.2,677.1,780.3z"/>
		<path class="st0" d="M508.2,179.7c-0.1,0-0.1,0-0.2,0c0,0.1,0,0.2,0,0.2c0.1,0,0.2,0,0.3,0C508.3,179.9,508.3,179.8,508.2,179.7z"
			/>
		<path class="st0" d="M534.8,239.2c-0.1,0.1-0.1,0.1-0.2,0.2L534.8,239.2c-0.4,1.4-0.9,2.9-1.4,4.4c-1.5,4.7-4.4,8.9-5.5,13.7
			c-0.3,1.1-1.1,1.6-2,2.2c-0.6,0.4-1.2,0.9-1.7,1.5c-0.8,0.9-0.3,2.8,0.8,3.4c0.5,0.2,1,0.3,1.5,0.5c1.1,0.4,1.7,1.1,1.6,2.4
			c-0.1,0.5-0.1,1-0.1,1.6c0,1.9,1.2,2.8,3,2.3c1-0.3,2.3-0.4,2.9-1.1c2.5-2.9,6.7-4,8.4-7.8c0.1-0.3,1-0.5,1.4-0.3
			c1.6,0.9,3.2,1.8,3.3,3.9c0,0.9,0.4,1.6,1.1,1.9c1.9,0.8,3.9,1.5,5.8,2.2c0.4,0.1,1.1,0,1.5-0.3c1-0.8,2-1.7,2.8-2.7
			c0.8-0.9,0.3-2.6-0.9-3.3c-0.2-0.1-0.5-0.2-0.7-0.3c-1.7-0.5-2.6-1.6-2.6-3.4c0-2.2-0.7-4.1-2.3-5.6c-0.9-0.9-2-1.9-2.4-3
			c-1.2-3.1-4.7-4.1-6-7c-0.2-0.3-0.9-0.3-1.4-0.5c-1.6-0.5-1.6-0.7-0.6-1.8c0.9-0.9,1.8-1.8,2.5-2.8c0.2-0.3,0.1-1-0.1-1.5
			c-0.2-0.5-0.7-0.5-1.3-0.2c-0.9,0.5-1.8,0.9-2.9,0.5c-0.9-0.3-2-0.2-3.1-0.2C535.7,238.2,535.3,238.7,534.8,239.2
			C534.8,239.2,534.8,239.2,534.8,239.2z"/>
		<path class="st0" d="M576.9,1188c0,0.1-0.1,0.1-0.1,0.2c0.1,0,0.2,0,0.3,0C577.1,1188.1,577,1188.1,576.9,1188
			C576.9,1188,576.9,1188,576.9,1188z"/>
		<path class="st0" d="M569.1,187.7c0.1,0,0.1,0,0.2,0c-0.1-0.1-0.2-0.1-0.2-0.2c0,0,0,0,0,0C569.1,187.6,569.1,187.6,569.1,187.7z"
			/>
		<path class="st0" d="M619.1,452c0.1-0.1,0.2-0.2,0.2-0.3c-0.1,0-0.2,0-0.2,0C619.1,451.8,619.1,451.9,619.1,452
			C619.1,452,619.1,452,619.1,452z"/>
		<path class="st0" d="M589.4,1197.4C589.4,1197.4,589.4,1197.4,589.4,1197.4c-0.1,0-0.1,0.1-0.2,0.2L589.4,1197.4z"/>
		<path class="st0" d="M165.8,242.2C165.8,242.2,165.7,242.2,165.8,242.2c-0.1,0.1-0.1,0.2-0.1,0.4c0.1-0.1,0.1-0.2,0.2-0.3
			C165.9,242.3,165.8,242.3,165.8,242.2z"/>
		<path class="st0" d="M769.2,816.3c-0.2-0.7-1-1.3-1.6-1.6c-1.2-0.5-2.5-1.1-3.7-1c-2.3,0.2-4.1-0.6-5.7-1.9
			c-2-1.7-4.8-2.3-6.3-4.5c-2.4-3.7-6.3-5.3-9.9-7.4c-1.6-1-3.4-1.4-5.2-1.3c-6.3,0.2-12.4-0.9-18.5-2.5c-0.7-0.2-1.6,0-2.3,0.2
			c-1,0.3-1.9,0.9-2.8,1.4c-0.7,0.3-1.4,0-1.8-0.9c-0.5-1.2-0.7-2.5-1.4-3.6c-0.5-0.8-1.4-1.9-2.3-2c-3.5-0.3-6.3-2.3-9.4-3.6
			c-2.4-1-4.8-1.8-7.5-1.9c-2.3-0.1-4.1,0.3-5.2,2.5c-0.1,0.2-0.4,0.4-0.6,0.4c-0.5,0-0.7-0.4-0.5-1c0.1-0.5,0.2-1,0.3-1.5
			c0.5-2.1-0.8-3.3-2-3.8c-1.9-0.7-3.9-1.3-5.8-1.9c-0.1,0.4-0.2,0.9-0.3,1.3c0,0,0.1,0,0.1,0l0.2,0.3l-0.4-0.1c0-0.1,0-0.1,0-0.1
			c-2.2-0.3-4.3-0.2-6,1.4c-0.6-1.2-1.8-1.4-2.9-1.4c1.7-1.6,3.7-2.5,6-3.1c0.5-2,1.1-3.9,1.6-5.9c0.3-1.3,0.2-2.6-0.7-3.7
			c-1-1.2-1.6-2.6-2.7-3.8c-2.1-2.3-3.7-5-4.2-8.2c-0.3-1.6-1-3-2.1-4.1c-4.2-4.2-8.4-8.6-14.7-9.8c-0.7-0.1-1.5-0.5-2.2-0.9
			c-2.6-1.4-5.4-1.6-8.3-1.5c-2.9,0.1-5.7,0-8.6-0.1c-0.7,0-1.5-0.3-2.2-0.7c-2.7-1.6-4.8-4-8-4.6c-0.4-0.1-0.7-0.7-0.9-1.1
			c-0.4-1.3-0.9-2.4-1.9-3.4c-1.7-1.6-3.2-3.4-5-4.9c-1.2-1-2.6-1.7-4.1-2.2c-1.2-0.4-2.6-0.3-3.8-0.5c-0.8-0.1-1.5-0.5-1.4-1.4
			c0.1-2.4-1.1-3.8-3.3-4.8c-1.9-0.8-3.8-1.7-5.6-2.6c-0.6-0.3-1.4-0.9-1.6-1.5c-0.2-0.9,0.8-1,1.5-1.3c0.2-0.1,0.5-0.2,0.7-0.3
			c0.6-0.3,0.8-0.7,0.5-1.2c-0.1-0.2-0.4-0.3-0.6-0.4c-2.3-0.8-4.6-0.4-7-0.3c-1.4,0.1-2.5-0.4-3.4-1.4c-0.4-0.4-1.1-0.2-1.3,0.4
			c-0.3,0.7-0.3,1.7-0.8,2.1c-2.4,2.1-6.2,3.7-9.2,1.5c-1.9-1.4-3.8-1.4-5.9-1.2c-2.3,0.3-4.7,0.3-7,0.5c-1.1,0-1.9-0.5-2.3-1.6
			c-0.1-0.2-0.1-0.5-0.1-0.8c-0.4-1.7-1.4-2.8-3.1-3.1c-1-0.2-2-0.4-3.1-0.6c-2-0.3-3.3-1.3-3.9-3.3c-0.2-0.8-0.8-1.3-1.6-1.4
			c-0.8-0.1-2.1,0.7-2.5,1.5c-0.2,0.5-0.4,1-0.5,1.5c-0.1,1.8-1.1,2.8-2.8,3.3c-1.2,0.4-2.4,1-3.6,1.5c-0.7,0.3-1.3,0-1.9-0.9
			c-0.4-0.7-0.8-1.4-0.1-2.1c1.1-1.1,2.2-2.1,3.3-3.2c0.6-0.6,0.1-2.3-0.8-2.7c-0.7-0.3-1.5-0.6-2.2-0.5c-1.8,0.3-3.5,1.1-4.8,2.4
			c-1.7,1.7-3.7,3-5.9,3.6c-2.5,0.6-5.2,0.6-7.3,2.5c-0.3,0.3-1,0-1.5,0c-1.7-0.2-3,0.6-4.1,1.8c-1.4,1.6-2.8,3.2-3.1,5.3
			c-0.3,2-1,3.3-2.7,4.4c-1.5,1-2.9,2.2-4.1,3.6c-0.6,0.7-0.7,1.7-1,2.6c0,0,0.1,0,0.1,0l0,0.5l-0.2-0.3c0-0.1,0-0.1,0.1-0.2
			c-0.5-0.1-1-0.2-1.3-0.5c-1.4-1.2-2.7-2.4-4-3.7c-1.7-1.7-3.8-2.6-6.1-3.1c-3.1-0.7-6.2-0.7-9,1c-0.9,0.5-1.9,0.8-2.8,1.4
			c-2.1,1.3-4.2,2-6.5,0.6c-4.3-0.4-6.9-3.3-9.3-6.4c-1.4-1.8-2.5-3.9-3.7-5.9c-0.4-0.6-0.6-1.4-0.6-2.2c-0.1-2.6-0.1-5.2,1.7-7.4
			c0.6-0.8,0.9-1.9,0.9-2.9c0.1-2.6,0.8-5,1.5-7.5c0.7-2.4,0.5-5.1,0.6-7.7c0-0.4-0.4-1-0.8-1.2c-0.9-0.5-1.9-0.8-2.9-1.1l0,0
			c0.1,0.1,0.1,0.1,0.2,0.2l-0.5,0.2l0.3-0.3c-1.7-1.5-3.5-2.7-6-2.8c-2.3-0.1-4.7-0.3-6.9-0.9c-2.7-0.7-5.1,0.8-7.7,0.6
			c-2.1-0.1-4.1,0.3-6.2,0.3c-1.3,0-2.6-0.3-3.8-0.6c-0.6-0.1-0.9-0.7-0.5-1.1c2.4-2.3,3.5-5,3.2-8.4c-0.1-1.5,0.3-3.1,0.5-4.6
			c0.1-0.8,0.5-1.5,1.4-1.5c1.9-0.1,2.8-1.2,3.1-2.9c0.3-1.8,0.8-3.6,0.7-5.4c-0.1-2.5,0.6-4.5,2.3-6.4c1-1.2,2-2.4,2.8-3.7
			c0.4-0.6,0.6-1.4,0.9-2.2c0.4-1.3-1-3.4-2.4-3.4c-3.1-0.1-6.3-0.6-9.2,0.7c-2.4,1.1-5,1.3-7.6,1.3c-2.4,0.1-3.9,1.4-4.8,3.4
			c-0.5,1.2-1,2.4-1.3,3.6c-1,3.8-2.4,7.4-5.5,10c-1,3.1-2.9,3-5.5,2c-1.1-0.4-2.6-0.2-3.8,0.1c-2.5,0.7-4.9,1.8-7.4,2.3
			c-2,0.4-4.1,0.6-5.8-1.3c-1.2-1.4-2.9-2.2-4.6-2.8c-2.1-0.7-3.5-2.3-4.3-4.2c-1.1-2.7-2.5-5.1-4.4-7.3c-0.9-1-1.3-2.2-1.5-3.5
			c-0.4-2.3-0.9-4.6-1.2-6.9c-0.2-1.5-0.4-3.1-0.3-4.7c0.3-5.4,0.9-10.9,2-16.2c0.2-1,0.5-2.1,1.1-2.8c1.9-2.2,2.3-4.5,2-7.3
			c-0.4-3.7,0.4-7.3,1.6-10.7c1.1-3.1,3.1-5.8,6.3-6.3c3.8-0.7,7-2.1,9.7-4.6c2-1.9,4.6-2.2,7-3.1c1.9-0.8,4.1-0.3,6.1,0.4
			c1.5,0.6,3.1,0.9,4.5,0.2c1.7-0.8,3.3-0.4,4.1,1c1.9,3.1,4.7,3,7.5,2.5c1.4-0.3,2.8-1.1,4.2-1.6c0.4-1.5,1-2.9,1.1-4.4
			c0.1-1.7,1.2-2.2,2.4-2.6c1-0.3,2-0.4,3.1-0.5c3.6-0.7,7.3,0.3,10.9,0.1c4.1-0.2,7.7,0.7,10.6,3.9c1,1.1,2.4,0.9,3.6,0.4
			c1-0.4,1.9-0.9,2.9-1.2c1.1-0.4,2.2-0.1,2.9,0.7c1.7,2,3.3,4,4.9,6.1c0.9,1.1,1,2.4,0.5,3.7c-0.3,0.7-0.5,1.5-0.8,2.2
			c-0.7,1.6-0.7,3,0.5,4.3c1.1,4.3,3.5,8,5.1,12.1c0.7,1.9,2.3,3.4,3.6,5c1.2,1.4,3.8,1.1,4.7-0.5c1.9-3.2,3.1-6.6,3.4-10.3
			c0.1-0.5,0.1-1.1-0.1-1.5c-0.6-2-1.5-3.9-1.9-5.9c-0.4-2-0.5-4.1-0.7-6.1c0-0.3-0.1-0.5-0.2-0.7c-2.4-6-2.1-12.2-1.5-18.5
			c0.1-1,0.4-2.2,1-2.9c2.7-3.1,5.3-6.5,9.6-7.6c0.5-0.1,1-0.4,1.5-0.5c1.6-0.5,2.7-1.5,3.7-2.7c0.9-1,1.5-2.1,2.4-3.1
			c0.7-0.7,1.5-1.6,2.4-1.9c1.9-0.5,3.2-1.6,4.5-2.9c2.1-2,4.5-3.5,7.4-4.1c1.4-0.3,2.2-1.3,2.2-2.8c0-1,0.8-1.2,1.4-1.6
			c0.9-0.6,1.7-1.2,2.4-1.9c0.5-0.5,1-1.4,0.5-2.1c-0.7-1.1-1.3-2-0.5-3.5c0.9-1.9,1.3-3.9,0-5.9c-0.4-0.6-0.6-1.5-0.6-2.2
			c0.1-2.3,0.3-4.6,0.5-6.9c0-0.1,0.4-0.3,0.6-0.3c0.2,0,0.5,0.1,0.7,0.3c1.2,1,0.8,2.3,0.9,3.6c0,0.4,0.5,0.8,0.9,1.1
			c0.1,0.1,0.5-0.1,0.7-0.3c1.3-1.9,2.7-3.8,3.9-5.8c0.5-0.8,0.6-2,0.8-3c0.1-0.8,0-1.5,0.1-2.3c0-0.6,0.4-0.9,1.1-0.9
			c1.4,0.1,2.4-0.8,3.3-1.7c2.2-2.3,3.9-5,4.4-8.1c0.4-2.7,2-3.3,4.3-3.5c1.5-0.1,3.1-0.4,4.6-0.8c0.7-0.2,1.4-0.7,2.1-1.1
			c0.2-0.1,0.4-0.4,0.4-0.6c0-0.2-0.2-0.6-0.4-0.6c-0.5-0.2-1-0.4-1.5-0.4c-0.7,0-1-0.3-0.8-0.8c0-0.1,0.5-0.1,0.7-0.2
			c0.3,0,0.5,0,0.8,0c4.5,0.7,8.6-1.6,13.1-1.5c0.6,0,1.3-0.7,1.9-1.2c1.6-1.2,1.5-1.8-0.4-3.1c-1.4-1-2.3-2.6-1.9-3.8
			c0.5-1.7,1-3.5,1.8-5.1c1.3-2.9,3.4-5.2,6.5-6.5c1.7-0.7,3.4-1.3,4.8-2.6c1-1,2.3-1.4,3.6-1.3c3.5,0.3,6.6-1.3,9.9-1.9
			c1.2-0.2,1.4-1.3,1.7-2.3c0.2-0.6,1-1.3,1.7-1.5c2.5-0.7,5-1.1,7.6-1.7c0.2,0,0.6,0.2,0.6,0.3c-0.1,0.4-0.2,1.1-0.5,1.2
			c-0.9,0.5-1.9,0.7-2.8,1.2c-2.2,1.1-3.9,2.7-4.8,5c-0.4,0.9-0.5,2.1-0.4,3c0.3,1.6,1.3,2.8,2.7,3.7c0.4,0.2,1.1,0.4,1.5,0.2
			c3.1-1.4,6-3.1,8.1-5.9c1.2-1.7,2.6-2.4,4.6-2c3.9-1.3,7.9-2.6,11.8-3.8c1.2-0.4,2.4-0.8,3.7-1.3c0.6-2.8,3.4-1.9,5-3
			c0.7-0.4,1.4-0.6,2.1-1c0.5-0.2,0.9-0.6,1.3-0.9c0.5-0.3,0.9-1.7,0.4-2.1c-1.7-1.4-3-2.9-2-5.3c0.1-0.2-0.2-0.5-0.2-0.7
			c-0.2-0.6-1.5-1.1-2-0.7c-2.6,2.2-4.6,4.9-6.5,7.7c-0.7,1.1-1.4,1.4-2.5,1c-0.7-0.2-1.5-0.3-2.2-0.4c-0.3,0.5-0.8,0.8-1.4,0.7
			c-0.6-0.1-1.1-0.5-1.6-0.8c-0.7-0.1-1.5-0.3-2.2-0.3c-1.8-0.1-2.5-1.2-2.6-2.8c-2.9-0.2-4.3-1.8-4.7-4.8c-0.4-2.6-0.4-5,0.8-7.4
			c0.5-1-0.1-1.8-1.4-2.2c-0.5-0.1-1-0.1-1.5-0.2c-0.2,0-0.4-0.2-0.7-0.4c0.5-0.2,0.9-0.3,1.4-0.5c1.9-0.7,3.8-1.7,5.3-3.1
			c0.8-0.8,1.3-2.5,0.7-3.6c-0.5-0.9-1-1.9-1.8-2.4c-2.2-1.5-4.6-2.5-7.3-1.8c-6.9,1.8-14,3.1-20,7.4c0,0.1,0,0.2,0,0.3
			c-0.2,0-0.3,0-0.4,0.1c-0.8,0.9-1.7,1.8-2.5,2.6c0,0.1,0,0.3-0.1,0.4c-1.1,0.4-2.3,0.8-3.4,1.3c-0.6,0.5-1.2,0.9-1.8,1.4l-0.2,0.4
			l0.1-0.6c0.6-0.5,1.1-0.9,1.7-1.4c1.1-0.4,2.2-0.8,3.4-1.2c0.1-0.1,0.2-0.2,0.3-0.3c0.3-2.1,0.5-2.3,2.5-2.6
			c0.1-0.1,0.2-0.2,0.2-0.2c0.1,0,0.1-0.1,0.2-0.1c-0.1-1.3,0.5-2.3,1.4-3.1c2.6-2.3,5.5-3.9,8.7-4.9c2-0.6,3.9-1.5,4.7-3.6
			c0.2-0.5,0.5-0.9,0.9-1.3c1.5-1.4,3-2.9,4.8-4c1.6-1,3.5,0.1,5.3,0.1c7.3,0.2,14.5,1.1,21.6,2.1c3.1,0.5,6.1-1,9.2-0.5
			c0.7,0.1,1.5-0.2,2.3-0.4c0.7-0.2,1.5-0.6,2.1-0.9c2-1.2,3.9-2.5,5.2-4.5c1.1-1.6,2.7-2.4,4.6-2.7c1.3-0.2,2.6-0.5,3.8-0.6
			c3.9-0.1,6.9-2.1,9.8-4.3c1.5-1.1,2.5-2.8,1.6-4.8c-0.5-1.3-0.8-2.4-0.1-3.7c0.5-0.9,0.9-1.9,1-2.9c0.1-0.7,0-1.6-0.3-2.2
			c-1.2-2.1-2.8-3.6-5.5-3.2c0,0,0,0,0,0.1l-0.5,0.3l0.3-0.3c0,0,0.1,0,0.1,0c-0.1-0.8-0.1-1.5-0.4-2.3c-0.4-1.3-1.2-2.3-2.6-2.6
			c-0.8-0.1-1.6-0.1-2.3-0.2c-0.2,0-0.5-0.1-0.7-0.2c0.3-0.2,0.6-0.6,0.9-0.7c0.7-0.3,1.5-0.5,2.2-0.8c0.9-0.5,1.1-1.7,0.4-2.7
			c-0.7-1.1-1.5-2.1-3.1-2c-0.5,0-1.3,0.2-1.5-0.1c-1.9-2.4-4.7-3.1-7.2-4.4c-0.4-0.2-0.9-0.7-1-1.1c-0.6-2.8-2.6-4.4-4.5-6.1
			c-0.9-0.9-1.7-2-2.5-2.9c-0.8-1-0.9-2-0.1-2.8c0.9-0.9,1.8-1.8,2.7-2.8c0.8-0.9,0.9-1.9,0.2-2.8c-1.2-1.8-1.9-3.6-1.4-5.8
			c0.1-0.6-0.5-1.5-1.1-1.9c-1-0.9-0.3-2.5-1.6-3.4c-1-0.6-0.1-1.9-0.4-2.9c-0.4-1.2-0.2-2.5-0.4-3.8c-0.3-1.5-0.6-3.1-1.2-4.5
			c-1.3-3.4-1.9-7-2.4-10.6c-0.1-1-0.2-2.1-0.6-3.1c-0.1-0.3-0.7-0.6-1.2-0.8c-0.2-0.1-0.6,0-0.7,0.2c-1.9,3.1-4.4,5.7-5.9,9
			c-1.6,3.3-3.5,6.4-7.2,7.8c-0.9,0.4-1.6,1.4-2.4,1.9c-1.1,0.7-2.3,1.2-3.5,1.7c-1.4,0.5-2.5,0-3.6-0.9c-0.9-0.6-1.4-1.5-1.8-2.5
			c-0.4-1.3-1.4-2.2-2.6-2.8c-1.7-0.9-1.9-2.5-1.8-4c0.1-2.5,1.8-4.9,0.7-7.6c-0.2-0.5,0.4-1.4,0.7-2.2c0.9-2.4,1.8-4.9,3.2-7.1
			c0.4-0.6-0.1-1.8-0.8-1.9c-2.3-0.3-3.8-2.6-6.3-2.6c-0.9,0-1.9-0.8-2.8-1.3c-0.8-0.4-1-1.1-1-1.9c0-0.8,0.2-1.5-0.3-2.2
			c-1.3-1.6-2.4-3.3-3.1-5.3c-0.4-1.2-1.3-2.2-2.1-3.2c-1.3-1.8-2.9-2.9-5.3-1.9c-0.9,0.4-2.1,0.5-3,0.3c-3-0.7-6.2-0.6-8.8-2.6
			c-1-0.8-2.3-1.1-3.6-1.5c-3.1-0.9-6.4,1-7.5,4c-0.7,1.8-0.8,3.5,0.2,5.3c0.7,1.2,0.9,2.4,0,3.6c-1.2,1.7-2.8,3.2-3.6,5
			c-0.9,2.2,1.1,4.4,0.6,6.8c-0.2,1,0,2.1,0.3,3.1c0.6,1.9-0.4,2.9-1.8,3.8c-0.7,0.4-1.6,0.7-1.9,1.3c-1.5,3.2-4.3,5.2-6.5,7.7
			c-1.1,1.2-1.1,2.8,0,4.3c0.8,1,1.7,2,2.4,3.1c0.6,0.8,1.1,1.8,1.3,2.8c0.5,2.8,0.7,5.7,1.3,8.5c0.6,3.1-1.6,6.1-0.5,9.2
			c0.1,0.3-0.4,0.9-0.8,1.2c-1,0.8-2.3,1.3-3.2,2.2c-3.2,3.2-7,5.3-11.2,7c-1.9,0.8-3.9,1.6-5.8,2.3c-1.4,0.5-2,1.6-2,3
			c0.1,3.1,0.4,6.2-0.1,9.4c-0.3,2-0.6,4.1-0.7,6.2c-0.1,2,0.3,4.1,0.3,6.1c0,0.7-0.1,1.6-0.4,2.2c-0.6,1.4-1.4,2.8-2.2,4.1
			c-0.2,0.4-0.9,0.7-1.2,0.7c-1.9-0.4-2.8,1-4,1.9c-0.8,0.5-2.4,0.2-2.7-0.6c-0.3-0.7-0.6-1.4-0.9-2.1c-0.5-1.2-0.7-2.7-1.6-3.5
			c-2.7-2.3-3.5-5.7-5.2-8.6c-0.6-1-0.4-2,0.1-2.9c1.7-3.5,3.4-7,3.2-11.1c-0.1-1.2,0.7-2.5,1.1-3.7c0.4-1.2,0.8-2.5,1.1-3.7
			c0.1-0.5-0.6-1.9-1-1.9c-4.1-0.4-8.1-2-12.3-1.9c-1,0-2.1-0.4-2.7-1.3c-1.9-2.6-4.3-4.6-7.1-5.9c-2.7-1.3-4.6-3.2-6-5.9
			c-1.5-2.8-3.8-5-6.5-6.6c-2.5-1.5-5-2.8-7.4-4.2c-1.2-0.7-2.5-0.9-3.8-0.5c-2.2,0.6-4.3,1.5-6.6,1.2c0,0.1-0.1,0.1-0.1,0.2
			l-0.3,0.2l0.1-0.4c0.1,0,0.2,0,0.3,0c1.2-1.9,2.1-3.9,1.9-6.3c-0.3-2.8-0.1-5.7-0.3-8.5c0-1-0.2-2.1-0.5-3c-0.1-0.4-0.7-0.9-1.1-1
			c-1-0.2-2-0.2-3.1-0.3c-1.1-0.1-2-0.6-2.2-1.7c-0.2-0.7-0.4-1.6-0.2-2.3c0.4-1.5,1.2-2.9,1.5-4.4c1.4-6.4,3.9-12.2,9.2-16.5
			c1.2-1,2-2.4,2.9-3.6c2.8-3.7,5.4-7.7,10.1-9.2c2-1.9,4.6-3.3,5.3-6.4c0.2-0.8,0.8-1.3,1.7-1.1c1,0.2,2,0.5,3,0.5
			c2.5,0.1,4.6-1.7,4.7-4.2c0-1.2-0.1-2.4-0.2-3.7c-0.1,0-0.1,0-0.2,0c-0.1-0.1-0.3-0.2-0.4-0.3c0.2,0,0.4,0.1,0.6,0.1
			c0,0.1,0,0.1,0,0.2c3.5,0.3,6.4-0.6,7.9-4.3c0.3-0.8,1.2-1,2-0.7c1.2,0.4,2.4,1,3.6,1.4c1.3,0.4,2.6,0.5,3.6-0.5
			c4-3.7,7.9-7.4,11.8-11.1c0.3-0.3,0.5-0.9,0.4-1.4c-0.1-1.1,0.3-1.9,1.1-2.6c1.8-1.4,3.6-2.9,5.3-4.3c0.5-0.5,1-1,1.4-1.4
			c0,0,0.1-0.1,0.1-0.1c0.3-0.3,0.7-0.6,1-1c2-1.9,2-2,0.6-4.5c-0.1-0.2-0.2-0.5-0.3-0.7c-0.2-0.6,0-1.1,0.6-1.2
			c2.4-0.4,4.7-0.5,5.6,2.5c0.1,0.2,0.3,0.4,0.6,0.5c3.7,1.5,7.5,2,11.2,0.2c2.6-1.2,5-2.7,7.1-4.6c0.7-0.7,1.6-1.4,2.5-1.6
			c2.1-0.4,2.9-2,3.8-3.6c0.7-1.1,1-2.4,0.6-3.7c-0.3-1-0.5-2-1-2.9c-0.8-1.5-0.7-2.9-0.3-4.5c0.4-1.5,0.7-3,1-4.5
			c-0.1,0-0.1,0-0.2,0l-0.4-0.2l0.6,0.1c0,0,0,0,0,0.1c0.9,0.2,1.9,0.4,2.8,0.4c2.9-0.2,4-1.2,4.1-4.3c0.1-1.1,0.2-2,0.9-2.8
			c1.3-1.5,0.4-2.7-0.3-4c-2-0.8-3.1-2.2-3.1-4.5c0-1.8-0.8-2.7-2.7-2.7c-1.5,0.1-1.9-1.1-2.1-2.4c-1.8,0.1-3.3-0.4-4.6-1.6
			c0,0,0-0.1,0-0.1c-0.1,0-0.1,0-0.2,0l0.2,0.2c-0.5,0.1-1,0.4-1.5,0.4c-2.4,0-3.9,1.1-4.4,3.4c-0.5,2.2-2,4.2-1.2,6.7
			c0.2,0.6,0.1,1-0.3,1.4c-0.9,0.9-1.8,1.8-2.7,2.7c-2.4,0.2-3.4,2-4.2,3.9c-0.5,1.2-1.1,2.3-1.9,3.4c-0.6,0.9-1.5,1.3-2.5,1.3
			c0,0.1,0.1,0.1,0.1,0.2c-0.1,0.1-0.2,0.2-0.3,0.3c0-0.2,0.1-0.3,0.1-0.5c0,0,0.1,0,0.1,0c-0.4-0.8-0.6-1.8-1.7-2.1
			c-0.9-0.2-1.7,0.9-2.1,2.8c-0.2,1-0.3,2,0.1,3c0.4,1.1,0,2-0.6,2.9c-0.5,0.7-1.9,1.4-2.7,1c-0.7-0.3-1.4-0.8-1.7-1.5
			c-0.5-1.5-0.8-3-1-4.6c-0.4-3,0.2-5.6,2.6-7.7c0.9-0.7,1.1-1.7,1.2-2.7c0.5-3.5-0.7-6.6-2.3-9.6c-0.3-0.6-1.6-0.6-2.1,0
			c-1.5,1.8-3.2,3.4-3.9,5.7c-0.4,1.3-1.3,2.2-2.3,3c-0.2,0.2-0.5,0.3-0.7,0.3c-0.6,0-0.9-0.3-0.7-0.9c0.8-2.5,1.6-4.9,1.3-7.6
			c-0.1-1.4,1-1.5,1.9-1.9c1.5-0.7,1.6-2.1,0.4-3c-1.2-1-2.4-2.1-4-2.2c-1.4-0.1-2.4-0.8-3.5-1.6c-0.5-0.4-0.8-0.8-0.3-1.3
			c1.4-1.5,2.8-3,4.2-4.5c0.3-0.3,0.9-0.3,1.4-0.5c1.9-0.7,2.4-1.2,2.1-2.5c-1.2-4.9-1.9-9.7,0.1-14.5c0.3-0.7,0.3-1.6,0.1-2.3
			c-1-2.9-0.6-6.2-2-9.1c-0.5-1.1,0-1.9,1-2.5c1.9-1.3,3.7-2.9,5.5-4.3c1.3-1,2-2.3,2.2-4c0.1-0.5,0.3-1,0.6-1.4
			c0.3-0.3,0.9-0.8,1.2-0.7c1.2,0.4,2.4,1,3.5,1.6c1.6,0.9,3,0.5,4.4-0.4c0.9-0.6,1.7-1.2,2.5-1.9c3.6-3.4,7.2-6.8,10.7-10.2
			c0.7-0.7,1.3-1.6,1.9-2.5c0.8-1.1,0-3.6-1.2-4.1c-0.2-0.1-0.5-0.3-0.7-0.3c-3.2-0.2-5.8-1.9-8.3-3.8c-0.8-0.6-1.8-1-2.8-1.2
			c-2.3-0.5-4.6-0.6-7,0c-0.7,0.2-1.5,0.5-2,1c-1.2,1.3-1.9,3.1-3.9,3.6c-0.9,1.5-1.9,3.1-2.8,4.7c-1.4,2.5-2.8,5-4,7.6
			c-0.7,1.4-1.4,2.9-1.4,4.4c0,3.5-1.6,6.5-2.8,9.7c-0.3,0.8-0.7,1.3-1.4,1.7c-1.5,1-2.9,2.1-4.4,3.1c-1.3,0.9-1.1,2.1-1,3.3
			c0.1,0,0.1,0,0.2,0c0,0.2,0,0.2,0,0.3c0.1,0.1,0.2,0.1,0.3,0.2c-0.2,0.2-0.3,0.1-0.3-0.2c-0.1,0-0.2-0.1-0.2-0.1c0,0,0-0.1,0-0.1
			c-1.2,0.3-2.5,0.4-3.4,1c-3.4,2.2-5.4,5.5-6,9.4c-0.2,1.6-0.4,3-1.7,4.1c-0.4,0.3-0.7,0.7-1.1,1.1c-1.2,1.5-1.7,3.1-1.5,5
			c0.2,1.8,0.5,3.5,1.7,5c0.6,0.7,0.8,1.7,1.2,2.5c0.7,0.2,1.4,0.3,2,0.6c1.5,0.9,3,2,4.4,3c0.2,0.1,0.4,0.3,0.5,0.5
			c0,0.5-0.4,0.6-1,0.7c-0.7,0.1-1.6,0.3-2,0.8c-1.2,1.3-2.2,2.8-3.3,4.2c-0.6,0.8-0.2,1.8,1,2.4c0.4,0.2,0.9,0.3,1.3,0.4
			c0-0.1,0-0.1,0-0.2l0.6-0.2l-0.4,0.4c-0.1,0-0.1,0-0.2,0c0.2,1,0.2,2-0.5,2.8c-1.3,1.3-2.6,2.5-4,3.7c-1.6,1.4-3.3,2.4-5.6,2.5
			c-2.9,0-4.1,2-4.7,4.4c-0.4,1.8-0.6,3.6-0.9,5.4c-0.1,0.4-0.5,0.7-0.7,1c-0.2-0.2-0.4-0.3-0.5-0.5c-0.6-0.9-1.2-1.7-1.7-2.6
			c-1-1.5-0.9-2.1,0.1-3.5c1.4-1.9,2.8-3.7,4.2-5.6c0.4-0.5,0-1.8-0.7-1.9c-2.6-0.2-3.4-1.9-3.6-4.2c-0.2-0.2-0.4-0.4-0.7-0.7
			c0.2,0.2,0.4,0.4,0.7,0.7v0c0.1,0.1,0.2,0.2,0.2,0.2l-0.2-0.2c1,0.3,2,0.5,3,0.8c1,0.3,2,0.5,3,0c1.6-0.8,3.3-1.4,4.9-2.3
			c0.4-0.2,0.7-0.8,0.7-1.2c0-1.8-0.2-3.6-0.3-5.4c-0.1-1.4-0.1-1.6,1.6-1.9c2.4-0.4,2.5-2.1,2.6-3.8c-0.4,0-0.8,0-1.3,0
			c-3.5,0.2-6-1-7.2-4.5c-0.2-0.5-0.5-0.9-0.8-1.3c-0.3-0.5-1.7-0.7-2.1-0.3c-0.9,0.9-2,1.7-2.7,2.7c-2,2.8-4.3,5-8,5.5
			c-0.5,0.1-0.9,0.5-1.3,0.8c-0.2,0.1-0.3,0.4-0.5,0.5c-0.5,0.5-0.6,1.7,0,2.1c2.7,2,5.6,3.7,7,7l-0.3-0.2c0.1,0.1,0.1,0.1,0.2,0.2
			c-1.2,0.3-2.5,0.7-3.7,0.7c-1.4,0-2.4,0.1-3.1,1.6c-0.4,0.9-1.3,1.6-2,2.3c-0.6,0.5-1.1,1-1.1,1.9c0,0.8,0,1.6-0.8,2
			c-1,0.6-2,0.4-3,0c-1-0.4-1.9-0.9-2.8-1.3c-1.7-0.7-3.5-1.1-5.3-0.2c-0.7,0.3-1.5,0.5-2.2,0.6c-1.1,0.2-2.1,0.1-3-0.5
			c-1.6-0.9-3.3-1.7-4.1-3.5c-1.1-2.4-3-3.5-5.4-4.1c-1-0.2-1.8-1-2.2-2.1c-0.7-2.4-2.1-4.7-1.7-7.5c0.1-0.8,0-1.6-0.1-2.3
			c-0.2-1.7-2.1-3.5-3.8-3.2c-3.6,0.6-7.2,1.1-10.8,1.3c-1.6,0.1-2.7,1.5-3.3,3c-0.4,1,0,2.5,1.2,3.4c0.6,0.5,1.4,0.7,2.2,0.3
			c0.4-0.3,0.8-0.8,1.3-0.9c1.5-0.3,3.1-0.3,4.6-0.6c1.5-0.3,2.9-1,4.4-1.4c0.2-0.1,0.7,0.4,1,0.8c0.1,0.1-0.2,0.5-0.3,0.6
			c-1.4,0.6-3,0.9-4.2,1.7c-1.7,1.3-3.5,2.1-5.6,2.5c-1,0.2-2,0.6-3,1c-1.5,0.6-2.6,1.5-3.1,3.2c-0.7,2.5-1.4,5-1.7,7.6
			c-0.1,0.7-0.6,1.5-1.1,2c-0.5,0.5-1.5,1.1-1.9,0.9c-0.9-0.4-0.4-1.3-0.1-2c0.7-1.2,0.6-2.5,0-3.7c-0.8-1.6-1.5-3.3-2.3-4.9
			c-0.7-1.4-1.4-2.8-2.1-4.2c-0.4-0.8-1.8-1.5-2.6-1.3c-1,0.2-2,0.6-3,0.8c-7.8,1.7-14.9,0.3-21.2-4.8c-0.5-0.4-0.5-1.5-0.1-2.1
			c0.8-1.4,1.9-2.4,3.7-2.5c0.8,0,1.6,0,2.3,0c3.3,0,4.8-1.7,4.1-4.8c-0.3-1.5-0.9-3-1.6-4.3c-1-2-2.8-3.4-5-3.1
			c-2.9,0.3-5-0.7-7.1-2.4c-2.9-2.3-5.6-4.6-8.6-6.8c-2-1.4-3.6-3-3.9-5.5c-0.5-3.2-2.7-4.8-5.5-6c-2.5-1-4.5-0.8-6.2,1.3
			c-0.6,0.8-1.5,1.5-2.4,2c-0.6,0.4-1.5,0.3-2.2,0.4c-0.9,0.1-1.7-1-1.3-1.5c2-2.5,2.6-5.5,3.1-8.6c0-0.2-0.2-0.5-0.4-0.6
			c-0.2-0.1-0.5-0.3-0.6-0.2c-0.7,0.3-1.4,0.6-2,1.1c-2.2,1.8-4.3,3.7-6.5,5.5c-0.3,0.3-1,0.3-1.5,0.2c-0.4-0.1-0.9-0.6-0.9-1.1
			c-0.4-2.1-0.3-4.1,0.3-6.2c1-3.6,1.1-7.2,0.9-10.8c-0.1-0.8-0.3-1.5-0.6-2.2c-0.1-0.2-1-0.4-1.3-0.2c-1.2,0.7-1.5,2-1.6,3.3
			c-0.1,1.4-0.6,2.5-1.9,3.2c-1.6,0.9-3.1,1.9-4.7,2.7c-1,0.5-2,0.2-2.8-0.6c-0.3-0.3-0.7-0.6-1-0.9c0,0,0,0,0,0
			c-0.2,0-0.4,0-0.6,0.1c-0.4,0.3-0.9,0.6-1.3,0.9c-0.2,0.1-0.5,0.1-0.7,0c-0.5-0.4-0.3-0.6,0.4-0.7c0.5,0,1-0.1,1.6-0.2
			c0.1-0.1,0.3-0.2,0.4-0.3c0.1,0.1,0.1,0.1,0.2,0.2c0.2-0.7,0.5-1.4,0.6-2.2c0.2-0.9-0.3-1.7-0.9-1.9c-1.7-0.6-3.6-0.9-5.3-0.2
			c-3.8,1.6-7.7,2.8-11.9,3c-1.2,0-2.7,0.4-3.6,1.2c-2.2,1.8-4.6,1.7-7.2,1.3c-0.1,0.1-0.1,0.1-0.2,0.2l-0.2,0.4l0.2-0.6
			c0.1,0,0.1,0,0.2,0c0.1-0.1,0.3-0.3,0.4-0.4c0.7-0.9,0.8-1.8,0.1-2.8c-0.7-0.9-1.3-1-2.6-0.3c-0.9,0.5-1.6,1.1-2.8,1.2
			c-1.8,0.2-3.5,0.6-5.2,1.3c-2,0.7-3.6,2-3.9,4.4c-0.1,1-1,1.4-1.6,1c-1.1-0.7-2.1-1.5-3.2-2.2c-1.5-1.1-2.6-2.5-3.1-4.3
			c-0.5-1.7-1-3.4-1.7-5.1c-0.4-1.2-1.1-2.3-1.6-3.4c-1.7-1.9-4.1-3.1-6.2-4.5c-3.3-2.2-6.4-4.4-7.8-8.4c-0.2-0.5-0.5-0.9-0.8-1.3
			c-0.6-0.9-1.5-1.5-2.6-1.6c-1-0.1-2.1-0.2-3.1-0.1c-2.2,0.1-4-0.8-5.7-2.2c-2.4-2-4.7-4.1-7.8-5.1c-1.4-0.5-2.6-1.7-3.7-2.8
			c-1.3-1.2-2.3-2.7-3.1-4.4c-0.8-1.8-2.5-2.6-4.6-2.2c-1.3,0.2-2.5,0.6-3.8,0.9c-0.8,0.2-1.5-0.2-2-0.9c-1.2-2-1.1-4.4-2.3-6.4
			c-0.2-0.3,0.2-1,0.5-1.3c0.5-0.7,0.9-1.4,0.5-2.1c-0.3-0.7-0.9-1.4-1.5-1.7c-1.1-0.6-2.4-1-3.6-1.4c-0.7-0.2-1.5-0.2-2.3-0.4
			c-1.2-0.2-1.5-0.6-1.2-2.3c0.2-1.3,0.3-2.5-1.2-3.1c0,0,0,0.1,0,0.1c-0.2,0-0.4,0-0.6,0c-0.7,0.3-1.5,0.5-2.2,0.8
			c-0.3,0.2-0.6,0.4-0.8,0.5c-0.1,0-0.1,0-0.2,0c-0.1,0.4-0.1,0.9-0.3,1.3c-0.5,1.1-1.4,1.4-2.5,0.7c-0.4-0.2-0.5-0.8-0.6-1.3
			c0-0.1,0.4-0.4,0.6-0.4c0.9-0.1,1.9-0.2,2.8-0.3c0-0.1,0-0.1,0-0.2c0.3-0.1,0.7-0.2,1-0.3c0.7-0.4,1.4-0.8,2.2-0.8
			c0.1,0,0.3-0.1,0.4-0.1c0.1,0,0.1,0.1,0.1,0.1c-0.6-2-1.6-3.7-3.1-5.2c-0.9-0.8-1.7-1-2.8-0.6c-1.7,0.6-3.5,1.2-4.9,2.3
			c-2.2,1.8-4.8,1.9-7.4,1.1c-1.5-0.4-3-0.9-4.5-1.3c-2.6-0.8-4.6,0.3-6.3,2.1c-0.5,0.5-0.7,1.4-1.2,2c-0.5,0.6-1.1,1.3-1.8,1.4
			c-2,0.3-4,1.2-6.1,0.7c-3-0.8-5.8,0.1-8.1,1.6c-4.5,3-9.5,5.4-13.4,9.3c-0.6,0.6-1.1,1.1-1.8,1.5c-5.1,2.9-10.2,5.5-16.1,2.2
			c-0.2-0.1-0.5-0.2-0.7-0.3c-2.4-0.9-3.7-0.6-5.5,1.5c-1.2,1.4-2.1,3-3.5,4.2c-2.1,1.8-2.7,3.6-1.6,6.1c0.7,1.7,1,3.5,1.6,5.2
			c1.7,4.8,2.2,9.6-0.5,14.3c-0.5,0.9,0.1,2.7,1.2,3.4c1.3,0.9,2.7,1.5,4,2.3c0.3,0.2,0.3,0.8,0.4,1.3c0,0-0.4,0.2-0.7,0.2
			c-0.8,0.1-1.6,0.4-1.8,1.3c-0.3,2-0.4,4.1-0.5,6.2c0,0.3,0.6,0.8,1.1,1c0.6,0.2,1.3,0.1,2,0.1c0-0.1,0-0.2,0.1-0.3
			c0.1,0,0.2,0.1,0.3,0.1c0.1-0.5,0.1-0.9,0.2-1.4c0,0-0.1,0-0.1,0l-0.3-0.3l0.4,0.2c0,0,0,0.1,0,0.1c2.2-0.6,4.4-0.2,6.5,0.6
			c0.6,0.2,1,1.4,0.6,2c-0.2,0.3-0.7,0.7-1.1,0.7c-2.2-0.1-4.1-1.1-6.1-1.9c0,0.1,0,0.1,0,0.2c-0.1,0-0.2,0-0.3,0
			c-0.3,0.8-0.2,2-1.4,2.2c-1.6,0.2-3,0.7-4.3,1.6c-1.4,1.1-3,0.9-4.4,0.2c-1.6-0.8-3.2-1.7-4.8-2.6c-1.1-0.6-1.3-1.6-0.7-2.6
			c0.6-0.9,1.2-1.7,1.8-2.6c1.1-1.8-0.6-3.9-2.3-3.9c-2.1,0-4.2,0-6.2,0.3c-1.2,0.2-2.7,0.7-3.4,1.6c-1.2,1.5-2.5,1.4-4.1,1.3
			c-1.2-0.1-2.5,0.3-3.8,0.5c-3.7,0.6-6.5,3.1-9.9,4.4c-1.3,0.4-1.7,2.2-0.9,3.3c1.2,1.7,2.5,3.3,3.7,5c0.4,0.6,0.1,1-1.1,1.5
			c-0.4,0.2-1.2,0.4-1.3,0.7c-0.5,2.6-1.9,4.8-2.6,7.3c-0.3,0.9-0.1,2.2,0.4,3c1.8,2.7,4.1,4.9,7.6,4.2c3-0.5,5.7-0.2,8.1,1.8
			c1.3,1.1,2.7,1.2,4.3,0.4c2.6-1.2,5.2-2.3,7.9-3.3c0.6-0.2,1.5,0.1,2.3,0.2c0.2,0,0.4,0.3,0.5,0.5c0.1,0.2,0.1,0.6-0.1,0.7
			c-0.4,0.3-0.8,0.6-1.3,0.8c-1.3,0.4-2.4,0.8-2,2.6c0.2,0.7,0.2,1.6-0.1,2.2c-1.1,2.1-2,4.2-2.4,6.5c-0.4,2.5-4.3,5.3-7,5.2
			c-0.5,0-1-0.2-1.5-0.5c-0.9-0.5-1.7-1.2-2.5-1.8c-0.6-0.5-1-1.5-1.6-1.5c-0.8,0-0.7,1.1-0.9,1.8c-1.1,3-3.5,4.4-6.5,4.9
			c-0.4,0.1-1-0.2-1.4-0.5c-0.4-0.3-0.6-0.8-0.9-1.3c-1.4-1.9-2.9-2.5-4.5-1.5c-2.9,1.7-6,3.3-6.9,7c-0.1,0.5-0.5,1-0.9,1.2
			c-4.6,2.5-7.7,6.8-11.9,9.9c-2.9,2.1-3.8,4.8-2.9,8.2c0.3,1.2,0.6,2.5,0.9,3.7c0.4,1.4,0.2,2.7-0.7,3.6c-2.4,2.3-2.5,5-1.6,7.9
			c0.5,1.7,0.8,3.5,1.3,5.3c0.3,1.1,1.1,1.8,2.2,2.1c1,0.3,2.1,0.7,3,0.5c2-0.4,3.9-0.9,6-0.7c0-0.1,0-0.1,0-0.2
			c0.1-0.2,0.1-0.3,0.2-0.5c0-0.5,0.1-1.1,0.1-1.6c0-0.3,0-0.6,0.1-0.7c0.5-0.3,0.7,0,0.5,0.7c-0.2,0.6-0.4,1.1-0.7,1.6
			c0,0.2,0,0.5,0,0.7c-0.1,0-0.1,0-0.2,0c-0.2,1.2-0.5,2.4-0.5,3.6c0,2-1,3.4-2.4,4.6c-1.1,1-1.2,2.3-0.5,3.5c0.6,1.1,0.3,2-0.2,2.9
			c-0.3,0.7-0.8,1.3-1.2,1.9c-0.5,0.9-0.4,1.5,0.4,1.8c2.3,0.7,4.6,1.4,6-1.4c0.1-0.2,0.6-0.4,0.7-0.3c2,2,4.8,3.2,5.4,6.3
			c0.2,0.8,1.1,0.9,1.7,0.3c0.2-0.2,0.3-0.4,0.4-0.6c1.3-1.6,1.3-1.5,3.6-0.6c0.7,0.3,1.5,0.3,2.2,0.3c0.8,0,1.5-0.3,2.3-0.4
			c0.2,0,0.5,0,0.7,0.2c0.4,0.3,0.4,0.8-0.1,1.2c-2.2,1.5-3.5,3.6-4.7,6c-2.8,5.3-6.3,10.1-11.9,13c-1.8,0.9-3.3,2.3-5.3,3.1
			c-3.1,1.3-5.9,3.2-9,4.7c-1.9,1-3.5,2.2-4.7,4c-0.7,1-1.6,1.1-2.7,0.7c-2.4-0.8-4.6-0.2-6.7,1.1c-1.8,1.1-3.5,2.3-5,3.6
			c-2.7,2.3-5.6,3.7-9.1,3.9c-1.3,0.1-2.6,0.4-3.9,0.4c-2.7,0.2-4.1,2.1-5.5,3.9c-0.2,0.3-0.1,1,0.1,1.4c0.2,0.4,0.8,0.7,1.2,0.7
			c0.8,0,1.6-0.1,2.3-0.4c1.5-0.7,3.1-0.1,4.6-0.5c1-0.2,2.2-0.4,2.8-1.1c1.7-1.9,3.8-2.5,6.2-2.6c3.4-0.1,5.8-1.8,7.4-4.8
			c0-0.1-0.1-0.1-0.1-0.2l0.4-0.2l-0.3,0.3c0,0,0,0,0,0.1c0.6,1,1.3,2.1,1.9,3.1c0.5,0.8,0.5,0.8,1.3-0.7c0.3-0.4,0.5-1.2,0.8-1.3
			c2.3-0.4,4.4-1.5,6.7-1.3c1,0.1,2,0.6,2.8-0.2c1.2-1.1,2.7-1.5,4.1-2.1c2.3-1,5.1-1.4,6.1-4.3c1.8-1,3.5-2.2,5.3-3.1
			c0.6-0.3,1.4,0.1,2.2,0.2c0.4-0.6,0.7-1.6,1.2-1.7c1.8-0.5,3.3-1.6,4.9-2.2c1.8-0.7,3.1-1.8,3.8-3.6c0.3-0.7,0.9-1.2,1.6-1.6
			c3.5-2.2,7.1-4.5,11.1-5.5c3-0.7,5.1-2.1,6.9-4.5c0.7-1,2-1.6,3.1-2.3c0.9-0.6,1.8-1,2.7-1.5c1.5-0.9,2-2.5,1.2-4
			c-0.3-0.7-0.8-1.3-1.2-2c-0.6-1.1-0.4-2,0.4-2.8c1.5-1.6,3.4-2.4,5.6-2c1.4,0.3,2.5,0,3.6-0.9c1.6-1.3,3.4-2.3,3.9-4.6
			c0.3-1.3,1.6-2,3-2.2c1.1-0.1,2.1-0.5,2.6-1.4c2.6-4.6,7.4-6.2,11.8-8.3c1.4-0.7,3.1,0.6,3.3,2.3c0.1,0.8,0.1,1.6-0.1,2.3
			c-0.1,0.3-0.9,0.8-1.1,0.7c-3.1-1.7-6-1.3-8.8,0.5c-0.6,0.4-1.4,0.9-1.6,1.6c-1.4,3.8-4.3,6.4-6.9,9.3c-0.9,1-1.1,2.4,0.1,3.4
			c0.6,0.5,0.6,0.8-0.1,1.2c-1.4,0.7-2.8,1.4-4.1,2.1c-0.6,0.3-0.9,1.5-0.5,2.1c0.4,0.6,1.1,1.3,1.7,1.3c1.3,0,2.7-0.3,3.7-0.9
			c2.3-1.3,4.7-2.2,7.2-2.9c1-0.3,2-0.6,2.9-1.1c2.3-1.2,4.5-2.5,7.3-1.9c0.6,0.1,1.4-0.5,2.1-0.8c1.2-0.5,2-1.6,2.8-2.6
			c0.8-1,1.7-0.7,2.5,0.1c0.5,0,1,0,1.6,0c0.4-1.1,0.8-2.1-0.6-3.1c-0.8-0.5-1.3-1.6-1.6-2.5c-0.6-1.6-0.1-2.9,1.2-4.1
			c0.7-0.6,1.5-0.7,1.8,0.1c0.6,1.6,1.3,2.7,3.2,2.3c1.2-0.2,2.4-0.2,3.7-0.3c0,0,0-0.1,0-0.1l0.3-0.3l-0.2,0.4c0,0-0.1,0-0.1,0
			c0,0.7-0.1,1.5,0.1,2.2c0.6,2.9,1.8,5.4,4.9,6.4c1.9,0.6,2.9,2.1,3.8,3.8c0.4,0.7,0.5,1.5,0.8,2.2c0.5,0.9,1.3,1.6,2.4,1.8
			c1,0.2,2.1,0.4,3.1,0.3c2.5-0.1,4.6,0.8,6.4,2.4c0.6,0.5,1.3,0.8,1.9,1.2c0,0-0.1-0.1-0.1-0.1l0.3-0.2l-0.2,0.3c0,0,0,0-0.1,0
			c0.4,0.6,0.9,1.2,1.3,1.7c1.7,1.8,3.6,3,6.2,2.3c0.2-0.1,0.5,0,0.7,0.1c0.5,0.2,0.9,0.8,0.5,1.2c-1.7,1.6-1.5,3.1,0,4.7
			c0.7,0.7,1.2,1.8,2.1,2.3c1.2,0.7,2.2,1.2,2.1,2.8c0,1,0.2,2.1,0.4,3.1c0.4,2.4,1.4,4.4,3.1,6.2c0.9,1,2.1,1.5,3.5,1.3
			c1.1-0.1,1.9-1.1,1.7-2.1c-0.2-0.8-0.5-1.5-0.6-2.2c-0.1-0.2-0.1-0.5,0.1-0.7c0.3-0.5,0.7-0.4,1,0.3c0.4,1,1,1.9,1.1,2.9
			c0.1,1.8,1.2,2.8,2.2,4c0.1,0.2,0.2,0.5,0.2,0.7c-0.3,0.6-0.8,0.6-1.3,0.3c-0.4-0.3-0.9-0.6-1.4-0.7c-1.6-0.5-3.3,0.3-3.9,1.7
			c-0.6,1.4-1.2,2.9-0.9,4.5c0.3,1.5,0.6,3.1,0.8,4.6l-0.2-0.2c0,0.1,0,0.3,0,0.4c0.1-0.1,0.1-0.1,0.1-0.2c0.9,1.2,1.5,2.5,0.9,4.1
			c-0.9,2.5-1.1,5-0.8,7.6c0,0.2,0.3,0.6,0.4,0.6c0.4-0.1,1.1-0.1,1.3-0.4c0.9-1.6,1.7-3.3,2.6-5c0-0.2,0-0.5,0.1-0.7
			c0.1,0,0.3,0,0.4,0c0.7-1,1.8-1.3,3-1.2c0-0.1,0.1-0.1,0.1-0.2c0.1,0,0.1,0,0.2,0c0-0.2,0-0.4,0.1-0.6c2.1-2.9,4.2-5.7,5.4-9.1
			c0.1-0.2,0.8-0.2,1.2-0.2c0.2,0,0.4,0.4,0.4,0.6c0,0.8,0.1,1.5-0.2,2.2c-0.5,1.7-1.2,3.3-1.9,5c-0.6,1.3,0.1,2.3,0.8,3.2
			c0.1,0,0.2,0,0.3,0c0,0.2,0,0.3,0,0.5c0.6,0.8,0.9,1.7,1.1,2.6c0.1,0.1,0.1,0.1,0.2,0.2l0.2,0.4l-0.3-0.2c0-0.1-0.1-0.2-0.1-0.4
			c-1-0.6-1.1-1.6-1.1-2.6c-0.1-0.1-0.1-0.2-0.2-0.3c0-0.1-0.1-0.1-0.1-0.2c-0.9-0.1-1.8-0.2-2.5-0.5c-1.1-0.5-2.3-0.5-3.4-0.6
			c0,0.1,0,0.1,0,0.2c-0.1,0-0.2,0-0.3,0c-0.7,1.1-1.8,1.2-3,1.2c-0.1,0.1-0.1,0.1-0.2,0.2c-0.1,0.2-0.2,0.3-0.3,0.5
			c-0.2,2.2,0.1,4.5-0.9,6.7c-0.4,0.8,0.4,1.8,1.5,2.2c0.4,0.1,0.8,0.1,1.2,0.2c0-0.1,0-0.1,0-0.2c0.1-0.1,0.3-0.3,0.5-0.4
			c0.1-0.4,0.3-0.7,0.4-1.1c0,0.2,0.2,0.5,0.1,0.5c-0.2,0.2-0.4,0.4-0.5,0.5c-0.1,0.2-0.2,0.4-0.2,0.6c-0.1,0-0.2,0-0.2,0
			c-0.1,0.7-0.5,1.6-0.2,2.1c0.7,1.1,1.3,2.1,0.8,3.5c-0.3,1-0.6,2-0.7,3c-0.1,0.7-0.4,1.7-0.1,2.2c1.2,1.8,1,4,2,5.8
			c0.2,0.3,0.8,0.6,1.2,0.6c0.4,0,1-0.4,1.2-0.7c1-2.3,2.2-4.5,2.2-7.1c-0.1,0-0.1,0-0.2,0c0-0.1,0-0.3-0.1-0.4
			c-0.1-0.1-0.3-0.2-0.4-0.4c0.1,0.1,0.3,0.1,0.4,0.2c0,0.1,0,0.1,0,0.2c0.1,0.1,0.2,0.1,0.2,0.2c0,0.1,0,0.1,0,0.2c0.5,0,1,0,1.5,0
			c0-0.1-0.1-0.1-0.1-0.2c0.1-0.1,0.2-0.2,0.3-0.3c0,0.2-0.1,0.3-0.1,0.5c0,0-0.1,0-0.1,0c0.5,0.9,1.1,1.8,1.6,2.7
			c0.1,0,0.1-0.1,0.2-0.2c0,0.2,0.1,0.4,0.1,0.6c0.2,0.3,0.4,0.6,0.4,0.9c0,0.7-0.2,0.7-0.4,0c-0.1-0.2,0-0.5,0-0.8
			c0-0.1,0-0.1,0-0.2c-0.1-0.1-0.2-0.3-0.3-0.4c0,0,0,0,0-0.1c-1.2,0.7-1.4,1.8-1.2,3.1c0.2,1.1,0.8,1.9,1.8,2.4
			c0.7,0.3,1.5,0.3,2.2,0.5c1,0.2,1.3,0.9,0.7,1.6c-1.4,1.6-2.5,3.2-2.5,5.5c0,1-1.1,0.9-1.8,1.2c-1,0.5-1.1,1-0.4,1.7
			c1.8,1.9,1.7,2.8-0.5,3.7c-0.5,0.2-1,0.4-0.9,1c0.4,1.8,1.9,3,3.2,2.6c1.7-0.6,3.4-1.4,5.2-1.3c0.2,0,0.6,0.2,0.6,0.3
			c0,0.4,0.1,1-0.1,1.3c-0.7,0.8-1.5,1.4-2.2,2.1c-1.5,1.3-2,3-2,4.8c0,0.4,0.6,0.8,0.9,1.2l0,0c-0.1-0.1-0.1-0.1-0.2-0.2
			c0.2,0,0.2,0,0.3,0c0.1-0.1,0.2-0.2,0.2-0.4c0.3,0.2,0.1,0.3-0.2,0.4c-0.1,0.1-0.1,0.2-0.2,0.3c1.3,1.4,2.6,2.7,3.8,4.1
			c0.7,0.8,0.9,1.8,0.6,2.7c-0.3,0.8-0.8,1.6-1.2,2.4c0,0-0.1,0-0.1-0.1c0,0.1,0,0.2,0,0.2l0.2-0.1c-0.1,0.8-0.4,1.6-0.1,2.3
			c0.5,1.3,0.5,2.5-0.5,3.6c-0.2,0.2-0.2,0.5-0.3,0.7l2.2,4.6c1.4,0.6,2.8,1.5,3.7,2.8c0.9,1.3,2.2,2.2,3.7,2.7
			c1.2,0.5,2.4,1.1,3.5,1.7c0.7,0.4,1.2,1.1,0.9,1.9c-0.6,1.5-0.9,3-0.3,4.6c0.2,0.6,0.7,1.1,1.1,1.6l0.4-0.1l-0.2,0.3
			c0-0.1-0.1-0.1-0.1-0.2l0,0c0.1,0.5,0.2,1,0.3,1.6c0.7,0.1,1.4,0.2,2.1,0.4c1,0.3,1.9,0.6,2.3,1.8c0.5,1.7,1.1,3.5,2,5
			c0.9,1.7,0.2,3-0.4,4.4c-0.2,0.5-0.6,0.9-1,1.2c-0.6,0.4-1.5,1-2,0.9c-2.2-0.7-4.6-0.9-6.3-2.7l0.3,0.2c-0.1-0.1-0.1-0.1-0.2-0.2
			c0.7,0.1,1.5,0.3,2.2,0.3c1.5,0,2.3-0.9,2.4-2.3c0.3-3.1-0.4-5.9-1.5-8.7c-1.1-0.5-2.2-1-2.6-2.4c-0.3-1.3-0.8-2.5-1.1-3.7
			c-0.7-2.8-2.4-4.6-5.1-5.3c-2.1-0.5-3.8-1.7-5.4-3c-1-0.8-2-1.7-3.1-2.4c-0.6-0.4-1.5-0.4-2.2-0.6c-0.6-0.1-1.7,0.8-1.6,1.4
			c0.3,1.5,0.8,3,0.6,4.6c-0.1,0.7,0.4,1.5,0.8,2.1c1.1,1.5,2.4,2.7,3.4,4.2c3,4.6,7,8.3,10,12.9c0.4,0.6,1.1,1,1.7,1.6l-0.2-0.1
			c0.1,0,0.1,0.1,0.2,0.2c-2.1,0.8-3.4,2.3-3.4,4.7c-0.1,3.4-0.2,6.8,0,10.1c0.3,4.3-0.6,8.2-2.1,12.2c-1.6,4.1-3.5,8.1-4.5,12.5
			c-0.9,4-2.4,8-4.8,11.4c-2.2,3.2-2.8,6.7-2.7,10.4c0,0.8,0.1,1.6,0.1,2.3c0.2,4.3-0.4,8.3-2.9,11.9c-0.8,1.1-0.9,2.5-0.3,3.7
			c1.3,2.7,1.7,5.4,0.9,8.3c-0.3,1.2-0.1,2.6-0.1,3.9c0,0.8,0.1,1.6,0.4,2.3c0.9,2.2,1.8,4.3,2.8,6.4c0.3,0.6,1.1,1.1,1.7,1.5
			c1.4,0.9,1.5,0.9,1,2.1c-0.3,0.7-0.7,1.4-0.9,2.2c-0.2,0.7-0.3,1.6-0.1,2.3c0.7,2.2,2,4.2,1,6.7c-0.2,0.6,0.1,1.5,0.4,2.2
			c1.2,2.9,2.5,5.7,3.9,8.5c0.7,1.4,1.1,2.8,0.9,4.5c-0.2,1.8,0.4,2.7,1.8,2.9c4.6,0.7,7.9,3.7,11.7,6c3.1,1.9,5,4.5,5.1,8.2
			c0.1,2.9,1,5.6,1.8,8.4c1.3,4.7,3.6,9.2,4.2,14.1c0.2,1.6,1.2,2.9,2.4,3.9c2.5,2,4,4.8,5.5,7.5c0.9,1.5,0.6,3-0.2,4.4
			c-0.6,1.1-1.5,1.2-2.6,1.2c-0.3,0-0.5,0.1-0.8,0.1c-0.7,0.2-1.1,1.3-0.8,1.9c1.2,2.4,3,4.3,5.4,5.4c3.2,1.5,5.4,4,7.9,6.2
			c1,0.9,1.4,2.2,1.4,3.5c0,1.3-0.1,2.6-0.4,3.9c-0.4,1.7,0.1,2.9,1.4,4.1c3.8,3.9,8.4,7,10.9,12.1c0.4,0.8,1.9,0.9,2.8,0.1
			c1.2-0.9,1.6-2.3,1.3-3.4c-0.5-1.8-1.5-3.3-2.7-4.7c-1.1-1.2-4.1-6.6-4.6-8.1c-0.4-1.2-1-2.4-1.2-3.7c-0.4-2-0.6-4.1-1-6.1
			c-0.5-2.4-2.9-3.5-3.7-5.9c-1.1-3.4-2.6-6.8-4.6-9.8c-2.1-3.3-3.5-7-6-10c-0.5-0.6-0.9-1.4-0.9-2.1c-0.5-3.9-1.1-7.7,0-11.6
			c0.2-0.7,0.5-0.9,1.2-0.7c1.4,0.6,2.8,1.3,4.2,1.9c1.4,0.7,2.4,1.6,2.7,3.5c0.6,3.3,1,6.7,2.2,9.9c1.9,4.9,4.5,9.4,7.7,13.5
			c0.6,0.8,1.6,1.6,1.8,2.5c0.6,2.5,2.3,4,4.1,5.5c1.2,1,2.4,2,3.5,3.1c0.5,0.5,0.7,1.3,0.2,2.1c-0.3,0.4-0.6,0.9-0.8,1.3
			c-0.7,1.2-0.6,2.7,0.5,3.5c1.5,1.1,2.9,2.2,4.5,3c1.8,0.9,2.8,2,3,4.1c0.1,0.9,1,1.8,1.7,2.5c8,8.3,10.2,12.6,12.6,21.9
			c0.2,0.7,0.1,1.6-0.1,2.3c-0.3,1-0.7,2-1.3,2.8c-1.8,2.5-1.1,4.8,0.3,7.3c1.2,2.1,2.6,3.9,5,4.6c2.3,0.7,4.2,2.2,5.5,4.1
			c1.5,2.1,3.5,3,5.8,3.6c1,0.2,2.1,0.3,3.1,0.6c1,0.3,2,0.7,2.8,1.3c3.4,3,7,5.3,11.4,6.4c2.2,0.6,4.4,1.7,6.4,2.9
			c2.3,1.4,4.8,2.1,7.2,2.8c8.6,2.6,8.6,2.6,17.2-0.6c2.5-0.9,4.8-0.6,6.6,1c3.9,3.8,8.7,6.6,12.2,10.9c1.5,1.9,3.6,3,6.1,3.2
			c3.4,0.3,6.6,1.4,9.8,2.5c3.7,1.2,7.3,2.8,11.3,2.5c0.9-0.1,1.5,0.4,1.8,1.2c0.8,2.3,2.7,3.8,4.1,5.6c1.7,2,3.5,3.9,5.1,6
			c0.9,1.2,1.6,2.6,1,4.4c-0.8,2.5,0.5,3.9,2.9,4.6c1,0.3,2,0.7,3,0.7c0.8,0,1.6,0,2.2,0.5c1.8,1.4,3.9,2.7,4.4,5.2
			c0.6,2.8,2.9,3.5,5.2,3.9c0.7,0.1,1.6,0,2.3-0.2c2.6-0.9,4.8,0,6.4,1.7c1.4,1.7,3.4,2.4,4.9,3.8c1.7,1.5,2.7,1.3,4.8-0.3
			c0.9-0.7,1.2-1.6,0.7-2.7c-0.3-0.7-0.7-1.7,0-2.1c2-1.3,3.2-3.4,4.7-5.1c0.3-0.4,1.5-0.3,2.1,0c2.2,1.1,3.9,2.8,4.1,5.3
			c0.2,1.9,0.7,3.5,1.9,5c1.5,1.8,1.8,4.3,3.5,6c0.5,0.4,0.5,1.4,0.5,2.2c0,3.4,0.2,6.8-0.2,10.1c-0.2,2-0.1,3.5,1.1,5.1
			c0.6,0.7,0.3,1.5-0.1,2.2c-1.5,2.4-3.1,4.9-5.8,6.1c-2.8,1.3-4.6,3.4-5.3,6.3c-0.4,1.7-1.4,2.7-2.9,3.5c-1.4,0.7-2.8,1.4-4.1,2.2
			c-0.4,0.2-0.7,0.8-0.8,1.3c-1.4,6.5-1.4,6.5-4,10.7c-0.3,0.4-0.8,0.9-0.8,1.3c-0.2,2.6-0.6,5.2-0.2,7.7c0.3,2,2.3,3.3,4.2,4.1
			c0.1,0.1,0.4-0.2,0.6-0.4c0.3-0.4,0.6-0.8,0.9-1.2c0.1,0.4,0.4,0.8,0.4,1.2c0,1.3-0.4,2.6-1.6,3.4c-1.5,1.1-3.1,2-4.4,3.1
			c-2.1,1.8-3.4,3.9-2.4,6.9c0.4,1.2,0.7,2.5,0.9,3.8c0.1,0.7,0,1.6-0.3,2.3c-0.6,1.5,0.1,2.5,1.2,3.3c1.5,1,3.2,1.8,4.8,2.7
			c1.9,1,3.5,2.2,4.4,4.3c0.7,1.7,1.7,3.1,3.1,4.4c0.8,0.6,1.5,1.6,1.8,2.5c0.9,3.3,3,6.1,4.1,9.2c1.5,4.2,3.8,7.9,6.3,11.6
			c2.6,3.9,4.9,7.9,7.3,12c0.4,0.6,0.8,1.5,0.6,2.2c-0.5,2.4,0.9,4,2.2,5.5c4.4,4.9,10.3,7.8,15.4,11.7c1,0.8,2.4,0.9,3.6,1.4
			c2.8,1.3,5.8,2.5,8,4.8c2.9,3,6.1,5.6,9.3,8.3c0.8,0.7,1.2,1.7,1.4,2.7c0.2,1.3,0.2,2.6,0.4,3.9c0.6,2.6,1,5.1,0.2,7.7
			c-0.3,0.9,0,2.1,0.3,3.1c1.7,5.1,1.2,10.2-0.1,15.3c-0.2,0.7-0.4,1.6-0.2,2.3c1.9,7.7,0.8,15.5,1.1,23.3c0.1,2.1-0.3,4.1-0.7,6.2
			c-0.4,2.6-0.9,5.1-1.6,7.6c-0.4,1.6-0.6,3,0,4.6c0.9,2.3,0.7,4.7-0.1,6.9c-0.9,2.3-1,4.6-0.1,6.8c1.2,3,0.5,6.2,1.6,9.2
			c0.5,1.3-0.1,3.1,0,4.6c0.1,1.3,0.3,2.6,0.6,3.8c0.3,1.3,0.3,2.5-0.2,3.8c-0.6,1.7-1,3.5-1.4,5.2c-1.4,5.8-2.7,11.7-4.1,17.5
			c-0.2,1-0.5,2-1.3,2.7c-1.7,1.4-1.7,3.3-0.7,4.9c1.7,2.7,1.9,5.9,3.5,8.6c1.5,2.4,1.4,5,0.1,7.4c-0.8,1.4-1,2.8-0.8,4.5
			c0.2,1.5,0.1,3.1,0.1,4.7c0,1.9,0.6,3.6,1.8,5.1c0.6,0.8,1.3,1.6,1.9,2.5c-2.8-0.1-3.3,0.2-3.9,2.4c-0.2,0.7-0.5,1.5-0.4,2.2
			c0.3,2.5,0.8,5,1.3,7.5c0.1,0.8,1.9,1.3,2.6,0.7c1-0.9,1.8-1.9,1.8-3.2c-0.1-1.8,0-3.5,0.3-5.3c0.2-1.6-0.6-2.9-1.5-4.2
			c1.3,0.4,2.5-0.1,3.7-0.7c0.9-0.5,1.1-0.2,1.4,1c0.2,0.7,0.6,1.5,0.6,2.2c-0.2,3.3-0.8,6.6-0.7,9.9c0.2,3.4-0.3,6.6-0.8,9.9
			c-0.2,1-0.3,2.1,0.3,3c1.8,3,1.2,5.9-0.2,8.8c-0.3,0.6-0.6,0.8-1.2,0.6c-0.2-0.1-0.5-0.3-0.6-0.5c-0.4-0.9-0.6-1.8-1-2.7
			c-2.3-0.1-4.2,1.2-4.6,3.2c-0.6,2.6-2,4.6-3.1,6.9c-0.1,0.3,0.2,1,0.5,1.3c0.3,0.3,0.9,0.5,1.3,0.4c0.7-0.2,1.3-1.1,1.9-1.1
			c1.5,0.1,3,0.4,4.5,0.8c0.8,0.2,1.6,1.6,1.4,2.5c-0.5,2-0.9,3.9-0.6,5.9c0.1,0,0.1,0,0.2,0c0,0.2,0.1,0.2,0.1,0.3
			c0.2,0.1,0.3,0.1,0.3,0.1c-0.1,0.3-0.2,0.2-0.3-0.1c-0.1,0-0.2-0.1-0.3-0.1c0-0.1,0-0.1,0-0.1c-1.4,0.2-2.8,0.5-4,1.5
			c-0.8,0.8-1.3,1.5-1.1,2.6c0.2,1,0.4,2,0.8,2.9c0.3,0.7,1.1,1.2,1.2,1.9c0.1,1-0.2,2,0.5,2.9c0.3,0.3,0.6,0.6,1,0.8v0l0.3-0.2
			l-0.2,0.3c-0.1,0-0.1-0.1-0.2-0.1c0,0.7,0,1.5-0.1,2.2c-0.4,2.2-0.4,2.2,1.5,3.3c1.2,0.7,2.3,1.5,3.4,2.2c0,0,0,0.1,0,0.2
			c0,0,0.1,0,0.1,0c1,1.6,1,1.9,0,3c-0.1,0-0.1,0-0.2,0c0,0.1,0,0.2,0,0.3l0.2-0.2c0,2.5,0.9,5,0.1,7.6c-0.3,1.1,0.6,1.8,1.8,1.9
			c1.1,0,1.7-0.6,1.9-1.9c0.2-1.9,0.1-3.9,0.9-5.7c0,0,0-0.1-0.1-0.1l-0.3-0.5l0.5,0.3c-0.1,0.1-0.1,0.2-0.1,0.3
			c0.7,0.7,1.2,1.6,1.2,2.6c0,1.1,0.4,2,1.1,2.8c0.8,0.9,1.2,1.7,0.3,2.7c-0.6,0.8-1.2,1.7-2.4,1.7c-0.5,0-1.1-0.2-1.5-0.1
			c-0.4,0.1-0.9,0.5-1.1,0.9c-0.3,0.5,0,1,0.5,1.2c0.7,0.3,1.5,0.6,2.2,0.6c2.5,0.1,3.2,2.2,4.2,3.9c-0.5,1.5,0.1,2.4,1.3,3.2
			c1.6,1.1,3.2,2.3,4.7,3.5c0.1,0,0.3,0,0.4,0c0,0.2,0.1,0.2,0.2,0.4c0.5,0.2,0.8,0.6,1,1c0.1,0,0.2,0.1,0.3,0.2l0.2,0.4l-0.3-0.2
			c0-0.1-0.1-0.2-0.2-0.3c-0.5-0.2-0.8-0.5-1-1c-0.1-0.1-0.2-0.2-0.3-0.2c-0.1-0.1-0.1-0.1-0.2-0.2c-2.2,0.2-4.3-0.1-6.3-1.3
			c-0.4-0.3-1-0.3-1.5-0.3c-0.2,0-0.6,0.3-0.5,0.5c0.1,0.5,0.1,1.2,0.4,1.4c3.1,2.2,6.3,4.2,8.9,7.1c1,1.1,2.6,1.6,4,2.1
			c0.9,0.3,2,0,3,0c0.3-0.6,0.5-1.2,0.8-1.7c0.1-0.2,0.4-0.4,0.5-0.4c0.6,0,0.7,0.3,0.4,1c-0.1,0.4-0.1,0.8-0.1,1.2
			c0.4,0.1,0.9,0.3,1.3,0.4c1.6,0.4,2.9,1.1,2.4,3.1c-0.1,0.6,0.1,1,0.7,1.2c1.9,0.4,3,1.6,3.7,3.4c0.4,1,1.5,1.2,2.6,1.2
			c0.9-1.1,1.5-2.5,2.9-3.1c0.6-0.3,1.1-0.2,1.3,0.4c0.2,0.5,0.2,1,0.1,1.5c-0.1,1-0.3,2.1,0.7,2.8c0.8,0.5,1.8,0.9,2.8,1.1
			c0.7,0.1,1.5-0.2,2.2-0.2c1,0,2,0.1,3,0.2c1.6,0.1,1.7,0.1,1.2-2.3c-0.1,0-0.2,0-0.2,0.1c0-0.2,0-0.3-0.1-0.4
			c-0.1-0.1-0.2-0.1-0.3-0.2c0.2-0.3,0.3-0.1,0.3,0.2c0.1,0,0.2,0.1,0.3,0.2c0,0.1,0,0.1,0,0.1c1.4-0.4,2.8-0.8,4.2-1.2
			c1.1-0.3,1.7-1,1.8-2.2c0.1-0.6,0.6-0.7,1.2-0.6c1,0.2,2.2,0.7,3,0.3c1.8-0.9,3.3-2.3,4.9-3.5c0.1-0.1,0-0.5-0.1-0.7
			c-0.7-1-1.9-0.4-2.8-0.8c-3.3-1.4-6.6-2.9-9.9-4.4c-0.5-0.2-0.9-0.5-1.2-0.9c-1.5-1.8-3.5-2.9-5-4.8c-0.8-1.1-1.2-2-1.5-3.3
			c-0.6-3.4-2.4-4.8-5.8-5c-0.9,0-1.8,0-2.7,0.1c0,0.1-0.1,0.2-0.1,0.3c-0.1,0-0.2,0.1-0.3,0.1c-0.1,0.7-0.2,1.6-0.6,1.8
			c-2.6,1.2-2.5,3.6-2.8,5.9c0,0.2-0.1,0.5-0.2,0.7c-0.1,0.2-0.4,0.4-0.5,0.4c-0.2-0.1-0.5-0.3-0.5-0.5c0-1-0.1-2,0-3
			c0.4-2.7,1.9-4.4,4.5-5.2c0-0.1,0-0.3,0.1-0.4c0.1,0,0.2,0,0.4,0c0.6-1.4,1.3-2.6,3.2-2c0.2,0.1,0.5,0.2,0.8,0.1
			c0.5-0.1,1-0.3,1.3-0.6c0.2-0.3,0.2-1,0-1.4c-1.1-1.7-2.6-3.3-3.5-5.1c-0.9-1.8-1.3-3.9-1.9-5.9c-0.7-2.2-0.2-4.1,1.2-5.8
			c0.7-0.8,1.4-1.6,2.2-2.2c2-1.5,2.9-3.5,2.7-6c-0.2-2.2,0.6-4,2.1-5.6c1.6-1.7,3-3.5,4.5-5.4c0.8-1,1.1-2.3,1-3.7
			c-0.1-0.8-0.2-1.5-0.3-2.3c-0.5-2.1-1.3-3.9-3.9-4c-1.3-0.1-2.5-0.6-3.5-1.5c-1.2-1-2.5-1.9-3.6-2.9c-2.5-2.2-2.7-4.9-0.7-7.6
			c0.8-1,1.7-2,2.8-2.6c1.5-0.9,3.3-1.5,4.9-2.2c0.4-0.2,1-0.6,1.1-1c0.3-2.3,2.1-4.2,1-6.7c-0.3-0.7-0.4-1.5-0.4-2.3
			c-0.2-2.2,0.3-4.1,1.9-5.6c1-1,1.8-2.2,2.7-3.4c0,0,0,0,0,0c-0.1-0.1-0.1-0.2-0.2-0.3c-0.6,0-1.2-0.1-1.8-0.3
			c-0.5-0.2-0.4-0.8,0.1-1.1c0.2-0.1,0.6-0.2,0.7-0.1c0.4,0.5,0.7,1,1.1,1.5c0.1,0,0.3,0,0.4,0c-0.1,0.1-0.1,0.2-0.2,0.3
			c0.5,0.1,1,0.3,1.5,0.2c1.9-0.1,3.1-1.4,2.8-3c-0.2-1.3-0.6-2.5-1-3.7c-0.2-0.7-1.3-1.1-2-0.8c-0.5,0.2-0.9,0.5-1.4,0.7
			c-2.5,1.1-4.8,0-5.4-2.5c-0.4-1.5-0.7-3-1-4.6c-0.1-0.5-0.3-1-0.5-1.5c-0.2-0.9,1.2-2,2.1-1.6c1.5,0.5,2.9,1,4.3,1.8
			c1.9,1.1,3.9,1.3,6,1c2.2-0.3,4.6-2.7,4.6-4.7c0-1.5-0.6-3.1-0.6-4.6c0-1.8,0.5-3.5,0.7-5.3c0-0.2-0.1-0.5-0.2-0.8
			c-0.1-0.5-0.3-1-0.4-1.5c-0.3-1.7,0.5-2.7,2-2.4c5.8,1.2,11.4,0.7,16.8-1.5c1.4-0.6,3-1,4.4-1.6c2.4-1.1,4.5-2.4,5.1-5.4
			c0.3-1.7,1.5-3.3,2.2-5c0.4-1,0.6-2,0.9-3c0.3-1.2-0.4-2.7-1.5-3.3c-0.7-0.4-1.4-0.7-2.1-1c-0.7-0.4-1-1.2-0.9-2
			c0-0.8,0.2-1.6,0.5-2.3c0.8-2.1-0.1-3.5-1.6-4.8c-1.6-1.5-3.8-2.3-5.3-4c-0.1,0-0.3,0-0.4,0c0-0.1,0-0.3-0.1-0.4
			c-0.1-0.1-0.2-0.2-0.4-0.4c0.1,0.1,0.3,0.1,0.3,0.2c0,0,0,0.1,0,0.1c0.1,0.1,0.2,0.2,0.2,0.3c0.1,0.1,0.2,0.1,0.2,0.2
			c3.7,0.4,7.5,0.4,10.9,2.4c0.6,0.4,1.5,0.4,2.3,0.5c1.5,0.1,3.1,0.1,4.7,0.1c3.9,0,7-1.4,9.1-4.9c1.1-1.8,1.5-3.9,3.2-5.3
			c1.9-1.5,2.9-3.6,3.5-6c0.6-2.5,1.3-5,1.9-7.5l0.2,0.2c0-0.1,0.1-0.2,0.1-0.3c0,0-0.1,0-0.1,0c-0.6-2.2-0.4-3.1,1.2-4.1
			c0.6-0.3,1.2-0.4,1.9-0.6c0.4-2,1.1-3.9,2.2-5.5c0.3-0.4,0.8-0.7,1.2-0.7c0.3,0,0.7,0.6,0.8,1c0.2,0.7,0.4,1.4,0.5,2.1
			c1.4-0.2,2.2-1.3,2.6-2.4c2.1-5,4.4-9.9,7.6-14.5c2.1-3,3.4-6.5,1.4-10.3c-0.2-0.4-0.3-1-0.4-1.5c-0.7-4.6,0.1-8.8,3.9-12
			c1.6-1.3,3.1-2.8,4.6-4.2c2.4-2.5,5.4-4.2,8.5-5.3c1.8-0.6,3.3-1.3,4.6-2.6c1.1-1.1,2.5-1.9,2.9-3.6c0.1-0.3,0.9-0.7,1.2-0.6
			c1.6,0.4,3.1,0,4.6-0.2c1.5-0.2,3.1,0.2,4.6,0.1c2.9-0.1,5.6-0.6,7.5-3.2c0.9-1.2,2.6-1.6,3.9-2.5c0.8-0.6,1.3-1.6,1.1-2.7
			c-0.3-1.3-0.1-2.6,0.5-3.7c1.5-2.7,2.9-5.6,4.6-8.1c1.4-2.1,2-4.2,1.7-6.6c-0.2-1.8-0.3-3.8,0.8-5.3c2.1-2.9,2.4-6.3,2.6-9.7
			c0.2-4.2,0.2-8.3,0.2-12.5c0-2.8-0.2-5.7-0.2-8.5c0-1.3,0.4-2.7,1.7-3.3c3.6-1.6,5.6-4.4,6.8-8.1c0.2-0.7,0.7-1.4,1-2.1
			c1-2.2,2.3-4,4.1-5.6c2.2-1.9,4.1-4,6.1-6c2-2.1,3.5-4.5,4.6-7.2c1-2.6,1.8-8.6,1.1-10.7C771.8,823,770.5,819.6,769.2,816.3z
			 M650,382.1c0.1,0,0.4,0.4,0.3,0.6c-0.6,2.1-2.7,2.1-4,3.1c-0.4-0.5-0.7-0.8-0.6-0.9C646.7,383.2,648.3,382.6,650,382.1z
			 M616.6,392.4l0.2-0.5l0.2,0.5L616.6,392.4z M614.7,377.6c1.2-0.2,2.5,0.3,3.8-0.3c2.5-1.3,5-0.4,7.4,0.5c0.3,0.1,0.4,0.8,0.4,1.2
			c0,0.2-0.2,0.5-0.5,0.6c-0.9,0.4-1.9,0.7-2.6,0.9c-2.2-1.1-4.2-0.8-6.3-0.7c-0.7,0-1.4-0.5-2-0.9c-0.2-0.1-0.4-0.4-0.4-0.6
			C614.5,378,614.6,377.6,614.7,377.6z M612.8,390.9l0.3,0.2l-0.4-0.1L612.8,390.9z M594.1,370.2c0,0,0.2,0.2,0.3,0.4
			c0.1,0.4,0.3,0.8,0.4,1.2c-0.2-0.4-0.4-0.8-0.6-1.2C593.7,370.6,593.7,370.5,594.1,370.2z M588.9,372.6c0.3-0.6,0.9-1.1,1.4-1.6
			c0.2,0.5,0.3,0.9,0.5,1.4c0.1,0.5,0.2,1,0.4,2.1c0,0.1-0.1,0.8-0.3,1.5c0,0.1-0.5,0.2-0.6,0.2C588.6,375.6,588,374.2,588.9,372.6z
			 M574.6,364.9c0.7,0.2,0.7,0.4-0.1,0.3c-0.2-0.1-0.3-0.2-0.5-0.3C574.2,364.9,574.4,364.8,574.6,364.9z M562.2,402.2
			c0.2,0,0.5,0.1,0.7,0.2c0.1,0.1,0.1,0.5,0,0.5c-1.1,0.6-2.2,1.2-3.3,1.8c0,0-0.2-0.4-0.3-0.6C559.9,403,560.8,402.3,562.2,402.2z
			 M548.6,424c0.2,0,0.4,0.1,0.6,0.2c0,0.2,0,0.4-0.1,0.5c-0.2,0.1-0.4,0.2-0.6,0.1c-0.2-0.1-0.3-0.3-0.5-0.4
			C548.2,424.3,548.4,424.1,548.6,424z M517.3,235.9c0.2-0.1,0.6,0,0.7,0.1c1.9,1.7,3.1,4,4.3,6.2c0.1,0.2,0,0.4-0.1,0.7
			c-0.2,0.1-0.5,0.4-0.6,0.3c-0.7-0.3-1.5-0.5-2-0.9c-1.6-1.4-2.4-3.3-3-5.2C516.5,236.5,516.8,236,517.3,235.9z M476.4,248.4
			c0-0.1,0.4-0.2,0.6-0.2c1.2,0.3,2.2,0.8,2.7,2c0.1,0,0.1,0,0.2-0.1c0.1,0.1,0.2,0.2,0.3,0.3c1,0.1,1.9,0.4,2.6,1.1
			c0.1,0,0.3,0,0.4,0l0.1,0.5l-0.2-0.3c-0.1-0.1-0.2-0.1-0.2-0.2c-1,0-1.9-0.3-2.6-1.1c-0.1,0-0.3,0-0.4-0.1c0,0,0-0.1-0.1-0.1
			c-2.1,0.8-2.5,0.8-3.5-0.6C476.1,249.3,476.3,248.8,476.4,248.4z M461.5,242.9c0.1,0,0.3,0.2,0.5,0.3c-0.2,0.1-0.4,0.2-0.5,0.2
			C460.7,243.2,460.8,242.9,461.5,242.9z M518.2,420.5c0.1-0.1,0.4-0.1,0.6-0.1c0.2,0.1,0.4,0.2,0.5,0.4c0.3,0.5,0,0.8-0.6,0.7
			c-0.2,0-0.5-0.2-0.6-0.3C518.1,421,518.1,420.7,518.2,420.5z M513,466.6c0.1-0.2,0.4-0.3,0.6-0.4c1.2-0.5,2.4-1.1,3.6-1.3
			c2.6-0.3,5.1-0.5,7.7-0.5c1.7,0,3-0.6,4.2-1.7c0.3-0.3,0.9-0.3,1.4-0.5c0.2,0.2,0.4,0.3,0.6,0.5c1,1.5,0.7,3-0.2,4.3
			c-1.7,2.2-3.8,3.7-6.7,2.6c-3.6-1.4-7.2-0.4-10.7-0.7c-0.4,0-0.9-0.6-0.9-1C512.4,467.5,512.7,467,513,466.6z M511.8,473.8
			c-0.1,0.4-0.3,1-0.6,1.2c-2.7,1.5-5.4,3-8.2,4.2c-2.1,0.9-4.3,1.6-6.3,2.8c-2,1.2-4.3,1.7-6.9,1.8c-0.7-0.4-1.6-0.9-2.4-1.5
			c-0.7-0.5-0.5-2.3,0.3-2.7c0.2-0.1,0.4-0.4,0.6-0.4c3.7-0.3,6.8-2.2,9.9-4.1c1.2-0.7,2.4-0.9,3.7-0.4c1.6,0.6,3,0.4,4.5-0.4
			c1.1-0.6,2.4-0.9,3.6-1.3C510.5,472.8,511.8,473.4,511.8,473.8z M489.5,441.8c5.4,0.7,10.7,2.1,15.8,4c0.7,0.3,1.4,0.8,1.8,1.4
			c1.2,2,2.2,4.1,3.2,6.2c0.5,1.1-0.3,2-0.7,2.9c-0.4,0.8-1.2,0.9-1.9,0.6c-1.8-0.7-2.8-2.3-4-3.6c-0.2-0.2-0.8-0.2-1.3-0.2
			c-0.1,0-0.3,0.4-0.4,0.6c-0.1,0.8,0,1.7-0.4,2.3c-2,3.4-3.2,7-4.3,10.7c-0.1,0.4-0.7,0.7-1.1,1.1c-0.6,0.5-1.8,0.2-1.9-0.5
			c-0.3-1.5-0.5-3.1-0.8-4.6c-0.3-1.3-1.9-2-3.1-1.4c-0.7,0.3-1.4,0.7-2,1.2c-0.5,0.4-1,0.5-1.3,0c-0.1-0.1-0.1-0.5,0-0.7
			c0.8-1,1.6-2,2.3-3.1c1.5-2.1,1.8-4.3,0.8-6.7c-0.4-0.9-0.9-1.9-1.6-2.6c-1.2-1-2.6-1.7-3.8-2.7c-0.5-0.4-0.8-1.1-1.2-1.7
			c-0.1,0-0.2,0.1-0.2,0.1c0,0,0,0-0.1-0.1c-1.4,1-2.6,2.2-3.6,3.7c-0.7,1.1-1.7,1.9-3.1,2.1c-1.7,0.2-2.8,1.2-3.6,2.7
			c-2.2,4.4-4.1,8.9-3.9,14c0.2,5-2.3,8.3-6,11c-1,0.8-2.8,0-3-1.3c-0.7-4.4-0.8-8.8,1.5-12.8c1.5-2.5,1.9-5.3,2.9-8
			c0.5-1.2,0.5-2.5-0.1-3.8c-0.2-0.4,0-1,0.1-1.5c0-0.2,0.2-0.5,0.4-0.7c6.3-7,4.7-6.1,13.6-7.4c2.1-0.3,3.4,0.8,4.7,1.9
			c0.1-0.1,0.1-0.1,0.2-0.2c0,0.1,0.1,0.1,0.1,0.2c1.4-0.4,2.8-0.8,4.2-1.4c0.4-0.2,0.6-0.8,0.9-1.2
			C488.9,442.5,489.3,441.8,489.5,441.8z M487.9,373.6c0.1-0.1,0.1-0.2,0.2-0.3c0-0.6-0.1-1.1,0-1.7c0-0.7,0.4-0.9,0.8-0.5
			c0.1,0.1,0.2,0.5,0.1,0.7c-0.3,0.5-0.6,1-0.9,1.5c0,0.2,0,0.3,0,0.5l-0.6,0.1L487.9,373.6z M468.6,405.9c0.1-0.1,0.5-0.1,0.7-0.1
			c0.4,0.3,0.9,0.5,1,0.9c0.3,1.2,0.4,2.4-0.5,3.5c-0.1,0.2-0.4,0.3-0.6,0.4c-0.6,0.2-1,0-1.2-0.6
			C467.3,408.3,467.5,407,468.6,405.9z M461.3,394.5l0,0.5l-0.7-0.2L461.3,394.5z M456.4,265.8c0.3-0.3,0.9-0.6,1.3-0.5
			c0.4,0.1,1,0.4,1.2,0.8c0.3,0.7,0.3,1.5,0.4,2c-0.3,0.8-0.8,1-1.3,0.6c-0.6-0.5-1.2-1-1.6-1.6
			C456.1,266.8,456.2,266.1,456.4,265.8z M451.2,260.9c0.1,0.2,0.1,0.4,0.2,0.6c-0.1,0.1-0.3,0.3-0.4,0.4c-0.1-0.2-0.2-0.4-0.2-0.6
			C450.8,261.2,451,261,451.2,260.9z M448.6,357.1c0.2,0,0.4,0.1,0.6,0.2c-0.1,0.1-0.1,0.4-0.2,0.4c-0.2,0-0.4-0.1-0.6-0.2
			C448.4,357.3,448.5,357.1,448.6,357.1z M445.6,399.9c0,0,0.2,0.2,0.2,0.4c0,0,0.1,0.1,0.1,0.1c1.5,0.1,2.9,0.2,4.4,0.5
			c0.5,0.1,0.5,0.7,0.1,1.2c-0.1,0.2-0.4,0.4-0.6,0.4c-1.5-0.3-2.8-1-3.9-2c-0.1,0-0.2,0-0.2,0C445.2,400.3,445.2,400.1,445.6,399.9
			z M452,427.1c3.2-1.2,6.4-2.1,9.2-4.2c2.5-1.9,5.9-2.2,8.1-4.5c0.8-0.8,1.9-0.8,2.9-0.5c0.7,0.2,1.4,0.7,2.2,0.8
			c2.8,0.6,4.7,2,5.3,4.9c0.3,1.7,1.6,2.7,3.2,3.1c1.9,0.4,2.4,1.4,2.4,3.3c0,2.3,0.5,4.6,0.7,6.9c0.1,1-1.1,1.7-2.1,1.2
			c-0.9-0.5-1.7-1-2.9-0.9c-2.1,0.2-4.2,0.1-6.2,0.6c-2.6,0.6-4.6,0-6.1-2.1c-0.3-0.4-0.8-0.7-1.2-1c-0.5-0.4-1.7-0.4-1.5-1.3
			c0.2-0.7,0.9-1.2,1.3-1.9c0.4-0.5,0.3-1-0.1-1.3c-0.2-0.1-0.5-0.3-0.7-0.3c-0.5,0-1,0-1.5,0.1c-0.5,0.1-1,0.3-1.4,0.7
			c-2.9,2.3-6.3,3.4-9.8,4.6c-2.2,0.7-3.8,1.1-5.4-1.2c-0.9-1.4-2.6-0.9-4.1-1c0,0.1-0.1,0.1-0.1,0.2c-0.1,0-0.2,0-0.4,0
			c-0.1,0.1-0.2,0.3-0.4,0.4c0.1-0.1,0.1-0.3,0.2-0.4c0.1,0,0.1,0,0.2,0c0.1-0.1,0.1-0.2,0.2-0.2c0.1,0,0.2,0,0.3,0
			C446.1,430,448.9,428.3,452,427.1z M443.5,366.8c-0.6-0.1-0.8-0.5-0.5-1c0.1-0.1,0.5-0.2,0.5-0.2c0.2,0.3,0.4,0.7,0.6,1
			C443.9,366.7,443.7,366.8,443.5,366.8z M439.9,255.7c0.9-0.4,1.9-0.6,2.9-0.7c0.3,0,0.7,0.5,1.1,0.8c-1.8,1.5-1.2,3.8-2,5.7
			c-0.5,1.4-1.9,1.8-3,0.7C436.2,259.5,436.5,257.3,439.9,255.7z M437.7,293.6c0.1-0.1,0.2-0.2,0.3-0.3c0.1-0.3,0.2-0.6,0.3-0.9
			c0.1,0.1,0.3,0.2,0.4,0.2c-0.2,0.2-0.5,0.5-0.7,0.7c-0.1,0.2-0.1,0.3-0.2,0.5c-0.6,0.6-1.1,1.2-1.7,1.9c-0.1,0.1-0.2,0.2-0.3,0.3
			c0.1-0.2,0.1-0.3,0.2-0.5C436.6,294.9,437.2,294.3,437.7,293.6z M436.2,267.8l0,0.5l-0.6-0.2L436.2,267.8z M432.4,328l0.2,0.5
			l-0.4,0L432.4,328z M429.7,411.3c0.5-1,0.6-2.4,1.8-3.1c0-0.1-0.1-0.2-0.1-0.3c0.1-0.1,0.3-0.2,0.4-0.3c-0.1,0.2-0.1,0.4-0.2,0.5
			c-0.1,0-0.1,0.1-0.1,0.1c0.2,0.9,0.5,1.8,0.7,2.6c0.1,0.2,0.1,0.6,0,0.7c-0.3,0.3-0.7,0.6-1.2,0.9c-0.2,0.1-0.5,0-0.7-0.1
			C429.7,412.2,429.5,411.8,429.7,411.3z M428.3,355.5l0.5,0.2l-0.5,0.2L428.3,355.5z M426.1,330.9c0.5-0.2,0.9,0.1,1.1,0.7
			c0,0.6-0.3,0.9-0.9,0.8c-0.4-0.1-0.8-0.3-1.2-0.5C425.4,331.6,425.7,331.1,426.1,330.9z M425,390.3c0.4,2.7-0.2,5-2.6,6.6
			c0,0.1,0,0.2,0,0.3l-0.4,0.1l0.2-0.2c0.1,0,0.1-0.1,0.2-0.1c-0.5-2.6,0.4-4.9,1.7-7.1c0.1-0.1,0.5-0.2,0.5-0.2
			C424.8,389.8,425,390.1,425,390.3z M424.1,358.8c0.2,0,0.3,0.2,0.5,0.4c-0.1,0.2-0.1,0.4-0.2,0.5c-0.1,0.1-0.4,0-0.5-0.1
			C423.3,359.1,423.5,358.8,424.1,358.8z M418.8,365.3c0.2-0.3,1-0.4,1.4-0.3c1.5,0.4,2.9,1.2,3.4,2.8c0.5,1.7,0.9,3.4,0.7,5.3
			c-0.3,2.5-0.2,5.1-0.3,7.1c0.3,1.3,0.6,2,0.6,2.8c0,0.7,0,1.8-0.5,2c-0.9,0.6-1.2-0.4-1.6-1.1c-0.4-0.6-0.9-1.4-1.5-1.5
			c-1.5-0.3-2.2-1.2-2.6-2.5c-0.2-0.7-0.4-1.5-0.6-2.2c-0.4-2-1.2-4,0-5.9c-0.5-0.8-0.9-1.7-1.4-2.6
			C417.3,367.9,418,366.5,418.8,365.3z M410.1,376.2c-0.5,1.1-1.4,2.1-2.1,3.2c-0.4,0.6-0.7,0.7-1,0.2c-0.1-0.2-0.1-0.5-0.1-0.7
			c0-0.2,0.1-0.5,0.1-0.7c0.6-1.4,1.4-2.7,1-4.3c-0.5-1.9-2.4-1.7-3.5-2.5c-0.2-0.1-0.3-0.5-0.2-0.6c0.3-0.3,0.6-0.7,1-0.8
			c0.5-0.1,1,0.2,1.5,0.2c0.9,0.2,1.9,0.3,2.8,0.5c0-0.1-0.1-0.1-0.1-0.2c0,0,0.1,0,0.1,0c-0.8-1.2-1.5-2.4-2.3-3.7
			c-1.1-1.9-1-4-0.2-6c0.3-0.6,1-1.4,1.6-1.5c0.6-0.1,1.5,0.3,2,0.8c0.8,0.9,1.5,2,2.1,3c0,0,0-0.1,0.1-0.1l0.1-0.4l-0.2,0.6
			c0,0-0.1-0.1-0.1-0.1c-2.1,1.9-2,3.7,0.1,5.6c0.4,0.4,0.1,1-0.5,1.2c-0.9,0.2-1.9,0.4-2.8,0.6c0.1,0.1,0.1,0.2,0.2,0.3
			c-0.1,0-0.1,0-0.2,0c0.3,0.9,0.7,1.7,0.8,2.7C410.6,374.2,410.5,375.3,410.1,376.2z M413.7,397.2c0,0.2-0.3,0.5-0.5,0.5
			c-0.4,0-1.2,0-1.2-0.1c-0.5-1.6-0.9-3.3-1.2-5c-0.1-0.4,0.4-0.8,0.7-1.3c0-0.1-0.1-0.2-0.1-0.2c0.1-0.4,0.2-0.8,0.3-1.2
			c0,0,0,0,0-0.1c0-0.2,0.1-0.4,0.1-0.5c0,0.2-0.1,0.4-0.1,0.6c-0.1,0.5-0.1,0.9-0.2,1.4c0,0,0,0,0,0c0.7,1.5,1.4,2.9,2.1,4.4
			C413.8,396.2,413.7,396.7,413.7,397.2z M411.1,240.2c0.1-0.2,0.4-0.2,0.6-0.3c0.6,0.2,0.7,0.6,0.4,1.2c-0.1,0.1-0.4,0.3-0.5,0.2
			C411,241.1,410.8,240.7,411.1,240.2z M406.9,312.9c0.2-1.1,1.1-1.8,2.1-2c0.4-0.1,0.9,0.2,1.3,0.5c0.1,0.1,0.1,0.5,0,0.7
			c-0.9,1.5-2.1,2.7-3.7,3.5c0,0.1,0,0.2,0,0.3c-0.1,0-0.3,0.1-0.4,0.1c-0.1,0.2-0.3,0.3-0.4,0.5c0.1-0.1,0.1-0.4,0.2-0.4
			c0.1,0,0.1,0,0.2,0c0.1-0.1,0.1-0.2,0.2-0.3c0.1,0,0.1-0.1,0.2-0.1C406.7,314.7,406.7,313.7,406.9,312.9z M405.8,237.8
			c0.7,0,0.9,0.4,0.5,0.8c-0.1,0.1-0.5,0-0.7,0c-0.1-0.1-0.2-0.3-0.4-0.5C405.4,238,405.6,237.8,405.8,237.8z M403.1,332.3
			c0.9-0.2,1.9-0.3,2.8-0.5c0.2-0.1,0.4-0.2,0.5-0.3c0.6-0.6,1.2-1.2,1.8-1.7c0,0,0.1-0.1,0.1-0.1c-0.1-0.2-0.1-0.3-0.2-0.5
			c-1.4-6.3-2.1-6.8,5.1-11c0.3-0.2,1,0,1.3,0.2c0.3,0.3,0.4,0.9,0.4,1.4c0,0.2-0.1,0.5-0.3,0.7c-1.2,1.3-2.5,2.6-3.5,4
			c-0.8,1.3-1.2,2.8-1.9,4.2c-0.2,0.4-0.6,0.6-1,0.9c0,0.1,0,0.2,0.1,0.2c-0.6,0.6-1.2,1.2-1.8,1.8c-0.2,0-0.5,0.1-0.7,0.1
			c-0.9,0.5-1.7,1-2.6,1.5c-0.1,0-0.4-0.2-0.5-0.4C402.8,332.7,402.9,332.3,403.1,332.3z M402.8,214l-0.2,0.5l-0.2-0.5L402.8,214z
			 M397.9,229.4c0.1-0.1,0.4-0.1,0.6-0.1c0.5,0.4,0.6,0.8,0.2,1.2c-0.1,0.1-0.5,0.2-0.7,0.1C397.6,230.2,397.6,229.8,397.9,229.4z
			 M223.8,294.3l-0.4,0.1l0.2-0.3c0.1-0.1,0.1-0.3,0.2-0.4C223.9,293.9,223.8,294.1,223.8,294.3z M228.2,283c0-0.1,0-0.3,0-0.4
			c-0.3-0.2-0.6-0.4-0.8-0.6c-0.1-0.1,0.1-0.4,0.2-0.6c0.6,0.2,0.6,0.7,0.6,1.2c0.1,0.1,0.2,0.1,0.2,0.2c0.1,0.2,0.2,0.3,0.4,0.5
			C228.6,283.2,228.4,283.1,228.2,283z M229.4,273c0,0.1-0.2,0.1-0.3,0.1c0-0.4,0.1-0.8,0.1-1.2c0.1,0.2,0.2,0.3,0.3,0.5
			C229.4,272.6,229.4,272.8,229.4,273z M230.3,314.4c-0.4,0.4-0.9,0.3-1.2-0.3c-0.6-0.8-1.3-1.6-1.6-2.6c-0.4-1.2-0.2-2.4,1-3.1
			c0-0.1-0.1-0.2-0.1-0.3c0-0.1,0.1-0.1,0.1-0.2c-0.1-0.5-0.1-1,0.4-1.4c0.1,0.2,0.3,0.4,0.2,0.5c-0.2,0.3-0.4,0.6-0.6,0.9
			c0,0.1,0,0.3,0.1,0.4c0,0-0.1,0.1-0.1,0.1c0.7,1.8,1.4,3.5,2,5.3C230.6,313.9,230.5,314.3,230.3,314.4z M232.5,309
			c-0.2,0-0.5-0.3-0.5-0.4c0-0.4,0.2-0.8,0.3-1.2c0.3,0.3,0.6,0.6,0.9,0.9C233.3,308.8,233,309.1,232.5,309z M302.1,144.3
			c-0.1,0-0.3-0.4-0.3-0.6c0-0.7,0-1.5,0-1.2c0.1-1.5,0.1-2,0.2-2.4c0-0.2,0.2-0.4,0.4-0.6c0,0,0.4,0.1,0.4,0.2
			c0.1,1.2,0.1,2.4,0.1,3.6C302.9,144,302.7,144.3,302.1,144.3z M312.9,140.8c-0.2,0.1-0.3,0.3-0.5,0.4c0.1-0.2,0.2-0.4,0.2-0.6
			l0.3-0.1L312.9,140.8z M315.8,270.6l-0.3,0.2L315.8,270.6l0.3-0.4L315.8,270.6z M327.7,334.1c-0.2,0-0.4-0.1-0.6-0.2
			c0.3-0.1,0.6-0.3,0.9-0.3c0.1,0,0.3,0.2,0.4,0.3C328.1,334,327.9,334.1,327.7,334.1z M329.4,135.5c-0.2,0.2-0.4,0.3-0.6,0.3
			c-2.5,0-5.1,0-7.6-0.1c-0.2,0.1-0.3,0.1-0.5,0.2c-0.6,0.6-1.1,1.2-1.7,1.8c-0.1,0-0.3,0.1-0.4,0.1c-0.2,0.3-0.4,0.6-0.7,0.8
			c-0.1,0.1-0.4-0.1-0.6-0.2c0.2-0.6,0.8-0.6,1.3-0.6c0.1-0.1,0.1-0.2,0.2-0.2c0.6-0.6,1.1-1.2,1.7-1.8c0.2,0,0.5,0,0.7,0
			c2.6-1.3,5.4-1,8.2-0.7C329.4,135.1,329.4,135.4,329.4,135.5z M386.2,346.6c-0.2,0-0.4-0.3-0.5-0.4c0.1-0.4,0.2-0.9,0.5-1.2
			c0.5-0.5,1.2-0.7,1.9-0.3c0.2,0.1,0.3,0.4,0.3,0.5C388.1,346.1,387.1,346.8,386.2,346.6z M385.4,321.3c-0.2,0-0.5-0.2-0.6-0.4
			c-0.1-0.2,0-0.5,0.1-0.7c0.8-1,1.8-1.6,3.1-1.3c0.1,0,0.2,0.4,0.3,0.6C387.7,320.8,386.8,321.4,385.4,321.3z M388.3,267.5l0.2-0.5
			l0.2,0.5L388.3,267.5z M392.6,205.4c0.4,0,0.9,0.2,1.3,0.3c0.2,0.1,0.3,0.4,0.4,0.6c0,0.2,0,0.6-0.1,0.6c-0.4,0.1-0.9,0.2-1.2,0
			C392.2,206.4,392,205.4,392.6,205.4z M333.1,176.6c0.1,0,0.2-0.1,0.3-0.1c0-0.1,0.1-0.2,0.1-0.3c0.3,0.1,0.2,0.2-0.1,0.3
			c0,0.1-0.1,0.2-0.1,0.3l-0.5,0.3L333.1,176.6z M339.4,262.8c-0.1-0.1-0.3-0.3-0.4-0.4c0.2,0.1,0.4,0.1,0.6,0.2l0.1,0.4
			L339.4,262.8z M340.7,209.7c-2,1.6-3.9,1.6-6.5,0.2c-1.1-0.6-1.2-1.2-0.5-1.7c1.1-0.7,2.4-1.3,3.1-2.2c1.2-1.5,2.4-2.6,4.2-3.2
			c1.4-0.5,1.9-1.6,2.3-2.9c0.1-0.3,0.8-0.7,1.2-0.6c1.3,0.1,2.4,0.9,3.8,0.6c1-0.2,1.8-1.6,1.1-2.4c-0.7-0.8-1.3-1.6-2.2-2.1
			c-1.6-0.9-3.4-1.3-5.2-1.3c-3.3-0.1-6.7-0.4-10-0.6c-0.2,0-0.5-0.4-0.4-0.5c0.1-0.5,0.3-1,0.7-1.3c0.4-0.3,1-0.3,1.5-0.3
			c3.9-0.2,7.8-0.3,11.7-0.4c2.9-0.1,5.7-0.5,8.4-1.3c2.5-0.8,5-1.3,7.6-1.8c0.7-0.1,1.6-0.1,2.3,0.1c0.4,0.1,1,0.5,1.1,0.8
			c0.1,0.4-0.2,1.2-0.5,1.3c-2.1,0.9-4.3,1.7-6.5,2.5c-0.6,0.2-0.9,1.6-0.5,2c0.2,0.2,0.2,0.5,0.4,0.6c0.4,0.3,0.8,0.6,1.3,0.9
			c3.5,2.5,7,3.5,10.6,0.3c0.1-0.1,0.5-0.2,0.7-0.1c0.6,0.3,0.6,0.7,0.4,1.3c-0.3,1-0.6,2-1.5,2.7c-1,0.8-2.1,1.5-3.1,2.4
			c-0.5,0.5-0.8,1.3-1.1,2c-1.1,2.6-1.8,3-3.7,1.3c-2.1-1.8-4.2-1.9-6.5-0.9c-0.6,0.3-1.5,1-1.5,1.6c-0.3,2.7-2,3.9-4.4,4.3
			c0,0.1-0.1,0.2-0.1,0.3c-0.2,0-0.3,0-0.5,0c-0.7,0.6-1.6,1-2.5,1.1c-0.1,0.1-0.2,0.2-0.3,0.3c-0.1,0-0.3,0-0.4,0.1
			c-0.2,0.3-0.4,0.5-0.6,0.8c-0.1,0.1-0.4-0.1-0.6-0.1c0.2-0.6,0.7-0.6,1.2-0.6c0.1-0.1,0.1-0.2,0.2-0.3c0.2,0,0.3-0.1,0.5-0.1
			c0.6-0.8,1.5-1,2.5-1.1c0.1-0.1,0.2-0.1,0.3-0.2c0.1,0,0.2-0.1,0.3-0.1c0.4-1.1,0.8-2.2,1.1-3.4c0.4-1.3-1-2.7-2.3-2.3
			c-1.5,0.5-2.9,1-4.3,1.8C342.6,207.8,341.8,208.9,340.7,209.7z M359.1,214.7c-0.3,0.2-0.6,0.4-0.9,0.6c0,0.1,0,0.2-0.1,0.4
			c0,0.1-0.1,0.3-0.2,0.4c0,0.3-0.1,0.6-0.1,0.9c-0.5-0.4-0.2-0.6,0.1-0.9c0-0.2,0-0.4,0-0.5c0.1-0.1,0.2-0.1,0.3-0.2
			c0.1-0.5,0-1.1,0.8-1.2C359,214,359.1,214.6,359.1,214.7z M352.7,238.7c-0.4,0.3-0.6,0.7-0.7,0.7c-2.1-0.3-3-1.9-3.6-3.6
			c-0.1-0.2,0.5-0.9,0.9-1c0.4-0.2,1.3-0.2,1.4,0C351.5,235.9,352.1,237.4,352.7,238.7z M347.1,279.3l0-0.5l0.6,0.3L347.1,279.3z
			 M359.2,302.9c-0.1,0.1-0.3,0.2-0.5,0.3c-0.1-0.4-0.2-0.9-0.3-1.3c0-0.1,0.4-0.3,0.5-0.2c0.2,0.1,0.3,0.4,0.4,0.5
			C359.3,302.4,359.4,302.7,359.2,302.9z M362.3,268.3c-1.1,1.2-2.3,2-3.9,2.2c-2.3,0.3-4.6,0.9-6.9,1.2c-1.9,0.2-3.6-0.3-4.8-2
			c-0.8-1-1.7-2-2.5-3c-0.1-0.1,0.1-0.4,0.2-0.5c0.2-0.1,0.5-0.2,0.7-0.2c1,0.3,1.9,0.8,2.9,0.9c0.7,0.1,1.6-0.1,2.2-0.5
			c1.2-1,2.3-2.2,3.2-3.4c1.1-1.4,2.4-1.9,4.1-1.6c0.5,0.1,1-0.1,1.5-0.2c1-0.2,1.9-1.3,1.8-2.2c-0.1-0.8-0.1-1.6-0.3-2.3
			c-0.3-1.5-0.6-3.1-0.9-4.6c-0.1-0.6,0-1,0.5-1.1c0.2,0,0.5,0.1,0.7,0.3c2.4,1.8,3.7,4.3,5.2,6.7c0.7,1.2,1.9,1.6,3.3,1.8
			c3.6,0.4,6.8-0.6,9.4-2.8c2.5-2.2,5.4-3.1,8.5-3.6c1.2-0.2,2.5,0.1,3.7,0.1c0-0.1,0.1-0.1,0.1-0.2c-0.1-0.5,0.1-0.6,0.3-0.2
			c0,0-0.2,0.2-0.3,0.4c0,0-0.1,0-0.1,0c-0.6,0.7-1.1,1.6-1.9,2.1c-1,0.8-2.2,1.3-3.4,1.8c-2.6,1.2-5,2.5-7.4,4.3
			c-2.6,2-5.9,3.3-8.9,4.8c-0.4,0.2-1.1,0.2-1.5,0C365.5,265.6,363.8,266.7,362.3,268.3z M367.6,335c-0.1-0.1-0.2-0.3-0.3-0.4
			c-0.2-0.4-0.4-0.8-0.5-1.2c0.2,0.4,0.4,0.8,0.6,1.1C367.9,334.5,368,334.7,367.6,335z M368.8,302.5c-0.3,0.2-0.9-0.2-1.3-0.3
			c-0.1,0-0.1-0.5,0-0.7c0.6-0.8,1.1-1.9,1.9-2.4c2.8-1.8,5.7-3.4,8.6-4.9c0.4-0.2,1.1,0,1.4,0.2c1.4,1.2,2.8,2.1,4.7,2.1
			c0.2,0,0.4,0.7,0.6,1.1c0,0.1-0.3,0.5-0.4,0.5c-1.8,0.2-3.5,0.4-5.3,0.6c0-0.1,0-0.2,0-0.3c-0.8,0-1.5,0-2.3,0
			c-2.5-0.1-4.5,0.7-6.2,2.6C370,301.7,369.5,302.2,368.8,302.5z M449.7,705.5c-0.2,0.2-0.3,0.4-0.6,0.5c-1.5,0.5-3.1-0.9-2.9-2.4
			c0-0.2,0.3-0.5,0.5-0.5c1.4-0.1,2.4,0.5,3,1.7C449.9,705,449.7,705.2,449.7,705.5z M537.4,718.5c-0.1,0.6-1.2,1.5-1.6,1.3
			c-0.4-0.2-0.9-0.5-1.1-0.9c-1.3-2-1.1-2.7,1.1-5.2c0.2-0.3,0.8-0.3,1.3-0.3c0.1,0,0.2,0.4,0.3,0.6c0.1,0.7,0.2,1.5,0.3,2.5
			C537.6,717,537.5,717.7,537.4,718.5z M552.9,1136.5c-0.1-0.1-0.3-0.1-0.3-0.2c0-0.2-0.1-0.5,0-0.7c0.2-0.5,0.4-0.4,0.5,0.3
			C553.1,1136.1,553,1136.3,552.9,1136.5z M554.9,888c0-0.1-0.1-0.1-0.1-0.2c-2.4,0-3.9-1.4-5.1-3.3c-0.2-0.3,0.1-0.9,0.2-1.3
			c0-0.1,0.5-0.1,0.6,0c1.6,1.4,3.6,2.5,4.2,4.7c0.1,0,0.2,0,0.3,0c0.1,0.1,0.2,0.2,0.4,0.4C555.3,888.2,555.1,888.1,554.9,888z
			 M569.4,1166c0,0.1-0.1,0.2-0.1,0.3l-0.5,0.2l0.3-0.4C569.3,1166.1,569.3,1166,569.4,1166c0-0.1,0.1-0.2,0.1-0.3
			C569.8,1165.8,569.7,1165.9,569.4,1166z M573.5,1173.8c-0.4,0.2-0.9,0.5-1.3,0.6c-0.2,0-0.5-0.1-0.6-0.3c-0.3-0.5-0.2-1,0.5-1
			c0.5,0,1,0.1,1.5,0.2C573.6,1173.3,573.5,1173.6,573.5,1173.8z M574.9,1182.9c-0.1,0-0.1-0.3-0.2-0.4c0.2,0,0.4-0.1,0.5-0.1
			c0.1,0.1,0.1,0.3,0.2,0.4C575.3,1182.9,575.1,1183,574.9,1182.9z M578.7,1176.9c0,0.1-0.1,0.2-0.1,0.3c-0.1,0-0.2,0.1-0.3,0.2
			c-0.2,0.5-0.5,0.9-1,1c-0.1,0.1-0.2,0.2-0.2,0.3l-0.4,0.3l0.2-0.5c0.2,0,0.2-0.1,0.4-0.2c0.2-0.5,0.6-0.8,1-1
			c0-0.1,0.1-0.2,0.2-0.4C578.6,1177,578.6,1176.9,578.7,1176.9c0.1-0.1,0.1-0.3,0.2-0.4C579.3,1176.8,579.1,1176.9,578.7,1176.9z
			 M590,1180.9c0.5-0.3,1-0.2,1.3,0.3c0.1,0.1-0.1,0.5-0.3,0.6c-0.4,0.3-0.8,0.6-1.2,0.9c-0.2,0-0.5,0-0.7-0.1
			C588.6,1182.3,589.1,1181.4,590,1180.9z M584.9,1186.5c0,0.1,0.1,0.2,0.1,0.4c1,0.5,1.9,1,2.9,1.6c0.1,0,0.1,0,0.2-0.1
			c0,0,0.1,0,0.1-0.1c0-0.4-0.1-0.8,0-1.1c0.1-0.6,0.4-0.8,1-0.7c0.2,0,0.4,0.2,0.6,0.4c0.4,0.5,0.3,0.9-0.3,1.1
			c-0.4,0.1-0.8,0.3-1.2,0.4c0,0.1,0,0.2,0,0.3c-0.1,0-0.2-0.1-0.3-0.2c-0.4,0.1-0.8,0.3-1.2,0.4c-0.8,0.2-1.3-0.2-1.5-1
			c-0.1-0.3-0.1-0.7-0.2-1c-0.1,0-0.2-0.1-0.3-0.1c-0.1-0.1-0.1-0.2-0.2-0.3c-0.5-0.1-1,0-1.1-0.7c0,0,0.5-0.2,0.6-0.1
			c0.2,0.3,0.4,0.6,0.5,0.8C584.7,1186.4,584.8,1186.4,584.9,1186.5z M591.6,733.6l0.3-0.5l0.1,0.6L591.6,733.6z M603.3,989.3
			c-0.4-0.2-0.8-0.3-1.2-0.5c0.2-0.1,0.4-0.3,0.6-0.4c0.2-0.1,0.5-0.1,0.7,0c0.2,0.1,0.3,0.3,0.5,0.5
			C603.7,989,603.5,989.1,603.3,989.3z M639.3,748.3c-0.1-0.1-0.1-0.3-0.2-0.5c0.4-0.2,0.7-0.3,1.1-0.5c0.1,0.2,0.2,0.4,0.2,0.6
			C640.2,748.4,639.8,748.5,639.3,748.3z M669.7,784.9c-0.6,0.8-1.9,1-2.6,0.5c-0.7-0.5-0.7-1.3-0.5-1.9c0.2-0.6,0.6-1.1,0.9-1.6
			c0.1,0.4,0.1,0.8,0.3,1.1c0.3,0.8,0.9,1.1,1.7,0.9c0.3-0.1,0.6-0.3,0.9-0.4C670.2,784,670,784.5,669.7,784.9z M677.4,793.5
			c0-0.2,0-0.4,0.1-0.5c0.4-0.2,0.9-0.4,1.3-0.5c0.1,0,0.4,0.3,0.4,0.5c0,0.2-0.2,0.5-0.4,0.5C678.4,793.5,677.9,793.5,677.4,793.5z
			 M679.5,811c0,0-0.4,0-0.4,0c-0.4-0.6-0.8-1.2-1.1-1.9c-0.3-0.5-0.2-1,0.3-1.2c0.1,0,0.5,0.2,0.6,0.4c0.3,0.6,0.6,1.3,0.9,1.8
			C679.6,810.6,679.6,810.8,679.5,811z M684.8,901.4l-0.5-0.2l0.5-0.2L684.8,901.4z"/>
		<path class="st0" d="M253.4,390.8c-0.1,0-0.1,0-0.2,0c0,0.1,0,0.1,0.1,0.2c0.1,0,0.1,0.1,0.2,0.1
			C253.4,391,253.4,390.9,253.4,390.8z"/>
		<path class="st0" d="M628.5,40.8c0.1-0.1,0.2-0.1,0.3-0.2c-0.1,0-0.1,0-0.2,0c-0.1,0.1-0.1,0.1-0.1,0.2
			C628.4,40.8,628.4,40.8,628.5,40.8z"/>
		<path class="st0" d="M636.4,17.1C636.4,17.1,636.4,17.1,636.4,17.1c-0.1,0-0.2,0.1-0.2,0.1c0,0,0,0.1,0,0.1
			C636.3,17.3,636.4,17.2,636.4,17.1z"/>
		<path class="st0" d="M571.3,187.2c3,0.3,5.4,3.1,8.8,2.4c0.2,0,0.5,0.2,0.7,0.3c0.4,0.3,0.9,0.6,1.3,0.9c1.2,1,2.3,2,3.6,2.9
			c0.6,0.4,1.5,0.5,2.2,0.3c0.6-0.2,1-0.8,1.4-1.3c-0.5-0.6-1-1.3-1.6-1.9c0-0.1-0.1-0.1-0.1-0.2c-1.1,0.1-2.2,0-2.6-1.3
			c-0.1,0-0.2,0-0.3,0l-0.3-0.3l0.5,0.2c0,0.1,0.1,0.1,0.1,0.2c1.1,0,2.1,0.2,2.6,1.3c0.1,0,0.2,0,0.3,0c0.5,0.6,1,1.3,1.6,1.9
			c-0.1,0.1-0.1,0.1-0.2,0.2c1.2-0.2,2.4-0.4,3.6-0.7c2.1-0.6,3.1-2,3.1-4.4c0-0.9-0.2-1.8-0.3-2.7c-0.1,0-0.2-0.1-0.2-0.1
			c0-0.1,0-0.2,0-0.3c-1.2-1.3-1.2-1.4,0.2-2.7c0-0.1,0-0.1,0-0.2c-0.1-0.5,0-0.6,0.4-0.2c0,0-0.2,0.2-0.4,0.3c0,0,0,0,0,0
			c-0.1,0.9-0.2,1.8-0.2,2.7c0.1,0.1,0.1,0.1,0.2,0.2c0,0.1,0,0.2,0,0.3c1.6,0.7,3.1,1.3,4.7,2.1c0.3,0.2,0.5,0.8,0.7,1.3
			c0.1,0.2-0.1,0.5-0.2,0.7c-0.4,1.2-1.2,2.5-1.1,3.7c0.1,1.1,1.4,2.1,1.7,3.3c0.6,2.6,1.8,4.8,3.5,6.8c0.6,0.6,0.3,1.5-0.5,1.9
			c-0.7,0.3-1.6,0.4-2.1,0.8c-0.5,0.4-0.9,1.2-1.1,1.9c-0.1,0.3,0.4,1.1,0.7,1.2c2,0.5,4.1-1.1,6.1,0c0.2,0.1,0.4,0.3,0.6,0.5
			c0.3,0.5,0.2,1-0.3,1.2c-0.7,0.4-1.4,0.6-2,1c-0.6,0.4-0.7,1.6-0.2,2.1c0.4,0.3,0.9,0.6,1.3,0.7c0.5,0,1-0.2,1.5-0.4
			c2.1-0.5,3.6-0.1,4.2,2.2c0.1,0.5,0.4,1.1,0.8,1.2c2.5,1,2.5,2.9,2.2,5.1c-0.4,2.6-0.3,5.2-0.6,7.8c-0.1,1-0.6,2.1-1.7,2.4
			c-1.6,0.4-3,1.2-3.9,2.5c-1.5,2.2-3.7,3.6-5.8,5.1c-4.2,3-5.7,3.3-3,9.5c0.1,0.3-0.3,1.3-0.5,1.3c-2.6-0.1-5.1,0.8-7.5,1.6
			c-2.7,1-5.1,0.7-7.5-0.7c-1.4-0.7-2.7-1.5-4.1-2.1c-0.4-0.2-1.2,0-1.4,0.3c-1.3,1.7-2.8,3-4.4,4.3c-0.8,0.6-1.3,1.6-1.8,2.5
			c-0.7,1.3-0.4,3.3,0.6,4.4c2.5,2.7,5.3,4.2,9,2.4c0.9-0.4,2-0.7,3-0.9c0.5-0.1,1.1-0.2,1.5,0.1c2.6,1.5,5.5,0.6,8.3,1.1
			c1.5,0.3,2.4,0.9,3,2.1c1.2,2.3,2.2,4.7,3.7,6.8c1,1.4,1.7,2.4,0.8,4.1c-0.5,0.9-0.2,2,0.4,3c1.4,2.1,3.2,3.9,5.6,5c0,0,0,0,0,0.1
			c0.1,0,0.1,0,0.2,0l-0.1-0.2c1.8,0.6,3,1.9,4.2,3.3c2.1,2.3,4.3,4.4,7.5,5.1c1.4,0.3,2.6,1.6,4,2.3c1.4,0.7,2.8,1.1,4.3,1.5
			c0.3,0.1,1-0.3,1.2-0.7c0.8-1.4,1-2.9,0.2-4.4c-2-3.9-3.9-7.8-7.4-10.7c-1.2-1-1.4-2.5-1.4-4c-0.1,0-0.1-0.1-0.2-0.1
			c0-0.1-0.1-0.3-0.1-0.4c-0.2-0.1-0.3-0.2-0.5-0.3c0.1,0,0.4,0,0.4,0.1c0,0.1,0,0.1,0.1,0.2c0.1,0.1,0.2,0.1,0.3,0.2
			c0,0.1,0,0.2,0,0.3c2.4,0.9,4.5,2.1,6.2,4.1c1.3,1.6,2.9,2.9,4.9,3.7c1.5,0.6,2.4,1.8,3.2,3.3c0.7,1.4,1.4,2.7,2.3,4.1
			c0.2,0.3,0.9,0.7,1.2,0.6c0.6-0.1,0.8-0.8,0.5-1.3c-1.2-2-0.9-3.8,0.3-5.8c0.8-1.3,1.6-2.5,2.9-3.5c1.1-0.8,1.3-2.1,1-3.5
			c-0.2-0.8-0.3-1.5-0.6-2.2c-1.2-2.7-1.7-5.4-1.4-8.3c0.2-1.8-0.7-2.8-2.1-3.8c-1.5-1-2.8-2.3-4.1-3.5c-0.8-0.7-1.1-1.6-1.1-2.8
			c0.1-2.3-0.4-4.5-1.9-6.4c-0.3-0.3-0.2-0.9-0.3-1.4c-0.1,0-0.1,0-0.2,0l-0.3-0.3l0.4,0.2c0,0,0,0.1,0,0.1c0.5,0.1,0.9,0.2,1.4,0.2
			c2.3,0,2.5-0.2,3.1-2.5c0.2-0.7,0.5-1.4,0.8-2.1c0.3-0.7,1.5-0.7,1.9-0.2c1.1,1.5,2.1,3,3.2,4.4c1.4,1.9,2.4,4,2.8,6.3
			c0.2,1,0.3,2,0.6,3c0.1,0.5,0.4,1,0.7,1.4c1.5,1.4,3.1,2.7,5.2,3.2c0.4,0.1,1.1-0.3,1.3-0.6c0.5-1.4,0.9-2.9,1.2-4.4
			c0.3-1.1,0.8-1.9,1.9-2.2c0.7-0.2,1.5-0.3,2.2-0.6c3.5-1.3,4.9-5.2,8.3-6.8c1-0.5,1.7-1.9,2.3-3c0.3-0.6,0.4-1.5,0.2-2.2
			c-0.6-1.8-1.6-3.3-3.6-3.7c-1-0.2-2-0.3-2.7-1.3l0.2,0.1c0-0.1,0-0.2,0-0.4c-0.1,0.1-0.1,0.1-0.2,0.2c-0.6-0.5-0.6-1,0-1.5
			c0.1,0.1,0.1,0.1,0.2,0.2c0-0.1,0-0.2,0-0.3l-0.2,0.1c-0.3-0.4-0.6-0.8-1.1-1c-0.4-0.2-1-0.1-1.5-0.2c-0.5,0-1,0-1.5,0
			c-1-0.2-1.6-1.4-1.3-2.4c0.8-2.4,0.9-2.6-0.5-3.4c-1.4-0.8-2.6-1.6-2.5-3.4c-1.4-0.5-2.9-0.9-4.3-1.6c-1.2-0.5-2.1-1.6-2.4-2.9
			c-0.7-2.5-2.2-4-4.7-4.5c-0.9-0.2-1.1-1.1-0.5-1.8c1.5-1.7,3.2-3.4,2.6-6.1c-0.1-0.5,0.4-0.8,1-0.6c1.2,0.4,2.5,0.9,3.7,1
			c0.6,0.1,1.6-0.3,1.9-0.8c0.3-0.5,0-1.4,0-2.2c0-0.2-0.2-0.5-0.4-0.7c-1.3-1.2-1.9-2.4-0.4-3.9c1.2-1.3,1.4-2.7,0.8-4.3
			c-0.8-2.2-1.9-4.3-2.4-6.5c-0.8-3.7-2.8-5.9-6.5-6.8c-1.6-0.4-2.7-1.2-3.1-3c-0.1-0.5-1-0.9-1.6-1.3c0,0,0,0,0,0l-0.4,0.3l0.3-0.5
			c0,0,0.1,0,0.1,0.1c0.6-1.8,0.8-3.5-0.2-5.2c-0.6-1.1-1.4-2.2-2.3-3.1c-1.1-1.3-2.4-1.8-4.1-0.8c-1.5,0.9-2.1,0.8-2.5-0.5
			c-0.8-2.1-2.3-1.7-3.8-1.5c-0.2,0-0.6,0-0.7-0.2c-0.5-0.3-0.3-0.7,0.2-1.2c0.7-0.7,1.3-1.6,1.8-2.5c0.2-0.4,0.1-1.1-0.1-1.4
			c-0.5-0.6-1.3-0.9-1.7-1.5c-0.6-1,0.4-1.9,0.4-2.9c0-1.4-0.6-2.6-1.6-3.4c-2.4-1.9-4.9-3.7-7.3-5.5c0,0-0.1-0.1-0.1-0.1
			c0,0,0,0,0,0l0.2,0.2c-2.5-0.3-4.6,0.7-6.6,1.9c-2,1.2-4.1,1.3-5.9,0.3c-1.9-1.1-3.2-0.4-4.6,0.5c0,0.1-0.1,0.2-0.1,0.4
			c-0.3,0.1-0.6,0.3-0.9,0.6c0.2-0.2,0.5-0.5,0.7-0.8c0.1-0.1,0.2-0.1,0.3-0.2c0.3-1.3,0.6-2.7,1-4c0.9-3.4,2.3-6.7,2.4-10.2
			c0-1,0.4-1.8,1.1-2.5c0-0.5-0.1-1-0.1-1.5c0-3-1.2-3.5-3.6-4.2c-1.3-0.3-2.5-0.2-3.8,0.1c-3.1,0.6-5.8,2.5-9,2.4
			c-2.8,0-4.9,1.2-6.7,3.2c-0.8,1-2.1,1.6-3,2.5c-2.5,2.7-3.2,5.8-2.1,9.3c0.2,0.8,0.5,1.5-0.6,1.7c-1.4,0.3-2.2,1.3-3.3,1.9
			c-1.3,0.8-1.8,1.8-1.4,3.3c0.4,1.5,0.9,3,1.4,4.5c0.1,0.5,0.2,1,0.3,1.5c0,0.2-0.2,0.6-0.3,0.6c-0.4,0.2-1.1,0.4-1.3,0.2
			c-2.3-2-3.5-6.8-2.5-9.2c0.1-0.2,0.2-0.5,0.3-0.7c0.5-0.9,0.8-2,1.4-2.8c1.4-1.8,1.7-3.7,1.5-5.8c-0.1-1.3,0.5-2.5,1.5-3.5
			c0.7-0.7,1.6-1.3,2.3-2.1c2.9-3.4,6.3-6.2,10.4-8c0.4-0.2,0.8-0.7,1-1.1c0.2-0.4,0.3-1.1,0-1.4c-0.7-0.8-1.4-1.6-2.3-2
			c-5.2-2.3-10.2-1.2-14.9,1.6c-2.2,1.3-4.1,3.1-6.2,4.7c-3.1,2.4-4.6,6.3-8,8.4c-0.4,0.3-0.7,0.7-1,1.2c-0.6,0.9-1.1,1.8-1.6,2.7
			c-0.5,0.9-0.7,2.1-1.4,2.7c-3.1,2.7-3.9,6.6-5.7,10.1c-0.9,1.7,0,3.6,1.9,4.4c1.9,0.8,3.9,1.5,5.8,2.4c0.6,0.3,1.2,1,1.6,1.6
			c0.2,0.3,0.2,1-0.1,1.3c-0.3,0.3-1,0.6-1.3,0.5c-1.4-0.7-2.6-1.6-4-2.3c-1.9-1-4.4,0.5-4.5,2.7c-0.1,1.3,0,2.6,0.1,3.9
			c0.2,1.9,1.6,3.2,2.6,4.7c0.9,1.2,2.3,1.1,3.5,1.3c0.8,0.1,1.5,0.2,2.3,0.3c1.4,0.3,2,1.4,2.4,2.7c1.3,1.5,2.6,2.7,4.9,2.3
			c1.7-0.3,2.6,0.7,2.8,2.3c1.6,0.4,3.3,0.3,4.6,1.5C569.8,187.4,570.6,187.1,571.3,187.2z M611.1,262.3c-0.4,0.1-0.9-0.2-1.4-0.4
			c-0.1,0-0.1-0.4-0.1-0.6c0.7-1.4,1.4-2.7,2.1-4.1c0.3-0.6,0.6-0.8,1.2-0.5c0.2,0.1,0.5,0.3,0.6,0.5c0.3,0.7,0.5,1.4,0.7,1.9
			C614.1,260.9,613,262,611.1,262.3z M647.4,194.4c0.6-0.1,1,0.1,1,0.8c0,0.8-0.3,1.3-1.1,1.5c0,0.1,0,0.2,0.1,0.3l-0.4,0.4l0.2-0.6
			c0.1,0,0.1-0.1,0.1-0.1c-0.2-0.6-0.3-1.2-0.5-1.9C646.8,194.8,647.2,194.5,647.4,194.4z M598.9,156.3c0.2-0.2,0.4-0.5,0.7-0.7
			c-0.2,0.2-0.4,0.5-0.5,0.9C599,156.4,598.3,157,598.9,156.3z M570.4,166.4l0.6,0.3l-0.6,0.2L570.4,166.4z"/>
		<path class="st0" d="M436.2,100.1c0.1,0,0.1-0.1,0.2-0.1c0,0-0.1,0-0.1,0c-0.1,0.1-0.1,0.1-0.2,0.1
			C436.1,100.2,436.2,100.2,436.2,100.1z"/>
		<path class="st0" d="M436.2,100.1c-1,0.7-2.1,1.1-3.4,1.2c-1.5,0.1-3,0.2-4.5,0.4c-0.2,0.4-0.5,0.7-0.8,1c-3.3,2.1-7,3.3-10.6,4.8
			c-1.7,0.7-3.3,1.6-3.5,3.7c-0.1,0.9-0.9,1.2-1.5,1.6c-1.1,0.7-2.3,1.2-3.3,2c-1.4,1.1-3.1,2.3-3.2,4.2c-0.1,1.2,0.8,2.4,1.2,3.6
			c0.1,0.2,0.2,0.5,0.2,0.7c0.3,1.1,1.1,1.8,2.2,1.9c2.3,0.3,4.6,0.5,6.9,0.7c0.2,0,0.4,0.4,0.5,0.6c0.1,0.6-0.2,1-0.8,1
			c-2.6,0.2-5.2,0.4-7.8,0.6c-1.6,0.1-3.1,0.5-4.3,1.5c-0.5,0.5-1,1.2-1.1,1.9c-0.1,1,0.1,2,0.2,3.1c0.2,2.8,0.5,3.6,4.2,4.5
			c4.3,1,8.5,2.2,13,2c0.7,0,1.6,0.1,2.2,0.5c3,2.1,5.9,4.3,7.6,7.6c0.3,0.6,0.4,1,0,1.3c-0.2,0.1-0.5,0.1-0.7,0.1
			c-3.9-0.4-7.5-1.8-11.1-3.5c-1.4-0.7-2.9-1.5-4.3-1.6c-3.6-0.3-7.3-0.3-10.9-0.3c-1.7,0-2.8,1.3-3.4,2.8c-0.9,2-0.9,4-0.8,6.1
			c0.3,3.8,2.1,6.3,5.8,7.5c1.7,0.6,3.5,0.9,5.2,1.6c0.5,0.2,1.1,1.4,0.9,1.9c-0.3,1.2-1.1,2.3-1.6,3.5c-0.3,0.7-0.6,1.5-0.5,2.2
			c0.2,1.5,0.6,3,1.1,4.5c0.1,0.4,0.7,0.8,1.1,0.9c0.7,0.2,1.5,0.2,2.3,0.2c3.6,0.3,7.3-0.3,10.8,0.9c2.2,0.7,4.1,0.4,6-0.6
			c1.2-0.6,2.3-1.1,3.5-1.7c1.6-0.9,3.4-1.4,5.2-1c2.2,0.4,4.1-0.3,5.9-1.5c0.8-0.6,1.8-1.1,2.7-1.5c0.6-0.3,1-0.1,1.3,0.5
			c0.1,0.2,0.3,0.4,0.3,0.7c0.4,1.4,1.6,2,2.7,2.6c1.7,0.9,0.9,2.9,2.1,4c0.2,0.2,0.4,0.4,0.6,0.5c2.5,0.8,4.9,1.7,7.4,2.3
			c2.5,0.5,5.1,0.7,7.7-0.1c1.3-0.4,2.4-1.1,2.8-2.4c0.7-2.5,0.9-4.9-1-7c-0.1,0-0.2,0-0.3,0c-0.4,0.6-0.8,1-1.6,1.1
			c-0.2,0-0.6,0.1-0.7-0.1c-0.5-0.5-0.4-0.8,0.4-0.9c0.6-0.1,1.3-0.1,1.9-0.1c0.1-0.1,0.1-0.1,0.2-0.2c0.1,0.1,0.1,0.2,0.2,0.2
			c0,0,0,0,0,0c0.5-0.6,0.8-1.3,1.4-1.8c0.6-0.5,1.6-0.8,2.1-0.2c1.1,1.3,3.1,1.6,4,3.2c2.2-0.4,3.7-1.6,4.5-3.7
			c0.6-1.5,0.6-3.1-0.3-4.5c-0.6-0.9-1.2-1.7-2-2.4c-1.2-1.1-1.9-2.5-2.1-4.1c-0.3-1.9-1.1-3.2-2.7-4.4c-1.7-1.3-1.9-3.6-2.6-5.6
			c-0.5-1.3-0.4-2.6,0.6-3.6c2.5-2.3,3.3-5.1,3.3-8.4c0-1.3,0.2-2.6,0.7-3.8c1.3-3.7,2.8-7.3,4.2-10.9c0.5-1.3,1.3-2.3,2.4-2.9
			c3.2-1.8,6-4.1,8.7-6.6c0.8-0.7,1.1-1.7,1.2-2.8c0.2-2.9-0.8-4.3-3.5-5.1c-1.5-0.4-3-0.9-4.5-1.2c-2-0.4-3.5,0.8-4.8,2
			c-1.1,1-0.8,2.2-0.5,3.6c0.4,1.6,0.4,3.3,0.5,5c0.1,0.1,0.1,0.2,0.2,0.3l0.2,0.3l-0.4-0.2c0-0.1,0-0.3,0-0.4
			c-0.2-0.4-0.4-0.7-0.6-1.1c-0.5-1.3-1.2-2.2-2.6-2.7c-0.7-0.2-1.5-0.4-2.2-0.8c-2.3-1.3-3.5-0.2-4.5,1.4c-0.7,1.1-1.4,2.2-1.8,3.4
			c-1.2,3.1-1.9,6.6-3.5,9.4c-1.8,3.1-1.8,6.5-3.1,9.6c-0.1,0.2-0.2,0.5-0.3,0.7c-0.1,0.2-0.2,0.5-0.3,0.7c-0.3,0.7-1.2,1.1-1.9,0.9
			c-0.6-0.2-1.4-1.2-1.2-1.8c0.8-2.7,1.4-5.5,2.5-8.1c1.6-3.8,1.7-7.5,0.5-11.4c-0.2-0.7-0.8-1.3-1.3-1.9c-0.7-0.7-2.4-0.4-2.6,0.5
			c-0.4,1.8-0.7,3.5-1,5.3c-0.2,0.9-0.8,1.5-1.5,1.3c-2.3-0.7-4.6-0.7-6.9-0.7c-0.7,0-1.1-0.1-0.8-0.5c0.1-0.2,0.4-0.2,0.7-0.3
			c1.1-0.6,2.3-1.2,3.4-1.9c0.8-0.5,1-1.9,0.6-2.8c-0.8-2-2.4-3.4-3.9-4.8c-1.6-1.6-3.1-1.7-4.8-0.4c-0.8,0.6-1.5,1.4-2.2,2.1
			c-0.6,0.6-1.3,0.7-2.1,0.6c-0.8-0.1-0.7-0.5,0.3-1.8c1.2-1.7,2.4-3.4,3.5-5.1c0.7-1.2,0.2-3-1.1-4.1c-0.4-0.3-0.9-0.5-1.4-0.8
			l0.3-0.2c-0.1,0-0.2,0-0.2,0c0,0.1,0,0.1,0,0.2C439.6,99.9,437.8,99.7,436.2,100.1z"/>
		<path class="st0" d="M620.7,42.2c0,0.1-0.1,0.1-0.1,0.2c0.1,0,0.1,0,0.2,0c0-0.1,0.1-0.2,0.1-0.3
			C620.8,42.1,620.7,42.1,620.7,42.2z"/>
		<path class="st0" d="M381.4,113.8c0,2.1-0.1,4.2-0.1,6.2c0,0.6,1,1.5,1.5,1.5c2.9-0.1,5.6-1.1,8.1-2.5c0,0-0.1-0.1-0.1-0.1
			l0.4-0.2l-0.2,0.4c0,0,0,0,0,0c0.8,1,1.7,1.8,3,1.7c1.3-0.1,2.6-0.2,3.6-1.1c0.8-0.7,1.5-1.4,2.1-2.2c0.9-1.2,1.7-2.6,2.7-3.8
			c1.5-1.7,3-3.4,5.7-3.4c1.1,0,2.4-1,3.3-1.8c1.2-1,2.1-2.3,3.3-3.2c0.8-0.6,1.7-1.3,2.7-1.4c2.8-0.3,5.5-1.2,8.2-2
			c1-0.3,2-0.3,3-0.4l-0.2,0.2c0,0,0.1,0,0.1,0c0,0,0.1-0.1,0.1-0.1c1.3-1.1,2.8-1.5,4.4-1.6c1.1-0.1,2.3,0,3.4,0
			c1.3-1.3,3-1.4,4.6-1.6c0.6-4.1,0.1-8.2-0.1-12.2c-0.1-2.2-1.4-3.9-2.9-5.3c-1-1-2.3-1.2-3.6-1.1c-2.2,0.1-4.1-0.7-5.7-2.2
			c-1-0.9-2.3-1.5-2.9-2.5c-1.8-2.8-4.1-3.6-7.3-3.1c-2.3,0.3-4.7,0-7,0.1c-1.3,0-2.6,0.2-3.8,0.5c-1.1,0.2-1.9,1.1-2.1,2.1
			c-0.4,1.5-0.6,3.1-0.7,4.6c-0.1,1.7-0.8,2.9-2.2,3.9c-2.5,1.9-4.8,4-7.2,6c-1.3,1-2.3,2.1-2.3,3.8c0,0.4-0.4,1-0.8,1.3
			c-4.3,2.5-7.7,6.1-11.5,9.1c-0.8,0.6-1.9,1.2-2.3,2c-0.6,1.4,1,2.2,1.6,3.2C380.9,110.2,381.4,111.9,381.4,113.8z"/>
		<path class="st0" d="M621.6,103c-0.9-0.7-1.4-1.3-1.9-2.3c-0.7-1.6-2-2.3-3.8-2.2c-2.4,0.1-4.7,0.2-6.8-1.2
			c-0.6-0.4-1.5-0.3-2.3-0.2c-3.3,0.3-6.7,0.6-10,1.1c-2.1,0.3-4,1.2-5.3-1.4c-0.5-0.9-1.7-1-2.7-1.3c-3-1.1-5.7-2.7-6.4-6.1
			c-0.3-1.6-1.4-2-2.7-2.3c-0.9-0.2-0.8-0.4-0.1-0.8c0.8-0.5,1.5-1.2,2.2-1.9c0,0,0,0,0,0l-0.3-0.2l0.5,0.1c-0.1,0-0.1,0.1-0.1,0.1
			c1.5,0.2,3,0.7,4.6,0.2c0.5-0.2,1.1-1.4,0.8-1.9c-0.3-0.4-0.4-1-0.8-1.3c-1.6-1.2-2.1-2.7-1.7-4.7c0.2-1.4-1.5-3.1-2.8-3.3
			c-1.3-0.2-2.6-0.1-3.9-0.2c-1.1-0.1-2-0.6-2.4-1.7c-0.3-1-0.6-2-0.9-3c-0.3-0.7-0.5-1.6-1-2.1c-2.1-1.6-3.6-3.7-6.1-4.7
			c-2.2-0.9-4.1-0.6-5.8,0.8c-1.1,0.8-1.9,2.2-1.5,3.4c1,3,1.6,6,1.8,9.1c0,0.4,0.5,0.9,0.9,1.1c2.1,0.9,4.3,1.7,6.5,2.5
			c2,0.8,2.2,1,2.1,2.7c0,1.5-0.1,3.1,0,4.7c0.1,2-0.5,3.6-2.2,4.7c-1.4,0.9-2.2,2.2-3.1,3.5c-2.2,3.1-2.5,6.8-2.3,10.4
			c0.1,2.5,3.3,2.3,4.4,4c0.1,0.2,0.3,0.4,0.5,0.6c1.8,1.6,3.7,1.7,5.8,0.5c0.5-0.2,0.9-0.5,1.4-0.6c0.6-0.1,0.9,0.2,0.7,0.9
			c-0.2,0.8-0.5,1.6-0.4,2.3c0.2,1.1,1.2,1.7,2.2,2c2.5,0.6,5.1,1.5,7.6,1.5c5,0,9.5,2.6,14.6,2.4c0.9,0,1.9,0.8,2.8,1.3
			c1.9,1.1,3.8,1.6,6,1.3c1.5-0.2,3.1-0.1,4.7-0.3c0.7-0.1,1.6-0.4,2.1-0.9c1.4-1.2,2.8-2.3,4.4-3.1c1.1-0.5,1.4-1.5,1.2-2.6
			c-0.1-1.1,0.3-1.9,0.9-2.8C624.9,107.8,624.5,105.2,621.6,103z"/>
		<path class="st0" d="M490.1,69.1c-2.3-0.5-4.6-0.9-6.8-1.5c-0.3-0.1-0.8-0.9-0.7-1.1c1.4-2.2-0.1-4.6,0.4-6.6
			c-0.1-2-0.1-3.8-0.4-5.6c-0.3-1.7-1.5-2.6-3.2-3c-1.5-0.4-1.5-0.5-1.5-2c0-2.4-0.9-3.6-2.8-3.9c-1.6-0.2-3.4-0.6-4.5,0.5
			c-2,1.9-4.7,2.2-6.7,3.7c-0.8,0.6-1.4,1.5-2,2.3c0.3,2-1,2.5-2.5,3.2c-1.1,0.5-2,1.6-2.9,2.5c-0.4,0.4-0.4,1.1,0.1,1.4
			c0.8,0.6,1.7,1.1,2.6,1.6c0.6,0.4,0.7,0.8,0.3,1.1c-0.2,0.1-0.5,0.2-0.7,0.2c-1.8-0.2-3.6-0.7-5.4-0.7c-1.7,0-3.1,1.5-3.7,3.4
			c-0.5,1.5,0.1,2.5,1.2,3.4c1,0.8,2,1.6,3.1,2.4c2.5,1.9,5,3.7,8.4,2c0.4-0.2,1.1-0.2,1.5,0c1.9,1.2,4,1.1,6,1.3
			c0.2,0,0.4,0.3,0.6,0.4c-0.2,0.1-0.5,0.3-0.7,0.3c-3.3,0.5-6.7,1.1-10,1.6c-0.9,0.1-1.7,1.2-1.9,2.2c-0.3,2.4,0.6,4.2,2.6,5.2
			c0.9,0.4,1.9,0.8,2.9,1c1.5,0.2,3.1,0,4.7,0.1c3,0.3,5.7-0.3,8.2-1.9c0.9-0.5,1.9-1.1,2.8-1.2c2.3-0.3,4.7-0.2,6.9-1
			c0.4-0.2,1,0,1.5,0.2c1.7,0.6,3.4,1.2,5,2c1.2,0.6,2.4,0.8,3.7,0.5c1-0.2,2-0.4,3.1-0.5c1.6-0.2,2.9-1,4.1-2.1
			c2.4-2.3,4.5-5,7.1-7.2c0.8-0.6,1.2-1.7,1.6-2.6c1.1-2.1,0.3-4.7-1.9-6.1c-0.4-0.2-1-0.3-1.5-0.2c-1.1,0.2-1.9,0.9-2.4,1.8
			c-0.4,0.6-0.8,0.9-1.2,0.4c-0.9-1.1-3-1.5-2.3-3.6c-0.8-1-1.6-2.1-0.3-3.4c0.7-0.8,1.1-1.8,1-2.9c-0.1-2.4,0.3-4.6,1.4-6.8
			c0.4-0.7,0-1.5-0.6-2.1c-0.8-0.7-1.9-0.8-2.8-0.1c-2.1,1.5-4.2,3.1-6.3,4.6c-1.2,0.9-1.4,2.1-1.3,3.5c0.1,0.8,0.3,1.5,0.5,2.3
			c0.5,1.6-0.4,2.4-1.6,3.1c-0.2,0.1-0.4,0.3-0.6,0.4c-1.4,0.8-1.4,2-1,3.4c0.2,0.5,0.4,1,0.5,1.5C492,68,491,69.3,490.1,69.1z"/>
		<path class="st0" d="M530,117.1c1-0.6,1.3-1.8,1-2.7c-0.4-1.1-1.2-1.8-2.2-2c-1.8-0.3-3.6-0.2-5.4-0.5c-0.9-0.1-1.8-0.6-2.7-1
			c0,0,0,0,0,0c-0.1,0-0.2,0-0.2-0.1l0.2,0.2c-0.5-0.6-1-1.2-1.6-1.6c-0.6-0.4-1.4-0.8-2-0.8c-1.3,0.1-2.5,0.4-3.8,0.9
			c-0.7,0.2-1.6,0.7-1.8,1.3c-0.7,1.8-2.1,2.8-3.6,3.9c-0.7,0.5-0.7,1.3-0.5,2.1c0.2,0.7,0.4,1.6,0.8,2.2c1.7,2.6,0.8,5-0.6,7.3
			c-0.4,0.7-1.5,0.8-2,0.3c-1.2-1.4-1.7-3.2-2.4-4.8c-0.4-1.1-1.4-1.5-2.5-1.4c-3,0.1-4.9,1.8-5.2,4.7c-0.2,2.1-0.4,4.1-0.5,6.2
			c0,0.8,0.4,1.5,1.2,1.8c1.8,0.7,2.9,2.2,3.4,4c1,3.2,2.4,6.3,2.3,9.8c0,1.8,0.9,3.5,2.2,4.8c0.8,0.8,2,1,2.8,0.3
			c1.2-1,2.2-2.3,3.5-3c1.3-0.8,2.9-0.9,4.4-1.5c1.4-0.6,2.8-1.3,4.2-2.1c0.6-0.4,1.3-1,1.5-1.7c0.8-2.5,2.1-4.6,4-6.6
			c1.3-1.4,1.5-3.3,1-5.1c-0.3-1.3-0.8-2.5-1.2-3.7c-0.5-1.6-1.5-2.6-3-3.4c-0.6-0.3-0.6-0.8,0.1-1.1c1.4-0.6,2.9-1.1,4.3-1.7
			c1-0.4,1.9-1.2,1.9-2.2C527.8,118.2,529,117.8,530,117.1z"/>
		<path class="st0" d="M678.5,437.6c0.1,0.1,0.1,0.1,0.1,0.2c0,0,0,0,0,0C678.6,437.7,678.6,437.7,678.5,437.6z"/>
		<path class="st0" d="M676.4,425.9c0.2-0.6,0-1.5-0.3-2.1c-0.4-0.6-1.1-1.1-1.6-1.6c-0.6-0.5-1.2-1-2.1-0.5c-0.7,0.4-1.4,0.7-2,1.1
			c-1.7,1-3.5,0.7-5.2,0.3c-1-0.2-1.4-0.9-1.2-2.4c0-0.3,0.1-0.5,0.2-0.8c0.1-1.5-0.6-2.5-2-2.7c-0.7-0.1-1.4-0.1-2.1-0.1
			c0,0.1-0.1,0.1-0.1,0.2l-0.3,0.2l0.1-0.4c0.1,0,0.2,0,0.3,0c0.8-2.2,2.2-4,3.9-5.4c1.7-1.4,2.3-3.4,3.4-5.1
			c0.2-0.3,0.2-0.9,0.2-1.4c0-0.4-1.4-0.8-2.1-0.6c-2.6,0.6-4.8,1.8-6.6,3.9c-3.7,4.4-6.8,9.1-9.6,14.1c-1.4,2.6-3.2,4.6-6,5.6
			c-0.9,0.3-0.8,1.1-0.3,1.8c0.7,1,0.5,1.8-0.3,2.7c-0.9,0.9-1.7,1.9-2.5,2.9c-0.4,0.5,0.1,1.8,0.7,1.9c0.7,0.2,1.5,0.6,2.2,0.5
			c2.6-0.2,5.2-0.4,7.7,0.3c2.1,0.6,4,0.6,6.1,0.1c2.2-0.5,3.9,1,5.8,1.7c0.1,0,0.1,0.5-0.1,0.6c-0.7,0.8-1.5,1.4-2.1,2.2
			c-0.2,0.3-0.2,1,0,1.4c0.2,0.4,0.9,0.7,1.3,0.6c1.1,0,2-0.5,2.6-1.4c1.3-2.1,3.8-2.5,5.5-4.1c0,0,0.5,0.3,0.5,0.5
			c-0.2,1.3-0.5,2.5-0.6,3.8c-0.1,0.4,0.1,1.2,0.4,1.4c1.5,1,2.9,2.2,4.8,2.3c0.9,0.1,2.3-0.5,2.7-1.3c0.7-1.7,1.3-3.4,1.9-5
			c0.6-1.4-0.1-2.3-0.9-3.2c-0.1,0-0.2,0.1-0.4,0.1c-0.1,0.1-0.2,0.3-0.3,0.4c0-0.1,0-0.3,0.1-0.4c0.1,0,0.1,0,0.2,0
			c0.1-0.1,0.1-0.2,0.2-0.3c-0.9-1-1.9-1.3-3.2-1c-0.5,0.1-0.8-0.5-0.7-1c0.2-0.7,0.6-1.4,1-2c0.6-0.8,1.5-1.4,2.2-2.2
			c0.1-0.1,0.1-0.5,0.1-0.7c-0.2-0.6-0.6-0.8-1.2-0.7c-0.7,0.1-1.5,0.7-2.1-0.2c-0.4-0.7,0-1.5,0.5-2.1
			C675.5,427.2,676.2,426.6,676.4,425.9z"/>
		<path class="st0" d="M436.4,43.3c2.6,0.6,4,1.3,5.4,2c1.2,0.6,2,1.6,2.8,2.5c0.9,1,2.6,1.2,3.6,0.5c1.3-0.9,2.4-2,3.7-2.9
			c0.3-0.2,1-0.2,1.4,0c0.8,0.3,1.5,0.4,2.1-0.3c1.2-1.7,2.2-3.5,3.6-5.1c1.3-1.6,2.8-3,4.3-4.4c0.3-0.3,0.8-0.3,1.3-0.4
			c0.7-0.1,0.7,0.9,0,2c-1.1,1.8-2.2,3.5-3.3,5.3c-0.5,1-0.3,2,0,3c0.3,0.9,1.8,1.5,2.6,1c0.6-0.4,1.4-0.8,1.7-1.5
			c0.9-1.8,2.3-2.7,4.3-2.9c0.8-0.1,1.5-0.4,2.2-0.8c0.7-0.3,1.6-0.7,1.8-1.3c1.2-2.8,4.5-4.3,4.9-7.7c0.1-0.6,1-1.2,1.6-1.6
			c0.6-0.4,1.4-0.6,2.1-1c0.8-0.4,1.1-1.1,1.2-1.9c0.1-1,0.1-2.1,0-3.1c-0.1-1.1-0.9-2.6-1.5-2.5c-0.7,0.2-1.5,0.4-2,0.9
			c-1,1.1-1.9,1.7-2.7,1c-2.3-2-4.5-1.5-6.5-2c-1.6-0.4-3.1,0-4.4,1c-5.3,3.8-10.7,7.2-17.1,9c-1.5,0.4-2.8,1.5-4.3,1.7
			c-2.7,0.4-4.8,1.7-7.1,3c-2.1,1.3-2.5,3.2-2.6,5.3C435.4,42.6,436,43.2,436.4,43.3z"/>
		<path class="st0" d="M523.6,57.5c-0.5,0.9-1,1.8-1.2,2.8c-0.4,1.7-0.5,3.6-1.8,5c-0.3,0.3-0.5,1-0.4,1.4c0.4,2.5,1.4,4.9,0.3,7.5
			c-0.1,0.1,0.7,0.6,1,0.9c0.4,0.3,1.1,0.8,1,1c-0.5,2.6,1.2,3.1,3.1,3.3c2.3,0.3,4.6,0.5,6.9,0.8c0.2,0,0.5,0.3,0.5,0.4
			c-0.2,0.5-0.4,1.1-0.7,1.3c-0.9,0.4-1.9,0.7-2.9,1c-1.4,0.4-2.1,1.4-2.3,2.8c-0.2,1-0.3,2-0.4,3.1c-0.1,1,0.7,2.1,1.6,2.4
			c2,0.6,4,1.2,6,1.6c2,0.5,4.2-0.7,5.2-2.6c0.2-0.4,0.3-1,0.5-1.5c0.7-1.9,2.1-2.7,4-2.9c0.6-1.6,1-3.2,1.8-4.6
			c0.9-1.5,2.1-2.9,3.2-4.3c0.2-0.2,0.4-0.4,0.5-0.6c1.2-2.2,2.4-4.5,3.5-6.7c0.2-0.4,0.1-1,0-1.5c-0.3-1-0.8-1.9-1.2-2.8
			c-0.4-0.7-1.1-1.2-1.8-1c-2,0.6-3.2-0.5-4.3-1.9c-2.1-0.5-4.2-0.6-6.3,0c-0.8,1.2-1.7,2.5-1.6,4.1c0,1.8,0,3.6,0,5.4
			c0,0.2-0.1,0.6-0.3,0.7c-0.3,0.3-0.6,0-0.8-0.7c-0.7-1.9-1.4-3.8-2.3-5.7c-0.1-0.3-0.8-0.6-1.3-0.6c-0.4,0-1.1,0.3-1.3,0.6
			c-1.1,2.3-2.1,4.6-3.1,6.8c0,0.1,0.1,0.1,0.1,0.2l-0.4,0.1l0.3-0.2c0,0,0-0.1,0-0.1c-0.8-1.2-1.5-2.5-0.8-4.1
			c0.3-0.7,0.8-1.6,0.6-2.2c-0.8-2-0.9-3.9-0.8-6c0-0.5-0.1-1-0.3-1.5c-0.3-0.7-0.7-1.4-1-2.1C525.8,56.8,524,56.7,523.6,57.5z"/>
		<path class="st0" d="M546,28.4c1.5,0.2,2.9,0.3,4.2,1.2c0,0.1,0,0.2,0,0.2c0.1,0,0.1-0.1,0.2-0.1c0.7,0.6,1.4,1.3,2.1,1.8
			c3.2,2.4,4.9,5.1,2.8,9.2c-0.6,1.2,0,2.5,1.1,3.4c1.4,1.1,3.1,1.2,4.3,0.4c2-1.4,3.4-3.1,3.9-5.5c0.6-3.1,1.6-5.9,4.1-8.1
			c0.7-0.6,1.2-1.7,1.6-2.6c0.8-2,1-4-0.7-5.7c-0.7-0.7-1.3-1.5-0.8-2.7c0.2-0.5,0.2-1,0.2-1.5c0-3.6-1.4-5-4.7-3.5
			c-0.5,0.2-1,0.4-1.5,0.5c0,0,0,0.1,0,0.1c0.1,0.6-0.1,0.7-0.5,0.2c0.2-0.1,0.3-0.2,0.5-0.3c0.2-1.5,0.5-3,0.4-4.5
			c-0.1-2.5-2.1-4.4-4.5-4.4c-1.5,0-3.1,0.4-4.6,0c-0.4-0.1-1,0.3-1.3,0.7c-1.6,1.4-3,2.9-2.2,5.4c0.2,0.6-0.2,1.4-0.3,2.2
			c-0.4,1.6-0.3,1.7,1.6,2.6c0,0,0-0.1,0-0.1c0.1,0,0.2-0.1,0.3-0.1c0.1-0.2,0.1-0.4,0.1-0.4c0.4,0.1,0.4,0.2-0.1,0.4
			c0,0.1-0.1,0.2-0.1,0.3c-0.1,0-0.1-0.1-0.2-0.1c0.2,1,0.4,2,0.4,3c0,0.7-0.3,1.5-0.5,2.2c-0.3,0.9-1.1,1.3-1.8,1
			c-0.9-0.5-1.8-1-2.7-1.4c-0.8-0.3-1.6,0-2.1,0.5c-0.5,0.5-1,1.2-1.3,1.9C543.1,26.4,544,28.1,546,28.4z"/>
		<path class="st0" d="M520.8,647.1c0.9-0.2,1.2-1.8,0.4-2.6c-0.7-0.7-1.4-1.6-2.3-2c-5.2-2.4-10.2-5.1-15.6-7
			c-1.7-0.6-3.4-1.4-4.9-2.3c-1.8-1.1-3.6-2.1-5.6-2.7c-1-0.3-2-0.7-2.7-1.4c-2.2-2.3-5-2.9-7.8-2.8c-2.2,0-4-0.5-6-1.3
			c-1.1-0.5-2.6-1-3.7-0.6c-3.5,1-7.1,1.2-10.5,2.7c-3.3,1.5-4.9,4.5-7,7.1c0,0,0.3,0.4,0.5,0.4c1,0,2.2,0.2,3-0.3
			c3.6-2,7.9-2.5,11.3-4.9c0.7-0.5,2.3,0,2.7,0.8c0.6,1.3,1.5,2.1,2.9,2.3c1.8,0.4,3.6,0.7,5.3,1.1c1.3,0.3,2.6,0.5,3.7,1.1
			c2.3,1.3,4.8,1.9,7.4,2.2c1.4,0.1,2.4,0.9,3,2.2c1.1,2.7,3.2,3.9,6,4.3c0.2,0,0.5,0.2,0.7,0.3c0.8,0.3,1,1,0.5,1.9
			c-0.2,0.5-0.5,0.9-0.8,1.3c-0.6,1.1-0.1,2.2,1.1,2.3c1.8,0.1,3.6,0,6.8,0C512.5,650.3,516.6,648.2,520.8,647.1z"/>
		<path class="st0" d="M523.9,660.5c1.5-0.1,3.1-0.4,4.6-0.3c1.8,0.1,3.6,0.3,5.4,0.6c1.7,0.3,2.3,2,3.6,2.8c0.4,0.2,1,0.2,1.4,0
			c0.4-0.2,0.9-0.6,1.1-1c1.2-1.9,2.9-2.9,5.2-2.5c0.7,0.1,1.6,0.1,2.3-0.3c3-1.6,6-1.4,9-0.6c0.5-0.1,1.1-0.1,1.5-0.3
			c0.6-0.4,1.1-1,1.4-1.7c0.1-0.3-0.2-1.1-0.6-1.3c-2.9-1.7-5.5-3.8-8.1-5.9c-0.8-0.6-1.8-1-2.8-1.2c-3.5-0.9-7-1.7-10.7-0.3
			c-1.2,0.5-2.5-0.1-3.7-0.9c-0.4-0.3-0.8-0.6-1.3-0.8c-1-0.5-2.2,0.1-3.2,1.5c-0.5,0.7-0.4,1.6,0.3,2c1.8,1.1,1.7,3,2.2,4.7
			c0.2,0.9,0,1.2-1.4,0.6c-1.3-0.6-1.8,0.5-2.7,0.7c-2,0.4-4.1,0.5-6.1,0.9c-0.2,0-0.6,0.9-0.5,1.2
			C521.4,659.7,522.6,660.6,523.9,660.5z"/>
		<path class="st0" d="M604.9,140.4c0.7,1.8,0.5,3.4,0,5.2c-0.8,2.9,2.4,5.6,5,5.4c1.5-0.1,3-0.6,4.5-0.7c1.2-0.1,2.3,0.2,3.1,1.2
			c1.8,0.1,3.6,0.3,5.3,0.4c0.6,0,1.6-0.9,1.5-1.5c-0.1-2.9-0.4-5.7-1.2-8.5c-0.8-3-2.7-5.1-5.8-5.7c-2.9-0.6-5.5-1.5-8-2.9
			c-0.8-0.5-2,0-2.6,1c-0.6,1-1.2,2.1-1.8,3.1C605,138.5,604.6,139.6,604.9,140.4z"/>
		<path class="st0" d="M605.2,137.5C605.2,137.5,605.2,137.5,605.2,137.5c0,0-0.1,0.1-0.1,0.1c0,0,0,0,0,0.1
			C605.1,137.7,605.1,137.6,605.2,137.5z"/>
		<path class="st0" d="M570.7,45.3c0.2,1.2,1,1.7,2.1,2c2.8,0.7,5.6,0.7,8.4,0.3c0.6-0.1,1.3-0.8,1.7-1.4c0.8-1.2,0.7-2.9,1.8-3.9
			c0.1,0.1,0.1,0.1,0.2,0.2c0-0.1,0-0.2,0-0.4l-0.2,0.2c1.3-1.9,1.6-3.9,0.1-5.8c-1.6-2.1-2.7-4.4-3.7-6.8c-0.3-0.7-0.8-1.3-1.2-2
			c-0.6-1-2.7-1.3-3.5-0.5c-2.8,2.8-5.1,5.9-4.9,10.1c0.1,1.7-0.8,2.9-1.3,4.3C569.9,42.6,570.5,44,570.7,45.3z"/>
		<path class="st0" d="M545.1,93.6c-1.4,1.3-1.4,3.5,0,4.8c1.9,1.8,3.8,3.4,5.8,5c0.4,0.3,0.9,0.4,1.4,0.6c1.5,0.6,3.3,0,3.9-1.4
			c0.8-1.9,1.5-3.8,2.1-5.8c0.3-1,0.5-2,0.5-3c0.1-2.2-0.8-4-2.3-5.5c-1-0.9-2.4-0.9-3.6-0.9c-0.8,0-1.5,0.1-2.3,0.1
			C549.1,90,547,91.7,545.1,93.6z"/>
		<path class="st0" d="M550.5,87.5c0-0.1,0.1-0.2,0.2-0.2c-0.1,0-0.3,0.1-0.4,0.1C550.3,87.5,550.4,87.5,550.5,87.5
			C550.5,87.6,550.5,87.5,550.5,87.5z"/>
		<path class="st0" d="M508.4,15.1c2,0.5,3.9,1.1,5.1,3c2.1,0,2.9,2,4.4,2.8c3.2,1.9,7.2,0.2,7.7-3.3c0.2-1,0.2-2,0.3-3.1
			c0-0.3,0.1-0.5,0.1-0.8c0.1-2.6-1.3-4-3.7-3.6c-2.3,0.4-4.5,0.8-6.9,0.6c-1.8-0.1-3.6,0.3-5.3,0.6c-0.7,0.1-1.4,0.6-2,1.1
			c-0.3,0.3-0.6,0.9-0.5,1.3C507.7,14.3,508.1,15,508.4,15.1z"/>
		<path class="st0" d="M591.1,223c-0.6,2.3,0.8,4.1,3.2,4.2c4.3,0.2,7.5-1.6,9.2-5.6c0.5-1.2,1-2.4,1.4-3.6c0.3-0.9-0.5-2.7-1.5-3.3
			c-1.9-1.2-4.1-1.3-5.9-0.1c-2.8,1.9-4.9,4.6-6.3,7.7C591.1,222.5,591.1,222.7,591.1,223z"/>
		<path class="st0" d="M220,333.1c-0.8-0.4-2.2,0.2-2.8,0.9c-0.8,1.1-1.3,2.3-1.3,3.6c0,1.5,0.3,3.1,0.4,4.6c-0.1,0-0.1,0-0.2,0
			c0.1,1.3,0.4,2.6,0.4,3.8c-0.2,3.3,1,6.1,2.5,8.8c0.2,0.4,0.8,0.7,1.2,0.9c0.2,0.1,0.5,0.1,0.7,0c0.2-0.1,0.5-0.4,0.5-0.6
			c-1.5-4.2-0.3-8.1,0.9-12.1c0.7-2.2,1.6-4.4,2.3-6.6c0.1-0.4-0.2-1.1-0.5-1.3C222.8,334.5,221.4,333.8,220,333.1z"/>
		<path class="st0" d="M57.4,163.3c0.7,0.3,1.4,0.8,2.1,0.8c1.7,0.1,2.9,0.7,3.5,2.4c0.5,1.4,1.1,2.9,1.7,4.3c0.2,0.6,1.2,1,2,0.8
			c1.5-0.4,2.9-0.9,4.4-1.3c0.2-0.1,0.4-0.3,0.6-0.5c0-0.3,0.1-0.5,0-0.7c-0.9-1.8-2.2-3.6-2.7-5.5c-0.7-2.7-2.2-3.7-4.8-4.1
			c-1.1-0.2-2.1-1.3-3.2-1.9c-0.3-0.2-1.1-0.1-1.3,0.2c-1.1,1.1-2.4,2-2.8,3.6C56.5,161.9,56.8,163,57.4,163.3z"/>
		<path class="st0" d="M581,59.5c1.3-0.2,2.4-0.8,3.3-1.8c0.4-0.4,0.5-1.7,0.1-2.1c-3-2.9-6.3-5.2-10.6-5.5
			c-1.7-0.1-3.5,0.9-4.2,2.7c-0.4,0.9,0,2.3,0.7,2.8c3,2.1,6.4,3.1,9.9,3.9C580.5,59.5,580.8,59.5,581,59.5z"/>
		<path class="st0" d="M546,278c0.3-0.3,0.2-1,0.1-1.5c-0.2-0.4-0.6-0.9-1-1c-0.7-0.2-1.5-0.2-1.6-0.2c-1.7,0.1-2.7,0-3.7,0.2
			c-0.7,0.1-1.6,0.3-2.1,0.8c-1.2,1-2.3,2-3.4,3.2c-0.5,0.6-0.6,1.4-0.2,2.2c0.3,0.7,0.7,1.5,1.5,1.6c1,0.1,2.1,0.3,3,0
			C541.6,282.3,544,280.4,546,278z"/>
		<path class="st0" d="M615.1,416.4c-0.2,0.1-0.7,0.2-1.2,0.4c-0.6,0.2-0.5,1.3,0.2,2c0.3,0.4,0.7,0.7,1.1,1.1
			c1.4,1.5,2.7,3.1,4.7,3.8c1.9,0.7,3.9,1.2,5.9,1.7c0.2,0.1,0.6,0,0.7-0.1c0.4-0.3,0.7-0.6,1-0.9c0.1-0.2,0.1-0.6-0.1-0.7
			C624.5,419.3,620.4,417.1,615.1,416.4z"/>
		<path class="st0" d="M458.6,49.5c-0.1-0.2-0.1-0.5-0.3-0.6c-0.5-0.2-1-0.5-1.4-0.4c-4.1,0.7-7.7,2.6-10.9,5.2
			c-1,0.8-0.8,2.4,0.5,3.2c0.9,0.6,2,1,2.9,0.4c3.1-2.2,6.1-4.6,9.1-7C458.5,50.1,458.5,49.8,458.6,49.5z"/>
		<path class="st0" d="M500,657.5c-1,0.2-2.5,0.4-4,0.7c-0.6,0.1-0.8,0.8-0.5,1.2c2.2,3.4,5.3,4.7,9.2,3.5c0.7-0.2,1.4-0.5,2.1-0.8
			c0.7-0.3,0.9-1.4,0.5-1.9C505.8,657.7,503.3,657.4,500,657.5z"/>
		<path class="st0" d="M62.9,221.1c1.5-0.4,2.9-2.7,2.5-4.2c-0.2-0.8-1.5-2-2.7-2c-1.8,0.3-4,0.6-6.2,1.1c-0.3,0.1-0.6,0.8-0.6,1.2
			c0,1,0.4,2,1.2,2.7C58.8,221.3,60.8,221.7,62.9,221.1z"/>
		<path class="st0" d="M575,658.1c-0.9-0.3-2-0.2-3.4-0.4c-1.1,0.2-2.7,0.2-4.1,0.6c-0.6,0.1-1,1.1-1.3,1.7c-0.2,0.5,0.4,1.6,1,1.8
			c0.5,0.2,0.9,0.5,1.4,0.6c2.9,0.5,5.5,0,7.9-1.7c0.5-0.4,0.6-0.9,0.2-1.3C576.2,658.9,575.6,658.3,575,658.1z"/>
		<path class="st0" d="M529.5,48.7c0.5,0.5,1.7,0.2,2.1-0.3c1.6-2.5,1.5-5.4,2-8.4c0-0.5,0-1.3-0.2-2c-0.1-0.4-0.5-0.9-0.9-1
			c-0.4-0.1-1.1,0.3-1.2,0.6c-1,2-2,4.1-2.8,6.2c-0.3,0.9-0.3,2-0.1,3C528.4,47.6,529,48.2,529.5,48.7z"/>
		<path class="st0" d="M554.7,282.7c-2.5,1.6-3.6,4.5-2.7,7.2c0.2,0.6,1,1,1.5,1.4c0.6-0.2,1.2-0.3,1.5-0.6c1-1.2,1.8-2.4,2.7-3.7
			c0.3-0.4,0.4-0.9,0.6-1.4c0.4-0.9,0.1-2.1-0.7-2.8C556.8,282.2,555.6,282.1,554.7,282.7z"/>
		<path class="st0" d="M611.4,448.6c-0.1,0-0.1,0-0.2-0.1c0,0.1,0,0.1,0,0.2c0.1,0,0.2,0,0.3,0C611.5,448.7,611.4,448.7,611.4,448.6
			z"/>
		<path class="st0" d="M616.1,451.8c1,0,2,0,3,0c0.3-4.7,0.6-3.6-3.1-5.3c-2.1-0.9-4.3-1.5-5.8-3.4c-0.1-0.1-0.8,0.3-1.2,0.5
			c-0.1,0.1-0.2,0.5-0.1,0.7c0.8,1.5,1.7,2.9,2.6,4.4c0.8,0.2,1.7,0.5,2.5,0.8C615.1,449.8,615.8,450.6,616.1,451.8z"/>
		<path class="st0" d="M616.1,451.8c-0.1,0-0.1,0-0.2,0c0.1,0,0.2,0.1,0.3,0.1c0,0,0,0,0,0C616.1,451.9,616.1,451.8,616.1,451.8z"/>
		<path class="st0" d="M19.3,298.9c-0.5,0-1.1,0-1.4,0.3c-2,2-3.8,4.1-5.7,6.2c-0.1,0.1,0,0.5,0.1,0.6c0.1,0.2,0.4,0.4,0.6,0.4
			c2.9-0.2,5.5-1.3,7.6-3.3c0.5-0.4,0.6-1.4,0.8-1.8C21.2,300.2,20.2,299,19.3,298.9z"/>
		<path class="st0" d="M586.9,7.1c0.3,0.6,1.5,0.7,2,0.1c1.2-1.4,2.4-2.7,2.9-4.5c0.1-0.4-0.1-1-0.4-1.4c-0.7-0.9-1.6-1.2-2.7-1.3
			c-2.3,0.5-4.5,2.6-2.8,5C586.2,5.7,586.5,6.4,586.9,7.1z"/>
		<path class="st0" d="M589.4,66c0,0.2,0.2,0.4,0.4,0.6c1.1,0.8,2.4,0.9,3.6,0.3c1.2-0.6,1.9-1.6,2.1-2.7c0.2-2-1.6-3.9-3.3-3.7
			c-0.5,0-1,0.3-1.3,0.6C589.7,62.5,589.4,64.2,589.4,66z"/>
		<path class="st0" d="M8,303.5c-0.7-0.1-1.6-0.1-2.2,0.3c-2.1,1.5-4,3.3-5.5,5.4c-0.4,0.5-0.4,1,0.2,1.3c0.2,0.1,0.5,0.1,0.7,0.1
			c3-1,5.5-2.8,7.5-5.2c0.1-0.2,0.1-0.5,0.2-0.7C8.5,304.2,8.3,303.6,8,303.5z"/>
		<path class="st0" d="M545.8,40.8c0.7,1.8,2,2.9,4,3c1.3,0,2.5-1.1,2.3-2.4c-0.2-2.2-2-3.8-4-3.8C546.5,37.6,545.3,39.4,545.8,40.8
			z"/>
		<path class="st0" d="M497.3,25c-0.1,0.1-0.1,0.1-0.2,0.2L497.3,25c-0.3,1-0.5,2-0.9,3c-0.5,1.3-0.4,2.5,0.4,3.7
			c0.7,1.1,1.5,2.1,2.3,3.1c0.7,0.9,1.6,1.3,2.6,1.4c1,0.2,2.1,0.3,3.1,0.3c1.9,0,3.5-0.7,4.8-2.1c1.1-1.2,2-2.4,2.2-4
			c0.2-1.2,1-1.7,1.9-2.2c1.1-0.6,2.2-1.2,3.2-2c0.5-0.3,0.5-0.9,0.1-1.4c-0.3-0.4-0.6-0.9-1-1.1c-3.2-1.1-6.5-1.7-9.9-2
			c-2.7-0.2-5.1,0.3-7.4,1.8l0.2-0.2c-0.1,0.1-0.1,0.1-0.2,0.2l0,0c-0.2,0.2-0.5,0.5-0.7,0.7c0.2-0.2,0.5-0.5,0.7-0.7
			c-0.1-1.5-0.1-3-0.3-4.5c-0.1-0.9-1.5-1.5-2.4-1.3c-1.1,0.2-1.8,0.9-2.1,1.9c-0.4,1.2-0.4,2.5,0.2,3.6
			C494.8,24.6,496,24.8,497.3,25z"/>
		<path class="st0" d="M537.6,353.4c1.8-0.4,3.4-1.3,4.4-2.9c0.2-0.4,0.1-1-0.1-1.5c-0.5-1.2-1.4-1.7-2.4-1.4c-1,0.3-2,0.6-2.9,1
			c-1.2,0.4-1.3,1.4-1.1,2.4c0,0.3-0.1,0.5,0,0.8C535.5,352.8,536.6,353.6,537.6,353.4z"/>
		<path class="st0" d="M527.3,111.4c0.9-0.2,1.8-0.8,2.6-1.4c0.3-0.2,0.3-0.9,0.4-1.4c0-0.1-0.3-0.4-0.6-0.5c-2-0.7-4-0.2-6.1-0.1
			c-1.7,0.1-2.5,1.3-3,2.8C522.9,111.5,525.1,111.9,527.3,111.4z"/>
		<path class="st0" d="M509.3,84.2c1.3,0.2,2.7-0.3,3.2-1.4c0.6-1.2,0.7-2.4,0-3.5c-0.3-0.5-0.6-0.8-1.2-0.6
			c-1.7,0.5-3.2,1.9-3.7,3.4C507.4,82.7,508.5,84.1,509.3,84.2z"/>
		<path class="st0" d="M567.1,271.9c-0.8,0.5-0.6,1.8,0.4,3.3c0.3,0.4,0.6,0.8,1,1c0.6,0.4,1.4,0.7,2.1,0.2c0.6-0.4,1-1.1,1.3-1.5
			c0-1.3-0.4-2.2-1.4-2.7C569.5,271.7,568.4,271.1,567.1,271.9z"/>
		<path class="st0" d="M517.7,379.7c-0.6,0.3-1.1,1-1.4,1.7c-0.1,0.3,0.1,1.1,0.4,1.3c1.1,0.5,2.4,0.8,3,1c0.8,0.1,1.1,0.1,1.3,0.1
			c0.5-0.2,0.9-0.3,1.3-0.6c0.5-0.3,0.4-1.5,0-2.1C521.3,379.4,519.2,378.8,517.7,379.7z"/>
		<path class="st0" d="M125.3,258.5c-1.2,1.2-2.8,2.1-3.2,4c1.7,0.5,3.4,0.7,5.1,0.1c0.5-0.1,0.9-0.5,1.3-0.8
			c0.5-0.5,0.3-2.2-0.3-2.9C127.5,258.2,125.9,257.9,125.3,258.5z"/>
		<path class="st0" d="M122,262.7c-1.1,0.7-2.2,1.4-3.6,1.1c-1.4-0.4-2.5,0.1-3.1,1.5c-0.2,0.4-0.7,0.7-1.1,0.9
			c-0.2,0.1-0.5-0.1-0.8,0c-5.4,0.8-6.6,2.2-6.7,7.5c0,0.8,0.4,1.3,1,1.9c0.5,0.5,0.6,1.4,1.1,1.9c0.3,0.3,1.2,0.5,1.4,0.3
			c2.6-2.5,5.5-4.4,9-5.7c1.6-0.6,2.6-2.2,4.3-3c1.1-0.5,1.4-2.1,1.2-3.4c-0.1-0.8-0.7-1.2-1.4-1.6
			C122.9,263.7,122.5,263.2,122,262.7c0-0.1,0.1-0.1,0.1-0.2c-0.1,0-0.2,0-0.3-0.1L122,262.7z"/>
		<path class="st0" d="M600.1,712.8c-0.1,1.1,0.7,2,1.8,1.9c1.4,0,2.5-0.9,2.7-2.3c0.2-1.3-0.7-2.6-2-2.8c-1.1-0.2-2,0.5-2.3,1.6
			C600.2,711.7,600.1,712.2,600.1,712.8z"/>
		<path class="st0" d="M592.3,199.8c-0.4,0.3-0.9,0.5-1.3,0.8c-1.2,0.9-3,0.9-3.8,2.4c-0.2,0.4-0.2,0.9-0.1,1.4
			c0,0.2,0.4,0.5,0.6,0.5c0.7,0,1.7,0.3,2.2-0.1c1.3-0.8,2.4-1.9,3.6-2.8c0.6-0.5,0.7-1.7,0.3-2
			C593.3,199.5,592.9,199.4,592.3,199.8z"/>
		<path class="st0" d="M610.9,222.7c0.4-0.1,0.7-0.7,1-1c-0.1-0.5,0-1.1-0.3-1.4c-0.8-1.1-1.9-1.6-3.3-1.5c-0.9,0-1.4,0.5-1.7,1.3
			c-0.3,0.8,0.1,1.5,0.7,2C608.4,222.8,609.6,223.2,610.9,222.7z"/>
		<path class="st0" d="M678.5,989.7c0,0,0.1,0,0.1,0c0,0,0-0.1,0-0.2c0,0-0.1,0-0.1,0C678.5,989.6,678.5,989.6,678.5,989.7z"/>
		<path class="st0" d="M673.8,992.8c-0.8,0.9-1.6,1.8-2.3,2.7c-0.4,0.5-0.5,1.2-0.7,1.8c4.2-0.5,6.6-3.1,7.7-7c0.1-0.2,0-0.4,0-0.6
			c-0.6,0.3-1.3,0.4-1.9,0.8C675.7,991.2,674.8,992,673.8,992.8z"/>
		<path class="st0" d="M673.8,992.8c0.1-0.1,0.1-0.1,0.2-0.2c-0.1,0-0.1,0-0.2,0C673.8,992.7,673.8,992.8,673.8,992.8
			C673.8,992.9,673.8,992.8,673.8,992.8z"/>
		<path class="st0" d="M167.3,242.4c0.1-0.1,0.1-0.1,0.2-0.2c-0.1,0-0.1,0-0.2,0C167.3,242.3,167.3,242.4,167.3,242.4
			C167.3,242.4,167.3,242.4,167.3,242.4z"/>
		<path class="st0" d="M480.2,181c-0.9,0.4-1.9,0.7-2.7,1.3c-0.8,0.6-1.1,1.6-0.8,2.7c0.2,0.6,0.7,0.9,1.2,0.6
			c1.5-0.9,2.8-2.1,3.2-3.9c-0.1-0.2-0.2-0.5-0.4-0.6C480.6,181.1,480.3,181,480.2,181z"/>
		<path class="st0" d="M615.1,310.5c-0.6,0.5-1,1.1-1.5,1.7c-0.1,0.2-0.2,0.6,0,0.7c0.3,0.3,0.8,0.5,1.3,0.8
			c0.6-0.4,1.3-0.7,1.8-1.3c0.3-0.3,0.4-1,0.3-1.4C616.8,310.4,615.7,310,615.1,310.5z"/>
		<path class="st0" d="M542.3,60c-0.1-0.2-0.3-0.4-0.5-0.5c-1.5-0.3-3-0.4-4.2,0.7c-0.2,0.2-0.3,1.1-0.1,1.2c0.5,0.5,1.2,0.7,1.9,1
			c0.9-0.6,1.9-1.2,2.8-1.9C542.3,60.6,542.4,60.2,542.3,60z"/>
		<path class="st0" d="M539.4,62.6c-0.1,0.1-0.2,0.1-0.2,0.2c0.1,0,0.1,0,0.2,0C539.3,62.6,539.4,62.6,539.4,62.6
			C539.4,62.6,539.4,62.6,539.4,62.6z"/>
		<path class="st0" d="M548.3,237c-0.3,0.3-0.8,0.5-0.9,0.8c-0.1,0.4-0.1,1.1,0.2,1.4c0.6,0.8,1.2,1.5,1.9,2.3
			c0.1,0.1,0.5,0.2,0.7,0.1c0.6-0.1,0.8-0.6,0.6-1.1C550.4,239.1,549.9,237.6,548.3,237z"/>
		<path class="st0" d="M635.9,299.1c-0.4,0-0.9,0.1-1.2,0.4c-0.5,0.5-1.1,1.1-1.2,1.8c-0.1,0.6,0.3,1.4,0.7,1.9
			c0.2,0.3,1.1,0.6,1.3,0.4c0.5-0.4,0.9-1.1,1.2-1.5c-0.2-0.9-0.3-1.7-0.4-2.4C636.3,299.4,636.1,299.1,635.9,299.1z"/>
		<path class="st0" d="M482,39.9c-0.1,0.4,0.2,0.9,0.5,1.4c0.4,0.7,1.2,0.9,1.9,0.9c0.8,0,1.4-0.5,1.5-1.4c-0.2-0.4-0.3-1.1-0.6-1.2
			c-0.6-0.3-1.4-0.5-2.1-0.5C482.7,39.1,482.1,39.6,482,39.9z"/>
		<path class="st0" d="M548.6,87.9c0.5-0.2,1.1-0.3,1.7-0.5c-1.8-1.7-3.9-1.5-6.1-1.3C545.4,89.1,545.4,89.1,548.6,87.9z"/>
		<path class="st0" d="M544.2,86.1c0-0.1,0-0.1-0.1-0.2c0,0-0.1,0-0.1,0c0,0.1,0,0.1-0.1,0.2C544,86.2,544.1,86.2,544.2,86.1z"/>
		<path class="st0" d="M605,682.9c-0.2-0.3-1-0.5-1.3-0.3c-0.3,0.2-0.6,0.9-0.5,1.3c0.3,0.7,0.8,1.2,1.4,1.7
			c0.2,0.1,0.8-0.4,1.4-0.7C605.7,684.1,605.5,683.4,605,682.9z"/>
		<path class="st0" d="M604,672.3c-0.3-0.3-0.6-0.9-1-0.9c-1.1-0.1-2,0.4-2.5,1.4c-0.1,0.3,0.3,1.1,0.6,1.2
			C602.4,674.5,603.7,673.5,604,672.3z"/>
		<path class="st0" d="M574.9,270.3c-0.6,0.1-0.8,0.6-0.6,1.2c0.4,1,1,1.9,2,2.1c0.5,0.1,1.2-0.5,1.7-0.7c0-0.5,0-0.8-0.1-1
			C577.3,270.6,576.3,270,574.9,270.3z"/>
		<path class="st0" d="M500.9,612.3c-0.8,0-1.6,1.3-1.4,2.3c0.1,0.8,0.7,1.2,1.5,1.3c0.7,0.1,1.4-0.6,1.4-1.3
			C502.3,613.3,501.6,612.3,500.9,612.3z"/>
		<path class="st0" d="M507.9,603.6c1.3-1,0.9-3.4-0.7-4.2c-0.2,0.1-0.6,0.1-0.6,0.2c-0.6,1.5-0.3,2.8,0.6,4.1
			C507.3,603.8,507.7,603.8,507.9,603.6z"/>
		<path class="st0" d="M498.3,599.5c-0.2,0.2-0.2,0.9-0.1,1.3c0,0.2,0.4,0.4,0.6,0.4c1.1,0.1,2-0.5,2.8-1.1c0.2-0.1,0.2-0.5,0.2-0.7
			c-0.2-0.2-0.4-0.4-0.6-0.5C500.2,598.7,499.1,598.7,498.3,599.5z"/>
		<path class="st0" d="M529,640.9c0.2-0.1,0.6-0.3,0.5-0.5c-0.1-0.5-0.1-1-0.5-1.3c-0.6-0.5-1.4-0.5-2,0c-0.3,0.3-0.7,0.9-0.6,1.2
			c0.1,0.3,0.7,0.5,1.1,0.8C528.1,641.1,528.6,641,529,640.9z"/>
		<path class="st0" d="M601.8,201.2c0-0.2-0.8-0.5-1.2-0.5c-0.7,0.1-1.4,0.6-1.4,1.4c0,0.6,0.5,1.1,0.7,1.7c0.7-0.2,1.4-0.3,1.5-0.6
			C601.8,202.6,601.9,201.8,601.8,201.2z"/>
		<path class="st0" d="M547.3,1102.9c0.2-0.1,0.4-0.4,0.4-0.6c-0.1-1-0.3-1.9-1.2-2.4c-0.4,0.3-0.9,0.5-1.1,0.8
			c-0.4,1,0.1,1.8,1.2,2.3C546.8,1103,547.1,1103,547.3,1102.9z"/>
		<path class="st0" d="M605.6,689.6c-0.1-0.6-0.4-0.8-1-0.7c-0.2,0-0.4,0.3-0.5,0.5c-0.2,0.5,0,1,0.6,1
			C605,690.4,605.3,689.9,605.6,689.6z"/>
		<path class="st0" d="M558.7,82.6c-1-0.2-1.8,0.8-1.5,2c0,0.2,0.3,0.5,0.5,0.5c0.9,0.1,2.1-1.1,1.6-2
			C559.1,82.9,558.9,82.6,558.7,82.6z"/>
		<path class="st0" d="M552.6,181.5c-0.4,0.5,0.3,1.4,1.1,1.6c1.4,0.3,2.3-0.3,2.8-1.6c-0.9-0.2-1.8-0.5-2.7-0.6
			C553.4,180.8,552.8,181.1,552.6,181.5z"/>
		<path class="st0" d="M556.5,181.4c0.1,0,0.2,0,0.2,0.1c0,0,0,0,0-0.1c0,0-0.1-0.1-0.1-0.1C556.6,181.4,556.5,181.4,556.5,181.4z"
			/>
		<path class="st0" d="M222.5,325c-0.2-1-0.7-1.6-1.3-1.4c-0.5,0.2-0.8,1.1-0.4,1.9c0.2,0.3,0.7,0.5,1.1,0.7
			C222.1,325.7,222.3,325.3,222.5,325z"/>
		<path class="st0" d="M631.6,98.6c0.1,0,0.1,0,0.2,0c0-0.1,0-0.1,0-0.2c0,0-0.1,0-0.1,0.1C631.6,98.5,631.6,98.6,631.6,98.6z"/>
		<path class="st0" d="M629.9,101.1c0.4,0,1.1-0.2,1.3-0.5c0.3-0.6,0.3-1.3,0.4-2c-0.7-0.2-1.3,0-1.8,0.6
			C629.1,99.9,629.2,101,629.9,101.1z"/>
		<path class="st0" d="M550.2,1106.9c-0.2-0.4-0.8-0.7-1.2-0.8c-0.6,0-0.8,0.5-0.7,1.1c0.2,0.9,0.5,1.8,0.7,2.6c0.5-0.5,1-1,1.3-1.5
			C550.5,1108,550.4,1107.3,550.2,1106.9z"/>
		<path class="st0" d="M549,1109.9c0,0-0.1,0.1-0.1,0.1c0,0.1,0,0.1,0.1,0.2c0.1,0,0.1,0,0.2,0C549,1110.1,549,1110,549,1109.9z"/>
		<path class="st0" d="M551.5,1151.2c-0.8,0.3-0.8,1.5,0,1.9c0.6,0.3,1.3,0.4,1.9,0.5c0-1,0-2,0-2.9
			C552.8,1150.8,552.1,1151,551.5,1151.2z"/>
		<path class="st0" d="M465.5,185.9c0.1,0.2,0.4,0.4,0.6,0.5c0.6,0.1,1-0.1,1-0.7c0-0.6-0.4-0.8-1-0.8
			C465.5,184.9,465.2,185.3,465.5,185.9z"/>
		<path class="st0" d="M517.8,617.9c-0.3-0.3-0.7-0.6-1-0.9c-0.1,0.4-0.3,0.8-0.4,1.2c0,0.1,0.3,0.4,0.5,0.5
			C517.5,618.7,517.8,618.4,517.8,617.9z"/>
		<path class="st0" d="M502.9,620.8c0.3-0.2,0.4-0.7,0.7-1.1c-0.3-0.4-0.6-0.7-0.8-1c-0.3,0.3-0.8,0.6-0.9,0.9
			C501.6,620.4,502.4,621.2,502.9,620.8z"/>
		<path class="st0" d="M523.9,628.7c0-0.1,0-0.1,0-0.2c-0.1,0-0.2-0.1-0.3-0.2c0,0.1,0.1,0.2,0.1,0.3
			C523.7,628.7,523.8,628.7,523.9,628.7z"/>
		<path class="st0" d="M525.4,630.1c0.2-0.1,0.4-0.3,0.4-0.5c0.2-0.5-0.1-0.9-0.7-1c-0.4,0-0.8,0-1.2,0.1c0.1,0.4,0.1,0.9,0.3,1.2
			C524.4,630.5,524.9,630.5,525.4,630.1z"/>
		<path class="st0" d="M467.2,634.9c-0.2,0.6,0,1,0.5,1.3c0.6,0.3,1,0.1,1.3-0.5c-0.2-0.5-0.2-1.1-0.6-1.3
			C468,634,467.5,634.3,467.2,634.9z"/>
		<path class="st0" d="M614.1,693.4c-0.1,0.6,0.2,1,0.8,1c0.2,0,0.4-0.3,0.6-0.4c0.1-0.6-0.2-1-0.8-1
			C614.5,693.1,614.2,693.3,614.1,693.4z"/>
		<path class="st0" d="M596.6,195.6c-0.3-0.4-0.7-0.4-1.2,0c-0.2,0.1-0.3,0.4-0.4,0.5c0.3,0.2,0.7,0.3,1,0.5
			C596.7,196.4,596.9,196.1,596.6,195.6z"/>
		<path class="st0" d="M526.5,125.2c-0.4,0.2-0.9,0.4-1,0.7c-0.1,0.4,0.1,1,0.4,1.3c0.4,0.4,1.5-0.3,1.4-1.1
			C527.2,125.9,526.8,125.6,526.5,125.2z"/>
		<path class="st0" d="M172.8,241.3c-0.2,0.1-0.4,0.4-0.4,0.6c-0.2,1,0.4,1.6,1.2,1.4c0.2-0.1,0.4-0.3,0.5-0.5
			C174.2,242,173.4,241,172.8,241.3z"/>
		<path class="st0" d="M608.4,284.5c-0.4,0.1-0.9,0.6-0.9,0.9c0,0.4,0.4,0.8,0.8,1.1c0.5,0.3,1,0.1,1.2-0.5c0.1-0.4,0.2-0.9,0.2-1.3
			C609.3,284.6,608.8,284.4,608.4,284.5z"/>
		<path class="st0" d="M430.1,580.1c0-0.1-0.1-0.1,0-0.2c0,0-0.1,0-0.1,0.1c0,0,0,0.1,0,0.1C430,580.1,430,580.1,430.1,580.1z"/>
		<path class="st0" d="M431.2,581.7c0.6,0.3,1.1,0.1,1.2-0.5c0.1-0.2-0.1-0.6-0.2-0.7c-0.7-0.2-1.3-0.3-2-0.5
			C430.1,580.9,430.5,581.4,431.2,581.7z"/>
		<path class="st0" d="M545.1,103.4c0.1,0,0.2-0.3,0.1-0.5c0-0.1-0.2-0.1-0.4-0.2C544.5,103.2,544.6,103.5,545.1,103.4z"/>
		<path class="st0" d="M476.9,104.2c0.1,0.1,0.3-0.1,0.5-0.1c-0.1-0.1-0.1-0.4-0.2-0.4C476.7,103.7,476.5,103.9,476.9,104.2z"/>
		<path class="st0" d="M286.3,121.9c-0.1,0-0.1,0-0.2,0c0,0,0,0,0,0.1c0,0,0.1,0.1,0.1,0.1C286.2,122,286.3,121.9,286.3,121.9z"/>
		<path class="st0" d="M288.2,121.6c0.1-0.1,0.1-0.5,0.1-0.5c-0.4-0.1-0.9-0.4-1.2-0.2c-0.3,0.2-0.5,0.6-0.7,1
			c0.4,0,0.8,0.1,1.2,0.1C287.8,121.9,288,121.8,288.2,121.6z"/>
		<polygon class="st0" points="587.3,212.7 587.1,212.2 586.9,212.7 		"/>
		<path class="st0" d="M549.6,31.2c0.9-0.2,0.8-0.7,0.7-1.3c-0.3,0.2-0.6,0.5-0.9,0.8C549.3,30.7,549.5,31.2,549.6,31.2z"/>
		<path class="st0" d="M488.9,159.9c0.1,0,0.2-0.3,0.2-0.5c-0.1-0.2-0.2-0.4-0.3-0.5c-0.1,0-0.4,0.1-0.4,0.3
			C488.2,159.7,488.4,160,488.9,159.9z"/>
		<path class="st0" d="M585.8,43.8c0.1-0.1,0.1-0.5,0-0.7c-0.2-0.3-0.6-0.5-0.9-0.7c0,0.4,0,0.7,0,1.1
			C585,44.2,585.4,44.3,585.8,43.8z"/>
		<path class="st0" d="M612.2,50.1c0.1-0.2,0.2-0.5,0.1-0.6c-0.3-0.3-0.6-0.5-0.9-0.7C611.5,49.3,611.5,49.8,612.2,50.1z"/>
		<path class="st0" d="M478.2,173.6c0.1-0.1,0.1-0.1,0.2-0.2c0-0.1-0.1-0.1-0.2-0.2c0,0,0,0-0.1,0
			C478.2,173.4,478.2,173.5,478.2,173.6z"/>
		<path class="st0" d="M478.1,175.5c0.1,0,0.2-0.5,0.2-0.7c0-0.4,0-0.7-0.1-1.1c-0.3,0.3-0.6,0.6-0.7,1
			C477.2,175.3,477.5,175.6,478.1,175.5z"/>
		<path class="st0" d="M603,679.3c0.1,0,0.2-0.3,0.3-0.5c-0.1-0.2-0.2-0.4-0.3-0.5c-0.1,0-0.4,0.1-0.5,0.2
			C602.3,679.1,602.5,679.4,603,679.3z"/>
		<path class="st0" d="M518.4,624.6c-0.1,0.2-0.4,0.3-0.4,0.5c0,0.2,0.2,0.4,0.3,0.6c0.1-0.2,0.4-0.3,0.4-0.5
			C518.7,625,518.5,624.8,518.4,624.6z"/>
		<path class="st0" d="M600.3,701.3c0.6,0.4,0.9,0.3,0.8-0.3c0-0.1-0.4-0.2-0.6-0.2C600.4,700.8,600.4,701.1,600.3,701.3z"/>
		<path class="st0" d="M24,298.3c0,0.2,0.2,0.4,0.3,0.6c0.1-0.2,0.3-0.4,0.4-0.5c-0.1-0.2-0.2-0.4-0.3-0.6
			C24.3,298,24,298.1,24,298.3z"/>
		<path class="st0" d="M217,295.6c0.1,0,0.1-0.4,0.1-0.6c0-0.3,0-0.6,0-0.9c-0.2,0.3-0.4,0.6-0.6,0.9
			C216.3,295.5,216.5,295.8,217,295.6z"/>
		<path class="st0" d="M674,778.6c0-0.1-0.1-0.1-0.1-0.2c-0.1,0-0.1,0-0.1,0c0,0.1,0,0.1,0,0.1C673.8,778.6,673.9,778.6,674,778.6z"
			/>
		<path class="st0" d="M676.9,780c-0.6-1.2-1.6-1.4-2.8-1.4C674.5,780,675.6,780.1,676.9,780z"/>
		<path class="st0" d="M625.4,1190.8c0.1,0.1,0.4-0.2,0.6-0.3c-0.2-0.1-0.4-0.4-0.5-0.4C624.7,1190.3,624.7,1190.5,625.4,1190.8z"/>
		<path class="st0" d="M577.1,196.9l-0.2,0.2c0,0,0,0.1,0.1,0.1c0,0,0.1,0,0.1,0.1L577.1,196.9z"/>
		<path class="st0" d="M523.3,628.2c0.1,0.1,0.2,0.1,0.3,0.2C523.6,628,523.5,627.9,523.3,628.2z"/>
		<polygon class="st0" points="591.6,660.6 592.1,660.7 591.9,660.2 		"/>
		<path class="st0" d="M63.9,292.6c0.1,0,0.1-0.1,0.2-0.1l-0.2-0.2C64,292.4,64,292.5,63.9,292.6z"/>
		<path class="st0" d="M63.8,293c0-0.1,0.1-0.3,0.1-0.4C63.4,292.7,63.4,292.9,63.8,293z"/>
		<path class="st0" d="M89.4,276.9l-0.3-0.3c0,0,0,0-0.1,0c0,0,0,0.1-0.1,0.1L89.4,276.9z"/>
		<path class="st0" d="M723.5,26.4c0.2,0.1,0.3,0.2,0.5,0.3c0,0,0,0,0,0c0.1-0.1,0.1-0.1,0.2-0.2C723.9,26.4,723.7,26.4,723.5,26.4z
			"/>
		<path class="st0" d="M546,62.3l-0.6,0.2c0.1,0.1,0.1,0.1,0.2,0.2c0,0,0,0,0,0L546,62.3z"/>
		<path class="st0" d="M165.6,242.9c0,0.1,0.1,0.3,0.1,0.4c0-0.2,0-0.4,0-0.7C165.6,242.7,165.6,242.8,165.6,242.9z"/>
		<path class="st0" d="M165.7,243.2c0,0.3,0,0.5,0,0.8l0.2-0.1c-0.7,0.8-1.4,1.5-2,2.3c-0.7,0.9-0.8,1.8,0,1.9
			c0.5,0.1,1.1,0.2,1.4,0c1.7-1.2,3.2-2.6,4.3-4.4c0.2-0.4-0.1-0.9-0.7-1c-0.5-0.1-1-0.2-1.5-0.3c-0.5,0.5-1,1-1.4,1.4
			C165.8,243.7,165.8,243.5,165.7,243.2z"/>
		<path class="st0" d="M238.3,362.1c0.3,0.2,0.6,0.3,0.9,0.5C239.2,362.1,239.3,361.4,238.3,362.1z"/>
		<path class="st0" d="M664.6,237.8c0,0.4,0,0.8,0,1.2C665.1,238.5,665.1,238.3,664.6,237.8z"/>
		<path class="st0" d="M632.2,97.6c-0.4,0.1-0.6,0.4-0.5,0.8c0.3-0.1,0.6-0.3,0.9-0.4C632.5,97.8,632.3,97.5,632.2,97.6z"/>
		<polygon class="st0" points="534.2,101.1 534,100.6 533.7,101 		"/>
		<path class="st0" d="M578.3,1188.2c0.1,0,0.2,0,0.3,0c0,0,0-0.1,0-0.1c0,0-0.1,0-0.1,0C578.4,1188.1,578.4,1188.2,578.3,1188.2z"
			/>
		<path class="st0" d="M578.3,1188.2c-0.4,0-0.8,0-1.2,0C577.6,1188.9,577.8,1188.9,578.3,1188.2z"/>
	</g>
	<g>
		<g>
			<path class="st1" d="M641.1,990.7c-8.7,0-15.7,7-15.7,15.7c0,3.4,1.1,6.7,3.1,9.4l11.6,15.6c0,0,0.1,0.1,0.1,0.1
				c0.6,0.6,1.4,0.5,1.8-0.1c3.3-4.5,9.5-12.8,11.8-15.9c0,0,0,0,0,0l0,0c1.9-2.7,2.9-5.8,2.9-9.1
				C656.8,997.7,649.8,990.7,641.1,990.7z M641.1,1013.5c-3.9,0-7.1-3.2-7.1-7.1s3.2-7.1,7.1-7.1s7.1,3.2,7.1,7.1
				S645,1013.5,641.1,1013.5z"/>
		</g>
	</g>
	<g>
		<g>
			<path class="st1" d="M548.2,996.4c-8.7,0-15.7,7-15.7,15.7c0,3.4,1.1,6.7,3.1,9.4l11.6,15.6c0,0,0.1,0.1,0.1,0.1
				c0.6,0.6,1.4,0.5,1.8-0.1c3.3-4.5,9.5-12.8,11.8-15.9c0,0,0,0,0,0l0,0c1.9-2.7,2.9-5.8,2.9-9.1
				C563.9,1003.4,556.9,996.4,548.2,996.4z M548.2,1019.2c-3.9,0-7.1-3.2-7.1-7.1s3.2-7.1,7.1-7.1s7.1,3.2,7.1,7.1
				S552.2,1019.2,548.2,1019.2z"/>
		</g>
	</g>
	<g>
		<g>
			<path class="st1" d="M232.6,436.1c-8.7,0-15.7,7-15.7,15.7c0,3.4,1.1,6.7,3.1,9.4l11.6,15.6c0,0,0.1,0.1,0.1,0.1
				c0.6,0.6,1.4,0.5,1.8-0.1c3.3-4.5,9.5-12.8,11.8-15.9c0,0,0,0,0,0l0,0c1.9-2.7,2.9-5.8,2.9-9.1
				C248.3,443.2,241.2,436.1,232.6,436.1z M232.6,458.9c-3.9,0-7.1-3.2-7.1-7.1s3.2-7.1,7.1-7.1c3.9,0,7.1,3.2,7.1,7.1
				S236.5,458.9,232.6,458.9z"/>
		</g>
	</g>
	<g>
		<g>
			<path class="st1" d="M273,456.3c-8.7,0-15.7,7-15.7,15.7c0,3.4,1.1,6.7,3.1,9.4l11.6,15.6c0,0,0.1,0.1,0.1,0.1
				c0.6,0.6,1.4,0.5,1.8-0.1c3.3-4.5,9.5-12.8,11.8-15.9c0,0,0,0,0,0l0,0c1.9-2.7,2.9-5.8,2.9-9.1
				C288.7,463.4,281.6,456.3,273,456.3z M273,479.2c-3.9,0-7.1-3.2-7.1-7.1s3.2-7.1,7.1-7.1c3.9,0,7.1,3.2,7.1,7.1
				S276.9,479.2,273,479.2z"/>
		</g>
	</g>
	<g>
		<g>
			<path class="st1" d="M320.3,437.6c-8.7,0-15.7,7-15.7,15.7c0,3.4,1.1,6.7,3.1,9.4l11.6,15.6c0,0,0.1,0.1,0.1,0.1
				c0.6,0.6,1.4,0.5,1.8-0.1c3.3-4.5,9.5-12.8,11.8-15.9c0,0,0,0,0,0l0,0c1.9-2.7,2.9-5.8,2.9-9.1C336,444.6,329,437.6,320.3,437.6z
				 M320.3,460.4c-3.9,0-7.1-3.2-7.1-7.1c0-3.9,3.2-7.1,7.1-7.1c3.9,0,7.1,3.2,7.1,7.1C327.5,457.2,324.3,460.4,320.3,460.4z"/>
		</g>
	</g>
</g>
</svg>
